<svg width="782" height="219" viewBox="0 0 782 219" fill="none" xmlns="http://www.w3.org/2000/svg">
<path d="M712.4 200.259V189.649H763.912V200.259H712.4ZM746.61 144L782 217H768.139L735.993 148.867H741.007L708.861 217H695L730.39 144H746.61Z" fill="#141414"/>
<path d="M662.505 149.937H675.495V217H662.505V149.937ZM632 144H706V155.291H632V144Z" fill="#141414"/>
<path d="M614.783 209.213L609.516 209.797V144H622V217H605.615L554.315 151.203L559.484 150.619V217H547V144H563.775L614.783 209.213Z" fill="#141414"/>
<path d="M530.162 175.147V185.853H478.884V175.147H530.162ZM487.398 180.5L482.211 213.107L476.046 205.904H533V217H469L474.872 180.5L469 144H532.511V155.096H476.046L482.211 147.893L487.398 180.5Z" fill="#141414"/>
<path d="M455 144V217H442.637V147.893L446.66 148.088L412.417 217H398.583L364.34 148.185L368.363 147.991V217H356V144H375.82L408.787 211.452H402.311L435.18 144H455Z" fill="#141414"/>
<path d="M278.2 200.259V189.649H329.12V200.259H278.2ZM312.017 144L347 217H333.298L301.522 148.867H306.478L274.702 217H261L295.983 144H312.017Z" fill="#141414"/>
<path d="M244.687 209.213L239.35 209.797V144H252V217H235.397L183.412 151.203L188.65 150.619V217H176V144H192.999L244.687 209.213Z" fill="#141414"/>
<path d="M106.027 176.899H135.955C140.273 176.899 143.674 175.925 146.16 173.979C148.711 172.032 149.987 169.372 149.987 165.997C149.987 162.558 148.711 159.898 146.16 158.016C143.674 156.069 140.273 155.096 135.955 155.096H104.163L109.952 147.893V217H97V144H137.133C142.301 144 146.814 144.941 150.674 146.823C154.599 148.64 157.641 151.203 159.799 154.512C162.024 157.756 163.136 161.585 163.136 165.997C163.136 170.28 162.024 174.076 159.799 177.385C157.641 180.63 154.599 183.193 150.674 185.075C146.814 186.892 142.301 187.8 137.133 187.8H106.027V176.899ZM120.55 182.836H135.759L165 217H149.496L120.55 182.836Z" fill="#141414"/>
<path d="M42 219C33.6651 219 26.3395 217.383 20.0233 214.15C13.707 210.917 8.7907 206.431 5.27442 200.69C1.75814 194.884 0 188.154 0 180.5C0 172.846 1.75814 166.149 5.27442 160.409C8.7907 154.602 13.707 150.083 20.0233 146.85C26.3395 143.617 33.6651 142 42 142C50.3349 142 57.6605 143.617 63.9767 146.85C70.293 150.083 75.2093 154.602 78.7256 160.409C82.2419 166.149 84 172.846 84 180.5C84 188.154 82.2419 194.884 78.7256 200.69C75.2093 206.431 70.293 210.917 63.9767 214.15C57.6605 217.383 50.3349 219 42 219ZM42 207.321C47.9256 207.321 53.0372 206.233 57.3349 204.055C61.6326 201.878 64.9535 198.777 67.2977 194.752C69.707 190.727 70.9116 185.976 70.9116 180.5C70.9116 175.024 69.707 170.273 67.2977 166.248C64.9535 162.223 61.6326 159.122 57.3349 156.945C53.0372 154.767 47.9256 153.679 42 153.679C36.1395 153.679 31.0279 154.767 26.6651 156.945C22.3674 159.122 19.014 162.223 16.6047 166.248C14.2605 170.273 13.0884 175.024 13.0884 180.5C13.0884 185.976 14.2605 190.727 16.6047 194.752C19.014 198.777 22.3674 201.878 26.6651 204.055C31.0279 206.233 36.1395 207.321 42 207.321Z" fill="#141414"/>
<path d="M333 17.1852C333 7.69407 340.694 0 350.185 0H431.815C441.306 0 449 7.69407 449 17.1852V98.8148C449 108.306 441.306 116 431.815 116H350.185C340.694 116 333 108.306 333 98.8148V17.1852Z" fill="#FF2B2B"/>
<path d="M231.654 9.56375C238.276 -1.8546 254.724 -1.85457 261.346 9.56378L308.646 91.1211C315.305 102.602 307.045 117 293.8 117H199.2C185.955 117 177.695 102.602 184.354 91.1211L231.654 9.56375Z" fill="#FFD400"/>
<path fill-rule="evenodd" clip-rule="evenodd" d="M471 59.0007L471.026 58.4209L471.105 57.8426L471.236 57.2671L471.418 56.696L471.65 56.1304L471.93 55.5718L472.258 55.0214L472.63 54.4803L473.046 53.9495L473.502 53.43L473.995 52.9227L474.524 52.4283L475.086 51.9474L475.677 51.4805L476.294 51.028L476.935 50.5902L477.597 50.1671L478.276 49.7589L478.97 49.3656L479.675 48.9868L480.389 48.6224L481.11 48.2719L481.834 47.9351L482.559 47.6113L483.283 47.3001L484.003 47.0007L484.717 46.7125L485.424 46.4347L486.122 46.1666L486.809 45.9073L487.482 45.6561L488.142 45.412L488.786 45.1742L489.414 44.9417L490.024 44.7137L490.615 44.4892L491.187 44.2672L491.738 44.0469L492.269 43.8271L492.777 43.607L493.264 43.3855L493.727 43.1617L494.167 42.9344L494.583 42.7027L494.975 42.4656L495.343 42.2218L495.685 41.9703L496.002 41.71L496.293 41.4395L496.558 41.1578L496.796 40.8634L497.007 40.5551L497.19 40.2313L497.345 39.8905L497.471 39.5312L497.568 39.1516L497.634 38.7498L497.669 38.3239L497.672 37.8716L497.641 37.3907L497.576 36.8787L497.475 36.3327L497.336 35.7497L497.159 35.1264L496.939 34.4591L496.677 33.7438L496.368 32.9759L496.011 32.1504L495.602 31.2618L495.137 30.3037L494.612 29.2692L494.023 28.1503L493.364 26.9381L492.63 25.6224L491.814 24.1917L490.907 22.6327L489.901 20.9304L488.786 19.0674L489.066 18.5408L490.959 19.6557L492.688 20.6611L494.271 21.5676L495.724 22.384L497.06 23.1181L498.291 23.7768L499.426 24.3661L500.476 24.8912L501.448 25.3568L502.35 25.7669L503.187 26.1252L503.966 26.4348L504.692 26.6987L505.369 26.9193L506.001 27.0988L506.592 27.2392L507.145 27.3423L507.664 27.4097L508.152 27.4427L508.61 27.4426L509.042 27.4104L509.449 27.3472L509.833 27.2539L510.197 27.1312L510.543 26.9797L510.87 26.8002L511.183 26.5933L511.481 26.3593L511.766 26.0988L512.039 25.8123L512.303 25.5001L512.557 25.1626L512.804 24.8003L513.043 24.4136L513.277 24.0028L513.507 23.5683L513.733 23.1107L513.956 22.6304L514.178 22.1279L514.4 21.6038L514.622 21.0588L514.846 20.4935L515.072 19.9088L515.302 19.3055L515.536 18.6845L515.775 18.047L516.021 17.3941L516.274 16.7271L516.535 16.0475L516.804 15.3566L517.084 14.6563L517.373 13.9483L517.675 13.2345L517.987 12.5171L518.313 11.7982L518.652 11.0802L519.004 10.3655L519.37 9.65677L519.751 8.9566L520.147 8.26782L520.557 7.59329L520.983 6.93591L521.423 6.29865L521.879 5.6845L522.348 5.09641L522.832 4.53736L523.33 4.01019L523.841 3.51774L524.364 3.06268L524.898 2.64755L525.443 2.27471L525.997 1.94633L526.56 1.66438L527.13 1.43051L527.706 1.24616L528.286 1.11247L528.869 1.03025L529.454 1L530.039 1.02194L530.622 1.09591L531.203 1.22146L531.779 1.3978L532.35 1.62386L532.914 1.89828L533.47 2.21939L534.017 2.58527L534.553 2.99382L535.078 3.44269L535.59 3.92937L536.09 4.45118L536.576 5.00536L537.048 5.58902L537.506 6.19922L537.949 6.833L538.377 7.48737L538.789 8.15937L539.187 8.84607L539.571 9.54461L539.939 10.2522L540.294 10.9661L540.635 11.6837L540.962 12.4027L541.277 13.1205L541.58 13.8349L541.872 14.544L542.153 15.2457L542.424 15.9381L542.686 16.6197L542.94 17.2888L543.187 17.9441L543.427 18.5841L543.662 19.2078L543.892 19.8139L544.119 20.4017L544.343 20.9701L544.565 21.5184L544.787 22.0459L545.009 22.5518L545.232 23.0357L545.458 23.497L545.687 23.9351L545.92 24.3497L546.159 24.7404L546.404 25.1066L546.657 25.448L546.919 25.7642L547.191 26.0549L547.474 26.3196L547.77 26.5578L548.079 26.7691L548.405 26.953L548.747 27.109L549.108 27.2363L549.489 27.3344L549.892 27.4024L550.32 27.4396L550.774 27.4448L551.257 27.4172L551.77 27.3554L552.318 27.2581L552.903 27.1237L553.529 26.9505L554.198 26.7367L554.915 26.4799L555.686 26.1777L556.513 25.8274L557.404 25.4257L558.365 24.9693L559.402 24.4539L560.523 23.8752L561.738 23.2279L563.056 22.5062L564.49 21.7034L566.051 20.8119L567.756 19.8228L569.622 18.7262L570.403 18.7545L569.27 20.645L568.247 22.3716L567.325 23.9524L566.495 25.4026L565.748 26.7358L565.078 27.9637L564.478 29.0969L563.943 30.1443L563.469 31.114L563.051 32.0132L562.686 32.8484L562.37 33.6251L562.1 34.3485L561.874 35.0232L561.69 35.6532L561.545 36.2424L561.438 36.7941L561.368 37.3114L561.332 37.797L561.329 38.2537L561.359 38.6836L561.42 39.0891L561.512 39.4722L561.633 39.8346L561.784 40.1782L561.963 40.5046L562.169 40.8153L562.403 41.1118L562.664 41.3955L562.951 41.6676L563.263 41.9295L563.602 42.1823L563.965 42.4272L564.353 42.6654L564.766 42.8978L565.202 43.1257L565.662 43.35L566.144 43.5718L566.649 43.7921L567.176 44.0118L567.724 44.2321L568.293 44.4537L568.881 44.6778L569.488 44.9052L570.113 45.1369L570.755 45.3738L571.412 45.6168L572.084 45.8668L572.768 46.1247L573.464 46.3914L574.17 46.6675L574.884 46.9541L575.603 47.2516L576.327 47.561L577.052 47.8827L577.776 48.2174L578.497 48.5656L579.213 48.9278L579.92 49.3043L580.615 49.6953L581.297 50.1011L581.961 50.5218L582.606 50.9573L583.227 51.4075L583.823 51.8721L584.389 52.3508L584.923 52.8431L585.423 53.3484L585.885 53.866L586.307 54.395L586.686 54.9346L587.021 55.4836L587.31 56.041L587.549 56.6055L587.739 57.1758L587.878 57.7507L587.965 58.3287L588 58.9083L587.982 59.4882L587.912 60.0668L587.789 60.6428L587.615 61.2147L587.391 61.7813L587.118 62.341L586.798 62.8929L586.433 63.4356L586.024 63.968L585.574 64.4894L585.086 64.9987L584.563 65.4952L584.006 65.9783L583.42 66.4474L582.806 66.9022L582.169 67.3424L581.511 67.7678L580.834 68.1784L580.142 68.5741L579.439 68.9552L578.726 69.3219L578.006 69.6745L577.282 70.0134L576.557 70.3393L575.833 70.6525L575.112 70.9537L574.397 71.2437L573.688 71.5231L572.989 71.7927L572.301 72.0533L571.625 72.3057L570.963 72.5509L570.316 72.7896L569.685 73.0229L569.073 73.2515L568.478 73.4766L567.903 73.6989L567.349 73.9194L566.815 74.1392L566.303 74.3592L565.813 74.5804L565.346 74.8038L564.902 75.0305L564.482 75.2614L564.086 75.4976L563.715 75.7402L563.368 75.9904L563.047 76.2493L562.752 76.518L562.483 76.7978L562.241 77.0901L562.025 77.3962L561.838 77.7174L561.678 78.0553L561.547 78.4116L561.446 78.7878L561.375 79.186L561.335 79.6079L561.327 80.0558L561.352 80.532L561.412 81.0389L561.507 81.5793L561.64 82.1562L561.811 82.7728L562.023 83.4328L562.279 84.1402L562.58 84.8995L562.929 85.7154L563.33 86.5936L563.786 87.5401L564.301 88.5619L564.879 89.6668L565.526 90.8635L566.248 92.162L567.051 93.5736L567.943 95.1111L568.932 96.7895L570.029 98.6257L570.253 99.6489L568.332 98.5156L566.578 97.4935L564.972 96.5719L563.5 95.7417L562.146 94.9949L560.9 94.3246L559.749 93.7246L558.686 93.1896L557.702 92.7149L556.79 92.2962L555.943 91.9299L555.155 91.6127L554.421 91.3417L553.737 91.1144L553.098 90.9285L552.5 90.782L551.941 90.673L551.417 90.6001L550.924 90.5617L550.462 90.5566L550.026 90.5837L549.615 90.642L549.227 90.7306L548.86 90.8487L548.512 90.9956L548.181 91.1706L547.867 91.3733L547.567 91.603L547.279 91.8593L547.004 92.1417L546.739 92.4498L546.484 92.7833L546.236 93.1417L545.995 93.5245L545.76 93.9315L545.53 94.3622L545.304 94.8162L545.08 95.2929L544.858 95.7919L544.636 96.3126L544.414 96.8543L544.19 97.4164L543.965 97.9981L543.736 98.5985L543.502 99.2167L543.264 99.8517L543.019 100.502L542.768 101.167L542.508 101.845L542.24 102.534L541.962 103.233L541.674 103.94L541.375 104.653L541.064 105.37L540.74 106.089L540.404 106.807L540.054 107.522L539.69 108.232L539.311 108.934L538.918 109.625L538.51 110.302L538.087 110.962L537.648 111.603L537.196 112.221L536.728 112.813L536.246 113.377L535.751 113.909L535.242 114.408L534.721 114.869L534.189 115.29L533.645 115.67L533.092 116.006L532.531 116.295L531.962 116.537L531.387 116.729L530.807 116.871L530.225 116.961L529.64 117L529.055 116.986L528.471 116.921L527.89 116.803L527.313 116.635L526.741 116.417L526.176 116.15L525.619 115.836L525.07 115.477L524.533 115.075L524.006 114.633L523.491 114.152L522.989 113.635L522.501 113.086L522.027 112.507L521.567 111.901L521.122 111.271L520.691 110.619L520.276 109.95L519.876 109.265L519.49 108.569L519.119 107.862L518.762 107.149L518.419 106.432L518.09 105.713L517.773 104.995L517.468 104.28L517.175 103.57L516.892 102.867L516.619 102.173L516.356 101.489L516.101 100.818L515.853 100.161L515.612 99.5181L515.376 98.8917L515.145 98.2827L514.918 97.692L514.693 97.1204L514.471 96.5688L514.249 96.038L514.027 95.5286L513.804 95.0412L513.579 94.5763L513.351 94.1344L513.118 93.716L512.881 93.3216L512.636 92.9514L512.385 92.606L512.124 92.2857L511.854 91.991L511.573 91.7222L511.279 91.4797L510.972 91.264L510.649 91.0757L510.309 90.9153L509.952 90.7834L509.574 90.6806L509.174 90.6077L508.75 90.5656L508.301 90.5551L507.823 90.5775L507.314 90.6338L506.772 90.7253L506.193 90.8537L505.575 91.0205L504.912 91.2278L504.203 91.4776L503.442 91.7724L502.623 92.1148L501.743 92.5081L500.794 92.9555L499.769 93.4612L498.662 94.0295L497.463 94.6655L496.162 95.3749L494.748 96.1643L493.207 97.0412L491.526 98.014L489.688 99.0928L488.406 99.5643L489.558 97.646L490.598 95.8945L491.535 94.2916L492.379 92.8216L493.139 91.4706L493.821 90.2266L494.432 89.079L494.976 88.0185L495.46 87.0369L495.886 86.1269L496.26 85.2819L496.584 84.4962L496.861 83.7647L497.093 83.0825L497.284 82.4456L497.435 81.8502L497.548 81.2927L497.624 80.7702L497.666 80.2796L497.673 79.8185L497.649 79.3845L497.592 78.9752L497.505 78.5887L497.389 78.2231L497.243 77.8767L497.068 77.5476L496.866 77.2345L496.637 76.9359L496.38 76.6502L496.098 76.3763L495.789 76.1129L495.454 75.8587L495.095 75.6126L494.711 75.3735L494.302 75.1402L493.87 74.9116L493.414 74.6868L492.935 74.4647L492.433 74.2442L491.91 74.0245L491.365 73.8044L490.8 73.583L490.214 73.3594L489.61 73.1326L488.988 72.9017L488.349 72.6657L487.694 72.4237L487.025 72.1748L486.342 71.9182L485.648 71.653L484.944 71.3784L484.231 71.0936L483.512 70.7979L482.79 70.4904L482.065 70.1707L481.34 69.8381L480.618 69.4921L479.902 69.1322L479.193 68.758L478.495 68.3693L477.811 67.9658L477.144 67.5475L476.496 67.1144L475.871 66.6665L475.271 66.2042L474.7 65.7277L474.16 65.2375L473.655 64.7342L473.187 64.2186L472.758 63.6913L472.372 63.1534L472.03 62.6058L471.734 62.0496L471.486 61.4862L471.288 60.9167L471.141 60.3424L471.046 59.7649L471.003 59.1854L471 59.0007Z" fill="#2D5BFF"/>
</svg>
