<svg width="264" height="264" viewBox="0 0 264 264" fill="none" xmlns="http://www.w3.org/2000/svg">
<path fill-rule="evenodd" clip-rule="evenodd" d="M4.20572e-05 132.002L0.0593989 130.682L0.237133 129.366L0.532147 128.056L0.942578 126.756L1.46599 125.469L2.09907 124.198L2.83815 122.945L3.67878 121.714L4.61607 120.506L5.64473 119.324L6.75889 118.169L7.95259 117.044L9.21937 115.949L10.5527 114.887L11.946 113.857L13.3924 112.86L14.885 111.898L16.4173 110.969L17.9825 110.073L19.5741 109.211L21.1858 108.382L22.8115 107.584L24.4452 106.818L26.0813 106.081L27.7145 105.373L29.3397 104.691L30.9522 104.035L32.5476 103.403L34.1217 102.793L35.6707 102.203L37.1912 101.631L38.6797 101.076L40.1335 100.534L41.5497 100.005L42.9261 99.4865L44.2603 98.9755L45.5503 98.4703L46.7944 97.9688L47.991 97.4686L49.1385 96.9677L50.2357 96.4636L51.2813 95.9542L52.2743 95.437L53.2135 94.9097L54.0981 94.37L54.9271 93.8152L55.6996 93.2428L56.4147 92.6503L57.0716 92.0349L57.6691 91.3936L58.2065 90.7237L58.6824 90.0219L59.096 89.285L59.4457 88.5095L59.7303 87.6918L59.9482 86.8278L60.0975 85.9134L60.1763 84.944L60.1825 83.9148L60.1134 82.8204L59.9665 81.655L59.7384 80.4124L59.4257 79.0856L59.0244 77.667L58.5301 76.1484L57.9377 74.5203L57.2415 72.7727L56.4352 70.894L55.5115 68.8716L54.4623 66.6912L53.2784 64.3368L51.9493 61.7904L50.4633 59.0316L48.8067 56.0373L46.9642 52.7811L44.9183 49.2332L42.6487 45.359L40.1324 41.1189L40.7642 39.9206L45.0353 42.4578L48.937 44.7461L52.5096 46.8091L55.7878 48.6671L58.8019 50.3379L61.5786 51.837L64.1411 53.1781L66.5101 54.3732L68.7038 55.4328L70.7382 56.3661L72.6278 57.1816L74.3854 57.8863L76.0225 58.4868L77.5495 58.9887L78.9757 59.3972L80.3095 59.7168L81.5586 59.9515L82.7299 60.1048L83.8297 60.1799L84.864 60.1797L85.8379 60.1065L86.7565 59.9628L87.6243 59.7503L88.4456 59.471L89.2243 59.1264L89.9642 58.7178L90.6686 58.2468L91.341 57.7143L91.9843 57.1215L92.6017 56.4693L93.196 55.7588L93.7698 54.9908L94.3259 54.1663L94.8668 53.2861L95.3949 52.3512L95.9128 51.3624L96.4228 50.321L96.9272 49.2279L97.4283 48.0843L97.9284 46.8916L98.4298 45.6512L98.9346 44.3647L99.445 43.0339L99.9632 41.6609L100.491 40.2477L101.032 38.7968L101.586 37.3109L102.156 35.7929L102.745 34.246L103.353 32.6738L103.984 31.0799L104.638 29.4686L105.317 27.8442L106.023 26.2114L106.758 24.5753L107.522 22.9412L108.317 21.3147L109.144 19.7017L110.003 18.1082L110.896 16.5407L111.822 15.0055L112.782 13.5094L113.776 12.0591L114.803 10.6614L115.863 9.32297L116.955 8.05062L118.078 6.85088L119.23 5.73012L120.41 4.69445L121.616 3.74965L122.846 2.90114L124.097 2.1538L125.367 1.5121L126.653 0.979877L127.952 0.560321L129.261 0.256031L130.576 0.0689275L131.896 8.00038e-05L133.215 0.0500374L134.532 0.218342L135.842 0.504109L137.143 0.905415L138.431 1.41991L139.704 2.04445L140.958 2.77523L142.191 3.60793L143.401 4.53774L144.586 5.55932L145.742 6.66692L146.87 7.85451L147.967 9.11574L149.032 10.4441L150.065 11.8328L151.064 13.2752L152.029 14.7644L152.961 16.2938L153.859 17.8567L154.723 19.4464L155.555 21.0568L156.355 22.6815L157.124 24.3148L157.863 25.9509L158.574 27.5846L159.258 29.2106L159.915 30.8244L160.549 32.4212L161.161 33.9972L161.753 35.5484L162.326 37.0712L162.883 38.5624L163.425 40.0191L163.955 41.4384L164.475 42.818L164.986 44.1557L165.492 45.4493L165.993 46.6972L166.494 47.8976L166.994 49.0491L167.498 50.1503L168.007 51.2001L168.524 52.1973L169.05 53.1408L169.589 54.0298L170.142 54.8633L170.713 55.6403L171.304 56.3601L171.917 57.0216L172.556 57.6239L173.224 58.1661L173.923 58.647L174.657 59.0655L175.429 59.4204L176.243 59.7103L177.104 59.9335L178.014 60.0883L178.979 60.1728L180.003 60.1849L181.092 60.122L182.251 59.9813L183.488 59.7598L184.807 59.454L186.218 59.0599L187.729 58.5732L189.348 57.9887L191.085 57.301L192.953 56.5037L194.964 55.5897L197.131 54.5508L199.471 53.378L202.001 52.0609L204.742 50.5878L207.717 48.9453L210.951 47.1182L214.474 45.0892L218.321 42.8382L222.531 40.3424L224.294 40.4069L221.736 44.7093L219.429 48.639L217.349 52.2365L215.475 55.537L213.79 58.5711L212.278 61.3658L210.925 63.9447L209.719 66.3284L208.649 68.5354L207.705 70.5819L206.881 72.4826L206.168 74.2503L205.559 75.8966L205.049 77.4321L204.634 78.866L204.307 80.2069L204.066 81.4624L203.906 82.6397L203.825 83.745L203.819 84.7843L203.887 85.7628L204.025 86.6857L204.232 87.5574L204.506 88.3822L204.846 89.1642L205.249 89.907L205.715 90.6142L206.243 91.289L206.831 91.9346L207.478 92.5539L208.184 93.1499L208.948 93.7253L209.768 94.2827L210.643 94.8247L211.574 95.3538L212.559 95.8724L213.596 96.3829L214.685 96.8877L215.824 97.389L217.013 97.8891L218.25 98.3903L219.533 98.8947L220.86 99.4046L222.23 99.9222L223.64 100.449L225.088 100.989L226.571 101.542L228.087 102.111L229.631 102.698L231.202 103.305L232.794 103.933L234.404 104.585L236.028 105.262L237.66 105.966L239.296 106.699L240.93 107.46L242.558 108.253L244.172 109.077L245.767 109.934L247.337 110.824L248.875 111.747L250.374 112.705L251.829 113.696L253.231 114.721L254.574 115.778L255.852 116.867L257.058 117.988L258.185 119.138L259.228 120.316L260.18 121.52L261.036 122.748L261.792 123.997L262.442 125.266L262.983 126.55L263.412 127.849L263.725 129.157L263.922 130.472L264 131.791L263.96 133.111L263.801 134.428L263.524 135.739L263.132 137.04L262.626 138.33L262.01 139.604L261.288 140.86L260.463 142.095L259.541 143.307L258.527 144.493L257.426 145.652L256.244 146.782L254.989 147.882L253.665 148.949L252.281 149.984L250.843 150.986L249.357 151.954L247.831 152.889L246.27 153.789L244.682 154.657L243.073 155.491L241.45 156.294L239.817 157.065L238.181 157.807L236.547 158.519L234.92 159.205L233.305 159.865L231.707 160.501L230.129 161.114L228.576 161.707L227.05 162.282L225.557 162.84L224.097 163.383L222.675 163.914L221.292 164.435L219.951 164.947L218.654 165.453L217.402 165.955L216.198 166.455L215.042 166.956L213.937 167.459L212.883 167.967L211.882 168.483L210.934 169.009L210.041 169.546L209.203 170.098L208.421 170.668L207.697 171.257L207.031 171.869L206.424 172.505L205.877 173.171L205.391 173.867L204.967 174.598L204.607 175.367L204.312 176.178L204.084 177.034L203.923 177.941L203.833 178.901L203.815 179.92L203.872 181.004L204.006 182.157L204.221 183.387L204.52 184.7L204.907 186.104L205.386 187.606L205.963 189.216L206.642 190.944L207.43 192.801L208.335 194.799L209.363 196.953L210.525 199.279L211.83 201.793L213.291 204.517L214.919 207.472L216.731 210.685L218.743 214.184L220.975 218.004L223.451 222.183L223.955 224.511L219.621 221.932L215.663 219.606L212.04 217.508L208.717 215.619L205.663 213.919L202.85 212.394L200.255 211.028L197.857 209.811L195.636 208.73L193.577 207.778L191.666 206.944L189.888 206.222L188.232 205.605L186.688 205.088L185.247 204.665L183.899 204.331L182.636 204.083L181.453 203.917L180.342 203.83L179.298 203.818L178.315 203.88L177.388 204.013L176.512 204.214L175.684 204.483L174.899 204.818L174.153 205.216L173.443 205.677L172.766 206.2L172.118 206.783L171.497 207.426L170.899 208.127L170.322 208.886L169.763 209.702L169.22 210.573L168.69 211.499L168.171 212.48L167.66 213.513L167.154 214.598L166.653 215.733L166.153 216.918L165.652 218.151L165.148 219.431L164.638 220.754L164.121 222.121L163.595 223.528L163.057 224.973L162.505 226.453L161.937 227.966L161.352 229.509L160.747 231.077L160.12 232.668L159.47 234.277L158.795 235.9L158.093 237.531L157.363 239.167L156.604 240.802L155.814 242.43L154.992 244.046L154.138 245.643L153.25 247.215L152.329 248.756L151.375 250.258L150.386 251.716L149.364 253.123L148.31 254.471L147.223 255.755L146.105 256.966L144.957 258.1L143.781 259.15L142.579 260.109L141.353 260.973L140.105 261.737L138.838 262.396L137.555 262.946L136.258 263.384L134.95 263.706L133.635 263.912L132.316 264L130.996 263.969L129.679 263.819L128.368 263.552L127.065 263.169L125.775 262.673L124.499 262.065L123.242 261.351L122.005 260.534L120.791 259.62L119.603 258.612L118.442 257.518L117.309 256.343L116.207 255.093L115.137 253.775L114.099 252.395L113.095 250.961L112.124 249.479L111.187 247.955L110.284 246.397L109.414 244.811L108.577 243.204L107.772 241.581L106.998 239.949L106.254 238.313L105.539 236.678L104.851 235.051L104.189 233.435L103.552 231.835L102.936 230.255L102.342 228.7L101.766 227.172L101.206 225.676L100.662 224.214L100.13 222.788L99.6091 221.402L99.0964 220.058L98.5901 218.757L98.0879 217.502L97.5876 216.293L97.087 215.134L96.5839 214.025L96.076 212.967L95.5609 211.961L95.0363 211.009L94.4997 210.111L93.9488 209.269L93.3808 208.483L92.7934 207.754L92.1837 207.083L91.5489 206.471L90.8861 205.919L90.1922 205.429L89.464 205L88.6981 204.635L87.8908 204.335L87.0382 204.101L86.1363 203.935L85.1805 203.839L84.166 203.815L83.0877 203.866L81.9398 203.994L80.7163 204.202L79.4102 204.495L78.0143 204.874L76.5204 205.346L74.9194 205.915L73.2014 206.585L71.3551 207.365L69.3683 208.26L67.2271 209.278L64.9158 210.429L62.4171 211.722L59.711 213.17L56.7752 214.784L53.5842 216.581L50.109 218.576L46.3161 220.791L42.1674 223.246L39.2748 224.319L41.8752 219.953L44.2207 215.967L46.3355 212.319L48.2408 208.973L49.9548 205.899L51.4936 203.067L52.8713 200.456L54.1003 198.042L55.1913 195.808L56.154 193.737L56.9969 191.814L57.7275 190.026L58.3523 188.361L58.8773 186.809L59.3077 185.359L59.6482 184.004L59.9028 182.735L60.0752 181.546L60.1688 180.43L60.1863 179.38L60.1303 178.392L60.0032 177.461L59.807 176.581L59.5435 175.749L59.2144 174.961L58.821 174.212L58.3648 173.499L57.8469 172.82L57.2684 172.17L56.6303 171.546L55.9337 170.947L55.1794 170.368L54.3682 169.808L53.5013 169.264L52.5793 168.733L51.6034 168.213L50.5744 167.701L49.4935 167.196L48.3619 166.694L47.1808 166.194L45.9517 165.693L44.6761 165.189L43.3557 164.68L41.9926 164.164L40.5888 163.638L39.1467 163.101L37.6689 162.551L36.1583 161.984L34.618 161.4L33.0515 160.797L31.4625 160.172L29.8549 159.523L28.2333 158.85L26.6021 158.151L24.9663 157.423L23.3312 156.666L21.7024 155.879L20.0856 155.059L18.4869 154.208L16.9126 153.323L15.3691 152.405L13.8631 151.453L12.4012 150.467L10.9904 149.448L9.63719 148.396L8.34846 147.311L7.13081 146.196L5.99061 145.05L4.93406 143.877L3.96708 142.677L3.09513 141.452L2.32319 140.206L1.65589 138.941L1.09718 137.658L0.650463 136.362L0.318432 135.055L0.103191 133.741L0.00605398 132.422L4.20572e-05 132.002Z" fill="#FF2323"/>
<path d="M131.554 199.784C116.598 199.784 103.453 196.919 92.1192 191.189C80.7853 185.459 71.9635 177.508 65.6539 167.335C59.3443 157.045 56.1895 145.118 56.1895 131.554C56.1895 117.99 59.3443 106.121 65.6539 95.9482C71.9635 85.6582 80.7853 77.6484 92.1192 71.9187C103.453 66.189 116.598 63.3242 131.554 63.3242C146.51 63.3242 159.655 66.189 170.989 71.9187C182.323 77.6484 191.145 85.6582 197.455 95.9482C203.764 106.121 206.919 117.99 206.919 131.554C206.919 145.118 203.764 157.045 197.455 167.335C191.145 177.508 182.323 185.459 170.989 191.189C159.655 196.919 146.51 199.784 131.554 199.784ZM131.554 179.087C142.187 179.087 151.359 177.157 159.071 173.299C166.783 169.44 172.742 163.944 176.948 156.811C181.272 149.678 183.433 141.259 183.433 131.554C183.433 121.849 181.272 113.429 176.948 106.297C172.742 99.1638 166.783 93.668 159.071 89.8093C151.359 85.9505 142.187 84.0212 131.554 84.0212C121.038 84.0212 111.866 85.9505 104.037 89.8093C96.3256 93.668 90.3081 99.1638 85.9849 106.297C81.7784 113.429 79.6752 121.849 79.6752 131.554C79.6752 141.259 81.7784 149.678 85.9849 156.811C90.3081 163.944 96.3256 169.44 104.037 173.299C111.866 177.157 121.038 179.087 131.554 179.087Z" fill="white"/>
</svg>
