<?xml version="1.0" encoding="UTF-8"?>
<svg id="Layer_2" data-name="Layer 2" xmlns="http://www.w3.org/2000/svg" viewBox="0 0 112.76 77.37">
  <defs>
    <style>
      .cls-1 {
        fill: #633a33;
      }
    </style>
  </defs>
  <g id="Layer_1-2" data-name="Layer 1">
    <path class="cls-1" d="m94.13,32.74v-8.47h-1v8.11l-18.13,10.64-18.13-10.64v-8.11h-1v8.11l-18.13,10.64-18.13-10.64V11.06L36.48,1.16V0l-17.85,10.48v22.25L0,43.68v7.91h1v-7.34l18.13-10.64,18.13,10.64v7.34h1v-7.34l18.13-10.64,18.13,10.64v21.32l-17.63,10.35v1.16l18.13-10.65,18.63,10.94,19.13-11.23v-22.47l-18.63-10.94Zm17.63,32.83l-18.13,10.64-18.13-10.64v-21.32l18.13-10.64,18.13,10.64v21.32Z"/>
  </g>
</svg>