<?xml version="1.0" encoding="UTF-8"?>
<svg id="Layer_2" data-name="Layer 2" xmlns="http://www.w3.org/2000/svg" viewBox="0 0 68.15 64.6">
  <defs>
    <style>
      .cls-1 {
        fill: #551e22;
      }
    </style>
  </defs>
  <g id="Layer_1-2" data-name="Layer 1">
    <g>
      <path class="cls-1" d="m11.31,56.78c-1.22,2.42-2.52,3-4.83,2.51-5.52-4.19,5.44-8.89,7.8-3.36,2.93,7.4-7.29,11.69-12.41,6.14-5.52-6.99,2.3-15.62,9.59-17.05,2.65-1.13,10.73-.17,9.62-4.5-.27-1.39-.31-4.28,1.72-3.96.74.11.66.7.72,1.19.15,1.22-.61,2.3-.59,3.51-.59,2.58,7.55-3.3,8.44-4.18.46-.68,1.17.15,1.22.76,1.22,3.04-9.73,5.87-5.86,6.68,2.26.55,4.35-1.92,6.32-.92,2.18,4.11-6,3.28-8.13,2.24-2.06-1.58-4.07.09-6.4.27-6.99.72-20.05,5.39-14.18,14.26,2.45,2.82,9.7.96,6.98-3.61Z"/>
      <path class="cls-1" d="m50.97,21.26c-.15,9.45-10.44,12.12-17.44,14.8.87-6.33,4.03-12.48,10.31-15.11,3.79-.93,7.21-7.09,7.13.31Z"/>
      <path class="cls-1" d="m65.26.07c4.98-.57,2.61,2.62-.27,3.59-5.74,2.2-8.46,8.16-12.72,12.23-4.57,2.38,3.38-16.87,12.99-15.82Z"/>
      <path class="cls-1" d="m55.2.68c1.26.16.43,1.53-.23,1.93-5,3.64-2.57,13.9-9.34,15.21,2.04-6.56.16-16.08,9.57-17.14Z"/>
      <path class="cls-1" d="m64.07,7.59c2.21.14-3.77,5.55-3.61,7.53.24,2.09-9.19,11.13-7.6,5.89,4.13-4.43,4.07-12.13,11.21-13.42Z"/>
      <path class="cls-1" d="m46.79,5.48c-3.37,4.23-.6,10.65-5.15,14.54-3.59,3.55-.45-5.79-1.06-7.45-.04-3.08,2.97-7.76,6.21-7.09Z"/>
      <path class="cls-1" d="m57.12,28.24c1-.07.91.5.66,1.14-2.39,6.23-10.76,6.73-16.06,5.31-.06-.33.15-.68.53-.77,2.26-.57,4.2-2.22,6.46-2.45,3.31-.08,5.67-2,8.41-3.23Z"/>
      <path class="cls-1" d="m38.75,16.33c0,3.02-.32,8.09-3.38,9.37-1.13-1.64-.06-4.6-.62-6.62-.48-4.65,4.66-12.82,4-2.75Z"/>
      <path class="cls-1" d="m42.27,40.42c-2.3.45-5.85-1.33-6.57-3.6.14-.48.58-.25.88-.27,6.97,1.1,6.5,1.91,13.53-.75,1.17-.52,1.78.63,1.02,1.56-2.1,2.81-5.5,3.12-8.86,3.05Z"/>
      <path class="cls-1" d="m62.32,18.4c1.29,5.63-13.53,13.36-11.84,9.4,2.81-3.82,7.97-5.15,10.34-9.46.4-.64,1.7-1.07,1.5.06Z"/>
      <path class="cls-1" d="m33.61,27.43c.37,8.21-5.2-4.07-2.51-7.04,1.9-2.91,2.67,5.9,2.51,7.04Z"/>
      <path class="cls-1" d="m28.42,30.07c.65-4.96,2.44,2.22,3.42,3.3.53.62.16.83-.55.88-1.5.03-3.04-2.56-2.87-4.18Z"/>
    </g>
  </g>
</svg>