<?xml version="1.0" encoding="UTF-8"?>
<svg id="Layer_2" data-name="Layer 2" xmlns="http://www.w3.org/2000/svg" viewBox="0 0 159.08 155.56">
  <defs>
    <style>
      .cls-1 {
        fill: #22346a;
      }
    </style>
  </defs>
  <g id="Layer_1-2" data-name="Layer 1">
    <g>
      <path class="cls-1" d="m97.33,68.12c.55,1.69-.83,3.4-2.49,3.86-2.5.67-4.85-1.4-5.63-3.58-3.01-7.44,6.93-12.03,12.93-9.35,11.34,6.97,4.83,19.77-6.63,21.06-5.78.03-11.94-1.4-16.23-5.49-7.34-7.26-4-18.75,3.28-24.59,3.82-3.17,8.54-5,13.41-5.44,2.87-.26,5.97-.39,8.42,1.41-2.7,1.01-5.37.54-8.1,1.07-5.96.9-11.56,4.28-14.79,9.34-5.75,9.39-1.09,17.79,9.42,19.35,1.13.24,2.69.34,3.83.44,4.04-.06,8.48-3,9.6-6.91.34-1.35.14-2.74-.6-4.04-.74-1.29-1.92-2.46-3.27-3.47l.26.14c-3.05-1.49-8.3-.35-9.65,3.07-.07.32-.12,1.96.18,2.66.43,1.55,2.08,3.25,3.69,2.37.71-.42,1.19-1.16,2.37-1.91h0Z"/>
      <path class="cls-1" d="m57.1,36.8c-1.15-.15-1.37-.37-1.46-.66-1.17-3.72-5.64-1.57-6.78,1.1-.54.9-.47,2.61-.24,3.07,4.1,9.14,19.27,4.02,20.24-4.76,1.25-5.59-2.8-11.2-7.15-14.65-7.72-6.38-19.57-4.62-27.7.23-14.65,8.84-20.44,26.15-12.19,41.51,9.63,12.42,25.83,14.88,41.52,10.77,3.78-.97,7.5-2.27,11.03-3.93,1.2-.52,2.43-.94,4-.88-.72,1.39-1.83,2.25-3.02,2.89-15.53,7.81-36.28,10.71-50.78-.85-2.23-1.79-4.22-3.84-5.99-6.07-2.17-3.97-3.66-8.34-4.22-12.88-2.51-18.38,12.24-35.86,30.22-38.48,9.71-1.58,18.28,1.59,24.33,9.52,5.13,6.16,5.48,15.63-.55,21.12-6.24,6.14-19.04,6.92-22.58-2.49-2.4-6.43,7.49-14.01,11.66-7.26.44,1.08,1.26,1.74-.36,2.7h0Z"/>
      <path class="cls-1" d="m94.2,116.63c-1.03-1.17-1.42-2.14-1.79-3.44-.23-.73-.72-1.73-1.35-1.93,0,0,.5.06.5.06-5.05.2-5.22,6.91-2.48,9.9.93,1.1,2.17,1.8,3.55,2.02l-.34-.02c6.6-.04,12.22-5.51,11.9-12.12-.16-8.72-9.97-13.03-17.64-11.18-11.61,2.78-17.43,17.52-13.69,28.18,2.46,6.24,7.97,11.13,14.18,13.51,16.06,5.97,36.33-2.78,42.94-18.61,1.35-3.19,2.03-6.62,2.16-10.09,1.36-12.94-7.18-26.4-18.84-31.9-3.97-1.94-8.17-3.22-12.86-4.46,4.65-1.44,9.85-.92,14.42.99,13.56,5.75,23.55,21.92,21.77,35.77-.92,33.88-53.02,48.85-67.53,16.14-4.52-13.01,2.59-30.04,16.56-33.39,10.11-2.43,22.2,3.66,22.36,14.94.27,8.93-7.2,16.05-15.98,15.71-6.69-1.13-10.22-9.76-6.45-15.36,1.32-1.97,3.8-3.03,6.1-3.03,0,0,.22.07.22.07,3.03,1.03,4.87,5.99,2.3,8.25h0Z"/>
      <g>
        <path class="cls-1" d="m159.08,54.84c-2.03,4.05-6.49,5.88-10.46,7.52-12.39,4.66-26.96,2.37-37.58-5.49-7.32-5.22-12.48-14.44-10.81-23.67,1.64-9.12,8.41-15.91,15.46-21.17,6.5-3.78,14.42-6.12,22-4.11,9.15,2.59,17.46,12.17,14.97,22.12-2.32,12.32-20.83,17.7-27.32,5.86-.93-1.85-1.35-3.85-1.45-5.82.4-2.17,1.35-4.38,3.09-5.97,3.6-3.3,10.92-3.32,13.44,1.3.56,1.19.24,2.71-.52,3.7-.38.45-.93.75-1.75.55-.06-.45-.03-.74.02-.99.09-.6.59-1.03.61-1.58.11-.61-.22-1.2-.79-1.72-2.52-2.03-7.04-1.8-9.36.51-1.18,1.16-1.85,2.78-2.13,4.52l.02-.32c.16,1.62.57,3.18,1.32,4.53,2.28,4.26,7.6,5.58,12.11,4.26,6.2-1.54,10.42-7.92,9.38-14.18-1.12-6.02-6.81-11.41-12.65-12.99-6.08-1.81-14.06.91-18.64,3.59-6.29,4.67-12.43,10.76-13.9,18.62-2.46,16.96,16.7,27.73,31.63,27.87,4.05.08,8.13-.51,11.98-1.81,4.08-1.14,7.21-4,11.33-5.11h0Z"/>
        <path class="cls-1" d="m149.01,14.84c1.48-1.79,1.9-3.23,2.77-5.09.78-1.91,1.45-3.12,1.65-5.47,2.72,1.01,3.11,4.74,2.02,7.06-1,2.34-3.8,4.63-6.44,3.49h0Z"/>
        <path class="cls-1" d="m115.02,14.43c.17-.64.3-1.35.25-2-.16-2.92-.85-5.75-1.4-8.63-.27-1.19-.45-2.34-1.08-3.77,1.59.04,2.98,1.18,3.9,2.38,2.6,3.19,3.11,10.65-1.68,12.03h0Z"/>
        <path class="cls-1" d="m104.26,25.63c.16-1.89-.84-3.29-1.09-5.1-.45-1.79-.31-3.58-.74-5.43,3.73-.03,5.56,4.91,4.48,8.03-.36,1.14-1.32,2.5-2.65,2.49h0Z"/>
        <path class="cls-1" d="m102.43,35.27c-.45-.17-.75.08-1.12.22-1.75.86-3.75.8-5.47-.15-.35-.17-.64-.41-1.16-.53-.03-.6.39-1.02.68-1.38,1.52-1.51,3.82-1.74,5.66-.66.72.45,1.91,1.52,1.41,2.5h0Z"/>
        <path class="cls-1" d="m131.12,40.07c-1.12,1.47-1.18,3.08-1.93,4.67-.66,1.77-1.49,2.79-2.22,4.78-3.24-1.93-2.16-7.06.6-8.98.96-.71,2.46-1.17,3.54-.47h0Z"/>
        <path class="cls-1" d="m133.11,7.83c-.43.43-1.18-.11-1.58-.33-2.07-1.45-2.65-4.29-1.33-6.43.29-.39.62-.98,1.14-1.07.05.2.33.36.47.52,1.99,1.65,2.55,4.41,1.39,6.71-.06.2-.25.41-.08.6h0Z"/>
      </g>
      <path class="cls-1" d="m70.63,28.46c4.98.76,8.89-1.44,12.23-4.78.86-.88,1.44-1.64,1.98-2.88,1.03,1.61.64,3.81-.17,5.44-2.29,5.16-10.78,7.72-14.04,2.22h0Z"/>
      <path class="cls-1" d="m70.12,35.43c1.25.99,1.73.63,2.75,1.02.45.19,1.12.82,1.54,1.2.27.22.5.41,1.04.54.08.52-.22,1.02-.55,1.36-.99.97-2.53,1.1-3.74.52-1.67-.66-2.83-3.41-1.04-4.64h0Z"/>
      <path class="cls-1" d="m63.81,44.07c.07,2.21.64,3.02,1.47,4.66.87,1.44,1.4,3.1,2.83,4.24-2.14,1.76-5.3-.24-6.36-2.37-1.29-2.13-.7-5.96,2.07-6.53h0Z"/>
      <path class="cls-1" d="m49.02,43.88c-1.49.68-1.42,1.28-2.29,2.05-.4.35-1.27.72-1.82.98-.32.16-.59.3-.94.75-.51-.17-.83-.68-.98-1.13-.44-1.37.16-2.84,1.24-3.71,1.36-1.25,4.41-1.12,4.8,1.06h0Z"/>
      <path class="cls-1" d="m49.18,35.55c-1.86-.54-2.09.85-3.63,0-.61-.25-.96-.62-1.76-.51-.31-.41-.21-.99-.05-1.41.51-1.19,1.78-1.85,3.02-1.78,1.67-.04,3.73,2.05,2.43,3.7h0Z"/>
      <path class="cls-1" d="m41.2,15.49c.93-1.72.73-2.45.94-3.99.09-1.42.72-2.75.39-4.28,2.45-.4,3.9,2.68,3.58,4.77-.14,2.21-2.64,4.7-4.91,3.5h0Z"/>
      <path class="cls-1" d="m19.9,31.77c.13-1.96-.36-2.53-.82-4.02-.51-1.32-.5-2.79-1.44-4.05,2.06-1.39,4.67.8,5.25,2.83.8,2.06-.43,5.37-2.99,5.23h0Z"/>
      <path class="cls-1" d="m52.57,15.51c1.75-.89,1.99-1.6,3.03-2.76.88-1.12,2.15-1.86,2.74-3.3,2.25,1.06,1.7,4.42.25,5.96-1.36,1.74-4.84,2.38-6.03.11h0Z"/>
      <path class="cls-1" d="m33.96,16.94c.38-1.66-.37-1.86-.42-2.99,0-1.06,1.07-1.84.84-3.04,1.9-1.03,3.78,1.48,3.59,3.23.05,1.83-2.14,4.11-4.02,2.8h0Z"/>
      <path class="cls-1" d="m14.97,44.27c-1.43-4.06-4.27-5.95-8-7.43-1.35-.51-2.53-.89-4.09-.85,1.99-3.1,6.69-2.68,9.5-.92,3.04,1.68,4.9,6.3,2.59,9.21h0Z"/>
      <path class="cls-1" d="m15.14,52.46c-3.42,1.5-6.35,1.41-9.62-.43,1.9-3.58,8.04-3.31,9.62.43h0Z"/>
      <path class="cls-1" d="m17.69,63.09c-3.16.83-5.28,2.28-7.86,3.94-2.5,1.76-4.79,3.1-6.86,5.59-1.68-6.7,9.26-13.97,14.72-9.53h0Z"/>
      <path class="cls-1" d="m10.88,60.63c-1.04.48-1.85,1.31-2.71,1.95-1.98,1.57-4.19,2.82-6.43,3.96-.51.25-.92.52-1.49.98-.58-1.28-.04-2.82.64-3.92,1.76-2.96,7.08-5.59,10-2.97h0Z"/>
      <path class="cls-1" d="m51.91,46.54c.43,3.34.33,5.57,2.89,7.74,1.63,1.41,4.45,4.34,3.88,7.18-.12.99-.54,1.86-1.07,2.61-.53-1.82-1.15-3.12-2.06-3.97-1.1-1.07-3.3-2.4-4.53-4.04-2.38-2.84-1.65-7.18.88-9.52h0Z"/>
      <path class="cls-1" d="m26.97,71.69c-.55,3.26-2.18,4.93-5.43,5.55-1.59-3.27,2.13-7.05,5.43-5.55h0Z"/>
      <path class="cls-1" d="m38.2,76.54c.52,3.14-.93,5.36-4.02,6.13-1.87-2.89.64-6.68,4.02-6.13h0Z"/>
      <path class="cls-1" d="m53.08,77.37c-.81,2.38-.76,3.81-.41,5.96.46,2.08.69,3.73,2.2,5.66-3.02.96-5.72-2.21-6.14-4.97-.62-2.81,1.21-6.59,4.35-6.64h0Z"/>
      <path class="cls-1" d="m64.63,75.2c.93.94,2.12,1.36,2.67,2.55.67,1.14.32,2.27.65,3.58-1.52.95-3.51-.36-4.19-1.72-.7-1.33-.7-3.64.87-4.41h0Z"/>
      <path class="cls-1" d="m83.01,75.97c1.49.78,1.06,3.17.11,4.16-.9,1.09-3.31,1.7-4.19.18.73-.97.41-2.06,1.24-2.88.45-.5,1.14-.8,1.85-.98.3-.1.63-.11,1-.48h0Z"/>
      <path class="cls-1" d="m93.86,59.44c-2.51-1.31-2.3-3.35.45-4.09,2.52,1.31,2.28,3.35-.45,4.09h0Z"/>
      <path class="cls-1" d="m106.44,67.73c.22-2.77,1.99-3.24,3.51-.89-.22,2.78-1.99,3.22-3.51.89h0Z"/>
      <path class="cls-1" d="m126.93,64.67c-.5.8-.55,1.5-.77,2.31-.44,2.29-1.71,3.19-2.42,5.54-2.32-.5-2.67-3.57-1.84-5.35.73-1.78,3.09-3.67,5.04-2.5h0Z"/>
      <path class="cls-1" d="m128.46,89.63c.63-1.23.94-2.45,2.04-3.25,1.14-.88,2.04-.8,3.64-1.16.87,1.48,0,3.4-1.2,4.32-1.2.92-3.26,1.28-4.48.08h0Z"/>
      <path class="cls-1" d="m79.05,101.05c-.9-1.77-1.72-2.19-2.77-3.47-1.05-1.13-1.65-2.49-2.91-3.56,1.66-1.75,4.61-.66,5.95.96,1.45,1.58,1.91,4.84-.27,6.06h0Z"/>
      <path class="cls-1" d="m91.25,96.71c-.44-1.42-.97-1.96-.76-3.19.22-1.15,1.22-1.73,2.04-2.62,1.46.4,2.16,2.11,1.87,3.44-.33,1.35-1.48,2.58-3.15,2.37h0Z"/>
      <path class="cls-1" d="m107.08,108.84c2.41-.66,3.66-1.65,5.49-2.9,1.76-1.35,3.19-2.18,4.66-4.18,1.7,2.52-.13,5.91-2.34,7.44-2.17,1.62-6.05,2.13-7.81-.36h0Z"/>
      <path class="cls-1" d="m105.03,118.35c.5.21.84.12,1.18.12.85-.05,1.73.03,2.46.34,1.23.44,1.65,1.55,2.87,2.16-.38,1.88-3.01,2.19-4.42,1.53-1.41-.56-3.05-2.58-2.09-4.14h0Z"/>
      <path class="cls-1" d="m98.08,124.54c.68,1.27,1.25,2.8,2.43,3.38.79.42,2.01.51,3.54.66,3.06.19,7.84,1.27,8.65,4.96-4.06-1.7-7.6-.13-11.73-1.55-3.21-.96-4.59-4.61-2.89-7.45h0Z"/>
      <path class="cls-1" d="m107.08,135.85c-.74,2.61-4.56,2.57-6.18.77-1.84-1.58-1.97-5.4.63-6.2.49,1.86,1.15,2.3,2.16,3.34,1.06,1,1.53,1.65,3.39,2.09h0Z"/>
      <path class="cls-1" d="m86.33,122.12c1.43.62,1.21,3,.33,3.98-.82,1.1-3.15,1.76-4.03.3.65-.98.2-2.01.95-2.84.4-.5,1.09-.8,1.77-.99.28-.09.64-.09.98-.44h0Z"/>
      <path class="cls-1" d="m70.88,129.84c-.12,2.95-1.2,3.79-4.09,3.13-1.31-2.78,1.74-5.1,4.09-3.13h0Z"/>
      <path class="cls-1" d="m69.29,118.99c-2.47-.26-4.1.21-6.31.53-2.2.44-3.8.59-6.01,1.76-.55-6.22,10.51-8.17,12.32-2.3h0Z"/>
      <path class="cls-1" d="m71.52,110.05c-2.91-1.7-5.63-2.05-8.74-2.42-3.15-.24-5.79-.27-8.94,1.01,2.39-7.56,16.37-6.26,17.68,1.4h0Z"/>
      <path class="cls-1" d="m64.63,101.57c-2.08-.15-3.65.44-5.5.69-1.84.37-3.48.32-5.41,1.16-.5-2.72,2.4-4.75,4.75-5.1,2.33-.41,5.74.55,6.16,3.25h0Z"/>
      <path class="cls-1" d="m66.26,138.33c-2.61,1.55-4.08,3.35-5.85,5.52-1.69,2.25-2.98,4.1-3.79,7.05-4.7-5.54,3.1-15.55,9.64-12.57h0Z"/>
      <path class="cls-1" d="m79.44,140.63c-2.4.31-4.41,1.05-6.4,1.88-3.67,1.63-7.52,3.69-9.73,7.01-1.03,1.58-1.46,3.59-1.23,6.05-1.86-1.8-2.47-4.79-1.65-7.29,2.29-7.01,12.64-11.24,19.02-7.64h0Z"/>
      <path class="cls-1" d="m109.05,145.54c.24.74.8.92,1.16,1.44.77.88.66,1.84.22,2.83-.1.29-.18.58-.1,1.1-1.43,1-3.29-.67-3.49-2.04-.34-1.27.63-3.52,2.22-3.32h0Z"/>
      <path class="cls-1" d="m120.16,139.92c.18,3.33,1.02,5.75,2.68,8.36,1.72,2.51,3.44,4.47,6.52,5.75-3.44,2.04-7.95-.47-9.88-3.58-2.08-3.08-2.33-8.01.68-10.53h0Z"/>
      <path class="cls-1" d="m127.95,132.97c.67,2.02,1.4,2.72,2.54,4.06,1.21,1.23,1.75,2.29,3.65,3.15-1.52,2.33-5.14,1.34-6.65-.51-1.71-1.77-1.99-5.46.46-6.7h0Z"/>
      <path class="cls-1" d="m133.69,123.46c2.73-1.23,5.11.54,4.66,3.51-2.73,1.25-5.09-.55-4.66-3.51h0Z"/>
      <path class="cls-1" d="m135.86,111.84c9.68.47,13.75-4.51,18.31-12.3,0,0,1.71,2.34,1.71,2.34,3.41,5.26-6.07,16.31-11.73,15.44,4.15-1.92,6.41-6.38,8.04-10.37.29-.88.57-1.78.51-2.6-.02-.17-.07-.21.03-.05l3.28-.18c-4.02,7.35-12.15,12.14-20.15,7.72h0Z"/>
      <path class="cls-1" d="m134.2,100.86c.98-.09,1.68-.49,2.52-.79,2.34-1.02,4.09-.69,6.61-1.57.79,2.34-1.62,4.39-3.64,4.83-1.97.49-5.01-.14-5.48-2.47h0Z"/>
    </g>
  </g>
</svg>