<?xml version="1.0" encoding="UTF-8"?>
<svg id="Layer_2" data-name="Layer 2" xmlns="http://www.w3.org/2000/svg" viewBox="0 0 218.03 185.25">
  <defs>
    <style>
      .cls-1 {
        fill: #6d766e;
      }
    </style>
  </defs>
  <g id="Layer_1-2" data-name="Layer 1">
    <g>
      <path class="cls-1" d="m20.09,136.3c-1.3,1.77-2.84,3.56-4.92,4.67-.63.41-.51,1.12-.79,1.76-2.28-.92,1.05-5.62-2.13-4.08-9.34,1.83-6.39-.24-.44-3.51,1.42-.99-1.34-2.47.64-3.23.59-.29.39-1.09-.28-.89-2.15-.49-3.87.43-5.54,1.65-1.28-3.26,5.32-6.61,8.08-7.24-1.07-.28-4.44-1.26-2.46-2.53,4.92-1.72,4.98-9.11,11.16-8.17-1.08,1.77-2.78,2.97-2.98,5.06,1.98.71,5.17-6.36,10.98-6.16,3.14.68,8.06-6.51,9.89-1.87.13,1.4-.26,2.88.66,4.12,3.17,2.13-10.59,8.58-6.62,8.15,3.11-1.07,6.07-3.9,9.39-3.67,1.83,1.48-1.95,3.44-2.85,4.6,1.15-.36,2.46-.05,3.43-.94.39-.36.77-.49,1.26-.5,3.5.17-.15,3.59-1.81,3.87-4.27.66-2.82,6.2-6.45,7.98-4.38,3.22-3.81,4.46-5.77-1.32-1.1-3.03-3.41,4.32-8.17,5.48-1.22.56-2.46,1.21-3.1,2.54-.19.39-.54.71-1.05.6-.53-.11-.43-.58-.43-.95-.25-1.79.53-3.8.3-5.43Z"/>
      <path class="cls-1" d="m194.37,83.61c2.02-.11,3.62.79,5.37.65.32-.03.71.08.53.62-.39,1.13-.85,2.17-2.19,2.46-.56.13-1.22.15-1.63,1.18,2.84-.63,5.63-.49,8.29.39.55.3,1.08-.07,1.61-.11,2.17-.04.66,2.87-.66,3.05-.31.13-.79.14-.76.56.04.46.54.38.85.34,1.98-.24,3.62.34,5.16,1.66,2.39,1.36,11.22.06,4.75,4.39-1.9,1.44,2.42,2.66,2.28,4.1-.88.93-2.96.61-4.07-.1-1.96-.8-.95,3.48-4.13,1.56-3.01-1.53,1.02,5.05-2.03,4.08-2.58-1.45-6.32-1.16-7.89-4.1-.14-.31-.28-.6-.64-.39-.94.33-.36,1.22.13,1.74,1.28.88,2.2,6.8-.08,5.6-1.8-2.05-4.87-2.15-6.2-4.68-.25-.34-.47-.81-.99-.66-.41.12-.68.37-.78.89-1.34,3.78-4.14-3.37-5.87-3.6-.83.52.41,2.88-1.46,1.69-1.25-1.28-5.08-1.56-4.61-3.67,1-7.37,8.54-3.02,13.36-3.31-3.23-2.54-6.95-2.46-10.74-2.71-.45.07-.71-.25-.75-.7-.98-1.23,9.6-4.72,5.32-4.28-1.54.52-6.58,2.78-6.08-.49.98-2.58.36-6.73,2.32-8.49,2.59.28,1.55,4.37,4.72,1.34,1.58-1.83,10.71-2.78,6.86.97Z"/>
      <path class="cls-1" d="m192.74,75.9c.47.78,1.39,1.01,1.28,1.99-.08.72-.26,1.1-1,.89-3.53-.07-6.64,2.87-10.35,1.18-2.6-.94-2.7-4.21-2.75-6.56.01-.37.1-.69.48-.82,2.03-1.33,4.6-1.79,6.03-3.82-7.36,1.77-6.28,2.47-9.81-4.08-.4-1.61-4.01-2.63-2.43-4.22,2-2.52,5.16-1.92,8.04-1.96,1.08-.33,1.65,1,.83,1.67-.46.74-2.15,1.28-1.71,2.29.29.4.65.06.9-.11,1.54-1.37,3.23-2.15,5.21-2.58,2.48-1.49,12.74-9.46,8.32-1.13-.56.48-1.54,1.21-1.22,2.06.17.24.39.05.53-.09,1.13-1.12,2.72-.57,4.02-1.1.43-.18.56.26.57.64.2,1.39-1.19,2-1.47,3.18,3.56-1.21,8.23-1.8,11.19-4.51.38-.56,1.46-1.17,1.96-.48.2.86-1.57,1.02-1.05,2.06,2.06.05,4.72.1,6.96-.26,2.09.81-6.49,5.35-7.89,4.9-1,.04-.83,1.47-.15,1.87,2.67,2.32-4.66,3.02-6.13,2.83-1.44.16-1.52.31-1.03,1.71.9,2.16-1.21,1.88-2.59,2.41-2.15.86-4.11,2.33-6.77,2.06Z"/>
      <path class="cls-1" d="m145.39,162.99c-4.09,8.13-4.66-2.74-3.56-6.39-3.24,2.46-4.78,1.21-4.46-2.66.46-1.88-1.28-4.75.71-5.89.98-.33,2.12-1.7,3.16-1.09,2.83,1.35,4.96,2.76,7.89,4.24-.17-2.58-7.04-5.13-4.47-6.82,2.28-.8,4.94-4.05,6.65-.69.85,2.52,3.65,1.68,5.39,3.15.81,1.54,7.03,3.99,3.17,5.17-.63.08-1.63-.44-1.8.45-.16.83.96.78,1.5,1.13,1.77.83,3.32,2.14,5.13,2.83,2.7-.36,1.47,3-.2,3.76.33.37.73.51,1.16.46,2.37-.26,3.6,1.59,5.17,2.79,1.35,2.19-3.36,3.9-5.06,3.42-1.27.15-4.2-2.35-4.28-.18.4,2.63-.06,3.4-2.44,1.91-3.46-.33-6.68-1.97-8.01-5.4-1.09,2.05-.51,4.44-2.44,6.05-.22.24-.51.7-.84,0-.91-1.93-2.17-3.71-2.37-6.25Z"/>
      <path class="cls-1" d="m51.61,150.45c-9.05.5,1.64-6.15,4.83-6.6.15-.88-2.31-.06-2.21-1.81.28-3.22,4.93-3.16,6.31-5.73,4.36-.82,3.08,5.79,3.43,8.55,1.5-1.14,2.35-4.13,4.27-4.21.54.31-.03.66-.14.96-.32.81-.42,1.65-.47,2.5.04,2.41-2.73,3.81-2.34,6.14,2.23-1.9,5.95-9.57,8.86-7.46,1.1,1.32,5.14.33,3.58,2.87-3.23,7.1-5.8,3.58-6.57,6.87-.19,3.02-3.46,3.91-4.19,6.59-.24.97-1.04,1.32-1.83,1.33-1.3,0-.83-1.97-1.78-2.41-3.06,1.29-2.56,5.98-4.71,8.24-2.87,1.93-1.8-4.69-2-5.96-3.57,3.18-3.53,11.25-9.52,11.14.15-2.2,2.38-4.15,2.23-6.69-.1-2.23,2.05-4.24,1.94-6.3-1.58-.11-2.88,2.09-4.81,1.6-4.75-.39,4.12-7.73,5.27-9.3-.05-.11-.09-.21-.14-.32Z"/>
      <path class="cls-1" d="m114.56,165.43c-.39,1.61-2.68,2.24-1.51,4.08,1.16,2.08,3.02,10.18-1.44,8.46-.6-.4-1.17-1.27-1.84-1.02-.79.3-.24,1.3-.38,1.98.13,1.22-2.36,8.43-3.61,5.71-.28-4.03-4.46-6.4-3.62-10.6-.02-.32.16-.77-.25-.91-8.3,7.28-2.36.64-3.6-3.89-2.89,2.56-5.43,5.5-2.98-.66-.09-2.09,1.74-3.95,1.81-5.71-.93-.47-1.62,1.54-2.47,1.05-.54-.35-.38-1.24-.22-1.82.99-2.54-1.36-4.95-.57-7.27,3.2-6.3.88-3.97,6.88-3.06,3.56.99,3.13,5.89,4.19,8.74,2.07-3.17-.23-6.99.58-9.98,2.14.08,3.71,5.67,4.5,7.63,2.01-1.85-.73-7.75,3.13-6.75,6.7,1.31,4.22,2.6,3.22,7.94-1.17,1.4-1.3,3.86-2.08,5.63-.08.26.02.4.27.46Z"/>
      <path class="cls-1" d="m159.86,17.08c4.09-.25.68,5.89-.59,7.49-1.3,1.56,2.25.69,1.14,2.35-2.07,2.47-4.77,10.33-8.73,7.29-2.73-1.68.6-2.38.66-4.4-1.69,1.29-7.43,4.44-5.93-.11,1.48-2.97,4.7-6.5,4.17-9.74-3.62,3.2-7.41,12.27-12.63,6.1-.77-1.07.6-1.99.83-3.05.78-1.78.41-4.43,1.66-5.83.59-.26.9.33,1.16.77,2.72,2.03,1.78-6.46,1.26-7.82-1.67-4.16,4.2.49,3.77-3.52,0-3.98,7.01-9.54,4.95-2.03-.09,2.16,2.08-2.19,2.61-2.66.39-1.48,4.59-2.79,3.63-.3-.94,1.7-.56,3.51-.74,5.27-.08.77.12,1.25,1.05,1.13,2.5.16-1.85,4.77-.53,5.82,1.39-.47,1.87-3.1,2.9-4.29,4.51-4.28-.35,5.96-.66,7.52Z"/>
      <path class="cls-1" d="m90.29,6.46c-1.56,3.48.89,6.41,1.47,9.75.08.28.13.63.53.62.99-.36.54-1.96,1.34-2.65.43-.72,1.54-.51,1.27.4-.07.77.28,1.39.81,1.82,1.38,1.14,1.8,4.9-.45,4.82-6.72.65-5.92.89-9.46-4.55-1.06-1.23.34-4.08-.85-4.97-1.65,2.17-.37,6.39-.43,9.17.17,1.63-1.24,2.38-2.77,1.68-1.85-.91-1.71-3.15-2.77-4.68-.51.33-.43.81-.29,1.16,1.75,6.96-1.08,6.73-6.28,9.46-1.98.58-1.54-3.42-1.61-4.66-.69-3.97-4.87-4.33-3.8-9.93,1-.96,3.52-.55,4.41.8,1.67,1.84-1.01-7.12,2.89-9.86,1.08-.95,1.46,1.39,2.38,1.25.93-.86.21-2.65,1.32-3.63.98-.97,1.5-1.01,2,.23.37,1.49,3.62,2.38,3.51.33-.69-1.91,1.64-1.91,2.14-.29.94,3.95,1.77-3.25,3.87-2.69.56,2.09.06,4.5.76,6.43Z"/>
      <path class="cls-1" d="m36.43,53.66c.57-.45.45-.77.46-1.06-.07-3.25,3.06.28,4.54-.43,3.46-.06,3.07,6.03,1.56,8.1-1.36.94.81,2.01-.23,3.12-.4.62-.85.1-1.24-.04-.83-.29-1.71-.04-2.55-.36-.93.11-3.71-2.88-3.11-.71.4,2.46,8.26,4.78,4.92,6.59-3.35,3.29-3.63,4.71-8.8,5.47-3.62.34,1.87-4.87-2.45-2.99-1.54.39-3.29.44-4.08,2.06-2.18,4.55-9.11-.32-11.09-2.51.58-.7,1.8.6,2.4-.1.29-.43-.29-.65-.5-.92-.87-.83-.27-1.89.86-1.48,2.58-.65,5.74,4.02,7.25,1.52.23-2.16,6.01-3.93,3.84-5.08-.85-.67-5.35-3.35-2.22-3.71,1.41.06,5.3,1.11,5.59-.66-.06-.78-.61-.46-1.13-.45-4.87-.09-8.85-3.09-11.93-6.53-1.12-1.08,3.24-.23,3.78-.39,2.13-.09-2.08-4.22,1.04-4.17,4.47-.71,4.75,4.79,7.42,4.2-3.02-8.47,4.19-4.29,5.67.52Z"/>
      <path class="cls-1" d="m25.01,82c-.74-.84-4.68-.58-2.95-2.18,3.01-2.41,6.56-6.26,10.56-3.14,2.45,1.81,3.55-2.38,5.97-2.49,3.15-.71-.77,6.02.35,8.07.35,1.77-9.9,4.96-5.67,5.32,4.7-.69,3.16.6,3.37,4.36-.31,3.73-3.85.49-5.87,2.25-1.58,1.3-3.07,2.77-5.09,3.43-3.99,1.75-1.28-3.53-3.65-2.55-2.16,1.47-4.75.96-7.03,1.94-2.36.89-.03-2.14.68-2.7.87-.81.25-1.82-.78-1.2-2.56.39-6.3.41-8.07-1.43,1.52-1.7,4.88-1.31,6.68-2.36.09-.4-.25-.51-.5-.66-.55-.33-.68-.98-1.14-1.38-.35-.31-.8-.64-.55-1.18,2.56-1.95,6.9.09,9.57-.7.6-2.09,3.08-1.86,4.12-3.4Z"/>
      <path class="cls-1" d="m171.27,136.51c-1.6-1.54-9.63-3.01-8.8-4.78,1.68-1.79,4.29-8.04,7.14-5.18.74.96,1.03,2.08,1.19,3.23.77,2.9,7.55-.38,9.45,3.17.98,2.74,8.25-1.36,6.27,2.01-2.03,3.59-5.58.87-6.08,2.68-.07.98.92.8,1.57.89,1.67.11,2.14,2.65.35,2.76-1.15,1.17-6.97-.76-4.91,1.39,1.06.81,2.84,5.13.05,3.57-1.68-1.24-3.59-.57-5.4-.71-2.64.06-4.64-1.64-6.68-2.68-.88.91,1.41,6.18-1.43,4.39-2.92-3.85-7.78-1.52-10.29-4.09-2.39-4.5-2.29-2.84,1.11-6.09,1.12-1.59,6.5,1.46,8.43.77.66-.19.78-.43.15-.91-2.12-.99-1.46-2.57.74-1.8,2.5.07,4.48,2.13,7.14,1.37Z"/>
      <path class="cls-1" d="m83.11,173.94c.55-1.9,1.57-4.52.92-6.28-.28-.08-.47.2-.6.4-.53,1.01-5.54,3.85-4.78,1.45.3-1.3,2.78-7.54-.09-6.31-.7.25-1.37.42-1.85-.28-1-2.44,6.25-6.05-.94-4.21-2.46-.1,1.29-2.32,1.21-3.54.31-.85.67-1.58,1.6-1.88.23-.08.52-.2.42-.53-.24-.41-.92-.18-1.33-.21-3.78-.14,2.28-5.2,2.75-6.67,4.11-2.36,7.58,3.82,11.25,4.99,1.19.34,1.62,1.48.85,2.6-1.26,1.85-1.03,3.54-.14,5.43.55.93,1.24,7.55-.67,6.11-3.96-2.91-.86,8.66-8.61,8.92Z"/>
      <path class="cls-1" d="m172.63,39.85c.7.56,1.15-.82,1.76-.18.39,3.11-9.54,8.25-11.19,4.53-.87-1.54,2.67-2.49,2.02-4.09-2.14-.96-5.55,2.99-7.02-.14-.69-1.28-2.96-.95-2.26-2.96,1.2-2.84,4.47-4.11,6.04-6.77,1-2.13,2.11.53,2,1.81,3.03-2.21,4.45-7.06,8.74-7.47,2.51-.17.8,1.69,1.68,2.62,1.44.06,7.12-5.77,7.37-2.02-.05,1.46-1.12,2.26-2.05,3.15-.53.51-1.64.8-1.29,1.69,9.08,1.1-4.38,6.82-5.81,9.85Z"/>
      <path class="cls-1" d="m172.48,125.17c.29-.94-.09-1.53-1.51-1.4-4.12-1,7.75-9.08,7.14-16.5.31-1.28,1.4-1.67,2.37-.75,1.72,1.66,3.87-.34,5.77.76,2.35.99-1.57,3.62,1.4,4.02,5.41.02-1.42,4.48-3.37,4.31-.37.02-.91-.04-.82.53.56,1.02,2.27-1.04,2.16,1.25.19,1.08-.57,2.18-.39,3.14,1.65.19,3.26-2.21,4.91-2.1.32,1.6-1.21,3.38-1.02,5.19-.07,1-.9,1.12-1.77.9-4.13-.83,1.66,4.01-5.44,1.97-.62-.26-.75.06-.59.65,1.1,2.75-.05,2.92-2.16,1.4-.89-.69-1.22-.24-1.4.6-.22,1.13-.8,1.38-1.84.86-2.73.52-3.74-2.21-3.45-4.83Z"/>
      <path class="cls-1" d="m100.71,5.99c1.18-.3,3.53.77,3.53-.86.05-1.69.49-4.76,2.51-4.91,1.92,1.06,2.41,4.78,2.46,6.99-.08.98.97,1.46,1.65,2,.33.26.65-.22.79-.48.52-.97,1.51-1.5,2.12-2.39.82-1.39,2.93-.61,2.68.96-.05,5.01-2.27,2.88.72,9.34.86-3.15,3.33-6.51,3.95-1.22.06.34.1.73.49.84.46.13.57-.31.72-.59.52-.98,1.37-1.65,2.19-2.36,2.77-.99,2.88,6.32,1.48,7.97-2.1,3.56-4.74-2.59-8.15-.14-1.88.2-3.75-1.2-5.65-.04-1.89.15-3.82-.61-5.65.5-2.44,1.14-2.28-2.42-1.74-3.85.67-1.75-.21-3.03-1.12-4.25-1.68-2.24-2.38-4.82-2.98-7.53Z"/>
      <path class="cls-1" d="m176.84,42.96c.95.28,2.92-.19,2.58,1.19.14,1.36-1.32,2.21-1.49,3.28,2.23-.21,5.44-2.3,7.43-3.9,2.66-2.5,7.82-3.69,4.1,1.56-.41.5.08.94.59.55,9.17-6.15,2.65,3.3-1.01,5.7-1.63,2.47-2.58,6.43-6.56,5.26-5.29-2.6-9.94,6.06-11.77-.79-.07-4.62-5.57-7.13-2.68-8.02,2.56-2.31,5.58-3.84,8.82-4.83Z"/>
      <path class="cls-1" d="m135.79,155.46c.23,1.43-.76,3.15,1.24,3.75,4.04,2.49,1.05,6.35-2.83,3.54-.37-.27-.76-.78-1.24-.5-.18,1.67.38,3.99.78,5.84,1.09,1.72-.7,2.33-2.13,1.59-1.3-.48-1.58-3.12-3.28-1.89-2.18,1.36-.94-3.38-1.7-4.49-.12-1.52-1.3-1.74-1.63-.19-.22,1.37-3.77,4.65-3.89,1.88.19-1.42-.41-2.47-1.31-3.49-2.44-2.32-.27-12.47,4.05-10.76,5.92.84,12.62-6.39,11.92,4.73,0,0,.01,0,.02,0Z"/>
      <path class="cls-1" d="m60.48,20.08c.37,1.39-1.55,3.57.95,3.62.45,0,.55.52.56.91.25,1.64,1.21,3.55,2.35,4.54,1.08-.7.16-2.1-.57-2.68-.25-.26-.78-.47-.62-.88,3.11-1.55,8.85,2,5.69,5.62-.81,1.36-2.66,1.53-3.42,2.8-.68,1.96-2.47,2.61-4.06,3.45-1.38.92-1.75,3.05-3.8,2.02-2.37-.59-7.94-7.91-4.19-8.97,2.54.42,3.06-.57.73-1.79-1.74-1.44-1.02-4.06-2.86-5.31-.41-.25-.89-.72-.56-1.29.35-.62.92-.28,1.38-.08.71.21,3.8.71,2.96-.64-.86-1.18-1.54-6.84.99-4.1,1.95,3.74,4.79-1.74,4.43,2.75.01,0,.02,0,.03,0Z"/>
      <path class="cls-1" d="m29.49,108.55c-1.56.11-9.52-.77-5.38-2.8,1.59-.53,3.9-1.2,4.69-2.62-.06-.52-.59-.67-1.05-.83-.93-.45-3.11-1.92-2.39-2.98,4.64-2.53,2.97-1.2,5.82,1.53,2.06-1.62-6-8.01,5.5-4.77,3.39.68.7,7.28,3.42,9.69.8,1.18.51,1.93-.87,2.21-3.06.12-4.51,3.51-7.37,3.62-1.69-.04-3.27.21-4.49,1.53-.19.2-.4.32-.66.06-.8-2.01,2.16-2.95,2.78-4.64Z"/>
      <path class="cls-1" d="m40.18,45.31c-1.83-2.75-1.47-7.78,2.83-5.62,1.03.86,2.71,2.1,3.5.3,1.52-2.35,4.51.77,6.79.03.88.07,2.22.42,2.41,1.38-.12,1.05-2.06,1.05-2.24,2.28-.69,1.4-2.73,1.42-2.65,3.35-1.04,1.72-2.71,2.97-2.81,5.2-.14.72-.2,1.04-1.01.42-1.14-.87-2.6-1.17-3.97-1.51-3.02-.35-9.69-6.65-2.86-5.84Z"/>
      <path class="cls-1" d="m33.54,148.24c-6.15,9.1-13.33,5.37-3.17-2.12,2.65-2.49.58-5.89,5.66-6.73,3.01-.67,17.15-8.27,8.93.03-4.37,1.8-3.79,6.84-6.99,9.57-3.24,2.65-3.41,5.41-4.43-.76Z"/>
      <path class="cls-1" d="m52.94,129.7c3.52.16,2.59,2.19,1.98,4.32.36.41.82.02,1.17-.17.84-.46,1.7-.5,2.62-.45,2.36-.22.84,2.88-.5,3.15-1.24.33-2.35,1.02-3.63,1.23-1.95.98-2.95,3.38-5.4,3.73-2.51.76-.59-3.17.2-4.02.51-.75,1.83-1.58,1.43-2.57-.61-.78-1.42.5-2.12.21-.31-2.04,2.27-4.84,4.24-5.43Z"/>
      <path class="cls-1" d="m129.17,19.71c-.09-1.59.56-4.7,2.34-5.43,1.5.64.8,3.12,1.75,4.18,1.16-.69,2.84-5.96,4.41-2.78,1.26,3.16-1.56,5.33-2.45,8.03-.27,1.15-.89,1.36-1.89.97-3.13-.86-4.38-1.09-4.16-4.98Z"/>
      <path class="cls-1" d="m45.66,26.04c2.61.84,1.67,5.19,3.97,5.29.44-.04.8.08.86.56.23,1.9,1.45,3.38,2.13,5.08.63,1.11.54,1.86-.85,1.31-2.41-.05-4.07-2.3-6.5-2.54-2.09-.63-2.74-2.18-1.7-4.07,1.11-1.6.1-4.71,2.08-5.63Z"/>
      <path class="cls-1" d="m23.57,101.09c-.65,3.25-8.29,7.05-9.25,2.62.64-2.52-2.79-.55-3.32-1.94,1.64-2.07,13.01-6.11,12.57-.68Z"/>
      <path class="cls-1" d="m99.08,20.27c.5-1.62.14-4.84,2.22-5.25,1.94.36,2.51,5.39.82,6.11-.98.25-3.66,1.1-3.05-.85Z"/>
      <path class="cls-1" d="m45.04,132.18c-3.23-.96,3.11-4.71,4.55-4.99.95-.29,1.33.19,1.06,1.15-.83,3-2.8,3.43-5.61,3.84Z"/>
      <path class="cls-1" d="m197.55,120.4c.08,0,.16-.02.25-.03-.08,0-.16.02-.25.03Z"/>
      <path class="cls-1" d="m0,139.24c0,.15,0,.3,0,.45,0-.15,0-.3,0-.45Z"/>
    </g>
  </g>
</svg>