<?xml version="1.0" encoding="UTF-8"?>
<svg id="Layer_2" data-name="Layer 2" xmlns="http://www.w3.org/2000/svg" viewBox="0 0 154.3 114.47">
  <defs>
    <style>
      .cls-1 {
        fill: #633a33;
      }
    </style>
  </defs>
  <g id="Layer_1-2" data-name="Layer 1">
    <path class="cls-1" d="m134.5,0l-19.21,11.28L96.66.35v1.37l18.04,10.59v21.89l-9.31,5.47-9.31,5.47-9.31-5.47-9.31-5.47v-14.07h-1.18v14.07l-9.31,5.47-9.31,5.47-9.31-5.47-9.31-5.47v-14.07h-1.18v14.07l-18.63,10.94L0,33.85h0v1.37h0s18.62,10.94,18.62,10.94v21.89L0,78.99h0s0,24.2,0,24.2h0s19.21,11.28,19.21,11.28l19.21-11.28.59.35v-23.26l18.62-10.94,18.63,10.94v9.38h1.18v-9.38l18.63-10.94,18.62,10.94v9.38h.59v-10.67h0s-18.62-10.94-18.62-10.94v-21.89l9.31-5.47,9.31-5.47,9.31,5.47,9.31,5.47v15.33h1.18v-15.33l19.21-11.28V11.63L134.5,0ZM37.84,102.17l-18.63,10.94L.59,102.17v-21.89l18.62-10.94,18.63,10.94v21.89Zm19.21-34.12l-18.62,10.94-18.63-10.94v-21.89l18.63-10.94,9.31,5.47,9.31,5.47v21.89Zm38.43,0l-18.63,10.94-18.63-10.94v-21.89l9.31-5.47,9.31-5.47,9.31,5.47,9.31,5.47v21.89Zm57.64-33.85l-18.62,10.94-9.31-5.47-9.31-5.47V12.3l18.63-10.94,18.62,10.94v21.89Z"/>
  </g>
</svg>