<?xml version="1.0" encoding="UTF-8"?>
<svg id="Layer_2" data-name="Layer 2" xmlns="http://www.w3.org/2000/svg" viewBox="0 0 81.08 77.61">
  <defs>
    <style>
      .cls-1 {
        fill: #22346a;
      }
    </style>
  </defs>
  <g id="Layer_1-2" data-name="Layer 1">
    <g>
      <path class="cls-1" d="m67.57,70.6c-2.67,1.06-5.62,1.31-8.47,1.32-4.83.07-9.68-.86-14.1-2.9-19.33-8.42-25.84-37.2-4.3-47.2,3.72-1.7,7.7-2.65,11.67-3.05,16.45.52,28.3,13.35,19.04,29.09-5.43,9.44-21.49,10.4-25.6-.72-1.85-5.1,1.72-10.4,6.18-12.56,3.83-1.04,9.27,1.05,9.21,5.66-.03,2.04-1.68,3.99-3.84,3.31,0,0-.2-.3-.2-.3.09-1.26.18-1.9.39-2.79.28-2.07-2.84-2.61-4.46-2.15,0,0,.55-.21.55-.21-2.47,1.45-4.21,3.68-4.12,5.99.51,7.1,10.6,8.61,15.45,4.43,5.44-4.26,7.26-13.43,2.96-18.81-3.64-4.63-9.94-6.62-15.65-6.94-2.19.28-7.19,1.14-9.96,2.55-18.99,8.47-12.7,33.88,3.73,41.55,4.01,2.03,8.57,3.05,13.08,3.12,2.78.18,5.44-.43,8.26-.33,0,0,.2.95.2.95h0Z"/>
      <path class="cls-1" d="m70.36,16.33c1.92,1.56.95,4.58-.61,5.99-1.49,1.49-4.66,2.21-6.03.13,1.68-1.03,2.05-1.96,3.3-3.06,1.17-1.18,2.17-1.5,3.34-3.07h0Z"/>
      <path class="cls-1" d="m81.08,30.12c-.57,3.54-5.63,3.94-8.12,2.18-.88-.62-1.93-1.65-1.75-2.86.62.13,1.02.04,1.47-.01,1.96-.28,3.86-.21,5.76.26.81.19,1.8.49,2.64.44h0Z"/>
      <path class="cls-1" d="m51.13,5.61c7.4,1.23,6.48,14.28-1.02,14.47,2.57-4.69,2.96-9.47,1.02-14.47h0Z"/>
      <path class="cls-1" d="m52.49,1.86c1.64-2.53,5.78-2.42,7.7-.06,2.64,2.83,1.62,8.1-2.08,9.26.28-2.48.33-4.33-.66-6.24-1.02-1.91-2.49-2.49-4.95-2.95h0Z"/>
      <path class="cls-1" d="m30.7,20.42c2.26-2.35,5.98.01,6.48,2.8.67,2.51-.59,5.94-3.43,6.22.28-2.15-.07-3.47-.45-5.26-.48-1.77-.63-2.59-2.59-3.76h0Z"/>
      <path class="cls-1" d="m29.39,47.4c-5.9-4.06-14.52-4.77-20.04.1-3.65,3.34-.85,6.1,2.63,7.85,0,0-.5-.1-.5-.1,2.75.4,5.49-3.5,2.88-5.56,3.32.98,2.51,5.53.13,7.21-.86.69-2.01,1.18-3.21,1.2-2.64-.78-5.59-2.22-6.93-4.98-2.3-5.01,2.49-9.86,6.93-11.32,6.49-2.46,14.33-.2,18.12,5.6h0Z"/>
      <path class="cls-1" d="m32.23,66.54c1.16-2.97,4.49-3.73,6.81-1.53-1.15,2.98-4.49,3.72-6.81,1.53h0Z"/>
      <path class="cls-1" d="m48.74,69.78c-.61,1.42-.53,2.9-1.25,4.21-.63,1.48-1.5,1.86-2.15,3.62-2.23-.67-2.3-3.66-1.46-5.34.77-1.65,2.97-3.48,4.86-2.49h0Z"/>
      <path class="cls-1" d="m55.72,53.78c.21,1.1,1.28,1.56,1.26,2.68.1,1.14-.95,1.66-1.09,2.76-1.53.57-2.91-1.32-2.91-2.63-.08-1.31,1.18-3.28,2.74-2.81h0Z"/>
      <path class="cls-1" d="m46.53,43.74c-1.21.08-2.11.88-3.24.81-1.22-.02-1.45-.72-3.06-.64-.74-1.91,1.49-3.46,3.12-3.36,1.58-.01,3.63,1.4,3.18,3.19h0Z"/>
      <path class="cls-1" d="m9.59,43.91c-.53.29-1.07.03-1.52-.14-1.95-1.01-2.73-3.41-1.82-5.41.42-.88,1.29-1.73,2.32-1.6.07.48.18.82.39,1.18.75,1.19,1.16,2.4.95,3.83-.05.75-.43,1.29-.31,2.15h0Z"/>
      <path class="cls-1" d="m.57,47.48c1.38.57,1.9-.02,2.94.42,1.04.45.94,1.21,2.34,1.8.04,1.89-2.51,2.57-3.9,1.89-1.45-.54-2.73-2.8-1.38-4.1h0Z"/>
    </g>
  </g>
</svg>