<?xml version="1.0" encoding="UTF-8"?>
<svg id="Layer_2" data-name="Layer 2" xmlns="http://www.w3.org/2000/svg" viewBox="0 0 142.11 142.45">
  <defs>
    <style>
      .cls-1 {
        fill: #233567;
      }
    </style>
  </defs>
  <g id="Layer_1-2" data-name="Layer 1">
    <g>
      <path class="cls-1" d="m38.97,47.12c10.27,5.75,6.46,22.85-5.65,22.47-9.62,1.26-15.24-13.73-5.11-16.88,6.11-2.74,12.69,6.45,5.7,9.58-2.18.9-6.05-1.53-3.64-3.85.43-.53,1.48-1.03,1.27-1.8-13.65,0,1.28,16.38,8.38,5.75,7.59-22.03-32.1-14.43-22.71,4.81,2.29,5.94,9.09,5,11.87,8.57-.24,6.42-10.3-1.03-12.77-3.36-10.13-6.38,5.34-26.49-9.01-26.27-1.88-.57-4.26,4.39-2.09,3.7,11.39-4.34,2.94,13.72-4.38,2.68-5.44-12.08,17.22-17.71,17.79-4.76.09.85.32,1.14,1.09.65,4.73-3.37,11.4-2.13,14.88-7.25C44.19,29.67-7.16,23.58,29.89.32c5.84-1.51,13.14,2.51,11.7,9.19-1.87,4.25-3.09,6.36,2.07,9.01,2.52,1,7.28-1.1,6.33-3.99-3.6,1.83-8.6.3-6.28-4.64,2.83-4.53,10.55-2.54,11.68,2.57,2.36,8.47-10.02,14.99-15.59,7.68-2.29-2.04-2.24-5.88-6.25-4.79-6.15.66-6.34-11.6.2-7.97,1.17,1.5.46,2.71.04,4.25,1.04.72,3.36-.32,3.77-1.76,1.11-9.56-14.47-6.91-14.9,1.22-2.52,10.82,10.33,11.57,15.85,17.54,4.98,4.07,5.48,13.44-1.71,16.2-.58.31-.8,1.45.05,1.56,9.85-5.3,7.17-16.34-.37-22.78-.97-2.97,4.45,2.68,6.24,2.15,13.18,2.06,10.65,25.49-3.73,21.38Z"/>
      <path class="cls-1" d="m115.72,115.13c2.67-.1,3.66-3.99,5.74-4.75-1.27,6.78-6.87,13.42-13.85,15.34-10.71,4.62-24.73-3.55-24.52-15.11,2.36,3,5.1,10.23,9.84,9.37-20.28-14.87,5.58-42.26,15.77-19.34,1.04,10.77-18.41,11.77-16.81.16,1.44-5.24,9.83-3.42,6.78,2.16.3,3.63,5.98-.54,5.1-3.07-1.64-5.97-10.47-5.17-13.5-.52-10.96,21.88,35.54,19.05,25.72.36-4.68-3.42-6.36-9.48-11.55-12.22-5.99.41-14.66-7.47-10.18-12.72,2.6,13.9,18.36,9.6,12.61.69-1.18-1.33-6.67.51-3.87,1.7,3.83-1.2,4.62,3.37,1.31,4.26-14.07-2.6,2.79-17.47,8.64-6.48,3.36,4.1-3.36,8.49-1.73,10.96,5.22,1.06,7.67,8.28,10.9,8.61,3.32-1.27,7.2,1.91,7.94,5.11,3.12,7.75-12.47,19.3.25,23.24,6.12,2.99,11.73-8.55,3.26-7.17,2.06,14.27-12.21-2.16,1.25-3.38,19.11,3.94-4.7,24.08-12.17,9.13-5.39-5.77,4.81-14.76-.36-19.62-1.98,4.21-2.65,9.7-6.6,13.3Z"/>
      <path class="cls-1" d="m57.01,95.76c-9.74-3.35-12.38-16.76-23.51-17.38-1.96.18-3.72-1.89-1.2-2.78,13.36-2.12,25.72,25.24,36.66,7.78,2.71-7.02,8-4.17,13-5.73,4.18-4.14,4.36,2.02,1.05,3.88-1.29,1.32-4.25,1.39-4.59,3.44,2.56,11.84-12.69,21.02-21.21,19.97-.17-2.01-.17-2.12-2.22-2.2-15.89,2.99-12.16-29.97-26.51-18.34-1.13,1.65,1.65,5.6,2.82,3.37-.05-1.82-.16-4,2.33-3.93,4.23.56,3.39,6.82-.99,7.39-11.79,1.65-6.41-16.36,3.63-11.21,9.18,2.61,9.45,17.56,20.74,15.74Z"/>
      <path class="cls-1" d="m54.72,142.32c-7.3.69-17.53-5.45-14.9-13.7,2.49-9.46,19.97-3.98,12.11,4.91-3.8,4.35-11.38-3.6-3.93-4.15.48-.07.92-.22.9-.86-1.41-3.73-7.3.03-6.34,3.65,1.98,9.45,19.4,5.69,17.72-3.71-18.9-22.25,10.5-18.72,17.88-33.65.51-1,1.07-2.4,2.39-2.32,2.89,10.23-13.37,14.88-19.97,19.85-10.22,9.7,15.06,15.46,8.21,3.31-1.55-1.69-5.16,1.07-2.2,1.07,1.64-1.13,2.41.5,1.11,1.82-6.27,4.54-8.97-7.39-1.63-7.29,10.44-.4,9.62,13.6.44,15.33,2.75,7.71-2.28,17.08-11.79,15.73Z"/>
      <path class="cls-1" d="m76.65,55.28c-3.39-.66-3.22,2.39-3.42,4.75.84,3.28,5.98,2.98,8.04,5.7,1.88,5.76-3.95.13-6.09-.16-11.65-3.94-14.35,11.99-4.89,6.64-.91-.91-3.32-1.77-2.71-3.92,8-7.56,10.4,11.18-.59,8.58-6.77-.94-7.81-10.88-1.02-13.41,1.09-.71,2.24-1.35,3.63-1.33,1.79-2.92-.74-9.7,5.41-10.45,18.22-.14-2.51,17.49,1.64,3.6Z"/>
      <path class="cls-1" d="m92.61,78.7c-.99,7.27,9.22,9.64.22,10.84-4.3-1.69-7.15,6.52-9.01,4.01-4.07-5.1-4.8-9.63,1.75-12.14,3.22-.67,2.25-6.78,4.86-6.24,1.2.82,2.75,1.54,2.18,3.52Z"/>
    </g>
  </g>
</svg>