<?xml version="1.0" encoding="UTF-8"?>
<svg id="Layer_2" data-name="Layer 2" xmlns="http://www.w3.org/2000/svg" viewBox="0 0 105.19 75.59">
  <defs>
    <style>
      .cls-1 {
        opacity: .97;
      }

      .cls-1, .cls-2 {
        fill: #22346a;
      }

      .cls-3 {
        fill: #551e22;
      }
    </style>
  </defs>
  <g id="Layer_1-2" data-name="Layer 1">
    <g>
      <g>
        <path class="cls-1" d="m40.85,32.68c-1.82-3.87-1.69-28.03,1.53-32.68,4,6.86,9.69,22.74,7.53,32.68l-2.55-4.34-2.17,4.6-2.11-4.79-2.23,4.53Z"/>
        <path class="cls-2" d="m51.51,32.43c2.25-9.14,13.61-26.04,23.81-30.77-2.2,10.86-7.21,24.41-15.7,33.45l-.38-4.09-3.51,3.06-.32-5.04-3.89,3.38Z"/>
        <path class="cls-2" d="m62.55,36c5.67-9.76,21.23-18.75,29.62-21.7-5.62,11.78-12.91,19.85-25.09,25.91l.06-2.74-2.43,1.15.06-2.36-2.23-.26Z"/>
        <path class="cls-2" d="m68.49,42c11.03-7.09,23.79-7.54,36.7-6.26-7.51,4.46-22.82,12.65-34.79,9.83l1.15-.83-2.3-.32,2.49-1.47-3.26-.96Z"/>
        <path class="cls-2" d="m68.49,48c6.46.61,15.72,5.52,20.36,8.94-7.16,2-17.1.93-23.43-3.97l2.49-.63-.64-1.6,2.11-.26-.89-2.49Z"/>
        <path class="cls-2" d="m58.21,57.51c2.74,7,7.25,9.69,13.6,12.32-1.01-6.69-4.1-10.81-8.39-15.38l-.54,1.85-1.91-.32-.32,1.66-2.43-.13Z"/>
        <path class="cls-2" d="m56.62,56.44c.5,6.95-.61,12.99-4.72,19.15-1.54-1.38-4.03-16.19-2.74-18.26l2.68,1.09.92-1.53,2.08,1.47,1.79-1.91Z"/>
        <path class="cls-2" d="m41.04,53.95c-2.39,2.4-11.59,13.26-10.72,18.77,4.21-1.72,13.85-9.33,16.53-14.3l-2.03-.26-.58-2.49-1.98.77-1.21-2.49Z"/>
        <path class="cls-2" d="m34.91,48.78c-6.41.82-17.65,5-22.85,9.7,9.4,1.16,19.37-.52,27.7-4.72l-2.49-1.28.77-1.4-3.06-.7-.06-1.6Z"/>
        <path class="cls-2" d="m33.26,47.82c-12.07-.99-23.39-2.6-33.26-12.91,13.43-1.41,20.95-2.38,34.09,5.12l-1.91.84,1.91,2.8-2.94.89,2.11,3.26Z"/>
        <path class="cls-2" d="m39.44,33.7c-1.42-10.08-18.73-21.28-24.61-24.19,2.6,13.71,9.01,22.17,21.36,28.91l-.7-2.87h2.04l-.51-2.36,2.42.51Z"/>
      </g>
      <g>
        <path class="cls-3" d="m51.45,41.23c-1.99-.33-1.69-6.03,1.11-5.7,1.8.6.91,5.67-1.11,5.7Z"/>
        <path class="cls-3" d="m54.26,41.18c-1.04-1.24,2.21-5.57,4.21-3.49.98,1.52-2.69,4.7-4.21,3.49Z"/>
        <path class="cls-3" d="m56.3,43.18c.09-1.47,4.79-3.07,5.96-1.74,1.78,3.64-4.87,5.18-5.96,1.74Z"/>
        <path class="cls-3" d="m55.74,45.65c.87-.99,5.84.48,6.3,2.51-1.2,2.54-7.23-.68-6.3-2.51Z"/>
        <path class="cls-3" d="m54.38,46.63c1.27-.4,4.14,3.18,2,4.6-2.27.82-3.8-3.84-2-4.6Z"/>
        <path class="cls-3" d="m51.96,46.72c1,.39.33,4.72-1.74,4.85-2.34-1.02.28-5.48,1.74-4.85Z"/>
        <path class="cls-3" d="m49.19,46.55c.14,2.42-4.55,6.16-5.28,2.38.19-1.47,4.17-3.11,5.28-2.38Z"/>
        <path class="cls-3" d="m46.43,45.44c-.28,1.81-7.16,1.39-7.15-1.49,1.7-2.38,7.38-.02,7.15,1.49Z"/>
        <path class="cls-3" d="m46.3,42.59c-1.79,1.87-7.36-2.26-4.64-4.85,2.29-.41,5.17,3.31,4.64,4.85Z"/>
        <path class="cls-3" d="m48.05,41.43c-1.85.24-3.2-4.81-1-5.57,2.31-.19,2.96,5.13,1,5.57Z"/>
      </g>
    </g>
  </g>
</svg>