<?xml version="1.0" encoding="UTF-8"?>
<svg id="Layer_2" data-name="Layer 2" xmlns="http://www.w3.org/2000/svg" viewBox="0 0 30.88 30.38">
  <defs>
    <style>
      .cls-1 {
        fill: #551e22;
      }
    </style>
  </defs>
  <g id="Layer_1-2" data-name="Layer 1">
    <path class="cls-1" d="m29.54,21.84c-5.69-.32-7.14,4.74-10.4,7.6-6.63,3.71-13.42-4.32-11.3-10.47.86-3.18,3.09-3.23,4.08-7.02,1.85-3.89-1.39-10.87-7.09-7.09-2.51,2.14-1.94,6.23,1.28,5.81,1.67.02,2.49-.91,2.87-.57.46.41-.04,2.32-1.34,3.26C-3.11,17.23-2.19-1.8,8.35.14c5.41.84,6.19,4.72,6.83,8.49,1.3,1.25,3.73-1,6.58,0,4.9,1.46,4.75,9.28-.32,10.47-5.73,1.98-6.6-7.05-2.36-4.34.5.56.27,1.16.64,1.34.5.25,1.65-.5,2.04-1.53.66-4.03-3.93-5.73-7.28-2.87-1.9,2.29-1.37,11.09,1.47,12.51,5.32,2.22,9.25-6.43,13.92-4.08,1.06.37,1.76,1.68-.32,1.72Z"/>
  </g>
</svg>