<svg width="83" height="80" viewBox="0 0 83 80" fill="none" xmlns="http://www.w3.org/2000/svg">
<path d="M16.1643 77.6881C18.3018 79.2426 20.7833 79.9929 23.2468 79.9929C26.9542 79.9929 30.613 78.2933 32.9678 75.0993C32.9745 75.0926 32.9809 75.0855 32.9869 75.078C32.9926 75.0705 32.9983 75.0631 33.0036 75.0556L33.0118 75.0439C33.0175 75.036 33.0228 75.0282 33.0281 75.0208L41.3605 63.5466L49.6929 75.0208C49.7011 75.0332 49.7096 75.0428 49.7178 75.0535C49.7217 75.0584 49.7252 75.0634 49.7291 75.0691C53.6539 80.4224 61.1952 81.6017 66.5629 77.6942C71.9366 73.787 73.1381 66.2321 69.2617 60.8369L69.2531 60.8234C69.246 60.8121 69.2404 60.8035 69.2315 60.7946L60.9172 49.3141L74.3879 44.923C80.7157 42.8604 84.1934 36.0195 82.1345 29.6803C80.0759 23.3415 73.2528 19.8575 66.919 21.9141L53.4487 26.2873L53.4426 12.0912C53.4362 5.42556 48.0202 0 41.3665 0C34.7128 0 29.2969 5.42556 29.2908 12.0972L29.2787 26.2812L15.8081 21.908C15.8028 21.908 15.7963 21.9068 15.7898 21.905C15.7813 21.9027 15.7726 21.8993 15.7658 21.8959C9.44412 19.8636 2.64542 23.3475 0.592536 29.6747C-1.46038 36.0014 1.99336 42.8181 8.29087 44.8988C8.2967 44.9006 8.30192 44.9027 8.30692 44.9049L8.32911 44.9134L8.33923 44.917L21.8037 49.3081L13.4895 60.7886C13.4865 60.7946 13.482 60.8007 13.4775 60.8067C13.4729 60.8128 13.4684 60.8188 13.4654 60.8249C9.58298 66.2201 10.7906 73.7809 16.1643 77.6881Z" fill="#2F80ED"/>
</svg>
