<svg width="73" height="80" viewBox="0 0 73 80" fill="none" xmlns="http://www.w3.org/2000/svg">
<path fill-rule="evenodd" clip-rule="evenodd" d="M46.4326 22.5325C67.4727 -1.70414 88.0055 34.1461 56.5722 39.9527C88.0055 46.0119 67.2192 81.6096 46.4326 57.3726C57.0793 87.6685 15.7597 87.4162 26.4065 57.3726C5.36638 81.6096 -15.1667 46.0119 16.2667 39.9527C-15.4202 34.1461 5.36638 -1.45168 26.4065 22.5325C15.5062 -7.51084 57.0793 -7.51084 46.4326 22.5325ZM36.2926 35.4083C38.8278 35.4083 41.1091 37.4281 41.1091 39.9527C41.1091 42.4773 38.8278 44.7496 36.2926 44.7496C33.7578 44.7496 31.7297 42.4773 31.7297 39.9527C31.7297 37.4281 33.7578 35.4083 36.2926 35.4083Z" fill="#EB5757"/>
</svg>
