<svg width="80" height="80" viewBox="0 0 80 80" fill="none" xmlns="http://www.w3.org/2000/svg">
<path d="M40 0C29.3846 0 20.7792 8.60543 20.7792 19.2208C20.7792 20.0815 20.0815 20.7792 19.2208 20.7792C8.60543 20.7792 0 29.3846 0 40C0 50.6154 8.60543 59.2209 19.2208 59.2209C20.0815 59.2209 20.7792 59.9185 20.7792 60.7791C20.7792 71.3945 29.3846 80 40 80C50.6154 80 59.2209 71.3945 59.2209 60.7791C59.2209 59.9185 59.9185 59.2209 60.7791 59.2209C71.3945 59.2209 80 50.6154 80 40C80 29.3846 71.3945 20.7792 60.7791 20.7792C59.9185 20.7792 59.2209 20.0815 59.2209 19.2208C59.2209 8.60543 50.6154 0 40 0Z" fill="#6FCF97"/>
</svg>
