<?xml version="1.0" encoding="UTF-8"?>
<svg id="Layer_2" data-name="Layer 2" xmlns="http://www.w3.org/2000/svg" viewBox="0 0 102.24 52.84">
  <defs>
    <style>
      .cls-1 {
        fill: #1d2a59;
      }
    </style>
  </defs>
  <g id="Layer_1-2" data-name="Layer 1">
    <g>
      <path class="cls-1" d="m76.91,25.27c0,.31,0,.54,0,.77,0,7.57,0,15.14,0,22.72,0,.82.69,1.38,1.41,1.77,1.15.63,2.31.29,3.46.34,1.76.08,3.53.07,5.29,0,1.32-.05,2.64-.21,3.95-.42.81-.13,1.6-.43,2.39-.69.17-.05.27-.28.43-.39,1.06-.8,2.23-1.49,3.14-2.44.45-.47.79-1.14,1.22-1.69.45-.59.87-1.22,1.19-1.88.33-.69.6-1.44.77-2.19.24-1.1.59-.96,1.45-.71.17.05.33.12.64.24-.36,1.11-.73,2.22-1.07,3.33-.2.66-.33,1.34-.51,2-.37,1.35-.76,2.7-1.12,4.05-.19.71-.28,1.45-.51,2.14-.08.24-.43.4-.67.58-.06.04-.18,0-.27,0-10.1,0-20.21,0-30.31,0-.07,0-.14,0-.29-.01v-1.91c.36,0,.77-.05,1.17.01.85.14,1.61-.18,2.37-.44.28-.1.56-.44.66-.73.21-.63.42-1.3.42-1.95.02-14.29.03-28.57-.02-42.86,0-.81-.34-1.67-.7-2.42-.14-.29-.76-.45-1.18-.49-.73-.08-1.48-.02-2.34-.02-.03-.65-.06-1.26-.1-1.97.29,0,.53,0,.78,0,9.48,0,18.95,0,28.43,0,.94,0,.97.08,1.26,1.03.34,1.12.8,2.2,1.17,3.32.17.51.2,1.06.37,1.57.26.82.6,1.62.87,2.45.19.57.33,1.15.46,1.74.03.13-.02.36-.11.42-.32.2-.66.37-1.02.47-.12.03-.36-.14-.44-.27-.55-.87-.98-1.83-1.63-2.62-.82-1.01-1.36-2.29-2.57-2.98-.28-.16-.43-.54-.68-.79-1-1.03-2.3-1.49-3.62-1.99-1.01-.38-2.01-.42-3.03-.42-3.07,0-6.13.01-9.2.04-.87,0-1.91,1.03-1.91,1.85,0,6.39,0,12.78,0,19.16,0,.09.02.18.03.31.22.01.43.04.63.04,3.18-.01,6.36,0,9.54-.06.69-.01,1.53-.07,2.01-.46.86-.71,1.85-1.38,2.16-2.63.2-.82.24-1.62.31-2.44.06-.77.31-1.53.49-2.35h1.37v18.03s-.04.05-.06.05c-2.04-.02-1.62.38-1.8-1.68-.09-1.02-.04-2.02-.45-3.01-.62-1.51-1.56-2.57-3.15-3.16-.8-.3-1.55-.36-2.34-.36-2.88-.01-5.76,0-8.74,0Z"/>
      <path class="cls-1" d="m33.18,52.82v-1.92c.21,0,.45,0,.7,0,2.23,0,4.46,0,6.69,0,1.49,0,2.46-.95,2.46-2.44,0-14.63.01-29.27-.02-43.9,0-1.19-.33-2.36-1.74-2.73-.16-.04-.35,0-.52.02-.15.02-.3.09-.45.09-2.34,0-4.69,0-7.1,0V.02c.15,0,.33,0,.51,0,7.76,0,15.52.01,23.27-.02.79,0,.86.32.84.95-.04.99-.01.99-.87,1-2.32.01-4.64.01-6.97.05-1.13.02-1.77.68-1.82,1.81-.01.28-.01.56-.01.84,0,14.49,0,28.99.01,43.48,0,.61.03,1.29.3,1.81.36.71,1.21.91,1.94.93,2.18.07,4.37.06,6.55,0,.73-.02.97.23.86.91-.03.18.06.41-.02.55-.12.2-.32.42-.52.46-.33.08-.69.02-1.04.02-7.64,0-15.28,0-23.04,0Z"/>
      <path class="cls-1" d="m0,1.53V.1h24.87v1.5c-2.36,0-4.7,0-7.04,0-1.38,0-2.31.71-2.72,1.76-.09.24-.09.54-.09.81,0,14.77,0,29.54,0,44.32,0,1.11.45,1.53,1.41,2.06.68.38,1.32.32,1.98.32,2.14.02,4.27,0,6.46,0v1.54H.03v-1.46c.28-.03.59-.08.89-.08,1.67,0,3.35.03,5.02-.02,1.09-.03,2.18-.17,3.15-.25.23-.38.38-.57.48-.79.26-.59.36-1.18.36-1.85-.03-14.49-.04-28.99,0-43.48,0-.78-.22-1.39-.55-2-.13-.24-.49-.43-.77-.49-.9-.18-1.81-.36-2.73-.39-1.65-.06-3.3-.01-4.95-.02-.3,0-.59-.04-.93-.07Z"/>
    </g>
  </g>
</svg>