<?xml version="1.0" encoding="UTF-8"?>
<svg id="Layer_2" data-name="Layer 2" xmlns="http://www.w3.org/2000/svg" viewBox="0 0 74.45 74.67">
  <defs>
    <style>
      .cls-1 {
        fill: #54c2bc;
      }

      .cls-2 {
        fill: #faf8f7;
      }
    </style>
  </defs>
  <g id="Layer_1-2" data-name="Layer 1">
    <g>
      <path class="cls-2" d="m52.47,17.83c-.09-.33-.13-.68-.28-.98-.6-1.21-1.17-2.43-1.85-3.59-1.07-1.82-2.34-3.5-3.83-5-1.2-1.22-2.5-2.32-3.98-3.2-.87-.52-1.78-.96-2.69-1.41-.2-.1-.44-.11-.72-.18v2.13h-2.02c0-.17-.02-.33-.02-.49,0-1.51,0-3.01,0-4.52,0-.59,0-.61.59-.59,1.25.05,2.5.09,3.75.19.67.06,1.33.23,2,.35.03,0,.06.01.09,0,1.12-.09,2.12.4,3.15.68,1.78.49,3.54,1.1,5.26,1.77,1.74.68,3.4,1.56,4.95,2.6,1.18.79,2.38,1.55,3.52,2.4.81.61,1.52,1.34,2.27,2.02,1.71,1.56,3.22,3.3,4.6,5.16.1.13.18.26.32.48-.86,0-1.62.02-2.38-.01-.15,0-.33-.17-.43-.3-1.67-2.11-3.56-4.01-5.68-5.66-.8-.63-1.63-1.23-2.48-1.79-1.79-1.18-3.67-2.24-5.67-3.03-1.34-.53-2.7-1-4.08-1.43-.85-.26-1.75-.39-2.62-.58-.3-.07-.59-.15-.89-.16.93.68,1.88,1.34,2.78,2.05,1.32,1.04,2.46,2.26,3.55,3.55,1.53,1.82,2.79,3.81,3.86,5.93.53,1.05.96,2.16,1.44,3.23.06.14.19.26.29.38.24.01.49.03.73.03,4.26,0,8.52,0,12.78.01.17.13.41.22.51.39,1.04,1.81,1.96,3.68,2.72,5.63.7,1.8,1.23,3.65,1.65,5.53.23,1,.33,2.04.48,3.06.07.49.14.98.21,1.53-.65,0-1.26.01-1.87-.01-.1,0-.25-.14-.27-.23-.11-.77-.17-1.56-.28-2.33-.1-.66-.24-1.32-.4-1.98-.15-.63-.34-1.25-.52-1.88-.24-.82-.44-1.65-.76-2.44-.56-1.39-1.16-2.76-1.82-4.11-.66-1.34-.35-1.11-1.86-1.11-3.36,0-6.73,0-10.09,0-.18,0-.36.02-.61.03.08.35.13.65.21.95.33,1.28.7,2.54.97,3.83.25,1.2.39,2.43.58,3.64,0,.05,0,.1,0,.14.39.85.22,1.78.32,2.66.16,1.5.18,3.02.23,4.53.01.41.15.51.54.51,5.1-.01,10.2,0,15.3,0,.14,0,.27,0,.4,0,0,.89,0,1.76,0,2.62,0,.43-.08.87-.02,1.28.11.79-.18,1.52-.23,2.29-.09,1.22-.45,2.43-.7,3.64-.42,2.02-1.15,3.93-1.88,5.85-.14.36-.37.56-.79.55-.53-.02-1.07,0-1.67,0,.06-.19.08-.34.14-.47.35-.87.75-1.72,1.05-2.61.33-.98.59-1.98.86-2.98.25-.91.5-1.83.69-2.75.12-.57.15-1.16.22-1.75.09-.86.18-1.71.26-2.57.02-.24.05-.5,0-.73-.03-.12-.2-.3-.33-.31-.41-.04-.83-.01-1.24-.01-3.98,0-7.96,0-11.94,0-.18,0-.36.02-.65.03-.04.92-.06,1.82-.12,2.71-.08,1.21-.16,2.42-.28,3.63-.12,1.23-.26,2.46-.46,3.68-.21,1.26-.49,2.51-.77,3.75-.18.8-.4,1.58-.62,2.42h14.35c-.07.18-.1.31-.16.42-1.37,2.52-2.99,4.87-4.88,7.05-1.44,1.66-3,3.2-4.72,4.54-1.54,1.21-3.21,2.25-4.88,3.28-2.11,1.32-4.41,2.28-6.77,3.04-1.24.4-2.51.74-3.79,1.01-1.43.3-2.88.55-4.33.72-1.11.13-2.23.09-3.35.13-.26,0-.35-.11-.35-.36,0-1.61,0-3.23,0-4.84,0-.16.07-.32.11-.53.54,0,1.09-.02,1.64.02.1,0,.26.23.27.36.03.5.02,1.01,0,1.52,0,.32.05.45.41.31,1.3-.53,2.56-1.14,3.67-2.01,1.03-.81,2.09-1.6,3.05-2.5,1.75-1.65,3.19-3.57,4.34-5.68.7-1.28,1.29-2.62,1.93-3.93.05-.1.04-.23.08-.41h-11.27c0-.65-.01-1.24.01-1.83,0-.1.16-.23.27-.27.12-.05.27-.01.41-.01,3.64,0,7.28,0,10.92,0,.37,0,.56-.1.65-.46.21-.86.43-1.72.64-2.58.23-.96.5-1.92.68-2.9.19-1.03.29-2.08.42-3.12.13-.99.26-1.97.36-2.97.06-.65.06-1.31.1-1.97.02-.52.04-1.04.08-1.55.05-.61-.02-.7-.63-.7-4.13,0-8.26,0-12.4,0-.49,0-.98,0-1.49,0v-2.02c.14,0,.29-.02.43-.02,4.52,0,9.03,0,13.55,0,.42,0,.52-.11.47-.54-.09-.82-.04-1.65-.11-2.47-.16-1.71-.34-3.43-.54-5.14-.1-.9-.22-1.81-.38-2.7-.13-.72-.35-1.43-.53-2.14-.24-.94-.51-1.87-.72-2.81-.09-.41-.3-.49-.68-.49-3.56.01-7.13.01-10.69.01q-.83,0-.83-.83c0-.31-.02-.62.01-.92.01-.12.14-.22.21-.33,3.33,0,6.66,0,10,0,.31,0,.61-.01.92-.02Zm-9.05,54.19c1.43-.18,2.76-.56,4.07-.96,4.36-1.34,8.34-3.41,11.87-6.3,2.82-2.31,5.29-4.96,7.3-8.08-.16-.03-.26-.06-.35-.06-3.58,0-7.16-.01-10.73,0-.16,0-.39.17-.45.32-.37.83-.65,1.7-1.05,2.51-.52,1.08-1.1,2.13-1.7,3.16-1.43,2.45-3.18,4.65-5.32,6.53-1.13.99-2.37,1.87-3.64,2.87Z"/>
      <path class="cls-1" d="m34.87.11c0,.62,0,1.19,0,1.76,0,.33-.27.32-.48.34-1.29.17-2.6.25-3.87.5-1.44.28-2.87.65-4.27,1.1-2.05.66-4.03,1.53-5.92,2.56-.68.37-1.3.85-1.97,1.23-1.83,1.05-3.42,2.41-4.96,3.82-1.11,1.03-2.12,2.17-3.11,3.32-.85.99-1.65,2.03-2.39,3.1-.62.89-1.14,1.85-1.67,2.8-.47.84-.93,1.69-1.31,2.58-.36.84-.63,1.73-.91,2.61-.31.94-.65,1.87-.86,2.83-.29,1.32-.44,2.67-.71,4-.39,1.96-.36,3.94-.34,5.92,0,.8.01,1.6.09,2.39.07.67.23,1.34.36,2.01.18.96.33,1.93.56,2.87.3,1.23.57,2.48,1.05,3.64.72,1.75,1.55,3.46,2.43,5.14.89,1.71,1.98,3.3,3.25,4.75,1.24,1.42,2.51,2.84,3.87,4.15,1.09,1.04,2.31,1.93,3.53,2.82.88.64,1.82,1.21,2.77,1.74.95.54,1.93,1.04,2.93,1.47,1.16.49,2.35.9,3.54,1.31.71.25,1.42.47,2.15.63,1.29.28,2.59.51,3.89.74.76.13,1.53.21,2.33.31v2.01c-9.52-.68-17.62-4.42-24.26-11.22C4.8,57.44,1.33,50.33.31,42.09c-.87-7.06.08-13.9,3.01-20.34,3.29-7.22,8.55-12.81,15.39-16.84C23.65,2,29.06.45,34.87.11Z"/>
      <path class="cls-1" d="m28.61,69.2c-.18,0-.3.03-.41,0-1.17-.41-2.33-.85-3.51-1.23-.34-.11-.32-.29-.32-.54,0-4.05,0-8.11,0-12.16,0-12.26,0-24.51,0-36.77,0-.65.16-.68.68-.68.98,0,1.97,0,2.95,0,.61,0,.62,0,.62.62,0,16.51,0,33.02,0,49.53,0,.4,0,.79,0,1.22Z"/>
      <path class="cls-1" d="m34.96,70.36c-.63-.07-1.21-.12-1.79-.19-.55-.06-1.1-.15-1.65-.21-.63-.07-.71-.14-.71-.77,0-8.15,0-16.31,0-24.46,0-4.84,0-9.67,0-14.51,0-.35.06-.69.11-1.17.68,0,1.38-.02,2.07-.03.52,0,1.04.01,1.57,0,.34-.02.47.12.46.45-.01.83,0,1.66,0,2.49,0,12.33,0,24.66,0,36.99,0,.44-.04.88-.06,1.41Z"/>
      <path class="cls-1" d="m22.16,33.07c0,.25,0,.44,0,.64,0,10.83,0,21.66,0,32.49,0,.21-.1.43-.14.62-.72-.46-1.35-.86-1.97-1.26-.61-.39-1.25-.73-1.81-1.18-.2-.16-.27-.57-.27-.87-.02-3.16,0-6.33,0-9.49,0-6.77,0-13.55-.01-20.32,0-.55.07-.62.6-.62,1.19,0,2.39,0,3.62,0Z"/>
      <path class="cls-2" d="m39.14,66.77h-2.05v-.76c0-19.15,0-38.31,0-57.46q0-.72.73-.72c.43,0,.86,0,1.32,0v58.94Z"/>
      <path class="cls-1" d="m15.6,62.29c-.25-.21-.51-.41-.74-.65-.81-.81-1.61-1.63-2.41-2.45-.56-.57-.85-1.19-.85-2.06.05-5.82.03-11.64.03-17.46,0-.15,0-.3,0-.49h4.08v23.03l-.12.09Z"/>
      <path class="cls-1" d="m9.22,54.92c-.66-1.27-1.4-2.5-1.97-3.8-.58-1.33-.94-2.76-1.53-4.08-.7-1.58-.47-3.22-.5-4.85,0-.13.24-.36.38-.37,1.13-.03,2.27-.02,3.41-.03.35,0,.43.18.43.5,0,1.38,0,2.76,0,4.14,0,2.64,0,5.28,0,7.92,0,.18-.02.35-.03.53-.06.02-.13.03-.19.05Z"/>
    </g>
  </g>
</svg>