<?xml version="1.0" encoding="UTF-8"?>
<svg id="Layer_2" data-name="Layer 2" xmlns="http://www.w3.org/2000/svg" viewBox="0 0 77.38 78.51">
  <defs>
    <style>
      .cls-1 {
        fill: #073857;
      }
    </style>
  </defs>
  <g id="Layer_1-2" data-name="Layer 1">
    <g>
      <path class="cls-1" d="m.13,41.45c-.04-.73-.12-1.47-.1-2.2.02-1.08.09-2.16.19-3.24.09-.97.2-1.94.39-2.9.43-2.12.87-4.24,1.69-6.27.37-.92.66-1.88,1.03-2.8.2-.49.5-.94.76-1.41.84-1.46,1.67-2.93,2.55-4.37,1-1.63,2.25-3.07,3.53-4.5,1.28-1.43,2.69-2.71,4.16-3.95,1.6-1.35,3.34-2.53,5.15-3.57,2.58-1.48,5.29-2.68,8.16-3.47,1.57-.43,3.17-.81,4.77-1.05,1.7-.26,3.44-.3,5.15-.52,1.6-.2,3.16.13,4.74.2.51.02,1.02.03,1.52.11,1.11.18,2.21.38,3.31.61.41.09.65.03.97-.31.47-.5,1.06-.94,1.68-1.25,1.8-.88,3.65-.73,5.39.16,1.35.69,2.24,1.85,2.58,3.36.15.65.18,1.33.31,1.99.04.18.21.37.38.48,1.56,1.09,3.15,2.14,4.7,3.25.65.47,1.24,1.05,1.81,1.63,1.2,1.21,2.4,2.42,3.54,3.68.66.73,1.24,1.54,1.8,2.35.82,1.22,1.67,2.44,2.36,3.73.72,1.34,1.3,2.77,1.89,4.17.39.93.76,1.87,1.05,2.83.39,1.28.78,2.57,1.02,3.88.29,1.59.45,3.21.61,4.82.12,1.19.21,2.38.18,3.57-.05,1.5-.25,3-.36,4.49-.14,2.01-.64,3.95-1.24,5.86-.46,1.47-.93,2.95-1.57,4.35-.87,1.9-1.81,3.79-2.92,5.56-1,1.59-2.21,3.08-3.45,4.49-1.27,1.44-2.65,2.82-4.09,4.09-1.79,1.58-3.74,2.96-5.84,4.11-.91.5-1.83,1-2.77,1.43-1.94.9-3.93,1.65-6.01,2.17-1.58.4-3.18.75-4.79,1.05-.96.18-1.94.22-2.92.29-.79.06-1.59.1-2.39.1-1.26,0-2.53.03-3.78-.11-1.74-.2-3.47-.52-5.2-.82-.55-.1-1.09-.28-1.64-.41-.56-.13-.89.35-1.32.54-2.12.99-4.74.64-6.48-1.09-.87-.87-1.49-1.84-1.62-3.09-.04-.41-.34-.6-.66-.8-1.58-1.02-3.16-2.06-4.54-3.35-1.15-1.08-2.37-2.11-3.43-3.27-1.22-1.35-2.41-2.75-3.43-4.26-1.17-1.75-2.23-3.59-3.17-5.48-.81-1.64-1.48-3.37-2.03-5.12-.53-1.68-.91-3.42-1.22-5.16-.27-1.52-.35-3.08-.52-4.62.04,0,.09,0,.13-.01Zm29.71,33.44c.33.12.62.27.92.33,1.1.21,2.21.44,3.32.57,1.46.17,2.93.35,4.39.36,1.45.02,2.92-.09,4.36-.27,1.49-.18,2.97-.43,4.42-.79,1.55-.39,3.07-.91,4.58-1.43.83-.28,1.65-.63,2.43-1.03,1.04-.54,2.04-1.16,3.06-1.74,1.87-1.07,3.6-2.34,5.19-3.78,1.19-1.08,2.28-2.27,3.41-3.41,1.82-1.85,3.18-4.04,4.43-6.28.85-1.52,1.57-3.12,2.21-4.74.58-1.47,1.04-3,1.41-4.54.31-1.24.36-2.54.62-3.8.29-1.38.31-2.77.34-4.16.03-1.33-.09-2.67-.18-4-.06-.82-.13-1.64-.29-2.44-.27-1.3-.62-2.57-.94-3.86-.43-1.71-1.1-3.33-1.82-4.94-.75-1.68-1.57-3.31-2.62-4.81-.82-1.17-1.65-2.35-2.55-3.46-.79-.98-1.59-1.96-2.53-2.78-1.56-1.38-3.22-2.65-4.87-3.94-.49-.39-1.04-.7-1.59-1.01-.14-.08-.43-.05-.54.05-.29.27-.49.62-.76.9-.85.87-1.87,1.39-3.09,1.58-2,.32-3.67-.36-5.04-1.71-1.1-1.08-1.65-2.48-1.66-4.05,0-.42.06-.84.09-1.27-9.58-1.85-18.59-.58-26.89,4.62C11.39,14.25,5.97,21.62,3.55,31.06c-2.03,7.92-1.32,15.72,1.92,23.25,2.91,6.76,7.66,11.97,13.65,16.08.46-.64.87-1.3,1.37-1.89.51-.61,1.13-1.14,1.93-1.34.74-.18,1.51-.38,2.26-.37.77.01,1.59.14,2.29.45,1.24.56,2.29,1.41,2.89,2.7.75,1.64.71,3.28,0,4.95Z"/>
      <path class="cls-1" d="m51.23,15.42c2.41.05,4.33-.72,5.97-2.24.99-.92,1.9-1.06,2.77-.4.41.31.78.69,1.17,1.04.64.58,1.32,1.12,1.9,1.75.85.93,1.66,1.9,2.44,2.9.55.71.33,1.66-.27,2.23-.9.86-1.57,1.86-2.05,2.99-.04.1-.08.2-.1.31-.14.57-.72.97-1.31.85-.78-.16-1.55-.37-2.34-.5-1.15-.18-2.3-.33-3.46-.46-1.07-.12-2.14-.23-3.21-.28-.68-.03-1.37.05-2.05.08-1.43.07-2.87.05-4.29.22-1.51.18-3,.52-4.5.82-1.42.28-2.83.65-4.09,1.38-1.08.63-2.12,1.33-3.15,2.05-.82.57-1.57,1.23-2.36,1.85-.04.03-.11.03-.13.06-.48.92-1.54,1.15-2.2,1.86-.35.37-.74.7-1.11,1.04-.28.25-.57.33-.95.2-.41-.15-.41-.44-.43-.79-.07-1.61-.22-3.21-.23-4.82-.01-1.72,0-3.46.16-5.17.19-2.08.54-4.15.82-6.23.05-.39.09-.78.18-1.16.04-.16.14-.36.27-.42,1.81-.77,3.1-2.06,3.88-3.84.47-1.07.72-2.2.7-3.39,0-.33.11-.68.25-.99.25-.55.74-.83,1.32-.85,1.94-.09,3.89-.17,5.84-.19.73,0,1.46.17,2.19.27.6.09,1.24.88,1.31,1.49.13,1.19.08,2.43.57,3.56.68,1.56,1.71,2.81,3.16,3.74,1.08.7,2.22,1.11,3.34,1.05Z"/>
      <path class="cls-1" d="m32.87,70.83c0-1.23-.26-2.43-.82-3.51-.35-.67-.91-1.22-1.38-1.82-.17-.21-.37-.4-.51-.63-.19-.32-.1-.56.25-.72.95-.45,1.91-.88,2.84-1.36,2.07-1.08,4-2.4,5.78-3.9,1.11-.94,2.22-1.89,3.22-2.95,1.2-1.27,2.32-2.62,3.39-4,.67-.86,1.26-1.79,1.75-2.76.7-1.36,1.3-2.78,1.88-4.2.47-1.14.86-2.3,1.24-3.47.2-.6.27-1.25.48-1.85.11-.31.35-.67.63-.8.18-.09.61.12.8.31,1.78,1.81,3.49,3.69,5,5.74,1.53,2.08,3.02,4.19,4.09,6.55.51,1.13.9,2.33,1.3,3.51.37,1.1.91,2.1,1.77,2.86,1.03.9,1.21,2.26.09,3.44-.55.58-1.05,1.2-1.63,1.74-1.19,1.1-2.39,2.19-3.64,3.23-.68.56-1.74.41-2.36-.22-.94-.97-2.03-1.72-3.35-2.07-2.25-.61-4.45-.59-6.47.79-1.66,1.13-2.7,2.69-3.16,4.62-.16.65-.19,1.34-.22,2.02-.04,1.04-.68,1.85-1.71,1.91-1.78.11-3.57.18-5.35.19-.9,0-1.8-.16-2.69-.28-.45-.06-1.25-1.03-1.25-1.7,0-.22,0-.45,0-.67Z"/>
      <path class="cls-1" d="m4.45,39.2c0-.85-.06-1.71.02-2.55.08-.8.09-1.62.63-2.32.33-.42.74-.51,1.18-.51,1.86-.03,3.55-.54,5.11-1.59,1.7-1.14,2.7-2.72,3.07-4.7.25-1.36.13-2.68-.38-3.99-.41-1.06-1-1.97-1.81-2.76-1.05-1.02-1.01-2.12-.02-3.17,1.01-1.08,2.01-2.18,3.05-3.22.64-.64,1.32-1.24,2.06-1.76,1.06-.75,1.89-.58,2.82.35.83.83,1.83,1.33,2.88,1.72.7.26,1.46.37,2.2.52.66.14.91.59.78,1.3-.16.86-.27,1.74-.38,2.61-.14,1.06-.25,2.13-.38,3.19-.04.35-.09.69-.1,1.04-.04,2.05-.08,4.1-.09,6.14-.01,1.84.24,3.65.57,5.46.28,1.56.53,3.12.88,4.66.23,1.01.57,2,.92,2.97.51,1.39,1.08,2.76,1.63,4.14.05.12.09.23.12.35.15.72,0,.94-.72.88-1.56-.13-3.11-.3-4.66-.47-.85-.09-1.69-.18-2.54-.3-1.34-.18-2.68-.37-4.03-.55-.97-.13-1.94-.25-2.9-.4-1.89-.3-3.82-.44-5.64-1.14-.49-.19-1.06-.17-1.59-.21-.93-.06-1.81-.22-2.3-1.14-.15-.29-.26-.64-.28-.97-.08-1.2-.11-2.39-.16-3.59.02,0,.03,0,.05,0Z"/>
      <path class="cls-1" d="m62.91,49.59c-.71-1.16-1.36-2.33-2.12-3.42-1-1.45-2.03-2.89-3.15-4.25-1.17-1.43-2.43-2.78-3.7-4.12-.71-.75-1.52-1.41-2.26-2.13-.3-.29-.51-.66-.81-.94-1.34-1.24-2.66-2.52-4.07-3.68-1.29-1.06-2.68-1.99-4.02-2.98-.01,0-.03-.01-.04-.02-.2-.3-.58-.6-.57-.88.02-.43.47-.6.91-.67,1.57-.24,3.14-.52,4.71-.75.68-.1,1.37-.1,2.06-.12,1.11-.02,2.22-.09,3.32,0,1.65.13,3.29.35,4.93.59,1.16.17,2.3.46,3.46.66.69.12,1.02.52,1.19,1.15.28,1.02.65,1.99,1.31,2.83.99,1.26,2.21,2.17,3.73,2.7.94.33,1.93.24,2.86.49.54.15,1.02.51,1.51.81.11.06.17.27.18.41.11,1.55.3,3.11.29,4.66,0,1.27-.2,2.54-.38,3.81-.1.73-1.02,1.4-1.82,1.36-1.47-.07-2.87.16-4.16.89-1.45.82-2.54,2.02-3.28,3.52-.02.04-.06.07-.09.1Z"/>
      <path class="cls-1" d="m25.6,63.38c-1.62-.05-2.99.33-4.24,1.08-.49.3-.94.68-1.36,1.07-.45.4-.89.74-1.51.87-.37.08-.66.04-.92-.16-.8-.66-1.6-1.34-2.37-2.04-.63-.57-1.25-1.16-1.83-1.79-.59-.63-1.16-1.29-1.66-1.98-.6-.83-.46-1.83.31-2.54,1.09-1.01,1.74-2.27,2.16-3.67.31-1.02.27-2.07.15-3.08-.09-.78-.5-1.53-.77-2.29-.05-.14-.09-.28-.14-.43.18-.05.36-.17.53-.15.69.07,1.37.18,2.05.27.8.1,1.6.18,2.4.29,1.01.14,2.02.32,3.03.45.75.1,1.51.14,2.26.23.83.1,1.65.25,2.47.35.55.07,1.11.08,1.66.13.79.08,1.57.17,2.35.25.38.04.75.09,1.13.13,1.29.13,2.57.28,3.86.38.91.07,1.82.07,2.73.11.62.02,1.24.07,1.86.06.88-.02,1.75-.13,2.62-.14.27,0,.63.14.8.34.25.29.12.67-.13.94-1.08,1.17-2.16,2.34-3.27,3.49-.94.97-1.96,1.87-3.05,2.69-1.34,1.01-2.71,1.97-4.21,2.72-1.39.7-2.76,1.46-4.28,1.91-.93.27-1.81.65-2.66.51Z"/>
    </g>
  </g>
</svg>