<?xml version="1.0" encoding="UTF-8"?>
<svg id="Layer_2" data-name="Layer 2" xmlns="http://www.w3.org/2000/svg" viewBox="0 0 60 60">
  <defs>
    <style>
      .cls-1 {
        fill: #4371b8;
      }
    </style>
  </defs>
  <g id="Layer_1-2" data-name="Layer 1">
    <g>
      <path class="cls-1" d="m30,0C13.43,0,0,13.43,0,30s13.43,30,30,30,30-13.43,30-30S46.57,0,30,0Zm17.95,49.25l-10.52-2.44c-2.27,1.01-4.78,1.57-7.43,1.57-10.15,0-18.38-8.23-18.38-18.38S19.85,11.62,30,11.62s18.38,8.23,18.38,18.38c0,3.58-1.03,6.92-2.8,9.74l2.36,9.51Z"/>
      <path class="cls-1" d="m30,24.02c-3.3,0-5.98,2.68-5.98,5.98s2.68,5.98,5.98,5.98,5.98-2.68,5.98-5.98-2.68-5.98-5.98-5.98Z"/>
    </g>
  </g>
</svg>