<?xml version="1.0" encoding="UTF-8"?>
<svg id="Layer_2" data-name="Layer 2" xmlns="http://www.w3.org/2000/svg" viewBox="0 0 81.45 51.22">
  <defs>
    <style>
      .cls-1 {
        fill: #4371b8;
      }
    </style>
  </defs>
  <g id="Layer_1-2" data-name="Layer 1">
    <g>
      <path class="cls-1" d="m55.84,0c-14.14,0-25.61,11.47-25.61,25.61s11.47,25.61,25.61,25.61,25.61-11.47,25.61-25.61S69.98,0,55.84,0Zm0,35.41c-5.41,0-9.79-4.39-9.79-9.79s4.39-9.79,9.79-9.79,9.79,4.38,9.79,9.79-4.38,9.79-9.79,9.79Z"/>
      <path class="cls-1" d="m0,0v15.82c5.41,0,9.79,4.39,9.79,9.79s-4.38,9.79-9.79,9.79v15.82c14.14,0,25.61-11.47,25.61-25.61S14.14,0,0,0Z"/>
    </g>
  </g>
</svg>