<?xml version="1.0" encoding="UTF-8"?>
<svg id="Layer_2" data-name="Layer 2" xmlns="http://www.w3.org/2000/svg" viewBox="0 0 103.51 113.13">
  <defs>
    <style>
      .cls-1 {
        fill: #111;
      }

      .cls-2 {
        fill: #ee5527;
      }
    </style>
  </defs>
  <g id="Layer_1-2" data-name="Layer 1">
    <g>
      <path class="cls-2" d="m27.01,19.99c.07.01.18,0,.21.03.3.52.82.8,1.25,1.17.6.52,1.2,1.04,1.83,1.53.47.37.98.7,1.57.88.29.08.57.21.84.34.82.38,1.71.52,2.56.81,1.03.35,2.12.42,3.18.65.47.1.97.04,1.46.06.1,0,.19.04.28.16-.33.04-.66.11-.99.11-1.43,0-2.57.61-3.51,1.62-.23.25-.4.55-.62.86.1,0,.14.03.17.01.77-.42,1.56-.82,2.32-1.26.45-.27.93-.43,1.43-.55.32-.07.61-.16.86-.39.03-.03.08-.06.12-.06.83-.06,1.56-.45,2.34-.68.01,0,.02-.03.07-.09-.1-.06-.19-.16-.28-.18-.64-.08-1.28-.21-1.92-.19-1.16.03-2.3-.17-3.42-.4-.95-.19-1.89-.47-2.82-.78-.75-.25-1.46-.63-2.21-.88-.64-.22-1.18-.59-1.72-.97-.04-.03-.09-.06-.09-.18.12.04.23.07.35.12.13.05.25.14.38.18.51.16,1.02.3,1.53.45,1.66.5,3.35.6,5.07.48.83-.06,1.62-.25,2.41-.46.71-.19,1.4-.41,2.14-.49.56-.06,1.11-.13,1.66-.08.71.06,1.41.19,2.07.47.89.38,1.5,1.03,1.79,2,.25-.03.46-.05.73-.09-.34-.88-.96-1.49-1.54-2.12-.57-.63-1.17-1.22-1.74-1.87.13.07.28.13.4.23.31.27.66.41,1.04.56.81.33,1.62.3,2.42.04.65-.21,1.12-.66,1.45-1.24.07-.12.08-.27.12-.41.05-.17.09-.35.19-.51.21.56.11,1.14.15,1.7.04.57-.06,1.15-.15,1.72-.08.58-.21,1.15-.33,1.74.23.11.39.11.45-.16.23-.95.53-1.88.55-2.87,0-.3.11-.6.15-.89.14-.98-.11-1.89-.57-2.74-.41-.76-1.95-1.33-2.81-.82-.37.22-.75.76-.69,1.09.07.36.31.64.62.78.29.13.65.1.92-.14.12-.11.19-.26.31-.37.07-.07.19-.09.31-.15.11.72-.06,1.32-.4,1.85-.32.5-.87.71-1.43.77-1.57.17-2.48-.61-3.03-1.98-.05-.86-.18-1.74.22-2.55.35-.71.91-1.25,1.62-1.61.92-.48,1.92-.66,2.93-.52.98.14,1.89.49,2.62,1.23.48.49.68,1.1.84,1.71.22.82.21,1.68.12,2.52-.09.82-.27,1.64-.45,2.45-.14.64-.35,1.27-.54,1.91-.04.13-.12.25-.22.44.34.02.63.03.87.04.23-.57.46-1.06.63-1.58.18-.54.33-1.09.43-1.64.16-.89.41-1.78.36-2.69-.05-1.02-.33-1.98-.76-2.91-.37-.8-.85-1.47-1.57-1.96-.9-.61-1.87-.8-2.96-.59-.52.1-1.03.23-1.54.36-.78.19-1.43.56-1.92,1.2-.06.08-.14.15-.27.29-.07-.52.03-.92.13-1.33.3-1.22.99-2.21,1.93-3.02.19-.16.41-.3.64-.39.33-.13.67-.25,1.03-.03.11.07.28.04.47.06-.09-.45-.16-.88-.27-1.3-.16-.58-.19-1.17-.17-1.76.04-1.01.44-1.91.92-2.78.21-.37.5-.7.76-1.04.4-.51.81-1.01,1.32-1.48-.06.22-.08.45-.18.65-.5,1.06-.54,2.17-.34,3.28.13.71.39,1.41.68,2.08.53,1.22,1.12,2.41,1.69,3.61.37.79.75,1.57.93,2.43.15.67.21,1.37.39,2.03.33,1.23.3,2.48.15,3.71-.12.98-.25,1.98-.69,2.9-.26.55-.44,1.15-.64,1.73-.02.07,0,.2.04.24.07.06.22.12.28.09.13-.08.25-.21.31-.34.38-.88.82-1.75,1.09-2.66.22-.74.43-1.5.43-2.3,0-.32.12-.63.13-.95.02-.79.07-1.59-.02-2.38-.14-1.28-.42-2.55-.85-3.77-.33-.94-.76-1.85-1.13-2.78-.55-1.37-1.3-2.66-1.74-4.09-.34-1.1-.42-2.21-.22-3.34.09-.52.12-1.05.18-1.58h.11c.06.1.13.21.16.33.03.14,0,.29.02.43.06.49.13.99.2,1.48.03.17.07.34.11.52.24,1.06.66,2.05,1.17,3,.32.58.67,1.14.99,1.71.4.72.77,1.45,1.16,2.17.46.84.95,1.67,1.38,2.52.47.94,1.01,1.85,1.07,2.95.05.82.23,1.62.33,2.44.08.66.04,1.33-.18,1.97-.11.33-.16.69-.27,1.02-.31.91-.77,1.75-1.26,2.58-.22.37-.41.75-.64,1.18.09.05.23.14.37.23.89-.63,1.79-.39,2.67-.04.22.09.4.3.57.48.43.46,1.02.49,1.58.6.03,0,.08-.06.11-.08-.05-.92-.46-1.65-1.11-2.26-.64-.61-1.38-1-2.38-1,.45-.45.93-.66,1.44-.75.42-.07.86-.11,1.29-.08.53.03,1.07.11,1.58.24.49.13.86.45,1.08.92.03.06.06.13.1.19,0,.01.03.02.08.05.07-.14.14-.28.2-.42.28-.64.5-1.3.83-1.9,1.08-2.01,2.15-4.03,3.65-5.77,1.65-1.93,3.68-3.26,6.12-3.97.93-.27,1.87-.49,2.95-.58-.17.13-.26.2-.35.27-.65.53-1.19,1.14-1.47,1.95-.25.73-.56,1.44-.79,2.17-.16.52-.28,1.06-.33,1.6-.14,1.53-.11,3.07.06,4.6.09.86.26,1.69.49,2.51.16.57.41,1.12.66,1.67.36.78.72,1.57,1.14,2.32.41.75.89,1.47,1.35,2.18.44.67.84,1.35,1.01,2.14.07.36.13.72.19,1.09,0,.04-.04.08-.09.18-.16-.31-.28-.59-.44-.85-.45-.77-.86-1.56-1.37-2.3-.76-1.1-1.66-2.09-2.6-3.04-.67-.68-1.16-1.48-1.52-2.36-.32-.78-.56-1.58-.8-2.38-.44-1.5-.42-3.01-.3-4.54.08-1,.32-1.95.65-2.9.31-.91.91-1.62,1.56-2.29.44-.44.93-.84,1.4-1.26-.93.38-1.7.99-2.45,1.62-1.1.93-2.04,2.02-2.8,3.22-.7,1.09-1.42,2.18-1.93,3.39-.34.8-.82,1.54-1.23,2.31-.35.66-.65,1.35-1.03,2-.49.84-1.04,1.64-1.56,2.46-.15.23-.29.46-.43.67.03.06.03.1.06.12.79.46.61.42,1.16-.19.59-.64,1.03-1.37,1.43-2.13.44-.85.96-1.66,1.42-2.51.31-.58.56-1.2.85-1.8.58-1.19,1.16-2.37,1.75-3.56.06-.12.14-.24.27-.46.04.17.09.25.07.31-.22.71-.44,1.42-.67,2.13-.44,1.39-.54,2.8-.38,4.25.11,1.01.26,2.01.51,2.99.23.92.58,1.8.89,2.7.17.48.39.95.57,1.43.07.18.1.38.09.6-.09-.12-.2-.23-.27-.36-.32-.63-.77-1.15-1.33-1.55-.6-.42-1.25-.68-2-.82-.58-.11-1.1.09-1.64.04-.06,0-.14.08-.22.13.49.32.95.63,1.43.91.09.06.25.02.37.03.81.07,1.56.29,2.16.87.05.05.1.11.13.17.02.03,0,.07,0,.12-.16.04-.32.08-.56.14.29.24.53.43.79.64.23-.06.5-.12.81-.2-.31.56-.3.55.16.95.49.43.94.89,1.42,1.33.07.07.19.08.29.13.24-.41.26-.82.1-1.22-.22-.54-.49-1.06-.75-1.58-.2-.4-.43-.78-.6-1.18-.51-1.22-.97-2.45-1.12-3.78-.03-.24-.15-.47-.18-.71-.13-.85-.3-1.69-.34-2.54-.04-.8.05-1.6.08-2.4h.13c.03.19.06.37.08.56.07.87.1,1.76.38,2.6.21.63.52,1.23.8,1.84.23.52.44,1.05.73,1.53.29.47.65.91,1.03,1.31.66.69,1.36,1.35,2.05,2.02.67.64,1.26,1.34,1.62,2.21.09.21.13.45.19.67.24.82.33,1.66.08,2.48-.14.47-.31.96-.71,1.3-.15.13-.33.23-.5.35.23.31.38.51.56.74.59-.89,1.04-1.76,1.38-2.69.34-.93.66-1.86,1.01-2.86,0,.66,0,1.25,0,1.85,0,.48.19.9.52,1.24.26.27.5.58.79.82.72.62,1.92.73,2.77.27.04-.02.09-.03.15-.02-1.64,1.37-3.64,1.96-5.6,2.68.03.37.1.44.37.35.95-.31,1.9-.61,2.84-.94.96-.33,1.89-.76,2.73-1.35.81-.57,1.27-1.35,1.34-2.36.03-.44-.1-.82-.32-1.17-.31-.5-1.18-.81-1.77-.63-.47.14-.69.55-.58,1.06.09.43.53.75,1,.72.15-.01.31-.05.47-.08,0,.07,0,.11-.01.13-.72.64-1.55.92-2.5.69-.22-.05-.43-.23-.62-.39-.93-.8-1.13-1.84-.8-2.99.04-.15.13-.29.23-.41.74-.89,1.68-1.46,2.81-1.68.72-.14,1.44-.03,2.12.25.77.31,1.42.8,1.89,1.49.48.7.84,1.47.86,2.33.03,1.38-.5,2.5-1.62,3.34-1.03.77-2.19,1.28-3.37,1.76-1.21.49-2.47.78-3.73,1.1-.2.05-.4.07-.64.1.11.19.19.31.26.44.1.18.24.25.45.21.54-.1,1.09-.17,1.63-.31,1.32-.33,2.66-.59,3.9-1.16,1.45-.65,2.66-1.6,3.52-2.95.53-.83.89-1.73.9-2.75.01-1.03-.46-1.84-1.14-2.54-.8-.84-1.72-1.52-2.86-1.84-.17-.05-.34-.05-.55-.18.35-.17.69-.4,1.07-.48.78-.18,1.57-.34,2.39-.33.78,0,1.49.23,2.16.58.45.23.75.62.81,1.16,0,.09.03.17.05.26.58-.47,1.15-.94,1.72-1.39,1.06-.84,2.28-1.23,3.62-1.27.79-.02,1.58-.04,2.36.17.4.11.83.09,1.25.13,0,.04.01.08.02.12-.05.03-.09.09-.14.09-1.53.21-2.84.86-3.97,1.91-.81.76-1.49,1.62-2.16,2.51-.84,1.12-1.64,2.26-2.55,3.31-1.91,2.17-4.18,3.85-6.95,4.79-1.56.53-3.14.94-4.79,1.14,0,.26.09.38.34.39.9.01,1.8-.03,2.68-.23,1.29-.29,2.55-.69,3.77-1.2,1.56-.65,2.94-1.56,4.21-2.65,1.94-1.66,3.56-3.6,5.03-5.68.45-.63.96-1.23,1.47-1.81.95-1.08,2.17-1.76,3.49-2.28.36-.14.72-.31,1.09-.45.09-.03.19-.03.35-.04-.27.46-.65.71-1.02.95-1.69,1.09-2.98,2.55-4.06,4.23-1.41,2.19-2.88,4.33-4.35,6.48-1.08,1.58-2.58,2.66-4.24,3.55-.9.48-1.86.83-2.84,1.06-.69.16-1.43.16-2.15.18-.87.03-1.74,0-2.67,0,.06.13.09.22.14.28.04.05.13.07.19.09,1.09.39,1.43,1.93,1.12,2.8-.06.18-.13.34-.36.34-.52,0-1.05,0-1.54,0-.3-.78-.58-1.5-.84-2.22-.33-.92-.74-1.8-1.17-2.68-.55-1.14-1.16-2.23-1.87-3.28-2.49-3.71-5.65-6.73-9.46-9.06-.75-.46-1.51-.89-2.3-1.27-.96-.45-1.95-.85-2.94-1.23-.66-.26-1.35-.44-2.01-.69-.73-.28-1.5-.36-2.26-.52-.52-.11-1.03-.23-1.55-.34-1.25-.26-2.51-.42-3.78-.48-1.65-.08-3.3-.03-4.94.16-2.8.33-5.54.94-8.17,1.98-3.62,1.44-6.89,3.45-9.77,6.09-2.22,2.03-4.12,4.33-5.66,6.91-.47.79-.96,1.59-1.35,2.42-.46.98-.82,2-1.22,3-.15.38-.28.77-.42,1.17h-4.65c.09-1.84,1.87-4.6,4.7-4.51.06-.17.13-.35.22-.58-1.55-.04-2.99.5-4.54.71.4-.26.75-.48,1.08-.71.5-.35.89-.79,1.03-1.4.07-.31.19-.61.24-.93.14-.9-.34-1.56-.89-2.18-.08-.09-.2-.13-.31-.19.04-.05.07-.09.11-.14.2.1.4.23.61.31,1.27.46,2.25,1.35,3.25,2.2.1.08.19.17.29.24.21.15.33.05.4-.2-.3-.29-.59-.62-.92-.9-.68-.56-1.38-1.11-2.09-1.65-.62-.47-1.33-.76-2.09-.92-.56-.12-1.13-.02-1.63.23-1.08.53-1.2,1.51-.82,2.44.25.6,1.12.71,1.54.21.26-.32.2-.69.05-1.02-.09-.21-.26-.38-.46-.67.25.11.42.16.56.24.46.25.93.49,1.24.95.31.47.4.95.14,1.48-.16.32-.23.69-.44.96-.63.8-1.67,1.34-2.81,1-1.26-.38-2.13-1.13-2.68-2.31-.28-.6-.3-1.22-.24-1.84.15-1.56.94-2.75,2.26-3.56.62-.38,1.32-.52,2.11-.39.69.11,1.35.27,1.95.61,1.74,1.02,3.3,2.27,4.62,3.8.1.12.21.24.33.38.11-.15.2-.27.28-.38.14-.19.12-.35-.03-.54-1.1-1.4-2.36-2.65-3.85-3.65-.72-.48-1.5-.85-2.33-1.04-1.19-.27-2.4-.43-3.59.06-.51.21-.95.5-1.3.93-.55.68-.99,1.44-1.16,2.27-.19.94-.19,1.93.09,2.89.04.12.15.22.26.37-.23.01-.39-.08-.53-.2-1.03-.83-1.83-1.85-2.35-3.07-.22-.51-.27-1.08-.18-1.64.08-.52.34-.94.93-1.25-1.15-.1-2.05-.58-2.94-1.05-.52-.28-.99-.73-1.38-1.19-1.01-1.19-1.64-2.6-2.06-4.1-.03-.12.04-.28.08-.47-.36-.3-.77-.64-1.19-.98.01-.03.02-.06.03-.09.19.05.38.07.56.14.56.25,1.11.53,1.68.78.23.1.49.09.72.19,1.43.64,2.94.58,4.45.65,2.1.09,4.19.16,6.29.33.99.08,1.97.32,2.94.55.44.11.84.37,1.26.56,1.12.5,2.15,1.15,3.06,1.98.71.65,1.37,1.34,1.83,2.2.33.61.69,1.21,1.04,1.81.03.06.09.1.15.17.34-.23.59-.5.76-.84.2-.41.52-.67.87-.95.58-.46,1.13-.95,1.69-1.44.06-.05.08-.15.12-.23-.82-.31-1.6-.1-2.36.12-.76.22-1.45.61-1.96,1.4-.06-.23-.11-.33-.1-.42.11-.53.24-1.06.47-1.56.21-.44.42-.87.72-1.25.53-.68,1.18-1.13,2.1-.97.04,0,.09-.02.19-.04-.06-.1-.1-.17-.15-.23-1.19-1.51-2.32-3.06-3.32-4.7-.9-1.49-1.58-3.08-1.95-4.78-.23-1.05-.27-2.14-.15-3.22.15-1.37.63-2.63,1.23-3.85.02-.04.07-.08.15-.18.04.22.07.38.09.55.06.56.22,1.06.56,1.53.81,1.13,1.78,2.09,2.89,2.92.79.59,1.63,1.08,2.5,1.52,1.21.6,2.47,1.09,3.77,1.43.94.25,1.93.36,2.91.42,1.29.07,2.57.03,3.85-.05,1.11-.07,2.22-.03,3.3.32.35.11.36.11.56.34-.69-.02-1.4-.07-2.11-.05-.57.02-1.14.11-1.71.18-.48.06-.95.12-1.43.18-.21.03-.42.06-.62.12-1.42.38-2.85.74-4.33.53-.78-.11-1.56-.25-2.33-.5-1-.33-2.02-.59-2.93-1.12-1.48-.86-2.85-1.85-3.87-3.25-.54-.75-.98-1.55-1.1-2.49-.01-.09-.04-.18-.08-.26,0-.02-.05-.04-.1-.08-.11.59-.08,1.17.06,1.71.24.92.6,1.82.93,2.72.67,1.82,1.83,3.36,2.92,4.93.78,1.13,1.65,2.2,2.42,3.34.45.67.79,1.42,1.18,2.14.11.2.23.4.38.65.24-.14.46-.25.64-.4.05-.04.06-.22.02-.3-.51-1.01-1.03-2.01-1.63-2.98-1.07-1.71-2.39-3.23-3.51-4.89-.18-.27-.4-.51-.58-.78-.13-.19-.22-.41-.33-.61,0,0-.01,0-.01,0Zm-2.05,17.18c-1.07-1.7-2.37-3.11-3.93-4.3-1.05-.8-2.17-1.46-3.41-1.92-.72-.27-1.41-.6-2.14-.8-.82-.22-1.67-.29-2.49-.5-1.4-.36-2.84-.43-4.27-.6-1.2-.15-2.33-.48-3.46-.87-.16-.06-.31-.16-.46-.26-.31-.21-.62-.44-.93-.65-.08-.05-.18-.07-.27-.11.17.51.51.88.84,1.25,1.08,1.18,2.56,1.54,4.03,1.89.92.22,1.86.32,2.81.36.89.04,1.77.2,2.66.31,1.06.13,2.09.35,3.09.76,1.07.43,2.09.96,3.06,1.58,1.52.97,2.84,2.18,4.01,3.55.19.22.38.43.58.67.1-.12.18-.22.28-.35Z"/>
      <path class="cls-2" d="m76.16,92.41c-.32-.32-.65-.63-.94-.97-.71-.82-1.46-1.61-2.32-2.28-1.08-.83-2.28-1.45-3.56-1.94-1.21-.46-2.47-.66-3.71-1-.58-.16-1.19-.17-1.79-.25-.07,0-.15,0-.21-.03-.82-.35-1.45.18-2.14.46.52.04,1.03.09,1.55.1.72.02,1.43.1,2.13.28.57.14,1.15.25,1.71.4.29.08.57.21.85.31.69.24,1.39.44,2.06.72,1.08.44,2.14.92,3.05,1.68.1.08.19.17.28.26.04.05.07.11.14.22-.68-.29-1.29-.58-1.91-.81-.91-.34-1.86-.48-2.8-.67-1.47-.31-2.91-.13-4.35.04-.79.1-1.56.39-2.34.56-1.03.22-2.08.45-3.12.15-1.1-.32-2.07-.88-2.72-1.9h-.64c.9,1.26,1.87,2.39,2.91,3.52-.57-.29-1.07-.63-1.63-.81-.51-.17-1.04-.41-1.61-.15-.2.09-.46.07-.67.16-.9.35-1.43,1-1.56,1.97-.02.17-.06.34-.09.55-.3-.34-.3-.9-.02-4.96-.38-.06-.46-.04-.52.29-.1.54-.16,1.09-.22,1.64-.06.53-.13,1.07-.17,1.6-.09,1.03,0,2.03.73,2.85.46.52.99.95,1.74.97.39.01.74-.12,1.06-.32.53-.34.63-1.14.24-1.63-.33-.42-.92-.46-1.28-.05-.19.22-.34.49-.51.74,0-.01-.06-.05-.05-.09.06-.61.07-1.23.22-1.82.1-.41.39-.81.86-.9.44-.09.9-.16,1.34-.13,1.28.1,1.94.65,2.3,1.9.12.41.25.83.24,1.25-.06,1.99-1.12,3.31-3,3.84-.33.09-.68.1-1.02.1-.51,0-1.03.02-1.51-.11-1.23-.33-2.05-1.15-2.52-2.33-.4-1-.38-2.05-.34-3.09.03-.74.07-1.48.18-2.21.1-.64.3-1.26.45-1.89.05-.19.09-.38.15-.6h-.79c-.43.39-.42.96-.57,1.46-.14.44-.13.92-.24,1.37-.25,1.04-.25,2.1-.23,3.16.04,2.01.99,3.54,2.53,4.78.8.64,1.66.71,2.59.57.51-.08,1.02-.18,1.52-.31.96-.24,1.74-.74,2.25-1.63.02-.03.05-.04.1-.08.03.04.08.08.07.11-.1.56-.18,1.12-.31,1.66-.24.95-.69,1.81-1.33,2.56-.73.87-1.49,1.09-2.61.75-.05-.01-.11,0-.21,0,.48.94.54,1.95.56,2.93.02.82-.11,1.64-.52,2.38-.15.26-.24.56-.39.82-.24.42-.49.83-.77,1.22-.3.43-.63.84-.96,1.25-.07.09-.17.17-.25.25-.04-.01-.07-.03-.11-.04.04-.17.08-.35.12-.52.23-.86.59-1.69.52-2.6-.05-.75-.17-1.5-.45-2.21-.29-.76-.58-1.53-.9-2.28-.26-.6-.61-1.17-.85-1.78-.41-1.07-.82-2.13-1.14-3.23-.6-2.02-.78-4.08-.62-6.17.05-.69.17-1.37.33-2.05.17-.71.46-1.38.6-2.09.02-.1,0-.21,0-.31-.47-.07-.56-.05-.7.29-.18.44-.35.89-.47,1.35-.18.65-.33,1.3-.48,1.96-.08.33-.16.66-.19.99-.12,1.26-.12,2.53,0,3.79.13,1.2.43,2.37.79,3.53.36,1.14.81,2.24,1.26,3.34.36.89.66,1.8.99,2.71.2.56.43,1.11.61,1.67.26.82.43,1.67.37,2.54-.04.62-.19,1.23-.27,1.85-.04.33-.05.67-.09,1.12-.1-.15-.16-.21-.18-.28-.23-.63-.24-1.3-.28-1.96-.07-1.04-.38-2.04-.74-3-.3-.81-.73-1.58-1.12-2.35-.8-1.6-1.61-3.2-2.4-4.81-.42-.86-.85-1.72-1.19-2.62-.27-.71-.48-1.45-.5-2.24-.03-1.06-.14-2.12-.18-3.19-.03-.81.22-1.57.52-2.31.38-.91.79-1.8,1.18-2.69-1.42-.31-2.85-.63-4.34-.96.61.74,1.2,1.39,1.98,1.84.16.09.37.11.56.14.21.04.42.05.66.08-.67.49-1.39.68-2.15.78-.35.05-.71.1-1.07.11-.79.04-1.44-.28-1.96-.85-.17-.19-.27-.44-.41-.65-.02.03-.06.13-.11.23-.28.56-.57,1.12-.86,1.68-.13.25-.28.49-.42.74-.47.88-.9,1.78-1.41,2.63-1.54,2.59-3.53,4.72-6.27,6.07-.94.46-1.93.77-2.95,1-.61.14-1.21.29-1.94.22.14-.1.21-.16.28-.21.52-.36.92-.83,1.19-1.39.37-.78.82-1.54,1.01-2.4.13-.59.27-1.17.38-1.76.21-1.1.31-2.21.32-3.33.01-1.05-.2-2.06-.42-3.07-.33-1.51-.86-2.94-1.63-4.29-.41-.71-.8-1.44-1.26-2.11-.64-.92-1.13-1.91-1.42-2.99-.08-.31-.04-.65.04-1,.08.18.16.36.24.54.1.22.22.44.31.67.42,1.04,1.15,1.86,1.87,2.69.69.8,1.45,1.55,2.11,2.38.47.59.84,1.26,1.16,1.96.36.8.61,1.63.79,2.47.12.55.21,1.12.28,1.68.06.46.1.93.11,1.39.02.93-.25,1.82-.38,2.73-.1.7-.36,1.34-.62,1.97-.21.51-.53.99-.88,1.42-.44.53-.96.98-1.45,1.47-.09.09-.18.17-.22.34.2-.11.4-.2.59-.32,1.32-.82,2.46-1.85,3.41-3.08.75-.97,1.49-1.97,2.14-3.01.65-1.03,1.23-2.11,1.75-3.21.61-1.29,1.29-2.53,2.11-3.7.25-.36.45-.77.69-1.19-.24-.14-.44-.29-.66-.38-.09-.04-.25.02-.33.09-.15.12-.28.28-.39.44-.41.61-.77,1.24-1.09,1.89-.16.34-.4.63-.59.96-.18.31-.34.62-.5.94-.43.85-.86,1.71-1.3,2.57-.05.1-.08.2-.13.3-.42.79-.83,1.59-1.25,2.38-.08.15-.19.29-.37.4.16-.5.33-.99.48-1.49.15-.48.3-.96.43-1.44.12-.46.25-.92.3-1.39.08-.64.14-1.3.12-1.95-.03-.81-.12-1.61-.23-2.41-.07-.47-.23-.93-.33-1.4-.05-.21-.05-.43-.11-.63-.08-.27-.2-.53-.29-.79-.25-.7-.51-1.41-.75-2.11-.12-.35-.37-.57-.64-.78-.21-.17-.42-.34-.7-.47.03.1.05.22.11.31.67,1.23,1.11,2.54,1.43,3.9.1.43.26.85.33,1.28.27,1.48.65,2.94.53,4.46-.03.43-.08.86-.14,1.28-.01.08-.07.15-.16.32-.12-.95-.2-1.8-.35-2.63-.2-1.09-.51-2.14-1.11-3.09-.38-.6-.69-1.23-1.04-1.85-.07-.13-.15-.25-.24-.36-.61-.79-1.32-1.47-2.08-2.12-.74-.64-1.4-1.37-1.66-2.37-.11-.4-.42-.73-.41-1.18,0-.46-.05-.94.01-1.39.04-.3.27-.57.39-.86.14-.35.06-.51-.39-.7-.27.65-.55,1.29-.79,1.96-.24.67-.44,1.36-.68,2.13-.02-.5-.04-.93-.06-1.36-.07-1.28-.67-2.23-1.82-2.77-.4-.19-.88-.31-1.36-.18-.29.08-.6.12-.91.14,1.24-1.05,2.76-1.57,4.23-2.26-.1-.13-.18-.24-.27-.37-1.3.47-2.62.84-3.81,1.54-.79.46-1.39,1.1-1.85,1.87-.62,1.06.16,2.71,1.36,2.87.39.05.76-.17,1.02-.48.24-.3.24-.65.1-.97-.13-.3-.39-.47-.73-.47-.23,0-.45,0-.72,0,1.23-1.17,2.63-1.16,3.56.06.46.61.62,1.31.43,2.09-.24.98-.86,1.62-1.7,2.1-.93.53-1.92.71-2.97.52-.54-.1-1.04-.34-1.48-.71-.59-.49-1.14-1.03-1.42-1.73-.63-1.59-.56-3.17.79-4.56.89-.91,1.99-1.47,3.13-1.99,1.15-.52,2.36-.82,3.58-1.13.03,0,.06-.03.13-.08-.12-.22-.23-.43-.34-.64-.77-.1-1.45.12-2.13.33-1.26.39-2.49.85-3.64,1.51-.93.54-1.64,1.29-2.24,2.18-.36.54-.65,1.11-.83,1.72-.14.47-.14,1-.11,1.49.09,1.18.74,2.1,1.57,2.86.47.43,1.05.75,1.61,1.08.23.14.54.15.81.22.14.04.28.08.49.14-.61.42-1.23.58-1.86.73-.74.18-1.5.08-2.25.08-.61,0-1.15-.2-1.64-.51-.66-.42-.79-.67-.83-1.51-.12.13-.21.23-.3.32-1.52,1.48-3.26,2.49-5.47,2.46-1.02-.02-2.04-.07-3.04-.3-.15-.03-.29-.11-.56-.2.48-.09.84-.16,1.21-.21,1.02-.14,1.9-.62,2.73-1.2.81-.57,1.46-1.3,2.04-2.09.93-1.25,1.81-2.54,2.78-3.76,1.68-2.11,3.69-3.82,6.21-4.87,1.37-.57,2.76-1.06,4.21-1.37.15-.03.32-.08.44-.16.08-.06.13-.21.12-.31,0-.06-.15-.16-.23-.16-.5.02-1.01.02-1.5.12-2.51.51-4.76,1.6-6.86,3.05-1.56,1.08-2.85,2.44-4.04,3.91-1.11,1.38-2.21,2.78-3.31,4.17-.92,1.17-2.11,1.96-3.49,2.48-.62.23-1.23.47-1.9.62.28-.23.54-.5.85-.69,1.49-.92,2.72-2.09,3.69-3.55.19-.29.4-.56.61-.83,1-1.28,1.81-2.68,2.66-4.07.65-1.07,1.46-2.05,2.27-3,1.03-1.2,2.26-2.19,3.63-2.98.4-.23.81-.45,1.22-.65.14-.07.32-.08.48-.08,2.28,0,4.57,0,6.85,0,.07,0,.14.02.21.02.26.67.49,1.33.78,1.97.26.57.54,1.13.88,1.65,1.48,2.32,3.08,4.57,5.14,6.42,1.9,1.7,3.84,3.37,6.11,4.6.81.44,1.62.91,2.46,1.29.96.44,1.94.86,2.97,1.13.77.21,1.52.51,2.3.7.89.22,1.79.42,2.7.57,1.61.25,3.22.36,4.84.38,1.16.01,2.32-.09,3.47-.16,2.09-.12,4.11-.63,6.1-1.22,1.83-.54,3.58-1.27,5.27-2.15,5.08-2.65,9.17-6.38,12.21-11.24.49-.79.93-1.61,1.36-2.43.26-.5.47-1.03.7-1.53h1.67c0,.08,0,.15,0,.21,0,.05-.01.11-.03.22.55-.07,1.08.05,1.6-.14.17-.06.35-.1.52-.12.88-.09,1.76-.17,2.69-.15-.08.07-.15.15-.24.22-.61.44-1.14.96-1.43,1.67-.25.62-.28,1.26.06,1.86.18.31.43.58.66.86.11.14.21.27.38.48-.55-.03-.94-.21-1.32-.4-1.22-.63-2.34-1.41-3.39-2.29-.06-.05-.11-.11-.18-.12-.09-.01-.26,0-.27.04-.04.09-.04.26.02.32.17.19.37.35.57.5,1.02.75,2,1.58,3.09,2.2,1.3.74,2.71,1.01,4.14.21.64-.36,1.05-1.36.91-1.87-.14-.5-.48-.77-.93-.86-.43-.09-.83.11-1.11.44-.16.18-.23.42-.04.69.15.21.23.48.28.8-.18-.09-.36-.17-.53-.27-.46-.26-.91-.52-1.2-.99-.34-.56-.34-1.13-.04-1.69.37-.71.87-1.29,1.67-1.54.29-.09.6-.19.89-.17.92.05,1.81.22,2.61.73,1.55.98,2.02,3.06,1.24,4.68-.4.82-.91,1.51-1.65,2.02-1.09.75-2.28,1.01-3.57.69-.9-.22-1.73-.59-2.53-1.07-1.59-.95-3.01-2.11-4.36-3.38-.04-.04-.09-.06-.18-.11-.09.15-.18.31-.28.45-.11.17-.06.3.06.44,1.19,1.27,2.5,2.43,3.95,3.37,1.77,1.15,3.76,1.62,5.89,1.25,1.01-.18,1.91-.57,2.6-1.35.51-.57.8-1.27,1.01-1.99.05-.19.04-.4.13-.57.32-.66.24-1.33.09-2-.07-.31-.25-.59-.41-.96.25.14.47.23.66.36,1,.71,1.87,1.55,2.39,2.69.17.37.32.78.37,1.18.11.76-.23,1.35-.87,1.83.39.25.84.25,1.24.37,1.71.48,3.19,1.29,4.17,2.83.13.21.23.45.35.67.26.47.53.93.77,1.41.17.33.29.68.35,1.1-.09-.05-.21-.08-.27-.15-.72-.96-1.71-1.54-2.82-1.96-.58-.23-1.15-.46-1.77-.55-.76-.11-1.52-.26-2.28-.31-1.05-.07-2.1-.03-3.15-.09-1.19-.07-2.38-.16-3.55-.49-1.08-.3-2.13-.69-3.17-1.09-1.36-.52-2.49-1.39-3.65-2.22-1.02-.73-1.94-1.57-2.8-2.53-.08.07-.14.12-.2.18-.06.06-.11.13-.16.19.8,1.14,1.71,2.12,2.81,2.93.95.7,1.89,1.43,2.9,2.05.84.51,1.78.79,2.7,1.09.56.18,1.12.35,1.69.48.66.15,1.32.32,1.99.38,1.96.19,3.92.29,5.87.51,1.13.13,2.25.37,3.35.65.96.25,1.84.7,2.6,1.36.35.3.75.54,1.17.83-.21.17-.35.15-.53.07-.52-.23-1.04-.48-1.58-.65-.65-.2-1.31-.35-1.98-.49-.52-.11-1.06-.21-1.59-.26-.74-.07-1.48-.1-2.22-.11-1.65-.02-3.3,0-4.95-.03-1.05-.02-2.09-.13-3.14-.15-.99-.02-1.96-.17-2.9-.45-.78-.23-1.54-.5-2.27-.87-2.12-1.07-3.66-2.72-4.91-4.68-.11-.17-.23-.32-.35-.48-.02-.02-.06-.03-.17-.06-1.06,1.24-2.13,2.5-3.38,3.59-.03.03-.02.1-.03.21,1.59.12,2.94-.33,4.05-1.56.11.62-.04,1.18-.26,1.72-.18.44-.41.87-.63,1.29-.39.73-.97,1.24-1.82,1.37-.25.04-.52-.03-.83-.05.08.1.14.18.22.27.69.79,1.33,1.61,1.83,2.55.44.82.97,1.6,1.43,2.41.26.45.48.92.69,1.4.22.52.39,1.07.61,1.59.29.66.47,1.34.54,2.07.02.26.13.52.19.77.34,1.27.27,2.53-.04,3.79-.14.58-.26,1.17-.42,1.75-.11.4-.27.78-.43,1.16-.1.24-.22.46-.37.79-.04-.42-.03-.74-.1-1.04-.3-1.23-1.03-2.2-1.86-3.12-1.08-1.19-2.31-2.21-3.71-2.98-.92-.5-1.88-.93-2.84-1.34-.98-.42-2.01-.63-3.03-.87-.73-.17-1.5-.22-2.25-.24-1.19-.02-2.39.06-3.58.04-.73-.01-1.48-.03-2.17-.32-.38-.16-.8-.27-1.12-.68.26.04.45.05.63.1,1.27.38,2.55.25,3.83.04.74-.12,1.47-.32,2.21-.43.81-.13,1.63-.23,2.45-.29.72-.06,1.43.1,2.13.27.54.14,1.08.24,1.61.4,1.17.37,2.3.83,3.34,1.49,1.32.85,2.46,1.91,3.32,3.22.47.71.89,1.46,1.01,2.34.03.22.16.42.33.63-.01-.26,0-.53-.04-.79-.13-.75-.24-1.51-.43-2.25-.15-.58-.37-1.14-.61-1.69-.33-.78-.67-1.57-1.06-2.32-.32-.6-.73-1.14-1.09-1.71-.44-.71-.87-1.43-1.32-2.13-.31-.49-.68-.96-.98-1.46-.43-.73-.82-1.49-1.23-2.24-.25-.46-.5-.91-.75-1.37-.07-.13-.15-.24-.23-.37-.32.2-.53.33-.76.48.03.11.05.21.09.3.39,1.12,1.05,2.1,1.69,3.08.7,1.09,1.42,2.18,2.12,3.26.71,1.08,1.41,2.17,2.11,3.26.09.14.13.32.19.48h.01Zm-8.67-8.76c-1.33.65-2.67,1.3-4,1.94,1.59-.15,3.08-.49,4-1.94Zm-36.1-2.03c.67.83,1.3,1.23,1.98,1.34-.68-.46-1.33-.9-1.98-1.34Zm-4.5,18.33l-.03-.02v.03s.03,0,.03,0Z"/>
      <path class="cls-2" d="m80.11,47.42h-1.16c-2.06-6.19-5.75-11.14-11.11-14.8-5.01-3.41-10.59-5.07-16.63-5.08-6.26,0-11.98,1.8-17.08,5.45-5.09,3.65-8.6,8.48-10.64,14.43-.15,0-.31.02-.47.02-.16,0-.32,0-.55,0,.02-.17.02-.31.06-.42.25-.68.49-1.36.78-2.02.39-.91.76-1.84,1.23-2.71.52-.95,1.1-1.87,1.72-2.76,3.15-4.56,7.25-7.99,12.28-10.31,1.51-.7,3.08-1.23,4.67-1.72.56-.17,1.16-.22,1.73-.34,1.26-.27,2.52-.5,3.81-.6,2.05-.16,4.09-.15,6.13.12.53.07,1.09.08,1.6.34.24.12.55.11.84.13.68.05,1.34.17,1.99.42.48.18.99.28,1.48.44.64.21,1.28.42,1.91.68.87.36,1.75.73,2.59,1.16,5.43,2.82,9.66,6.9,12.58,12.29.62,1.14,1.2,2.3,1.59,3.55.18.56.42,1.09.66,1.73Z"/>
      <path class="cls-2" d="m78.94,67.62c-.15.27-.25.47-.36.67-.51.98-.97,2-1.55,2.95-2.96,4.78-6.97,8.43-11.98,10.98-1.63.83-3.32,1.51-5.08,2.01-1.12.31-2.25.66-3.4.85-1.58.27-3.18.39-4.78.41-1.51.02-3.01-.04-4.5-.25-.98-.14-1.99-.22-2.94-.48-.99-.27-2.02-.41-2.96-.86-.49-.23-1.05-.33-1.56-.54-.51-.2-1-.46-1.5-.69-.22-.1-.44-.21-.66-.33-.71-.38-1.44-.73-2.12-1.15-3.06-1.88-5.76-4.18-8-7-.97-1.22-1.86-2.49-2.62-3.86-.38-.69-.75-1.38-1.11-2.07-.09-.18-.14-.38-.22-.62h1.13c.08.16.16.31.24.48,1.21,2.54,2.8,4.82,4.69,6.9,1.63,1.78,3.47,3.32,5.49,4.65.97.64,1.95,1.25,3,1.75,1.06.51,2.14.94,3.25,1.34,1.27.47,2.56.85,3.88,1.12,1.19.25,2.42.35,3.64.46,2.14.19,4.27.09,6.4-.18,2.21-.28,4.34-.86,6.42-1.64,3.67-1.37,6.93-3.43,9.77-6.13,2.06-1.96,3.81-4.17,5.2-6.65.33-.59.58-1.21.9-1.81.07-.13.25-.27.4-.29.28-.05.57-.01.95-.01Z"/>
      <path class="cls-2" d="m77.68,47.39q-.52.06-.67-.35c-.87-2.34-2-4.54-3.45-6.58-1.28-1.79-2.76-3.38-4.42-4.81-1.67-1.45-3.52-2.64-5.49-3.62-1.2-.6-2.43-1.15-3.73-1.51-1.04-.29-2.07-.64-3.12-.84-2.39-.44-4.81-.65-7.25-.46-1,.08-1.99.21-2.97.43-.75.16-1.52.24-2.26.44-7.18,1.96-12.72,6.12-16.62,12.46-.59.96-1.09,1.97-1.58,2.97-.3.61-.52,1.27-.77,1.92-.17,0-.3-.01-.5-.02.16-.49.27-.96.46-1.4.69-1.54,1.45-3.06,2.37-4.48,2.89-4.46,6.74-7.84,11.52-10.15,1.69-.82,3.45-1.48,5.28-1.9,1.19-.28,2.39-.56,3.63-.61.79-.03,1.57-.23,2.36-.22,1.43,0,2.86.04,4.28.17.96.09,1.91.37,2.86.56.26.05.54.05.8.12.39.1.76.24,1.14.38,1.29.47,2.61.89,3.87,1.44.91.4,1.75.95,2.59,1.48.75.46,1.47.97,2.18,1.49.65.47,1.28.96,1.9,1.47.34.29.63.64.94.97.6.62,1.24,1.2,1.78,1.87.69.87,1.33,1.79,1.93,2.72,1.11,1.71,2.01,3.53,2.67,5.46.07.19.17.37.28.61Z"/>
      <path class="cls-2" d="m76.29,67.68c-.64,1.07-1.23,2.09-1.86,3.09-.44.7-.89,1.39-1.41,2.03-.62.76-1.32,1.45-1.99,2.17-.23.25-.44.52-.7.75-1.63,1.45-3.38,2.75-5.26,3.87-1.43.85-2.94,1.51-4.47,2.13-1.03.41-2.14.63-3.22.94-1.12.33-2.27.46-3.43.59-2.06.22-4.11.19-6.16-.03-.74-.08-1.49-.14-2.22-.3-1.15-.25-2.29-.53-3.41-.87-.78-.24-1.52-.59-2.27-.91-2.58-1.1-4.93-2.57-7.06-4.39-2.43-2.08-4.44-4.51-6.01-7.3-.32-.56-.6-1.13-.91-1.71.52-.15.53-.15.76.31,1.32,2.64,3.05,4.98,5.16,7.05,1.44,1.42,3.03,2.64,4.73,3.72.98.62,2,1.13,3.04,1.63.78.38,1.62.64,2.44.95,1.3.49,2.64.86,4,1.08,2.36.37,4.74.51,7.13.3.21-.02.43.02.64.02.07,0,.16.03.21,0,.56-.27,1.19-.1,1.76-.29.33-.11.69-.15,1.04-.22.51-.11,1.03-.21,1.54-.34.34-.09.68-.18,1-.33.81-.4,1.73-.51,2.52-.96.61-.35,1.28-.58,1.9-.9,1.21-.63,2.37-1.33,3.46-2.14,2.04-1.51,3.87-3.25,5.44-5.23,1.08-1.35,2.01-2.82,2.8-4.36.21-.41.27-.45.79-.34Z"/>
      <path class="cls-1" d="m1.27,49.58c.07-.03.15-.07.22-.08,1.1-.1,100.58.12,101.05.24-.14.07-.21.13-.29.14-.27.01-.54,0-.82,0-12.18-.01-24.35-.02-36.53-.03-21.04-.03-42.07-.06-63.11-.09-.17,0-.34,0-.52-.01,0-.05,0-.11-.01-.16Z"/>
      <path class="cls-1" d="m102.55,65.36c-.06.02-.12.07-.18.07-33.66-.04-67.32-.09-100.99-.13-.04,0-.07-.06-.14-.11.17-.19.38-.13.56-.13,1.5,0,3.01,0,4.51,0,16.8.02,33.59.04,50.39.06,15.11.02,30.22.05,45.33.08.17,0,.34,0,.52,0,0,.06,0,.11.01.17Z"/>
      <path class="cls-1" d="m3.07,59.86h-.85c-.12-.42-.16-4.59-.06-5.68h.92c.13.46.04.95.05,1.43.01.48,0,.96,0,1.55.82-.9,1.15-1.83.91-2.92.41-.17.74-.08,1.1-.03v5.64h-1.05v-2.85s-.06-.02-.09-.03c-.26.44-.59.85-.75,1.32-.16.48-.13,1.02-.19,1.57Z"/>
      <path class="cls-1" d="m65.89,59.87h-.97v-5.7h1v2.99l.11.04c.27-.46.63-.9.78-1.4.15-.5.1-1.07.14-1.67.35.02.68.04,1.01.07v5.67h-1.04v-2.85s-.07-.02-.11-.03c-.26.45-.6.87-.76,1.36-.15.48-.12,1.01-.16,1.54Z"/>
      <path class="cls-1" d="m18.62,54.12c.43.02.75.04,1.09.06v5.67h-1.05v-2.87c-.67.84-1.2,1.7-.93,2.86h-1v-5.67h.93v2.85c.89-.76,1.14-1.73.97-2.91Z"/>
      <path class="cls-1" d="m5.94,54.27h.99v2.44h.96v-2.44h1.07c.06,1.85.02,3.7.03,5.59h-1c-.16-.75.03-1.54-.11-2.33h-.93v2.34h-.95c-.1-1.86-.04-3.72-.06-5.6Z"/>
      <path class="cls-1" d="m50.81,54.26h.99v2.46h.96v-2.46h1.05v5.58h-1.02v-2.31h-.98v2.31h-.96c-.06-1.84-.03-3.69-.04-5.58Z"/>
      <path class="cls-1" d="m73.81,54.38c-.05.16-.05.36-.14.4-.54.27-.53.85-.77,1.28-.11.2-.17.42-.26.65-.3.01-.58.03-.91.05-.01.12-.02.23-.04.38.33.01.63.03.96.04.22.51.43,1.03.66,1.53.11.24.2.51.38.69.2.2.22.39.17.63-.46.17-.84,0-1.19-.27-.11-.09-.2-.2-.26-.33-.22-.51-.43-1.03-.71-1.54-.02.7-.03,1.4-.05,2.13h-1v-5.66c.31-.13.64-.13,1.02-.05v1.7s.08.02.12.03c.07-.18.14-.37.22-.55.1-.22.2-.45.33-.66.33-.51.81-.59,1.45-.47Z"/>
      <path class="cls-1" d="m95.28,59.9c-.3-.11-.49-.19-.72-.27-.02,1.07-.26,1.96-1.36,2.32-.26-.34-.27-.43,0-.6.26-.16.3-.39.3-.65,0-.78,0-1.56.01-2.34,0-.56.02-1.12.03-1.68.02-.97.58-1.65,1.26-2.25.21-.18.41-.16.55.05.26.4.54.8.75,1.22.55,1.07.43,2.16-.08,3.2-.18.36-.49.65-.75.98Zm-.66-4.28c-.01.16-.03.3-.03.43,0,.72.02,1.45,0,2.17-.02.48.18.77.56.99.67-.92.41-2.78-.52-3.59Z"/>
      <path class="cls-1" d="m44.1,59.86v-5.66c.55,0,1.11-.1,1.61.03.63.16,1.13.96.77,1.65-.34.65-.58.76-1.37.54-.01.1-.03.19-.05.34h.99c.37.59.57,1.2.67,1.83.05.3-.05.65-.19.93-.09.17-.35.33-.56.36-.6.09-1.22.1-1.87,0Zm1.19-2.23s-.08.01-.12.02v1.45h.64c-.18-.52-.35-1-.52-1.47Zm-.13-2.71q-.04.64.12.93c.33-.12.38-.22.33-.63-.03-.26-.14-.39-.45-.3Z"/>
      <path class="cls-1" d="m48.85,56.72c-.08.01-.11.01-.15.02-.7.24-1.17-.03-1.28-.75-.14-.95.46-1.75,1.4-1.71.36.01.72,0,1.13,0,.09,1.88.03,3.72.05,5.59h-1c-.09-.66-.01-1.32-.12-1.99-.14.4-.31.8-.43,1.21-.21.74-.61.98-1.42.76.01-.13-.02-.33.05-.39.41-.31.39-.81.6-1.21.13-.25.22-.52.28-.78.08-.35.27-.47.61-.43.2.02.37,0,.28-.32Zm.02-1.72c-.47.06-.61.28-.53.79.05.34.28.29.53.25v-1.05Z"/>
      <path class="cls-1" d="m58.83,56.76c0,.14-.01.24-.02.37.11.01.2.03.28.03.7.01.69.02.94.67.17.45.36.89.57,1.32.11.22.29.4.44.6-.05.11-.1.21-.14.3-.48.13-.89.02-1.15-.42-.28-.46-.48-.96-.71-1.44-.05-.11-.1-.23-.23-.33v2.15h-.99v-5.7c.31-.02.61-.04.97-.06v1.82s.06.02.08.02c.11-.23.24-.45.33-.69.31-.85.72-1.12,1.62-1.03.05.24.06.45-.26.53-.1.03-.19.18-.25.3-.12.25-.23.5-.33.76-.09.24-.15.5-.23.76-.3.01-.57.03-.9.04Z"/>
      <path class="cls-1" d="m40.63,54.23c.43,0,.79-.07,1.19.14.61.31.86.83.94,1.41.09.65.31,1.26.44,1.9.12.59.24,1.18.35,1.77.03.14,0,.28,0,.4-.07.04-.1.07-.13.07-1.06-.01-.81.16-1.12-1.01-.14.19-.26.35-.39.52-.07.1-.14.22-.23.3-.38.36-.91.32-1.17-.13-.32-.57-.35-1.17-.08-1.79.18-.4.35-.82.46-1.25.07-.29.19-.4.47-.38.12.01.25,0,.45,0-.13-.38-.23-.73-.36-1.06-.08-.21-.22-.34-.48-.37-.35-.03-.35-.05-.36-.53Zm1.29,2.85c-.36.68-.61,1.31-.63,2.06.37-.04.41-.3.52-.49.27-.47.39-.95.11-1.57Z"/>
      <path class="cls-1" d="m97.33,59.89v-5.63h1.05v1.79c.15.01.24.03.33.03.66.02.66.02.82.63.15.55.31,1.11.49,1.65.24.73-.3,1.52-1.06,1.53-.52,0-1.04,0-1.64,0Zm1.13-2.67v2.01c.19-.02.34-.03.5-.04.12-.74-.32-1.31-.5-1.97Z"/>
      <path class="cls-1" d="m82.34,59.89v-5.63h1.1v1.82h.96c.23.72.47,1.42.68,2.12.16.54,0,1.23-.63,1.57-.09.05-.2.09-.3.1-.12.02-.25.01-.38.01-.45,0-.9,0-1.42,0Zm1.11-.66c.14,0,.23,0,.32,0,.28.02.38-.15.32-.37-.17-.66-.38-1.3-.57-1.95-.02,0-.05,0-.07.01v2.31Z"/>
      <path class="cls-1" d="m15.04,59.87h-1.03v-4.83s-.07-.02-.11-.03c-.3.65-.61,1.31-.91,1.95-.29-.07-.38-.21-.3-.41.3-.74.42-1.5.41-2.33h2.87c.01.24.01.47.03.7.04.62.1,1.25.14,1.87-.23.09-.36.03-.44-.18-.18-.47-.36-.94-.54-1.4-.02-.04-.05-.07-.13-.2v4.85Z"/>
      <path class="cls-1" d="m20.63,54.21h2.87c.01.32.01.63.03.93.04.55.08,1.1.12,1.67-.36.1-.44-.16-.52-.37-.19-.52-.37-1.04-.58-1.66v5.07h-1.05v-4.87c-.51.6-.49,1.47-1.21,1.98-.04-.13-.13-.25-.1-.32.28-.77.36-1.58.43-2.43Z"/>
      <path class="cls-1" d="m85.53,56.83c.16-.85.31-1.7.47-2.6h2.81c.07.83.13,1.65.2,2.53-.05.02-.15.06-.26.1-.44-.61-.6-1.31-.86-1.99v4.97h-1.06v-4.93s-.08-.01-.12-.02c-.08.19-.15.37-.23.56-.15.36-.29.73-.45,1.08-.11.24-.15.25-.51.29Z"/>
      <path class="cls-1" d="m62.68,54.06c.75.75,1.34,1.52,1.58,2.49.17.68.02,1.36-.33,1.97-.32.56-.73,1.06-1.29,1.51-.21-.18-.46-.33-.62-.55-.32-.43-.66-.86-.88-1.34-.15-.34-.15-.77-.16-1.15,0-.45.1-.88.34-1.27.36-.6.8-1.14,1.35-1.65Zm-.42,1.3c-.98,1.11-.24,2.74.91,3.42.42-.55.48-1.02.33-1.64-.19-.75-.76-1.2-1.24-1.79Z"/>
      <path class="cls-1" d="m27.68,54.23h2.76c.09.87.18,1.71.27,2.57-.08.03-.17.07-.26.11-.54-.6-.6-1.39-.91-2.1v5.05h-1.01v-5.03s-.06,0-.08,0c-.22.54-.43,1.07-.67,1.6-.09.21-.16.5-.54.38.15-.83.29-1.66.45-2.58Z"/>
      <path class="cls-1" d="m74.9,62.08v-.59c.87-.27,1.18-1.17,1.11-2.02-.22-.01-.45-.02-.66-.04-.17-1.16-.35-2.28-.49-3.4-.05-.43-.05-.85-.4-1.17-.07-.06-.03-.24-.05-.36.81-.13,1.12.09,1.32.85.22.86.37,1.73.46,2.61.01.12.04.24.11.37.38-1.27.69-2.55.97-3.86h.41c0,.08.02.15,0,.21-.12.53-.24,1.06-.36,1.59-.21.95-.39,1.9-.61,2.84-.14.62-.3,1.24-.52,1.83-.21.55-.58.98-1.29,1.13Z"/>
      <path class="cls-1" d="m25.76,58.47c.08-.36.13-.62.2-.88.09-.37.21-.74.29-1.11.12-.55.22-1.11.34-1.66.04-.19.06-.45.46-.35-.04.25-.08.5-.13.76-.18.92-.34,1.83-.54,2.74-.21.97-.38,1.95-.7,2.88-.19.55-.58,1.06-1.32,1.19-.01-.21-.02-.39-.03-.56.88-.42,1.24-1.1,1.13-2.04-.22-.01-.45-.02-.65-.03-.17-1.15-.37-2.25-.48-3.36-.05-.48-.12-.9-.39-1.3-.07-.1-.05-.26-.07-.39.7-.07,1.17.28,1.31.91.22.98.42,1.97.44,2.98,0,.03.04.05.14.2Z"/>
      <path class="cls-1" d="m91.45,58.36c.02-.16.03-.32.06-.47.24-1.02.49-2.05.74-3.07.07-.29.11-.32.4-.37.15.53-.11,1.01-.19,1.5-.12.72-.27,1.43-.43,2.13-.2.86-.4,1.72-.66,2.56-.11.36-.36.69-.6,1.01-.17.23-.43.38-.79.25,0-.14-.01-.29-.02-.44.79-.29,1.25-1.08,1.16-2.01h-.58c-.17-.3-.25-.59-.25-.93-.01-.44-.13-.87-.19-1.31-.05-.37-.09-.74-.13-1.11-.05-.44-.03-.89-.39-1.24-.07-.07-.04-.24-.06-.36.7-.15.99-.04,1.21.62.2.61.31,1.25.43,1.89.08.44.1.89.15,1.33.05,0,.09.01.14.02Z"/>
      <path class="cls-1" d="m79.26,54.14c.42.08.73.14,1.05.21.3,1.84.96,3.6,1.21,5.5h-1.05c-.26-1.13-.51-2.24-.76-3.35-.05,0-.09,0-.14,0-.09.36-.19.72-.26,1.09-.09.43-.11.88-.23,1.29-.09.31-.3.59-.48.87-.09.14-.58.19-.69.07-.07-.08-.14-.24-.11-.33.03-.11.17-.26.26-.26.33,0,.43-.19.49-.47.18-.88.35-1.76.55-2.63.05-.2.06-.44.31-.56.14-.07.11-.22.06-.37-.09-.3-.13-.62-.21-1.06Z"/>
      <path class="cls-1" d="m38.17,56.42c-.13.53-.27,1.05-.38,1.58-.08.36-.12.73-.2,1.08-.09.37-.33.62-.69.75-.28.1-.47.03-.52-.19-.06-.24.03-.39.33-.42.33-.03.37-.29.41-.48.17-.74.3-1.48.45-2.23.04-.22.04-.46.13-.67.06-.15.23-.26.37-.41-.09-.37-.19-.76-.3-1.2h1.07c.4,1.85.8,3.7,1.21,5.62-.27,0-.55.03-.83.02-.18,0-.21-.14-.25-.3-.13-.57-.29-1.13-.42-1.7-.11-.48-.19-.98-.28-1.46-.03,0-.07,0-.1,0Z"/>
      <path class="cls-1" d="m34.78,60.15c-.62-.54-1.07-1.16-1.36-1.89-.1-.24-.08-.52-.11-.78-.16-1.23.42-2.16,1.23-3,.23-.24.34-.2.65,0,.53.33.74.9,1.09,1.34-.27.54-.39.65-.8.81-.31-.4-.63-.79-.97-1.23-.42.43-.6.88-.47,1.44.2.88.88,1.44,1.38,2.19.15-.13.28-.24.41-.35.29.43.3.44,0,.72-.3.29-.55.67-1.04.75Z"/>
      <path class="cls-1" d="m56.91,58.67c.18.3.18.54-.05.76-.28.26-.56.5-.86.77-.69-.59-1.35-1.17-1.57-2.08-.2-.83-.19-1.67.24-2.42.25-.43.59-.81.92-1.19.21-.25.48-.28.69-.05.34.38.65.8.94,1.22.1.14.05.34-.1.49-.15.15-.28.33-.41.5-.59-.29-.71-.99-1.35-1.17-.13.33-.27.64-.36.97-.03.12.05.27.09.4.2.75.72,1.31,1.19,1.89.13.15.26.19.42.06.06-.05.13-.1.22-.16Z"/>
      <path class="cls-1" d="m12.48,55.89c-.27.3-.41.68-.84.74-.24-.32-.46-.65-.72-.93-.26-.29-.35-.25-.55.09-.35.59-.24,1.17.08,1.7.32.53.74,1.02,1.13,1.55.16-.14.29-.25.46-.39.08.19.14.33.23.53-.28.26-.55.52-.84.77-.25.22-.47.21-.71-.01-.52-.48-1-1.07-1.15-1.73-.24-1.03-.19-2.1.54-3.01.2-.25.41-.51.63-.74.21-.21.37-.19.6,0,.48.38.82.87,1.14,1.43Z"/>
      <path class="cls-1" d="m101.34,59.86h-1v-5.56c.31-.02.63-.04,1-.06v5.62Z"/>
      <path class="cls-2" d="m87.41,47.42h-2.73c.14-.54.32-1.06.38-1.6.06-.53-.12-1.05-.41-1.61.21.05.38.06.51.13.67.38,1.19.92,1.64,1.54.33.45.59.93.6,1.54Z"/>
      <path class="cls-1" d="m46.7,69.04h.41v2.41s.08.03.12.04c.47-.8.95-1.6,1.44-2.44h.5v3.19c-.11.02-.24.03-.41.06v-2.42c-.29.21-.4.47-.53.69-.3.49-.58.99-.88,1.48-.18.3-.19.3-.65.27v-3.27Z"/>
      <path class="cls-1" d="m52.71,69.04h.47v1.38c.99.03.98-.8,1.31-1.36h.5c-.38.53-.36,1.23-1.04,1.53.7.4.77,1.11,1.05,1.72-.3.12-.49.04-.59-.26-.09-.27-.18-.54-.31-.79-.21-.42-.34-.47-.89-.39v1.44c-.17.02-.32.04-.49.06v-3.32Z"/>
      <path class="cls-2" d="m18.12,43.12c-.25.38-.44.71-.66,1.02-.67.93-1.07,1.98-1.43,3.04-.06.19-.16.27-.35.26-.22,0-.43,0-.71,0,.19-.46.33-.9.54-1.29.31-.58.62-1.16,1.02-1.68.38-.49.87-.9,1.32-1.34.03-.03.1-.01.26-.02Z"/>
      <path class="cls-1" d="m51.99,69.44c-.29,0-.58,0-.87,0-.42,0-.66.17-.7.58-.05.45-.05.9,0,1.35.04.39.27.56.67.58.32.02.64,0,1.03,0-.02.12,0,.28-.07.32-.29.21-1.45.12-1.75-.1-.26-.19-.4-.46-.42-.76-.03-.47-.03-.94,0-1.41.03-.54.46-.97.98-.99.32-.01.65,0,.97.02.26.02.24.2.16.41Z"/>
      <path class="cls-1" d="m33.65,43.41c.3-.06.33.08.33.27,0,.54,0,1.08,0,1.72.11-.15.19-.23.24-.32.28-.48.56-.96.82-1.45.11-.2.24-.31.51-.2v2.63h-.37v-1.87l-.1-.02c-.3.54-.61,1.08-.91,1.62-.11.2-.23.38-.53.25v-2.63Z"/>
      <path class="cls-1" d="m67.11,45.29c.29-.52.6-1.04.88-1.57.12-.23.24-.4.59-.29,0,.82,0,1.65,0,2.47,0,.21-.15.2-.34.14v-1.87s-.06-.03-.09-.04c-.16.26-.32.52-.47.79-.18.31-.36.62-.53.95-.11.22-.26.28-.53.17,0-.79,0-1.6,0-2.41,0-.23.14-.26.37-.17v1.82s.08.03.12.04Z"/>
      <path class="cls-1" d="m36.25,46.1v-2.75c.34,0,.66,0,.98,0,.26,0,.55.04.62.32.07.28.16.6-.1.86-.03.04-.06.08-.11.14.3.21.4.49.37.84-.04.38-.15.54-.51.57-.41.04-.82,0-1.25,0Zm.37-.31c.34-.03.64-.05.92-.07.07-.9,0-.97-.92-.81v.88Zm0-2.12v.86c.3-.02.57-.04.86-.06-.02-.29-.03-.49-.05-.74-.27-.02-.52-.03-.81-.05Z"/>
      <path class="cls-1" d="m44.9,43.43c.27-.11.36,0,.36.23,0,.36,0,.72,0,1.08,0,.17,0,.35.09.54.31-.53.61-1.07.92-1.6.11-.2.21-.39.53-.25v2.62h-.31v-1.88s-.07-.03-.1-.04c-.15.26-.31.51-.46.77-.18.31-.36.62-.52.94-.11.21-.25.29-.51.19v-2.6Z"/>
      <path class="cls-1" d="m31.19,43.4q.32.05.37,1.02h1.03c0-.24,0-.51,0-.77,0-.26.14-.3.38-.23v2.64h-.38v-1.22h-1.03v1.21c-.16.01-.25.02-.38.03v-2.69Z"/>
      <path class="cls-1" d="m58.94,44.69c-.02.24-.03.4-.05.56-.11.81-1,1.19-1.66.69-.14-.11-.27-.31-.29-.48-.04-.5-.02-1.01-.01-1.51,0-.08.06-.16.11-.23.28-.41.7-.4,1.12-.36.4.03.59.29.67.66.05.25.09.49.12.67Zm-.4.02c-.04-.21-.05-.46-.13-.7-.08-.26-.33-.33-.57-.3-.23.03-.48.08-.5.38-.02.39-.05.79-.01,1.17.04.37.19.47.53.48.37.01.52-.09.61-.47.04-.17.05-.35.08-.58Z"/>
      <path class="cls-1" d="m73.69,46.07h-.42c-.06-.23-.13-.47-.2-.73h-.97c-.28.15-.08.71-.6.76,0-.16-.01-.31.03-.43.19-.62.4-1.23.61-1.84.16-.46.16-.46.71-.4.27.86.55,1.72.85,2.64Zm-.72-1.16c-.13-.39-.23-.7-.38-1.13-.25.41-.38.73-.33,1.13h.71Z"/>
      <path class="cls-1" d="m41.03,46.06h-.38v-2.71c.36,0,.7-.01,1.03,0,.38.02.46.09.57.5.24.88-.15,1.3-.87,1.21-.1-.01-.21,0-.36,0v.99Zm.04-2.34v.97c.78.03.86-.02.86-.49,0-.47-.1-.52-.86-.47Z"/>
      <path class="cls-1" d="m69.63,43.42v1.01h1.04v-.92c.14-.02.24-.03.41-.05,0,.31,0,.59,0,.87,0,.49,0,.98,0,1.47,0,.23-.01.23-.37.26v-1.21h-1.05v1.19c-.16,0-.27.02-.44.02,0-.84,0-1.65,0-2.46,0-.25.16-.25.41-.19Z"/>
      <path class="cls-1" d="m40.1,43.38c-.04.5-.33.35-.52.37-.21.02-.43,0-.67,0v.66c.35.05.69.1,1.03.16.01,0,0,.1.02.21h-1.04v.95c.31,0,.63,0,.95,0,.19,0,.27.07.19.33-.39,0-.8.01-1.21,0-.27-.01-.35-.25-.36-.46-.02-.58-.03-1.16,0-1.73.01-.32.2-.47.54-.49.34-.02.68,0,1.09,0Z"/>
      <path class="cls-1" d="m55.1,44.49c.4.08.61-.09.74-.38.07-.16.14-.33.19-.5.07-.24.21-.26.43-.18-.13.49-.25.94-.65,1.29.48.32.52.83.68,1.33h-.33c-.18-.37-.32-.74-.53-1.05-.07-.11-.31-.1-.53-.17v1.21c-.13.02-.23.03-.36.05v-2.66c.2-.08.33-.06.34.17.01.29,0,.57,0,.9Z"/>
      <path class="cls-1" d="m51.11,43.77h-1.09c-.01.24-.02.43-.03.6.31.31.84-.15,1.13.42-.41.02-.75.04-1.09.05v.9h1.07c.06.18.11.32-.12.33-.31.01-.62.02-.92,0-.27-.01-.44-.17-.45-.45-.01-.58-.02-1.16,0-1.74,0-.32.15-.47.47-.49.3-.02.62,0,.92.01.21.02.2.16.11.36Z"/>
      <path class="cls-1" d="m61.6,46.14v-2.69c.18-.11.33-.11.36.12.02.27,0,.53,0,.83.17.01.29.03.41.03.87.02.95.25.85,1.09-.06.54-.14.59-.65.62-.3.01-.61,0-.97,0Zm.39-.34c.31-.11.68.13.86-.2.1-.17.09-.51-.02-.67-.2-.29-.54-.15-.85-.14v1Z"/>
      <path class="cls-1" d="m28.83,43.49h.39c.15.45.3.92.48,1.46.11-.1.22-.15.25-.24.12-.32.22-.66.33-.99.08-.24.19-.42.5-.3-.25.78-.49,1.54-.76,2.3-.13.38-.36.45-.89.33q0-.29.45-.34c.05-.1.11-.21.17-.33-.04-.03-.08-.07-.12-.09-.19-.09-.29-.21-.35-.44-.11-.45-.29-.89-.46-1.37Z"/>
      <path class="cls-1" d="m61.15,43.71c-.36,0-.57,0-.78,0-.44.02-.61.19-.63.63-.01.29,0,.58,0,.87.02.37.16.52.52.54.25.02.5,0,.79,0-.02.12-.01.24-.06.27-.4.27-1.25.09-1.51-.32-.08-.13-.15-.29-.16-.43-.02-.34-.01-.69,0-1.03.03-.53.36-.87.88-.89.22-.01.44,0,.65.03.08.01.14.14.29.32Z"/>
      <path class="cls-1" d="m44.42,45.76c-.01.12,0,.23-.03.26-.48.36-1.54.04-1.68-.54-.07-.27-.04-.58-.02-.86.01-.24.04-.49.11-.72.12-.39.44-.54.83-.54.2,0,.4,0,.59.04.08.02.14.14.21.22-.02.03-.04.07-.06.1-.21,0-.42,0-.63,0-.44.02-.62.19-.63.62-.01.27-.02.54,0,.81.04.46.2.6.65.61.2,0,.39,0,.65,0Z"/>
      <path class="cls-1" d="m48.46,46.09c-.18-.01-.27-.02-.4-.03v-2.25c-.28-.02-.53-.04-.79-.06v-.34h1.9c0,.11,0,.22.02.36h-.73v2.33Z"/>
      <path class="cls-1" d="m53.51,43.38v.36c-.25.01-.48.03-.78.05v2.26h-.4v-2.28c-.23,0-.42.02-.61,0-.08-.01-.14-.11-.22-.18.07-.07.13-.19.2-.19.59-.02,1.18,0,1.8,0Z"/>
      <path class="cls-1" d="m66.26,43.43c-.04.43-.31.3-.49.32-.21.02-.42,0-.68,0v2.29h-.42v-.73c0-.36,0-.72,0-1.08,0-.74.15-.88.9-.86.21,0,.43.03.69.05Z"/>
      <path class="cls-1" d="m37.79,71.08h-.74c.03-.42.06-.46.34-.41.31.06.62.14.94.17-.34-.27-.89-.16-1.1-.69.27-.11.48-.07.7.1.43.32.89.56,1.43.68-.56,0-1.01.25-1.43.58-.08.07-.17.16-.27.18-.08.02-.2-.03-.27-.09-.04-.03-.02-.18.03-.23.1-.11.24-.2.36-.3.09,0,.19-.02.28-.03-.01-.03-.02-.05-.03-.08-.08.04-.16.08-.24.12Z"/>
      <path class="cls-1" d="m64.06,70.07c.08.41-.17.46-.36.53-.2.08-.41.12-.59.27.29-.06.58-.14.87-.18.12-.02.27.04.39.09.04.02.02.15.04.31-.38-.04-.71-.07-1.09-.11.24.12.45.22.63.34.06.04.07.18.1.27-.11.03-.21.07-.32.07-.06,0-.12-.07-.18-.12-.42-.37-.91-.55-1.58-.61.65-.17,1.16-.4,1.61-.73.12-.08.29-.09.47-.14Z"/>
      <path class="cls-1" d="m65.67,52.85h1.59c.13.6.07.69-.45.71-.34.01-.68,0-1.09,0-.02-.23-.03-.45-.05-.72Z"/>
      <path class="cls-1" d="m63.77,43.48h.28s.06.07.06.1c0,.74,0,1.48.01,2.23,0,.24-.08.34-.36.24v-2.56Z"/>
      <path class="cls-1" d="m41.44,71.58c-.15.12-.28.02-.39-.1-.14-.15-.33-.26-.34-.52,0-.48.27-.74.78-.72-.12.2-.33.41-.34.64-.01.23.18.46.28.71Z"/>
      <path class="cls-1" d="m59.76,70.23c.35-.05.69-.07.79.26.07.25.05.58-.04.82-.1.24-.37.33-.69.24.67-.51.65-.92-.06-1.33Z"/>
      <path class="cls-1" d="m58.26,70.72c-.1-.37-.18-.63-.24-.9-.05-.22.05-.35.28-.35.18,0,.29.17.23.4-.06.25-.16.5-.27.85Z"/>
      <path class="cls-1" d="m43.3,69.5c.06.42.05.79-.26,1.14-.05-.3-.12-.6-.14-.9-.01-.23.13-.32.4-.24Z"/>
      <path class="cls-1" d="m58.27,71.03c.11.35.22.59.26.84.02.11-.06.26-.13.37-.03.04-.2.03-.24-.01-.07-.09-.14-.23-.12-.33.04-.26.14-.52.24-.87Z"/>
      <path class="cls-1" d="m43.2,71.1c.06.38.11.74.17,1.12-.21.07-.36.1-.45-.1-.1-.24.03-.76.28-1.02Z"/>
      <path class="cls-1" d="m41.83,71.13c-.16-.32-.09-.51.2-.48.28.03.54.12.86.19-.33.34-.73.18-1.07.29Z"/>
      <path class="cls-1" d="m43.26,70.96c.37-.26.67-.34.99-.3.09,0,.16.14.23.22-.07.06-.15.19-.22.18-.3-.01-.6-.06-1.01-.1Z"/>
      <path class="cls-1" d="m58.48,70.98c.35-.26.7-.39,1.13-.3v.43c-.39-.05-.76-.09-1.13-.13Z"/>
      <path class="cls-1" d="m57.97,70.97c-.24.04-.49.08-.73.11-.16.02-.32-.06-.28-.23.02-.09.21-.22.31-.21.24.02.47.12.7.19,0,.05,0,.1,0,.15Z"/>
      <path class="cls-1" d="m40.01,71.17c-.05-.2-.17-.41.11-.52.07-.03.24.03.25.09.1.3-.11.38-.37.43Z"/>
      <path class="cls-1" d="m61.46,71.06h-.49c-.08-.24.01-.41.24-.42.19,0,.31.13.26.42Z"/>
      <path class="cls-1" d="m58.62,71.34c.16.08.33.16.49.24-.02.03-.04.07-.07.1-.15-.12-.29-.24-.44-.36h.01Z"/>
      <path class="cls-2" d="m57.82,71.41c-.08.09-.17.17-.28.29.07-.16.12-.28.17-.4.04.04.07.07.11.11Z"/>
      <path class="cls-2" d="m43.65,70.32c.07-.08.14-.16.2-.24.02.02.04.04.06.06-.08.06-.17.12-.25.18,0,0,0,0,0,0Z"/>
      <path class="cls-1" d="m59.08,70.24c-.11.07-.23.14-.32.2q.12-.21.33-.2h0Z"/>
      <path class="cls-2" d="m38.17,56.42s.07,0,.1,0c-.03,0-.07,0-.1,0Z"/>
      <path class="cls-1" d="m42.39,70.26c.15-.17.19,0,.29.13-.12-.06-.2-.1-.28-.14,0,0,0,0,0,0Z"/>
      <path class="cls-2" d="m27.02,19.98c-.07-.03-.15-.06-.22-.09.05-.03.09-.07.14-.1.02.07.04.14.07.2,0,0,.01,0,.01,0Z"/>
      <path class="cls-1" d="m57.94,70.39s0,.06,0,.09c0-.03,0-.06,0-.09,0,0,0,0,0,0Z"/>
      <path class="cls-2" d="m51.29,111.38s-.05-.03-.08-.05c.03-.02.06-.05.09-.05.02,0,.05.03.07.04-.03.02-.05.04-.08.06Z"/>
      <path class="cls-1" d="m42.83,71.33s.02-.03.02-.04c0-.01-.01-.03-.02-.04v.07s0,.01,0,.01Z"/>
      <path class="cls-1" d="m42.53,71.67c-.06,0-.12,0-.18,0,0-.02.02-.05.02-.05.06.02.11.03.17.05,0,0,0,0,0,0Z"/>
      <path class="cls-1" d="m59.08,70.24s-.07-.08-.11-.12c.02-.02.05-.04.07-.06,0,.06.02.12.03.18,0,0,0,0,0,0Z"/>
      <polygon class="cls-2" points="43.43 70.53 43.42 70.55 43.44 70.53 43.43 70.53"/>
      <path class="cls-2" d="m43.44,70.53s.07-.07.11-.11c0,0,0,0,0,0-.04.03-.08.07-.12.1,0,0,0,0,0,0Z"/>
      <path class="cls-1" d="m57.8,70.3s.09.06.13.08c0,0,.01,0,.01,0-.04-.03-.09-.07-.13-.1,0,0-.02.01-.02.01Z"/>
      <polygon class="cls-1" points="58.61 71.33 58.63 71.32 58.63 71.34 58.61 71.33"/>
      <path class="cls-1" d="m42.81,71.32s-.06.09-.09.13c0,0,0,0,0,0,.03-.04.06-.08.09-.13,0,0-.01-.01-.01-.01Z"/>
      <path class="cls-2" d="m43.54,70.42s.07-.07.11-.11c0,0,0,0,0,0-.04.03-.08.07-.11.1,0,0,0,0,0,0Z"/>
      <path class="cls-1" d="m57.72,70.16s.05.09.08.14c0,0,.02-.01.02-.02-.15.03-.14-.04-.09-.14h0Z"/>
      <path class="cls-1" d="m42.62,71.59s0-.09-.01-.14c.04,0,.08,0,.12,0,0,0,0,0,0,0-.03.05-.07.09-.1.13h0Z"/>
      <path class="cls-1" d="m42.62,71.58s-.06.06-.1.09c0,0,0,0,0,0-.02-.04-.04-.09-.05-.13.05.01.09.03.14.04,0,0,0,0,0,0Z"/>
      <polygon class="cls-1" points="42.3 70.15 42.3 70.13 42.3 70.16 42.3 70.15"/>
      <path class="cls-1" d="m57.73,70.15s-.08.02-.12.03v-.13s0,0,0,0c.04.04.08.08.12.12,0,0,0-.01,0-.01Z"/>
      <path class="cls-1" d="m42.3,70.16s.08-.04.12-.05c0,.05-.01.1-.02.15,0,0,0,0,0,0-.03-.04-.06-.07-.09-.11,0,0,0,.01,0,.01Z"/>
      <polygon class="cls-2" points="76.14 92.4 76.17 92.4 76.15 92.41 76.14 92.4"/>
      <polygon class="cls-1" points="57.62 70.05 57.6 70.06 57.61 70.04 57.62 70.05"/>
    </g>
  </g>
</svg>