<?xml version="1.0" encoding="UTF-8"?>
<svg id="Layer_2" data-name="Layer 2" xmlns="http://www.w3.org/2000/svg" viewBox="0 0 87.38 85.88">
  <defs>
    <style>
      .cls-1 {
        stroke: #1d6339;
        stroke-miterlimit: 10;
        stroke-width: .2px;
      }

      .cls-1, .cls-2 {
        fill: #1d6339;
      }
    </style>
  </defs>
  <g id="Layer_1-2" data-name="Layer 1">
    <g>
      <path class="cls-2" d="m18.54,23.88l7.79-.89s3.83,13.82,2.81,20.82-7.53,19.9-7.53,19.9l-5.55-3.57s7.19-12.77,6.63-20.04-2.22-12.13-4.14-16.21Z"/>
      <path class="cls-2" d="m32.07,20.82s4.34-.26,7.79-1.53,4.34-5.62,4.34-5.62h8.3v5.36h-4.98s-1.91,3.19-3.32,3.96-4.85,1.91-4.85,1.91c0,0,4.6,8.94,4.47,10.85s.28,6-1.53,11.11c-1.39,3.92-1.79,3.45-1.79,6.64s.38,4.21.38,4.21l-4.72-1.53s-1.28-4.47.13-8.94,2.81-6.89,1.79-10.72-6-15.7-6-15.7Z"/>
      <path class="cls-2" d="m27.99,58.73s5.49-1.15,8.17,0,5.11,3.45,5.11,3.45c0,0,5.62-3.45,10.09-3.96s12.64,2.43,14.68,3.96l2.04,1.53-4.47,4.6s-5.87-4.72-11.11-4.6-10.98,4.6-10.98,4.6c0,0-4.21-3.06-8.04-3.7s-9.06,1.02-9.06,1.02l3.57-6.89Z"/>
      <g>
        <path class="cls-2" d="m47.21,34.43h2.78v.94h-.92v4.08h-.97v-4.08h-.89v-.94Z"/>
        <path class="cls-2" d="m55.74,34.43v5.03h-.96v-3.15l-1.88,3.15h-.83v-5.03h.96v3.25l1.9-3.25h.81Z"/>
        <path class="cls-2" d="m61.57,39.45l-1.39-3.7-1.42,3.7h-1.02l1.94-5.03h.97l1.93,5.03h-1.02Z"/>
        <path class="cls-2" d="m64.59,34.43h3.62v5.03h-.97v-4.13h-1.68v4.13h-.97v-5.03Z"/>
      </g>
      <g>
        <path class="cls-1" d="m48.09,41.23h1.41v7.18h-.71v-6.48h-1.13l.43-.7Z"/>
        <path class="cls-1" d="m53.7,48.59l-.59-.38,1.94-2.94c-.26.09-.5.13-.73.13-.57,0-1.05-.21-1.45-.62-.4-.41-.6-.92-.6-1.52,0-.41.1-.79.29-1.12s.46-.6.82-.8c.35-.2.73-.3,1.14-.3s.76.1,1.1.29c.34.19.6.46.79.81s.29.71.29,1.1c0,.3-.06.61-.18.93-.12.32-.33.71-.64,1.17l-2.18,3.25Zm.78-3.82c.42,0,.78-.15,1.07-.44s.44-.65.44-1.07-.15-.77-.44-1.07c-.29-.29-.65-.44-1.07-.44s-.77.15-1.07.44c-.29.29-.44.65-.44,1.07s.15.77.44,1.07c.29.29.65.44,1.07.44Z"/>
        <path class="cls-1" d="m58.65,42.9h-.73c.13-.59.39-1.05.77-1.37s.82-.48,1.34-.48c.37,0,.72.09,1.05.26.32.17.58.4.75.69.18.29.27.59.27.91,0,.62-.31,1.11-.92,1.47.34.14.63.35.85.62.31.38.47.81.47,1.28,0,.41-.11.79-.32,1.16s-.51.66-.88.86-.79.3-1.25.3c-.62,0-1.13-.18-1.55-.53s-.68-.88-.81-1.57h.7c.12.47.3.8.53,1.01.3.26.67.4,1.13.4.52,0,.94-.16,1.25-.47s.47-.68.47-1.1c0-.28-.08-.54-.24-.79-.16-.24-.37-.43-.63-.55-.26-.12-.68-.2-1.23-.23v-.66c.33,0,.63-.06.9-.17s.47-.26.59-.44c.12-.18.18-.37.18-.59,0-.31-.12-.58-.37-.81-.25-.23-.56-.34-.95-.34-.31,0-.58.09-.8.26s-.42.47-.57.89Z"/>
        <path class="cls-1" d="m63.18,44.82c0-.95.1-1.68.31-2.2.2-.52.49-.91.86-1.18s.79-.4,1.25-.4.89.13,1.26.4.68.67.9,1.21c.22.54.33,1.26.33,2.16s-.11,1.62-.33,2.15c-.22.53-.51.94-.9,1.21s-.8.41-1.27.41-.87-.13-1.24-.4-.66-.66-.86-1.18c-.21-.52-.31-1.25-.31-2.19Zm.68.01c0,.81.07,1.42.22,1.84.15.42.36.73.64.95.28.21.58.32.9.32s.62-.1.89-.31c.28-.21.49-.53.63-.95.18-.51.27-1.13.27-1.85s-.08-1.32-.24-1.78-.38-.8-.66-1.01c-.28-.21-.58-.32-.89-.32s-.62.11-.9.32-.49.53-.64.94-.22,1.03-.22,1.84Z"/>
      </g>
      <g>
        <path class="cls-2" d="m.11,46.45l-.11-3.17,1.08-.04.04,1.05,4.67-.16.04,1.11-4.67.16.04,1.02-1.08.04Z"/>
        <path class="cls-2" d="m4.3,37.6l-.3,3.41c.31-.02.56-.13.75-.33.2-.2.31-.46.34-.8.03-.4-.07-.75-.33-1.06l.5-.86c.3.25.51.54.63.86.12.32.17.7.13,1.13-.06.66-.31,1.19-.77,1.57-.46.38-1,.54-1.63.49-.65-.06-1.16-.31-1.55-.76-.39-.45-.56-.99-.5-1.62.06-.67.32-1.19.78-1.57.46-.38,1.04-.54,1.75-.48l.2.02Zm-.93.99c-.24.05-.45.17-.61.36-.17.19-.26.43-.29.7-.03.3.03.56.18.8.09.15.26.29.52.44l.2-2.3Z"/>
        <path class="cls-2" d="m2.12,35.93l.27-1.21,1.32-.56-.94-1.07.27-1.19,1.63,1.85,2.56-1.09-.27,1.21-1.58.68,1.14,1.29-.27,1.19-1.82-2.07-2.29.98Z"/>
        <path class="cls-2" d="m5.34,29.8l.56-1.49-1.43-.54.37-1,3.98,1.49-.37,1-1.65-.62-.56,1.49,1.65.62-.37,1-3.98-1.49.37-1,1.43.54Z"/>
        <path class="cls-2" d="m6.54,23.09c.19-.35.46-.64.8-.85s.71-.33,1.11-.34.77.08,1.12.27c.35.19.63.46.85.8.21.34.32.71.33,1.11,0,.4-.09.78-.28,1.14-.29.54-.73.89-1.32,1.06-.59.17-1.15.11-1.7-.19-.58-.32-.95-.79-1.11-1.43-.13-.56-.07-1.08.2-1.57Zm.89.46c-.16.29-.19.59-.09.89s.3.54.62.71c.32.18.64.22.95.14.3-.08.54-.27.7-.56.16-.29.19-.59.09-.9-.1-.31-.31-.54-.63-.72-.32-.17-.63-.22-.94-.14-.3.08-.54.27-.7.57Z"/>
        <path class="cls-2" d="m14.43,19.05l-.64.88-2.79-.73,1.52,2.46-.64.87-2.35-3.98.41-.55,4.5,1.05Z"/>
        <path class="cls-2" d="m13.32,13.84c.28-.29.61-.49,1-.6.39-.11.78-.12,1.16-.03s.72.28,1.01.56c.29.28.49.61.6,1,.11.39.12.77.02,1.15-.1.38-.29.72-.58,1.02-.42.44-.94.66-1.55.67-.61,0-1.14-.2-1.59-.63-.48-.46-.71-1.02-.69-1.68.02-.57.22-1.06.61-1.46Zm.73.68c-.23.24-.34.52-.33.84.01.32.15.6.41.85.27.26.56.39.87.39s.59-.12.82-.36c.23-.24.34-.52.33-.84-.01-.32-.15-.61-.41-.86-.26-.25-.55-.38-.87-.38s-.59.12-.83.36Z"/>
        <path class="cls-2" d="m16.33,11.13l1.92-1.57.64.79-1.1.89,2.04,2.51-.83.67-2.69-3.29Z"/>
        <path class="cls-2" d="m22.35,11.84l-.48.3-2.29-3.58.88-.56,1.34,2.1.49-3.27.43-.28,2.29,3.58-.88.56-1.32-2.06-.47,3.2Z"/>
        <path class="cls-2" d="m27.69,6.94l-.78.36c-.52.24-.98.33-1.35.26-.38-.07-.67-.34-.89-.8l-.48-1.02.97-.45.44.95c.16.34.46.4.92.19l.38-.18.39-.18-.68-1.45.97-.45,1.79,3.85-.97.45-.71-1.53Z"/>
        <path class="cls-2" d="m34.31,4.47l-3.27,1.01c.14.27.33.46.59.57s.55.11.86.01c.38-.12.67-.35.86-.7l.98.14c-.12.37-.31.67-.56.91s-.59.42-1,.55c-.64.2-1.22.15-1.74-.12s-.88-.72-1.07-1.33c-.19-.62-.15-1.2.12-1.73.27-.53.71-.89,1.31-1.08.64-.2,1.22-.15,1.75.13s.89.77,1.1,1.44l.06.2Zm-1.27-.49c-.14-.21-.33-.35-.57-.43-.24-.08-.49-.08-.75,0-.28.09-.51.24-.67.47-.1.14-.17.35-.21.64l2.21-.68Z"/>
        <path class="cls-2" d="m39.67,1.95l-.8.62c-.19-.15-.37-.24-.54-.28-.17-.04-.37-.05-.58-.01-.39.06-.7.23-.9.5-.21.27-.28.59-.23.96.05.36.22.63.49.82.27.19.59.26.98.2.47-.07.81-.29,1.03-.65l.92.44c-.36.66-.95,1.05-1.77,1.17-.74.11-1.35-.02-1.84-.39-.49-.37-.77-.85-.87-1.44-.06-.41-.02-.8.13-1.17.15-.37.39-.69.73-.94s.73-.41,1.18-.48c.42-.06.8-.04,1.16.08.36.11.67.31.92.58Z"/>
        <path class="cls-2" d="m41.48.97l1.07-.02.03,1.59,1.44-1.62,1.3-.03-1.85,2.11,1.96,2.14-1.41.03-1.3-1.48-.11.14.03,1.37-1.07.02-.08-4.25Z"/>
        <path class="cls-2" d="m46.82,5.26l-.56-.06.46-4.23,1.03.11-.27,2.48,2.43-2.25.51.06-.46,4.23-1.03-.11.26-2.43-2.37,2.2Z"/>
        <path class="cls-2" d="m51.99,6.01l-.55-.14,1.03-4.12,1.01.25-.61,2.42,2.72-1.89.5.12-1.03,4.12-1.01-.25.59-2.37-2.65,1.86Zm1.23-6.01l.84.21c.04.12.11.22.22.3.1.08.24.14.41.19.17.04.33.05.49.03.1-.02.2-.07.29-.16l.84.21c-.13.31-.35.53-.65.66-.31.13-.69.14-1.16.02-.31-.08-.56-.19-.75-.33-.19-.14-.33-.31-.42-.5-.09-.19-.12-.4-.1-.62Z"/>
        <path class="cls-2" d="m59.53,8.47l-.51-.25,1.87-3.82.93.46-1.1,2.24,3.05-1.29.46.22-1.87,3.82-.93-.46,1.08-2.2-2.98,1.26Z"/>
        <path class="cls-2" d="m66.07,8.95l1.32.89.85-1.27.88.59-2.37,3.53-.89-.6.98-1.46-1.32-.89-.98,1.46-.88-.6,2.37-3.53.88.6-.85,1.27Z"/>
        <path class="cls-2" d="m73.29,13.85l-.99-.23c0-.24-.05-.44-.13-.6-.08-.16-.2-.31-.36-.46-.3-.27-.62-.39-.96-.38-.34.01-.64.16-.89.43-.24.27-.35.57-.33.9.02.33.18.62.47.88.36.32.74.45,1.16.38l.24.99c-.74.14-1.41-.07-2.03-.63-.56-.5-.84-1.06-.86-1.67-.02-.61.17-1.14.57-1.58.28-.31.6-.52.99-.64.38-.12.78-.13,1.19-.03s.78.3,1.12.6c.31.28.54.6.68.95.14.35.18.71.13,1.08Z"/>
        <path class="cls-2" d="m74.96,14.34l2.57,3.02-.77.66-.92-1.08-2.46,2.1-.69-.81,2.46-2.1-.96-1.13.77-.66Z"/>
        <path class="cls-2" d="m75.27,21.49l-.31-.48,3.56-2.32.57.87-2.09,1.36,3.28.46.28.43-3.56,2.32-.57-.87,2.05-1.33-3.21-.45Z"/>
        <path class="cls-2" d="m81.38,23.28l1.71,3.57-.92.44-.61-1.28-2.92,1.4-.46-.96,2.92-1.4-.64-1.34.92-.44Z"/>
        <path class="cls-2" d="m81.45,30.94l3.59-3.3.38,1.18-2.63,2.27,3.39.07.34,1.07-4.38-.2c-.75-.04-1.29-.16-1.61-.38-.32-.22-.54-.5-.64-.83-.17-.54-.07-1.12.31-1.75l.91.46c-.23.38-.3.7-.22.96.04.12.1.21.18.27.08.06.21.12.38.18Z"/>
        <path class="cls-2" d="m86.78,33.51l.59,3.12-1.06.2-.2-1.03-4.58.87-.21-1.09,4.58-.88-.19-1,1.06-.2Z"/>
        <path class="cls-2" d="m82.15,45.32l-.02-1.09,2.66-1.11-2.7-1.04-.02-1.08,4.28,1.74v.69s-4.21,1.88-4.21,1.88Z"/>
        <path class="cls-2" d="m83.31,50.75l.44-3.4c-.31.01-.56.11-.77.3-.2.19-.33.45-.37.78-.05.4.04.75.28,1.07l-.53.84c-.29-.26-.49-.56-.6-.89-.11-.33-.14-.71-.08-1.13.09-.66.36-1.17.83-1.53s1.02-.5,1.65-.42c.64.08,1.15.36,1.52.83.37.47.52,1.02.44,1.64-.09.66-.37,1.18-.85,1.54-.48.36-1.07.5-1.76.41l-.2-.03Zm.97-.95c.24-.04.45-.15.63-.34s.28-.42.31-.69c.04-.29-.01-.56-.15-.81-.08-.15-.25-.31-.5-.46l-.3,2.29Z"/>
        <path class="cls-2" d="m85.32,52.82l-.61,2.4-.98-.25.35-1.37-3.13-.8.26-1.03,4.12,1.05Z"/>
        <path class="cls-2" d="m84.22,56.79l-.38,1-1.49-.56.97,1.93-.46,1.22-1.27-2.5-2.71,1.03.5-1.32,1.85-.66-.08-.15-1.28-.48.38-1,3.98,1.5Z"/>
        <path class="cls-2" d="m81.4,63.52c-.19.35-.46.64-.8.85-.34.22-.71.33-1.11.34s-.77-.08-1.12-.27c-.35-.19-.64-.46-.85-.8-.21-.34-.32-.71-.33-1.11s.08-.78.28-1.14c.29-.54.73-.89,1.31-1.06.59-.17,1.15-.11,1.7.18.58.32.96.79,1.11,1.43.14.56.07,1.08-.19,1.57Zm-.89-.46c.16-.29.19-.59.09-.89-.1-.3-.31-.54-.62-.71-.33-.18-.64-.22-.95-.14-.3.08-.54.27-.7.56-.16.29-.19.59-.09.9s.31.54.63.72c.32.17.63.22.94.14.3-.08.54-.27.7-.57Z"/>
        <path class="cls-2" d="m75.46,64.93l.34-.46,3.42,2.52-.62.84-2.01-1.48.72,3.23-.3.41-3.42-2.52.62-.84,1.97,1.45-.71-3.16Zm5.09,3.42l-.51.69c-.13,0-.25.02-.36.09-.11.07-.22.17-.33.31-.11.14-.17.29-.21.44-.02.1,0,.21.04.33l-.51.69c-.24-.24-.36-.52-.36-.85,0-.33.14-.69.42-1.08.19-.26.39-.45.59-.57s.41-.19.62-.19.42.04.61.14Z"/>
        <path class="cls-2" d="m69.93,71.32l.8-.71,2.83,3.17-2.78,2.48-2.83-3.17.8-.71,2.14,2.41,1.19-1.06-2.14-2.41Z"/>
        <path class="cls-2" d="m68.24,78.14l-.26-.39c-.05.27-.15.5-.28.71-.13.2-.31.38-.52.52-.46.31-.97.39-1.53.26-.55-.13-1.01-.48-1.38-1.02-.35-.53-.48-1.08-.38-1.66.1-.58.38-1.02.83-1.32.2-.14.42-.23.64-.27.22-.04.48-.04.76,0l-1.11-1.67.88-.58,3.21,4.84-.88.59Zm-1.42-.11c.28-.19.45-.44.51-.75.06-.31-.02-.62-.22-.93-.21-.31-.47-.51-.78-.58-.31-.07-.61-.02-.89.17-.27.18-.43.43-.49.75-.05.32.02.63.22.94.2.3.46.49.77.57.31.07.61.02.88-.17Z"/>
        <path class="cls-2" d="m62.03,81.85c-.36.17-.75.24-1.15.21-.4-.03-.77-.16-1.09-.39s-.57-.52-.74-.88c-.17-.36-.24-.74-.21-1.15.03-.4.16-.76.39-1.09.23-.32.53-.57.9-.75.55-.26,1.11-.28,1.69-.07.57.21.99.59,1.26,1.16.28.6.3,1.21.04,1.81-.22.53-.58.91-1.09,1.15Zm-.44-.9c.3-.14.5-.36.6-.67s.08-.62-.08-.94c-.16-.33-.38-.56-.68-.67-.29-.11-.59-.1-.9.04-.3.14-.5.36-.61.67-.1.3-.08.62.08.95.16.33.38.55.67.67.29.11.59.1.9-.05Z"/>
        <path class="cls-2" d="m54.9,81.56l-.52,2.94-.68.19-2.19-3.79,1-.29,1.23,2.24.53-2.75.42-.12,1.88,2.06-.14-2.56,1-.29.15,4.38-.68.19-2.01-2.21Z"/>
        <path class="cls-2" d="m47.05,85.68l-1.06.11-.45-4.23,1.06-.11.45,4.23Zm2.76-1.84l-.32.03c-.44.05-.79.05-1.03,0-.25-.04-.46-.16-.65-.36-.19-.2-.3-.46-.33-.79-.03-.33,0-.61.13-.84.12-.23.3-.4.52-.49.22-.1.54-.17.95-.21l1.49-.16.45,4.23-1.06.11-.16-1.52Zm-.2-1.89l-.32.03c-.19.02-.33.05-.41.09-.08.04-.15.1-.21.18-.06.08-.08.18-.07.29.04.36.27.52.68.48l.44-.05-.11-1.03Z"/>
        <path class="cls-2" d="m37.98,81.18l6.12.46-.32,4.24-1.06-.08.24-3.22-1.46-.11-.24,3.22-1.06-.08.24-3.22-1.46-.11-.24,3.22-1.06-.08.32-4.24Z"/>
        <path class="cls-2" d="m32.85,79.95l1.06.25.4,2.85,1.68-2.35,1.05.25-2.76,3.71-.67-.16-.77-4.56Z"/>
        <path class="cls-2" d="m27.31,79.79l3.19,1.25c.06-.3.03-.57-.11-.82-.14-.24-.36-.43-.67-.55-.37-.15-.74-.14-1.11.02l-.68-.72c.32-.21.66-.34,1.01-.36.35-.03.72.04,1.12.19.62.24,1.05.64,1.29,1.18.24.54.24,1.11.01,1.7-.24.6-.63,1.03-1.17,1.28-.55.25-1.11.26-1.7.03-.62-.24-1.05-.64-1.29-1.19-.23-.55-.22-1.15.03-1.81l.08-.19Zm.69,1.17c-.02.25.04.48.18.69.14.21.34.37.59.47.28.11.55.13.82.05.17-.05.36-.17.57-.37l-2.15-.84Z"/>
        <path class="cls-2" d="m24.58,79.38l-1.39-.78-.75,1.33-.93-.52,2.09-3.7.93.52-.87,1.53,1.39.78.87-1.53.93.52-2.09,3.7-.93-.52.75-1.33Z"/>
        <path class="cls-2" d="m19.84,76.39l-1.27-.96-.93,1.22-.85-.65,2.57-3.38.85.65-1.07,1.4,1.27.97,1.07-1.4.85.65-2.57,3.38-.85-.65.93-1.22Z"/>
        <path class="cls-2" d="m13.75,73.3c-.28-.29-.48-.62-.58-1.02-.11-.39-.11-.78,0-1.16.1-.38.3-.71.58-.99.28-.28.62-.48,1.01-.58.39-.1.77-.1,1.16,0,.38.11.72.31,1.01.6.43.43.64.96.64,1.57,0,.61-.23,1.13-.67,1.57-.47.47-1.04.68-1.69.65-.57-.03-1.06-.25-1.45-.64Zm.7-.72c.23.24.51.35.83.34.32,0,.61-.13.86-.39.26-.26.4-.55.41-.86,0-.32-.1-.59-.34-.83-.24-.24-.51-.35-.83-.35-.32,0-.61.14-.87.39-.26.26-.39.54-.4.86s.11.59.34.83Z"/>
        <path class="cls-2" d="m9.24,66.32l.92.42c-.04.24-.04.44,0,.61.04.17.13.35.26.52.24.32.52.51.86.57.34.06.66-.03.96-.25.29-.21.46-.49.5-.81.04-.33-.05-.65-.28-.96-.28-.38-.64-.59-1.06-.61l-.04-1.02c.75.01,1.37.35,1.86,1.02.44.6.61,1.2.51,1.81-.1.6-.4,1.08-.87,1.43-.33.24-.7.39-1.1.43-.4.04-.79-.03-1.17-.21s-.7-.45-.97-.82c-.25-.34-.41-.69-.47-1.06-.06-.37-.04-.73.09-1.09Z"/>
        <path class="cls-2" d="m7.71,65.5l-1.91-3.47.89-.49.68,1.24,2.83-1.56.51.93-2.83,1.56.71,1.3-.89.49Z"/>
        <path class="cls-2" d="m8.85,58.45l.21.53-3.96,1.55-.38-.97,2.32-.91-3.12-1.12-.19-.48,3.96-1.55.38.97-2.28.89,3.05,1.09Z"/>
      </g>
    </g>
  </g>
</svg>