<?xml version="1.0" encoding="UTF-8"?>
<svg id="Layer_2" data-name="Layer 2" xmlns="http://www.w3.org/2000/svg" viewBox="0 0 73.73 79.54">
  <defs>
    <style>
      .cls-1 {
        fill: #22baa5;
      }
    </style>
  </defs>
  <g id="Layer_1-2" data-name="Layer 1">
    <g>
      <path class="cls-1" d="m13.21,44.19c-.86-.84-1.73-1.68-2.58-2.52-.34-.33-.64-.7-.98-1.03-.21-.21-.29-.44-.29-.74,0-1.66,0-3.33-.01-4.99,0-2.18-.03-4.36-.02-6.54,0-.37-.09-.69-.27-1.01-1.59-2.72-3.18-5.44-4.76-8.16-1.19-2.04-2.37-4.08-3.56-6.11C-.7,10.62.04,7.57,2.46,6.06c1.26-.78,2.56-1.5,3.85-2.25,1.59-.93,3.18-1.86,4.76-2.79C12.16.37,13.29-.1,14.6.02c.88.08,1.68.35,2.42.85.82.55,1.42,1.28,1.91,2.12,2.7,4.66,5.43,9.31,8.13,13.97.16.27.35.46.62.61,1.91,1.08,3.82,2.18,5.73,3.27,1.16.67,2.33,1.32,3.49,2,2.33,1.37,4.71,2.67,7.05,4.03,2.32,1.35,4.66,2.67,6.99,4,1.05.6,2.11,1.2,3.16,1.81.41.24.78.53,1.19.76,1.64.92,3.3,1.8,4.92,2.74,2.57,1.48,3.42,4.46,2.01,7.03-.19.35-.48.66-.75.96-1.1,1.21-2.62,1.8-3.97,2.63-1.36.83-2.77,1.59-4.15,2.38-.82.47-1.64.93-2.45,1.41-1.02.61-2.03,1.24-3.06,1.84-.77.46-1.56.89-2.33,1.34-1.64.96-3.27,1.93-4.91,2.89-.93.55-1.86,1.09-2.8,1.63-1,.58-2,1.16-2.99,1.75-.23.14-.43.22-.7.04-1.02-.69-2.05-1.35-3.08-2.02-.08-.05-.14-.13-.24-.22.16-.11.28-.2.41-.28,1.59-.92,3.19-1.83,4.78-2.76,1.86-1.09,3.72-2.19,5.58-3.28,1.24-.73,2.49-1.44,3.73-2.16,2.56-1.5,5.12-3,7.68-4.5,1.59-.93,3.17-1.85,4.76-2.77.21-.12.41-.24.61-.36.77-.47.75-1.63-.03-2.08-.88-.5-1.76-1-2.63-1.5-2.63-1.51-5.26-3.01-7.89-4.52-5.31-3.04-10.62-6.08-15.94-9.11-2.29-1.31-4.57-2.62-6.86-3.92-.39-.22-.68-.51-.91-.9-2.84-4.9-5.72-9.78-8.54-14.69-.69-1.21-1.4-1.23-2.41-.62-2.69,1.63-5.43,3.2-8.16,4.76-.96.55-1.34,1.13-.64,2.32,2.28,3.85,4.52,7.73,6.78,11.6.62,1.06,1.23,2.13,1.86,3.18.21.35.31.72.31,1.13,0,2.91.02,5.83.03,8.74,0,2.52.02,5.03.03,7.55,0,.16,0,.31,0,.47-.04.02-.08.04-.12.06Z"/>
      <path class="cls-1" d="m56.68,53.25c1.09.82,2.2,1.62,3.27,2.47,2.18,1.75,4.26,3.61,6.22,5.61,2.21,2.26,4.26,4.64,5.84,7.39.78,1.35,1.42,2.75,1.64,4.3.2,1.36.04,2.68-.73,3.87-.62.96-1.53,1.57-2.58,1.97-1.66.64-3.38.75-5.14.62-2.47-.17-4.88-.72-7.26-1.37-.25-.07-.51-.1-.73-.21-.36-.17-.63-.09-.91.17-2.73,2.61-7.87,1.48-9.07-2.82-.08-.29-.16-.58-.17-.87,0-.38-.21-.53-.52-.69-2.66-1.37-5.34-2.7-7.95-4.15-2.22-1.23-4.41-2.55-6.54-3.93-2.08-1.34-4.09-2.78-6.1-4.22-3.3-2.36-6.47-4.9-9.5-7.59-2.46-2.18-4.82-4.46-7.04-6.89-2.22-2.43-4.29-4.98-6.02-7.78-1.01-1.64-1.88-3.35-2.39-5.22-.31-1.14-.42-2.3-.13-3.46.32-1.26,1.1-2.13,2.32-2.59,1.05-.4,2.15-.51,3.29-.35-.15.03-.3.07-.45.09-.79.1-1.56.29-2.28.63-1.54.74-2.17,2.02-1.87,3.71.27,1.47.94,2.76,1.7,4.03,1.16,1.94,2.63,3.65,4.13,5.32,1.87,2.08,3.89,4,5.98,5.86.53.47,1.02.99,1.57,1.44,1.05.87,2.12,1.71,3.18,2.57.51.42,1.01.86,1.52,1.28.26.21.56.36.83.56.65.48,1.27.98,1.92,1.46,1.3.96,2.61,1.9,3.92,2.85.67.48,1.35.93,2.03,1.4,1.62,1.13,3.28,2.19,4.95,3.25.94.6,1.89,1.18,2.84,1.76,3.59,2.2,7.64,4.43,11.32,6.24.16.08.32.15.49.23,2-2.07,4.34-2.78,7-1.49,2.31,1.13,3.29,3.11,3.09,5.74.75.23,1.52.49,2.29.71,1.97.56,3.96.99,6,1.09.86.04,1.71-.02,2.53-.26.37-.11.73-.31,1.05-.54.39-.27.54-.68.6-1.17.24-1.86-.55-3.44-1.33-5.01-1.12-2.24-2.6-4.25-4.14-6.22-2.53-3.23-5.35-6.21-8.24-9.12-.18-.18-.35-.38-.52-.57.04-.04.08-.07.11-.11Z"/>
      <path class="cls-1" d="m9.42,49.74c.15.12.22.15.27.21,1.12,1.1,2.23,2.2,3.35,3.29.21.21.32.42.32.73,0,.41.04.83.05,1.24.01,3.47.02,6.93.04,10.4,0,.23,0,.49.09.7.28.71,1.07.93,1.79.51,1.34-.77,2.67-1.55,4-2.33,1.28-.75,2.57-1.49,3.85-2.25.29-.18.51-.18.8.04.88.67,1.79,1.31,2.69,1.96.12.09.24.19.4.32-.69.41-1.34.78-1.99,1.16-2.53,1.48-5.06,2.95-7.59,4.43-2.01,1.18-3.99,1.18-5.91-.18-1.24-.88-1.93-2.13-2.05-3.66-.05-.65-.07-1.3-.07-1.95-.01-4.62-.02-9.23-.03-13.85,0-.22,0-.43,0-.76Z"/>
    </g>
  </g>
</svg>