<?xml version="1.0" encoding="UTF-8"?>
<svg id="Layer_2" data-name="Layer 2" xmlns="http://www.w3.org/2000/svg" viewBox="0 0 92.89 92.91">
  <defs>
    <style>
      .cls-1 {
        fill: #4371b8;
      }
    </style>
  </defs>
  <g id="Layer_1-2" data-name="Layer 1">
    <g>
      <g>
        <path class="cls-1" d="m33.59,7.93l1.9-.13c.11,1.04-.04,1.91-.46,2.6-.42.69-1.09,1.22-2.02,1.59-1.14.45-2.24.43-3.28-.06s-1.83-1.41-2.37-2.77c-.56-1.43-.63-2.69-.21-3.77s1.24-1.86,2.45-2.34c1.05-.41,2.03-.44,2.93-.08.54.21,1.04.63,1.51,1.24l-1.56,1.09c-.28-.41-.63-.67-1.05-.81-.42-.13-.87-.11-1.33.08-.64.25-1.06.68-1.28,1.3-.22.61-.12,1.43.28,2.46.43,1.09.93,1.79,1.5,2.09.57.31,1.17.34,1.8.09.46-.18.8-.49,1.02-.91.22-.42.27-.98.17-1.67Z"/>
        <path class="cls-1" d="m37.64,10.21l-1.34-9.15L43.08.06l.23,1.55-4.94.72.3,2.03,4.59-.67.23,1.54-4.59.67.37,2.49,5.11-.75.23,1.54-6.96,1.02Z"/>
        <path class="cls-1" d="m46.37,0l6.26.34-.09,1.55-4.39-.24-.42,7.68-1.86-.1.51-9.23Z"/>
        <path class="cls-1" d="m53.33,5.08c.25-.91.6-1.63,1.04-2.17.33-.4.72-.73,1.17-.99s.91-.42,1.38-.48c.62-.08,1.29-.02,2.02.18,1.31.37,2.25,1.07,2.81,2.1s.64,2.28.23,3.73c-.4,1.44-1.11,2.45-2.11,3.05-1.01.59-2.17.71-3.48.34-1.32-.37-2.27-1.07-2.82-2.09s-.64-2.25-.24-3.67Zm1.87.46c-.28,1.01-.26,1.84.06,2.49.32.65.84,1.08,1.56,1.28.72.2,1.38.11,1.98-.28.6-.39,1.05-1.1,1.34-2.13.28-1.02.27-1.84-.03-2.47-.31-.63-.83-1.04-1.57-1.25-.74-.21-1.41-.12-2.01.26-.6.38-1.04,1.09-1.32,2.11Z"/>
        <path class="cls-1" d="m66.63,4.61l5.56,3.14-3.78,6.7.71.4-1.76,3.11-1.35-.76.99-1.76-5.07-2.86-.99,1.76-1.35-.76,1.76-3.11.68.38c.72-.5,1.39-1.18,2.01-2.03.62-.85,1.32-1.97,2.11-3.36l.48-.85Zm.79,2.23c-1.38,2.45-2.61,4.11-3.69,4.98l3.06,1.73,3.02-5.35-2.4-1.35Z"/>
        <path class="cls-1" d="m68.95,16.71l6.3-6.77,1.37,1.27-2.48,2.67,2.68,2.49,2.48-2.67,1.37,1.27-6.3,6.77-1.37-1.27,2.75-2.96-2.68-2.49-2.75,2.96-1.37-1.27Z"/>
        <path class="cls-1" d="m78.37,27.46l3.22-2.13-.21-.32c-.33-.49-.63-.79-.91-.89-.28-.1-.95-.16-2-.16h-2.42s-1.24-1.87-1.24-1.87l2.13-.06c.84-.02,1.46,0,1.84.06.39.06.78.2,1.19.4-.36-.79-.46-1.48-.28-2.05.18-.58.53-1.04,1.07-1.4.47-.31.96-.47,1.48-.47.52,0,.97.15,1.35.45.38.3.83.84,1.34,1.61l2.17,3.27-7.71,5.11-1.03-1.56Zm6.4-4.25l-.81-1.21c-.41-.62-.69-1.01-.85-1.19-.16-.18-.36-.28-.62-.31s-.51.04-.77.21c-.27.18-.44.39-.51.63s-.05.48.04.71.36.67.79,1.31l.76,1.15,1.96-1.3Z"/>
        <path class="cls-1" d="m86.16,38.25l-.1,1.9c-1.05-.01-1.89-.27-2.53-.77-.64-.5-1.08-1.23-1.33-2.19-.31-1.19-.16-2.27.45-3.25.61-.98,1.62-1.65,3.03-2.02,1.49-.39,2.75-.31,3.77.24,1.03.55,1.7,1.46,2.03,2.71.29,1.09.2,2.07-.27,2.92-.28.51-.75.96-1.41,1.35l-.9-1.68c.44-.23.74-.54.92-.95.18-.41.21-.85.08-1.33-.17-.66-.55-1.14-1.14-1.43-.58-.29-1.41-.29-2.48-.01-1.13.3-1.88.71-2.26,1.24s-.47,1.12-.3,1.78c.13.48.39.85.78,1.12.4.26.94.39,1.64.37Z"/>
        <path class="cls-1" d="m83.44,43.79l7.68-.35-.12-2.74,1.56-.07.33,7.34-1.56.07-.12-2.74-7.68.35-.08-1.87Z"/>
        <path class="cls-1" d="m92.83,49.67l-.32,2.06-5.08,1.39,4.46,2.56-.3,1.93-6.46-4.17c-.7-.45-1.22-.89-1.56-1.3-.34-.41-.46-.89-.38-1.44.09-.54.19-.96.31-1.26l1.37.21c-.06.26-.1.5-.14.71-.07.43-.04.75.09.96.13.21.43.44.92.69l7.08-2.33Z"/>
        <path class="cls-1" d="m90.85,59.99l-2.25,5.98-7.21-2.7-.29.76-3.34-1.25.55-1.45,1.89.71,2.05-5.45-1.89-.71.55-1.45,3.34,1.25-.28.73c.61.64,1.38,1.19,2.31,1.68.94.48,2.15,1,3.65,1.56l.92.34Zm-2.08,1.12c-2.63-.99-4.46-1.94-5.48-2.87l-1.23,3.29,5.75,2.16.97-2.58Z"/>
        <path class="cls-1" d="m79.2,64.15l7.7,5.12-3.8,5.71-1.3-.87,2.76-4.16-1.71-1.14-2.57,3.87-1.3-.86,2.57-3.87-2.1-1.39-2.86,4.3-1.3-.86,3.89-5.86Z"/>
        <path class="cls-1" d="m74.6,70.86l6.35,6.72-1.36,1.28-2.5-2.65-2.66,2.51,2.5,2.65-1.36,1.28-6.35-6.72,1.36-1.28,2.78,2.94,2.66-2.51-2.78-2.94,1.36-1.28Z"/>
        <path class="cls-1" d="m66.21,77.84l3.94,6.6,2.36-1.41.8,1.34-6.31,3.77-.8-1.34,2.35-1.4-3.94-6.6,1.6-.96Z"/>
        <path class="cls-1" d="m59.15,83.94l.51,1.7-3.34,1-.51-1.7,3.34-1Z"/>
        <path class="cls-1" d="m50.06,90.16l1.83.35c-.33,1.52-1.41,2.32-3.24,2.4-1.08.05-1.91-.16-2.49-.61-.57-.45-.87-1-.9-1.65-.02-.44.09-.84.33-1.21.24-.37.6-.69,1.1-.98-.62-.18-1.1-.46-1.42-.83-.32-.37-.5-.84-.52-1.4-.03-.81.24-1.48.81-2,.57-.52,1.45-.81,2.64-.86.97-.04,1.74.09,2.31.39s1.02.88,1.34,1.75l-1.68.63c-.2-.55-.45-.9-.75-1.05-.3-.15-.66-.22-1.09-.2-.59.02-1.01.17-1.27.44-.26.27-.38.56-.37.89.02.38.18.68.5.89.31.22.78.31,1.39.29l.42-.02.06,1.39h-.21c-.57.03-1,.18-1.3.45-.29.27-.43.62-.41,1.04.01.34.15.62.4.84s.61.32,1.07.3c.78-.03,1.26-.44,1.45-1.22Z"/>
        <path class="cls-1" d="m35.24,82.14l2,.36.42,2.21,3.64.66,1.12-1.93,1.95.35-5.19,8.46-1.94-.35-2-9.76Zm2.73,4.21l.65,3.6,1.84-3.16-2.48-.45Z"/>
        <path class="cls-1" d="m31.05,90.35l-3.38-1.5c-.67-.3-1.16-.55-1.46-.75s-.55-.45-.73-.74c-.18-.29-.29-.62-.34-.99-.04-.37.02-.74.18-1.1.18-.4.44-.71.8-.95.36-.24.76-.36,1.2-.36-.45-.38-.73-.81-.85-1.29-.12-.48-.07-.97.15-1.46.17-.38.43-.72.77-1,.34-.28.71-.47,1.12-.55s.85-.04,1.32.11c.3.1.99.38,2.09.85l2.88,1.27-3.75,8.46Zm-1.08-2.16l.87-1.96-1.12-.5c-.66-.29-1.08-.47-1.25-.52-.31-.1-.58-.1-.82,0s-.42.28-.54.55c-.12.26-.14.51-.07.73.07.23.24.42.51.58.16.09.64.32,1.45.68l.98.43Zm1.49-3.36l1-2.26-1.58-.7c-.62-.27-1.01-.43-1.19-.47-.27-.07-.53-.05-.77.06-.24.11-.42.31-.56.61-.11.25-.15.5-.1.73s.17.44.36.62c.2.18.68.45,1.46.79l1.38.61Z"/>
        <path class="cls-1" d="m25.51,77.12l-4.49,6.24,2.23,1.6-.91,1.27-5.97-4.29.91-1.27,2.22,1.6,4.49-6.24,1.52,1.09Z"/>
        <path class="cls-1" d="m21.22,73.89l-6.84,6.22-2.02-2.22c-.76-.84-1.23-1.42-1.39-1.74-.25-.49-.33-1.02-.23-1.59.1-.58.43-1.11.97-1.61.42-.38.84-.63,1.27-.73.42-.11.83-.12,1.2-.03.38.09.7.23.98.42.37.27.83.72,1.4,1.34l.82.9,2.58-2.35,1.26,1.38Zm-6.94,3.79l1.94-1.77-.69-.76c-.5-.54-.86-.88-1.1-.99-.24-.12-.48-.16-.73-.13-.25.03-.47.14-.67.33-.25.23-.39.49-.42.78-.03.29.04.57.2.83.12.19.41.54.86,1.04l.61.67Z"/>
        <path class="cls-1" d="m12.17,61.5l1.04,1.74-1.39,1.77,1.9,3.17,2.19-.42,1.02,1.7-9.79,1.66-1.01-1.69,6.03-7.93Zm-1.37,4.83l-2.29,2.86,3.59-.69-1.3-2.17Z"/>
        <path class="cls-1" d="m1.82,59.69l-1.44-6.76,1.52-.32,1.05,4.94,2.1-.45-.52-2.44c-.14-.68-.18-1.25-.11-1.73.07-.48.29-.92.67-1.33.38-.41.86-.68,1.46-.8.61-.13,1.17-.08,1.67.14.5.22.88.52,1.12.89.25.37.45.93.61,1.68l.91,4.27-9.05,1.92Zm7.14-3.43l-.38-1.78c-.12-.57-.23-.96-.34-1.18-.1-.22-.27-.39-.51-.52-.23-.13-.49-.16-.78-.1-.42.09-.69.3-.82.64-.13.34-.12.87.04,1.59l.39,1.86,2.39-.51Z"/>
        <path class="cls-1" d="m9.25,49.17l-9.25-.15.05-3c.02-1.14.08-1.87.18-2.22.15-.53.46-.97.93-1.32.47-.35,1.07-.52,1.81-.51.57,0,1.04.12,1.43.33.38.21.68.48.9.8.22.32.36.65.42.98.08.45.11,1.09.1,1.94l-.02,1.22,3.49.06-.03,1.87Zm-7.65-1.99l2.62.04.02-1.02c.01-.74-.03-1.23-.12-1.48s-.24-.45-.44-.59c-.2-.14-.44-.22-.72-.22-.34,0-.62.09-.84.28-.22.19-.36.44-.42.74-.05.22-.07.67-.09,1.34v.9Z"/>
        <path class="cls-1" d="m9.54,41.01l-8.99-2.16,1.6-6.67,1.52.37-1.17,4.85,1.99.48,1.09-4.51,1.52.36-1.09,4.51,2.45.59,1.21-5.02,1.52.36-1.64,6.84Z"/>
        <path class="cls-1" d="m11.56,33.11l-8.26-4.15.84-1.67,3.25,1.63,1.64-3.27-3.25-1.63.84-1.67,8.26,4.15-.84,1.67-3.61-1.82-1.64,3.27,3.61,1.82-.84,1.67Z"/>
        <path class="cls-1" d="m9.09,18.77l4.12-4.88,5.88,4.96.53-.62,2.73,2.3-1,1.19-1.54-1.3-3.76,4.45,1.54,1.3-1,1.19-2.73-2.3.5-.6c-.36-.8-.9-1.59-1.62-2.36-.72-.77-1.69-1.67-2.91-2.7l-.75-.63Zm2.33-.36c2.15,1.81,3.55,3.33,4.2,4.55l2.27-2.69-4.69-3.96-1.77,2.1Z"/>
        <path class="cls-1" d="m22.67,14.73l-1.01-1.46,2.86-1.99,1.01,1.46-2.86,1.99Z"/>
      </g>
      <polyline class="cls-1" points="38.79 69.18 51.5 57.28 51.5 69.18 64.54 69.18 64.54 30.28 25.64 30.28 25.64 43.4 38.36 43.4 25.64 55.3"/>
    </g>
  </g>
</svg>