<?xml version="1.0" encoding="UTF-8"?>
<svg id="Layer_2" data-name="Layer 2" xmlns="http://www.w3.org/2000/svg" viewBox="0 0 89.07 110.41">
  <defs>
    <style>
      .cls-1 {
        fill: #a8ae99;
      }

      .cls-2 {
        fill: #767f54;
      }

      .cls-3 {
        fill: #a3a98c;
      }

      .cls-4 {
        fill: #7c846c;
      }

      .cls-5 {
        fill: #a3a990;
      }

      .cls-6 {
        fill: #b1b6ac;
      }

      .cls-7 {
        fill: #9fa684;
      }

      .cls-8 {
        fill: #727b40;
      }

      .cls-9 {
        fill: #6f7842;
      }

      .cls-10 {
        fill: #aaaea4;
      }

      .cls-11 {
        fill: #747d41;
      }

      .cls-12 {
        fill: #b1b5a9;
      }

      .cls-13 {
        fill: #a2a7a6;
      }
    </style>
  </defs>
  <g id="Layer_1-2" data-name="Layer 1">
    <g>
      <path class="cls-3" d="m36.97,4.02c4.05.4,7.84.05,10.62-3.47.59-.74,1.48-.62,2.23-.31,5.8,2.43,10.05,6.6,7.42,14.05-.61,1.72-1.76,3.29-1.47,5.27.25.52-.07.87-.38,1.22-1.31.94-2.39,2.1-3.36,3.39-1.95,2.6-1.67,3.79,1.36,5.28.57.17.97.56,1.32,1.02.13.2.18.42.18.66-.14.19-.32.32-.54.4-2.4-.06-4.7-.9-7.16-.75-3.49.23-6.4,1.46-8.57,4.23-.84,1.07-1.81,2.24-.64,3.65.96,1.15,3.34,1.22,4.63.16,1.06-.87,1.94-1.93,2.95-2.85.54-.49,1.1-.95,1.72-1.32.53-.32,1.1-.93,1.72-.42.58.47.3,1.19.05,1.79-1.17,2.89-1.5,5.89-1.42,8.99.04,1.7.35,3.33.71,5.22,2.69-1.73,4.92-3.81,7.42-5.51,1-.68,1.03-1.72.88-2.82-.2-1.46-.86-2.76-1.25-4.15-.22-.79-.3-1.65.37-2.26.74-.68,1.64-.5,2.51-.22,1.28.42,1.92,1.66,3.35,2.64-1.43-2.47-3.25-3.9-5.27-5.14-.47-.29-1.73-.25-.84-1.41,1.52-.53,2.86-.1,4.11.77,6.9,3.06,9.71,9.52,5.12,15.73-.54.72-1.17.61-1.92.41-1.62-.42-3.25-.81-4.89-1.08-2.25-.37-3.56.59-4.13,2.86-.4.43-.26,1.67-1.43.95-.61-.82-1.16-1.08-2.01-.16-.79.85-1.19,2.06-2.31,2.61-1.96.76-2.49-.94-3.39-1.99-.88-3.09-1.91-6.08-4.71-8.05-.4-.28-.74-.53-1.23-.64-3.21-.67-4.01-1.84-3.16-4.94.81-2.97,2.05-5.75,4.69-7.62,1.06-.75,1.23-1.2-.3-1.57-1.31-.31-2.56-.92-3.83-1.41-1.52-.59-2.36-1.61-2.12-3.32.84-.72,1.65-.44,2.41.11.68.49,1.42.72,2.25.69,3.16.06,6.24-.3,9.13-1.68,4.37-2.1,5.72-6.34,3.39-10.54-.16-.28-.31-.56-.45-.85-1.65-3.39-3.19-6.49-8.15-4.72-2.03.73-4.7.12-5.8-2.61.06-.1.11-.2.17-.3Z"/>
      <path class="cls-1" d="m72.15,89.17c1.47-4.11.04-9.35-3.39-11.81-1.58-1.14-2.86-3.59-5.47-1.79-.15.1-.73-.12-.83-.32-.89-1.85-2.18-3.39-3.54-4.9-.22-.25-.18-.69.16-.81.24-.08.69.01.85.2,2.53,2.98,5.95,3.13,9.45,3.03.79-.02,1.74.16,2.12-.75.46-1.07-.66-1.32-1.2-1.8-1.71-1.53-2.56-3.43-2.39-5.71.09-1.17.64-1.93,2.09-1.57,1.23.3,2.48.39,3.72.84,2.77,1.01,5-.6,7.21-1.95.82-.5,1.56-1.13,2.6-1.14,1.09,0,1.58.51,1.68,1.6.32,3.49.3,7.03,2.23,10.23.75,1.25-.86,3.42-2.61,3.58-2.64.25-5.37.48-7.23-2.09-.91-1.25-2.22-.72-3.34-.67-1.26.06-2.46.68-3.6,1.12-1.89.73-.58,2.37.11,2.87,2.32,1.69,1.94,5.28,4.84,6.48.52.21.37.88-.26,1.05-1.42.38-1.05,1.53-1.26,2.52-.87,4.1.73,8.07.54,12.13-.06,1.25.56,2.33,1.39,3.24.51.55.9,1.13.96,1.88.04.5-.05,1.01-.55,1.24-.69.31-.7-.33-.94-.71-1.55-2.49-1.41-2.37-3.12-.08-1.03,1.38-1.5,3.01-2.54,4.34-.45.57-.85,1.43-1.66.81-.68-.51-.05-1.15.33-1.66,1.75-2.3,3.23-4.73,4.13-7.53.41-1.27.59-2.49.5-3.78-.06-.94-.04-2.2-.98-2.52-1.16-.4-1.1,1.09-1.66,1.67-.61.63-1.15,1.33-2.06,1.6-.91.27-1.98.93-2.68.05-.67-.85-.09-1.82.64-2.56.49-.03,1.04-.04,1.23-.57.87-2.44,2.97-3.88,4.55-5.73Z"/>
      <path class="cls-5" d="m21.44,56.88c.29-.05.59-.09.88-.14.94,1.65,1.71,3.4,3.15,4.73.5.46,1.22.96.71,1.82-.42.72-1.19.9-1.9.79-3.28-.5-6.73.72-9.88-1.31-.17,1.18.39,1.74,1.05,1.93,2.38.68,3.89,2.48,5.56,4.09,1.12,1.09,2.08,1.33,3.55.25,1.43-1.05,3.03-1.64,3.96-3.42.74-1.43,2.73-1.04,4.86-1.73-4.01-1.79-3.84-5.64-5.59-8.39-1.41-2.21-1.34-2.24-3.11-.49-.49.49-.93,1.17-1.82.78.25-3.64,2.68-4.9,5.86-3.05,2.64,1.53,4.79,3.48,5.78,6.48.53.5.92,1.06.82,1.83-.37,1.32-.14,2.6.35,3.85.23.97-.77,1.61-.69,2.54,2.25,7.45-3.54,12.32-9.74,12.62-1.9.09-3.21-.58-3.5-2.74-.57-4.22-2.39-7.43-6.7-9.09-1.87-.72-2.67-3.01-3.02-4.97-.23-1.27.63-2.25,2.21-2.12,1.79.15,3.48-.16,5.11-.97.65-.32,1.07-.66,1.09-1.39-.64-1.14-.04-1.63,1-1.9Z"/>
      <path class="cls-12" d="m59.63,32.13c-1.5.16-2.91-.76-4.43-.42-.35.06-.52-.12-.57-.45.1-.03.21-.07.31-.12,4.01-.34,4.57-3.3,5.13-6.88-2.65,1.89-4.23,4.11-5.74,6.4-.33-.31-.67-.61-1-.92-.12-3.09,2.37-4.64,3.99-6.69.38-.48,1.09-.64,1.4-1.34-1.31-.05-2.54-.24-3.48-1.22.17-.31.35-.61.52-.92,2.88.56,5.63-.77,8.5-.59,1.06.07,1.9-.74,2.33-1.81.68-1.7,1.83-2.99,3.42-3.91.61-.35,1.47-.79,1.44-1.52-.15-3.3,2.17-2.56,3.84-2.22,1.68.35,2.76-.31,4.16-.98,3.03-1.44,5.98-3.4,9.62-2.93-2.25.66-4.27,1.54-4.64,4.28-.07.54-.5.99-1.21.84,0-.88,1.26-1.32.79-2.51-1.6.71-2.26,2.08-2.87,3.54-.25.6-.2,1.55-1.25,1.52-1.1-.03-.45-.98-.71-1.34-.91-1.28-2.08-.52-2.89.11-1.4,1.1-2.94,1.94-4.39,2.92-1.98,1.33-3.85,2.87-5.59,4.51-3.46,3.27-3.36,3.34-4.85,8.22-.46,1.53-1.22,2.96-1.85,4.44Z"/>
      <path class="cls-10" d="m21.44,56.88c-.6.49-1.1,1.04-1,1.9-4.15-1.14-6.64-4.09-8.44-7.79-.28-.57-.51-1.18-1.17-1.44-1.43-3.12-6.36-4.9-9.4-3.35-.44.22-.86.63-1.24.11-.55-.76.23-.99.67-1.18,1.75-.75,2.59-1.51,1.08-3.47-.68-.88-.5-2.44-.72-3.68.58-.31,1.12-.37,1.31.41.73,3.02,2.53,4.77,5.58,5.65,1.24.36,2.43,1.63,3.19,2.78,2.17,3.29,4.62,6.3,7.5,8.96.73.67,1.72.81,2.63,1.11Z"/>
      <path class="cls-13" d="m52.38,51.01c.73.06.93-.67,1.43-.95-1.28,3.56-.03,7.14.8,10.38.58,2.26,1.26,4.33,1.02,7.17-1.81-1.4-3.1-3.85-5.71-1.7-1.56,1.29-.21,2.43-.13,3.95-1.89-.95-2.72-2.31-2.41-3.77.32-1.51.65-3.53,2.99-3.48,2.04.04,2.37-1.14,1.81-2.68-1.09-3.02-.27-5.95.19-8.92Z"/>
      <path class="cls-6" d="m34.98,67.44c-.92-.99.35-1.56.46-2.36,2.07-1.08,4.37-1.9,5.33-4.61-2.07-.11-3.81,1.62-5.79.67-.16-.64-.32-1.29-.47-1.93,5.17.04,9.76-3.45,10.17-7.75,1.51.02,1.61,2.44,3.39,1.99-2.7.49-3.38,2.22-4.2,4.78-1.17,3.7-2.75,7.85-7.79,8.34-.39.04-.73.56-1.09.86Z"/>
      <path class="cls-4" d="m72.15,89.17c.55.14,1.34.34.38.92-2.12,1.27-3.7,2.83-4.35,5.34-.35,1.36-1.17,1.01-1.81.04.82-3.12,1.83-6.06,5.78-6.3Z"/>
      <path class="cls-9" d="m22.86,55.79c.89-.32,1.38-1.06,1.86-1.79,1.07-1.63,1.93-1.64,2.98.09.95,1.57,1.89,3.17,2.31,5,.4,1.72,1.24,3.07,2.92,3.81.41.18.97.35.96.95-.01.73-.7.95-1.18,1-2.26.24-4.6.22-4.79,3.41-.03.43-.72.63-1.23.5-.81-.2-1.42.05-1.84.75-1.16,1.91-2.47,1.31-3.77.21-1.98-1.68-3.45-3.95-6.3-4.59-1.16-.26-1.35-1.81-1.5-3.66,3.39,2.85,7.13,1.44,10.58,2.1.66.13,1.59.3,1.96-.49.4-.87-.71-.87-1.05-1.34-1.09-1.54-2.75-2.78-2.48-4.99.18-.32.36-.63.55-.95Z"/>
      <path class="cls-7" d="m38.9,25.34c-1.08.12-2.12,0-2.88-.87-.58-.65-1.3-.51-2.01-.56-.35-3.49-1.07-6.81-2.71-10.03-1.6-3.16-1.78-6.6.39-9.78.23-.13.43-.1.61.1,1.72,6.11,6.32,9.17,11.89,11.19.77.28,2.05.12,1.98,1.31-.06,1.12-1.29,1.05-2.1,1.19-2.54.45-5.09.82-7.01,2.78-1,1.02-1.83,1.96.32,2.71.79.27,1.55.88,1.52,1.95Z"/>
      <path class="cls-11" d="m32.19,4.17c1.55-1.14,3.07-.21,4.6.08,2.85,2.98,6.27,2.68,9.65,1.41,1.2-.45,1.32-.27,1.83.7,1.3,2.46,2.86,4.78,4.22,7.21,1.65,2.95.45,6.75-2.82,9.08-3.23,2.31-6.97,2.65-10.77,2.7-.97-.93-1.85-1.97-3.42-1.94-1,.02-.94-.56-.45-1.26,1.72-2.48,3.98-4.1,7.02-4.55,1.25-.18,2.49-.42,4.37-.75-2.39-.98-4.28-1.58-6.07-2.42-3.41-1.61-5.73-4.18-7.64-7.27-.57-.93-.79-1.92-.5-2.99Z"/>
      <path class="cls-8" d="m54.64,31.25c.19.15.38.3.57.45,3.46,1.34,6.16,3.42,7.46,7.63-1.49-.96-2.5-1.69-3.35-2.72-.73-.88-1.95-1.55-3-.93-1.11.65-.42,1.85-.08,2.81.27.76.62,1.49.85,2.25.67,2.19.42,3.86-1.88,5.2-2.54,1.48-4.76,3.51-7.27,5.42-1.38-5.86-1.45-11.43,1.22-17.16-2.67,1.32-4.25,3.22-5.96,4.96-1.49,1.51-4.46,1.4-5.98-.12-.69-.69-.64-1.29-.35-2.14,1.16-3.44,5.76-6.65,9.73-6.78,2.76-.09,5.43.29,8.05,1.13Z"/>
      <path class="cls-2" d="m81.52,64.78c.59,2.01-1.68,2.6-.98,3.98.7,1.37,2.23.17,3.37.88-1.58,1.74-3.56,1.63-5.43,1.08-2.84-.83-5.86-1.57-6.8-5.3,3.4,1.92,6.69,2.63,9.84-.65Z"/>
    </g>
  </g>
</svg>