<?xml version="1.0" encoding="UTF-8"?>
<svg id="Layer_2" data-name="Layer 2" xmlns="http://www.w3.org/2000/svg" viewBox="0 0 33.99 44.7">
  <defs>
    <style>
      .cls-1 {
        fill: #656e3e;
      }

      .cls-2 {
        fill: #969c80;
      }

      .cls-3 {
        fill: #666f47;
      }

      .cls-4 {
        fill: #30291c;
      }

      .cls-5 {
        fill: #5f682f;
      }
    </style>
  </defs>
  <g id="Layer_1-2" data-name="Layer 1">
    <g>
      <path class="cls-5" d="m13.92,36.37c.49-.9-.45-2.19.77-2.89,1.99.54,2.62,2.09,2.84,3.91.1.82,0,1.67.34,2.45.31.71.74,1.37,1.59,1.41.9.04.92-.81,1.15-1.39.61-1.62,1.45-3.11,3.35-4.62-4.36.65-7.31-.47-9.06-3.96-.73-4.81-.6-9.66.75-14.26,1.41-4.84,4.41-8.94,7.76-12.72.32-.36.75-.63,1.3-.55-.18,3.54-.93,6.85-3.38,9.58-.43.48-.45,1.06-.02,1.59.55.68,1.54.58,3.35-.42-.83,3.35-2.8,5.69-5.6,7.76,1.45.52,2.26-.94,3.24-.06.02.9-.72,1.19-1.33,1.56-.42.26-.91.39-1.32.67-1.41.96-2.49,2.24-2.39,3.99.04.81,3.88.69,5.06-.31,2.15-1.81,4.24-3.7,5.3-6.68,1.82,3.61,2.91,7.31,5.78,9.96.02.35.05.7.07,1.05-.63,3.36-1.45,6.53-4.04,9.15-2.75,2.77-5.72,3.84-9.39,2.62-3.74-1.24-5.88-3.81-6.12-7.83Z"/>
      <g>
        <path class="cls-2" d="m13.92,36.37c-.73-1.1-1.08-.17-1.58.26-3.02,2.63-7.69,2.78-10.25.25-1.98-1.96-2.5-4.44-1.78-7.06.45-1.63.62-3.1.31-4.83-.91-5.15,3.08-12.58,7.79-15.03,2.85-1.49,5.85-2.52,9.01-3.09,1.66-.3,2.23-1.53,2.56-2.98.01-.12.02-.24.03-.36.49-1.33,1.63-2.05,2.7-2.81,1.57-1.12,2.92-1.04,3.79.91.11.22.21.43.31.66.24,1.54.13,3.12.6,4.63-.12,1.44.07,2.8.91,4.02,1.11,1.6,1.4,3.44,1.63,5.31.22,1.86.48,3.63,1.7,5.28,2.11,2.85,1.55,6.49,2.34,9.75-.2.03-.39.07-.59.1-1.5.12-1.95-1.12-2.5-2.07-1.17-2-2.31-4.03-3.3-6.58-.9,2.33-2.45,3.78-4.09,5.15-1.97,1.65-5.72,2.15-6.64.9-.85-1.17.68-3.73,3.19-5.32.19-.12.43-.16.53-.4-1.79-.62-2.01-1.35-.48-2.59,1.61-1.3,2.7-2.88,3.53-4.75-1.04.22-2.1.29-2.77-.76-.68-1.04-.03-1.89.52-2.74,1.41-2.17,2.53-4.44,2.44-7.38-6.68,7.22-9.7,15.4-8.51,25,.05.42.08.83-.02,1.24-.45.8-.44,1.71-.59,2.59-.26.9.06,1.97-.8,2.69Z"/>
        <path class="cls-4" d="m14.89,31.27c.51.42,1.06.79,1.51,1.27,1.85,1.96,3.97,2.9,6.67,1.97.59-.2,1.18-.23,1.53.39.46.81-.35,1-.77,1.28-1.71,1.13-2.58,2.85-2.86,4.74-.23,1.58-.79,1.51-1.94,1.02-1.28-.54-2.19-1.45-2.04-2.78.26-2.39-.69-4.14-2.31-5.68.19-.72-1.87-1.65.21-2.2Z"/>
        <path class="cls-1" d="m9.44,31.14c-4.45-.1-6.64-4.67-4.7-9.71,1.46,3.41,1.83,7.07,4.7,9.71Z"/>
        <path class="cls-3" d="m11.4,13.16c-.13,2.5-.76,4.89-.52,7.32.03.3-.07.72-.52.67-.21-.02-.45-.19-.59-.36-1.75-1.99-.89-6.31,1.64-7.64Z"/>
      </g>
    </g>
  </g>
</svg>