<?xml version="1.0" encoding="UTF-8"?>
<svg id="Layer_2" data-name="Layer 2" xmlns="http://www.w3.org/2000/svg" viewBox="0 0 48.88 56.08">
  <defs>
    <style>
      .cls-1 {
        fill: #88808b;
      }

      .cls-2 {
        fill: #745327;
      }

      .cls-3 {
        fill: #b9afa2;
      }

      .cls-4 {
        fill: #ad9f6a;
      }

      .cls-5 {
        fill: #adac9e;
      }

      .cls-6 {
        fill: #5a4f66;
      }

      .cls-7 {
        fill: #6c562d;
      }

      .cls-8 {
        fill: #645c2b;
      }

      .cls-9 {
        fill: #a49660;
      }

      .cls-10 {
        fill: #ada071;
      }

      .cls-11 {
        fill: #ada068;
      }

      .cls-12 {
        fill: #ae9e70;
      }

      .cls-13 {
        fill: #92967d;
      }

      .cls-14 {
        fill: #ad9e6b;
      }

      .cls-15 {
        fill: #735128;
      }

      .cls-16 {
        fill: #a69861;
      }
    </style>
  </defs>
  <g id="Layer_1-2" data-name="Layer 1">
    <g>
      <path class="cls-15" d="m21.57.19c1.97-.64.97,1.6,1.91,1.96.49,3.2,1.7,6.39.1,9.6-.54.89-1.37,1.2-2.33.93-1.56-.44-2.31.35-2.77,1.66-1.1,1.79-2.76,2.97-4.51,4.13.54,1.08,2.53.79,2.28,2.5-2.07,2.35-4.52,3.98-7.76,4.11h.02c-1.61-.68-3.33.02-4.96-.38-1.97-.71-3.13-2.08-3.35-4.18.19-1.02-.56-2.06.06-3.08,1.26-1.47,1.96-3.02,2-5.1.05-3.06,1.91-4.13,5.57-3.72,2.32.54,3.73,2.39,5.43,3.82,1.46,1.22,2.17.99,2.72-.93.91-3.19-.72-5.62-2.02-8.2-.42-.84-1.49-1.45-1.04-2.63l.09-.16c1.33-.44,2.45.19,3.59.72,1.52,1.36,2.45,3.16,3.44,5.07,1.65-1.93.75-4.23,1.54-6.13Z"/>
      <path class="cls-13" d="m26.43,35.11c-.4-.06-.8-.12-1.44-.22,2.03,3.47,2.78,7.11,2.51,10.94-.22,3.04-.94,5.99-2.07,8.82-.32.8-.7,1.46-1.77,1.43-.99-.03-1.69-.28-2.27-1.18-2.53-3.93-2.1-8.19-1.58-12.51.33-2.67,2.24-4.51,3.35-6.77.39-.79,1.12-1.54.28-2.47,1.72-.47,3.06-.34,3,1.95Z"/>
      <path class="cls-9" d="m26.43,35.11c-.45-1.5-1.77-1.65-3-1.95-1.54.09-1.66,1.33-1.94,2.43-.82,1.13-.82,3.14-3,2.85-1.46-.95-3.58-1.35-3.24-3.81.33-2.37,1.91-3.81,4.06-4.17,2.4-.4,3.79-1.1,2.88-3.82-.1-.31.16-.62.43-.85,1.78-.76,3.69-.24,5.52-.54,2.32.38,3.92,2.09,5.87,3.16.1.93.14,1.82.68,2.71.55.89.58,2.01-.21,2.94-.05.18-.1.36-.15.54-.29.79-.71,1.48-1.54,1.81-.46.15-.92.17-1.38.06-.99-.55-1.98-1.38-2.92.07-.69-.47-1.38-.95-2.06-1.42Z"/>
      <path class="cls-8" d="m22.55,26.09c.09.4.21.8.28,1.21.17.97.66,2.06.39,2.89-.43,1.31-1.75.11-2.63.46-1.3.51-2.74.68-3.76,1.79-1.51,1.63-1.35,3.37.41,4.51.47.3.84.75,1.26,1.13.29.33.29.66.03,1-.53,3.57-3.72,6.62-8.57,6.81-1.19.05-1.55-.6-1.66-1.67-.17-1.72.66-3.02,1.65-4.25.88-1.09,1.72-2.23,2.93-2.99.69-1.02.14-2.06.04-3.09-.36-3.71.06-4.51,3.33-6.16.58-.29,1.16-.6,1.67-1.01,1.27-.72,1.89-2.18,3.22-2.82,1.13.31,1.9.85,1.41,2.2Z"/>
      <path class="cls-16" d="m18.45,27.05c-.35.65-1.05.76-1.63,1.03-3.5,1.66-4.27,3.23-3.01,6.99.4,1.2.18,1.65-.92,1.9-.18-.54-.58-.94-1.11-.72-2.4,1.02-4.37.11-5.96-1.54-1-1.04-.19-5.09,1.29-6.64.86-.9,1.17-1.88,1.36-2.99,2.67-.97,5.09-2.42,7.44-4.01,1.66.07,1.7,1.49,2.06,2.57.36,1.09.05,2.3.47,3.4Z"/>
      <path class="cls-11" d="m23.14,12.12c.78-3.3.24-6.65.33-9.97.13.09.32.16.38.29.35.8.1,2.18,1.16,2.26,1.2.09,1.1-1.35,1.58-2.14C27.55.97,28.99,0,30.9.2c1.74.17,3.21.88,3.49,2.85.14.99.62,1.39,1.56,1.61,3.19.74,4.47,2.71,3.41,5.89-.71,2.14-1.61,4.39-3.89,5.55-2.41.68-3.75-.43-3.28-2.76.29-1.42,1.16-2.69,1.25-4.42-1.66.74-2.7,1.64-2.96,3.28-.15.93-.58,1.72-1.57,2.06-1.94-.67-4.26-.31-5.78-2.13Z"/>
      <path class="cls-2" d="m28.93,14c1.32-1.83,1.17-4.68,3.87-5.57.48-.16.78-1.06,1.43-.48.43.38.08.93-.08,1.39-.34,1.01-.64,2.04-1.04,3.02-1.1,2.71-.66,3.42,2.37,3.73,0,.16.03.31.08.46.36,1.2-.4,2.04-.96,2.93-.73,1.14-1.18,2.32-1.17,3.7,0,2.98,1.26,4.01,4.19,3.36.85-.19,1.87-1.02,2.42.46-.65,1.25-2.14.86-3.06,1.58-.99.37-1.98.75-2.99.08-2.18-.47-3.73-2.01-5.48-3.22-2.23-1.35-2.7-3.71-3.45-5.93-.01-1,.29-1.96.46-2.93.61-1.56,2-2.09,3.42-2.59Z"/>
      <path class="cls-14" d="m8.01,9.15c1.75-1.43.97-3.28.75-4.98-.12-.93-.6-1.81-.85-2.95,1.72,2.23,3.19,1.92,4.51-.16.17-.12.34-.24.5-.36.98,1.69,2.02,3.35,3,5.04,1.38,2.38.79,4.66.49,6.99-.2,1.57-1.62,1.71-3.22.51-1.76-1.31-2.93-3.37-5.17-4.08Z"/>
      <path class="cls-4" d="m40.03,27c-.37-.47-.87-.51-1.32-.24-1.86,1.12-3.96,1.06-5.24-.4-1.39-1.58-.81-3.85-.23-5.8.45-1.5,1.98-2.42,2.31-4.02.32,1.42,1.54,2.08,2.45,3.04,1.93,2.05,2.19,4.71,2.03,7.41Z"/>
      <path class="cls-12" d="m42.97,31.01c2.04-.3,4.92,1.49,5.72,3.55.59,1.51-.28,4.04-1.77,5.09-1.39.99-4.23.39-5.42-1.13.71-.66,1.53-.43,2.75-.26-1.58-.85-2.61-1.71-2.85-3.27-.27-1.68.88-2.72,1.57-3.98Z"/>
      <path class="cls-10" d="m21.57.19c.77,2.09.08,4.07-.48,6.05-.13.46-.38,1.02-.97.95-.36-.04-.96-.37-.97-.6-.14-2.07-1.71-3.31-2.7-4.88-.1-1.18,1.06-1.04,1.61-1.54,1.17-.2,2.34-.22,3.51.03Z"/>
      <path class="cls-5" d="m33.98,28.67c1-.03,2-.06,2.99-.08-.16,1.31-1.62.41-2.05,1.3.79.92,1.94,1.57,2.9,2.38.97.82,2.5,1.25,3.64-.2.42,1.42-.13,2.54-1.11,3.52-1.8-1.11-3.63-2.08-5.87-1.53-.13-1.32.27-2.74-.91-3.85-.65-.62-.13-1.13.41-1.54Z"/>
      <path class="cls-7" d="m40.34,35.58c-.11-1.33.98-2.27,1.11-3.52.5-.35,1.01-.7,1.51-1.05.24.13.78.12.48.59-2.41,3.74-1.93,5.14,2.36,6.36-1.3,1.67-2.9.37-4.3.57-.45-.95-1.12-1.82-1.16-2.94Z"/>
      <path class="cls-1" d="m25.48,19.59c.78,2.07,1.82,4,3.02,5.86-1.86,1.33-3.98.28-5.94.64-.19-.91-.57-1.68-1.56-1.96-1.54-3.16-2.45-6.51-2.83-10,.17-1.99,1.15-2.73,3.08-2,.63.24,1.26.17,1.89-.02,1.81,1,4.14.39,5.79,1.89-1.01.85-2.01,1.71-3.02,2.56-.2.93-.69,1.38-1.71,1.22-.83-.13-1.88-.15-1.71,1.04.16,1.17,1.11,1.23,2.08.78.3-.14.61-.22.92,0Z"/>
      <path class="cls-3" d="m18.17,14.13c1.43,2.7,1.58,5.83,2.87,8.58.25.54.07.95-.04,1.42-.62,1.18-1.52,2.11-2.55,2.92-1.43-.19-.93-1.31-.94-2.09-.03-1.53-.39-2.87-1.59-3.89-.04-1.39-1.25-1.26-2.1-1.63-1-.44-1.38-.89-.05-1.5,1.82-.83,3-2.45,4.39-3.81Z"/>
      <path class="cls-6" d="m25.48,19.59c-.92.13-1.23,1.86-2.45,1.02-.77-.53-1.9-1.13-1.42-2.31.4-.99,1.26-1.67,2.49-1.11.83.37,1.36.01,1.81-.62.23,1.06-.22,2.03-.43,3.03Z"/>
    </g>
  </g>
</svg>