<?xml version="1.0" encoding="UTF-8"?>
<svg id="Layer_2" data-name="Layer 2" xmlns="http://www.w3.org/2000/svg" viewBox="0 0 187.12 143.44">
  <defs>
    <style>
      .cls-1 {
        fill: #914454;
      }

      .cls-2 {
        fill: #979a7c;
      }

      .cls-3 {
        fill: #3c241d;
      }

      .cls-4 {
        fill: #994860;
      }

      .cls-5 {
        fill: #aa9c62;
      }

      .cls-6 {
        fill: #5c6639;
      }

      .cls-7 {
        fill: #944f62;
      }

      .cls-8 {
        fill: #764e22;
      }

      .cls-9 {
        fill: #392332;
      }

      .cls-10 {
        fill: #58622c;
      }

      .cls-11 {
        fill: #969a7c;
      }

      .cls-12 {
        fill: #656635;
      }

      .cls-13 {
        fill: #676e4d;
      }

      .cls-14 {
        fill: #979b83;
      }

      .cls-15 {
        fill: #c198a5;
      }

      .cls-16 {
        fill: #ae9c5f;
      }

      .cls-17 {
        fill: #734c23;
      }

      .cls-18 {
        fill: #c3bbab;
      }

      .cls-19 {
        fill: #94977e;
      }

      .cls-20 {
        fill: #90475e;
      }

      .cls-21 {
        fill: #b7959c;
      }

      .cls-22 {
        fill: #646d36;
      }

      .cls-23 {
        fill: #b1a26a;
      }

      .cls-24 {
        fill: #979a7f;
      }

      .cls-25 {
        fill: #616a31;
      }

      .cls-26 {
        fill: #5b5f31;
      }

      .cls-27 {
        fill: #8a8e74;
      }

      .cls-28 {
        fill: #626a34;
      }

      .cls-29 {
        fill: #6a6c55;
      }

      .cls-30 {
        fill: #c5bdb4;
      }

      .cls-31 {
        fill: #8d8c9d;
      }

      .cls-32 {
        fill: #afa67a;
      }

      .cls-33 {
        fill: #b3a36d;
      }

      .cls-34 {
        fill: #c9c4bb;
      }

      .cls-35 {
        fill: #60632d;
      }

      .cls-36 {
        fill: #928780;
      }

      .cls-37 {
        fill: #91977c;
      }

      .cls-38 {
        fill: #5e672f;
      }

      .cls-39 {
        fill: #82888f;
      }

      .cls-40 {
        fill: #807d58;
      }

      .cls-41 {
        fill: #96455d;
      }

      .cls-42 {
        fill: #b3939a;
      }

      .cls-43 {
        fill: #b2b4b7;
      }

      .cls-44 {
        fill: #6d1a2e;
      }

      .cls-45 {
        fill: #5b632e;
      }

      .cls-46 {
        fill: #686f59;
      }

      .cls-47 {
        fill: #afa06c;
      }

      .cls-48 {
        fill: #a2a590;
      }

      .cls-49 {
        fill: #35271c;
      }

      .cls-50 {
        fill: #afb2b7;
      }

      .cls-51 {
        fill: #3a2331;
      }

      .cls-52 {
        fill: #6b1727;
      }

      .cls-53 {
        fill: #393421;
      }

      .cls-54 {
        fill: #8f3c52;
      }

      .cls-55 {
        fill: #9c8d9c;
      }

      .cls-56 {
        fill: #b0919b;
      }

      .cls-57 {
        fill: #764e24;
      }

      .cls-58 {
        fill: #b5a773;
      }

      .cls-59 {
        fill: #5b652e;
      }

      .cls-60 {
        fill: #974157;
      }

      .cls-61 {
        fill: #641924;
      }

      .cls-62 {
        fill: #6b6c3f;
      }

      .cls-63 {
        fill: #aeb0b4;
      }

      .cls-64 {
        fill: #584548;
      }

      .cls-65 {
        fill: #705428;
      }

      .cls-66 {
        fill: #5f672e;
      }

      .cls-67 {
        fill: #8d879d;
      }

      .cls-68 {
        fill: #c8c0af;
      }

      .cls-69 {
        fill: #691726;
      }

      .cls-70 {
        fill: #80878f;
      }

      .cls-71 {
        fill: #675134;
      }

      .cls-72 {
        fill: #ae929f;
      }

      .cls-73 {
        fill: #b18e9d;
      }

      .cls-74 {
        fill: #924158;
      }

      .cls-75 {
        fill: #55612e;
      }

      .cls-76 {
        fill: #666a59;
      }

      .cls-77 {
        fill: #32281a;
      }

      .cls-78 {
        fill: #999b82;
      }

      .cls-79 {
        fill: #7d858d;
      }

      .cls-80 {
        fill: #5d6433;
      }

      .cls-81 {
        fill: #b3b5a2;
      }

      .cls-82 {
        fill: #c8c0ae;
      }

      .cls-83 {
        fill: #312b1b;
      }

      .cls-84 {
        fill: #92977f;
      }

      .cls-85 {
        fill: #9b9d82;
      }

      .cls-86 {
        fill: #93977a;
      }

      .cls-87 {
        fill: #ac9c64;
      }

      .cls-88 {
        fill: #b18a96;
      }

      .cls-89 {
        fill: #b392a0;
      }

      .cls-90 {
        fill: #ae8c96;
      }

      .cls-91 {
        fill: #ba97a6;
      }

      .cls-92 {
        fill: #b08e97;
      }

      .cls-93 {
        fill: #3e2e20;
      }

      .cls-94 {
        fill: #8c8955;
      }

      .cls-95 {
        fill: #c9bbb3;
      }

      .cls-96 {
        fill: #b395a0;
      }

      .cls-97 {
        fill: #604c68;
      }

      .cls-98 {
        fill: #744e24;
      }

      .cls-99 {
        fill: #979b80;
      }

      .cls-100 {
        fill: #5a642e;
      }
    </style>
  </defs>
  <g id="Layer_1-2" data-name="Layer 1">
    <g>
      <path class="cls-41" d="m132.38,54.89c.4,1.05,1.25,1.73,2.04,2.45,1.38,1.16,2.19,2.66,2.57,4.41,1.02,4.6,2.33,9.17.7,13.91-.49,1.42-.36,2.52,1.55,2.79,1.83.26,3.04,1.57,4.06,3.03.67,1.9,1.03,3.75-.95,5.17-2.41,1.81-3.58,4.54-5.1,6.99-2.14,3.44-4.68,6.22-8.84,7.05-.59.14-1.18.15-1.77.04-2.37-.64-2.43-.93-.89-2.77,2.53-3.02,5.1-6.01,7.34-9.41-1.2-.35-2.04.09-2.86.66-1.02.53-2.02,1.09-3.1,1.48-.92.33-1.96.87-2.66-.21-.81-1.25.21-1.92,1.09-2.56,4.61-1.71,6.5-5.67,7.9-9.9.72-2.17-.88-3.85-1.69-5.93-.89,1.16-.58,2.19-.77,3.13-.14.71.09,1.78-1.25,1.51-.31-3.42-1.35-6.44-4.45-8.4-.58-.36-.74-1.1-.82-1.77-.29-2.32-.8-4.56-1.97-6.64-.76-1.36-.03-1.99,1.34-2.13,3-.31,6.8,1.95,7.8,4.78.43,1.21.93,2.57-.66,3.48-.1.06.36.16.4.4.08.47-.32.5-.6.65.59.08,1.13.11,1.47-.57.43-.84.55-1.74.62-2.65.3-3.8-1.66-6.52-5.31-7.65-1.28-.4-2.85-.27-3.71-1.66,1.68-1.69,3.91-.45,5.78-1.08,1.26-.2,2.08.46,2.75,1.41Z"/>
      <path class="cls-66" d="m98.5,27.85c.86,2.97-.67,5.32-2.37,7.78,3.97-.41,4.71.62,3.41,4.15-.97,2.65-2.11,3.51-4.89,2.97-1.48-.29-1.78,1.41-2.99,1.19-.56.44-1.28.62-1.67,1.37-.72,1.37-1.97,1.88-3.51,1.65-.59-.63-.43-1.38-.37-2.13.06-.74.27-1.47-.07-2.79-1.75,5.77-5.21,9.94-8.69,14.09-.46.63-.96.18-1.45.05-.42-.07-.85-.11-1.25-.3-3.15-.99-5.59-2.69-6.17-6.22.03-1.25.79-2.02,1.88-2.26,2.13-.47,2.58-1.6,1.75-3.51-.19-.44-.08-.96.11-1.43.29-.56.78-.88,1.38-.95,1.43-.15,2.38-.94,3.26-2.04,1.53-1.9,3.27-1.67,4.66.31.51.72.32,2.48,1.59,2.03,1.02-.37,2.18-1.58,2.19-2.84,0-1.86.75-2.81,2.33-3.66,1.23-.66,1.21-2.29,1.43-3.59.24-1.4.43-2.79.97-4.11.13-.31.27-.64.64-.69.54-.08.69.39.84.75.65,1.58.69,3.23.54,4.91-.05.55-.36,1.29.27,1.6.76.38,1.15-.42,1.61-.85,1.23-1.16,1.99-2.64,2.73-4.14.35-.71.49-1.94,1.85-1.33Z"/>
      <path class="cls-78" d="m69.51,6.84c.32-.62.82-.92,1.52-.9,2.88,2.18,2.33,5.41,1.7,8.06-.66,2.77-1,5.57-1.56,8.34-.81,3.96-2.08,7.87-1.63,12,.2,1.86.15,3.77,1.03,5.5.16,1.67.03,3.34-.17,4.99-.2,1.62-.93,2.53-2.56,1.12-.52-.07.47-1.31-.86-.94-1.31.36-2.28-.72-3.26-1.5-1.54-1.22-2.77-2.87-4.81-3.41-.43-.11-.61-.54-.22-.97,2.89-1.03,2.98-1.22,1.77-4.07-.39-.92-.72-1.86-1.15-2.76-.64-1.33-.92-2.48.87-3.22,1.34-.55,1.31-1.81,1.1-3-.44-2.44.08-4.63,1.72-6.49.9-1.02.85-2.3,1.1-3.5.12-.48.27-.96.36-1.45.25-1.39,1.04-1.67,2.11-.89,1.8,1.31,2.62.38,3.38-1.22.95-2.01,1.44-3.92-.44-5.68Z"/>
      <path class="cls-94" d="m155.99,72.89c-.22.46-1.23.51-.74,1.32.35.58,1.07.75,1.53.42,1.3-.92,2.98-1.12,3.94-2.77,1.52-2.6,3.56-4.87,5.73-6.99.54-.66,1.27-1.06,2.04-1.37,2.73-1.1,3.59-.52,3.63,2.41,2.57-1.2,4.62-3.58,7.69-3.62,1.38-.02,3.26-.73,3.86,1.22.64,2.07.71,4.23-1.34,5.78-1.33.84-2.65,1.69-3.98,2.53-.93,1.95-3.25,2.95-3.49,5.45-.07.72-1.35.82-2.17.8-2.62-.07-5.28-.1-7.73-1.15-1.11-.47-.05,1.05-.79.68-4.75-.62-9.49-.41-14.23.17-.88.11-1.62-.42-1.83-1.36-.2-.89.34-1.4,1.11-1.68,1.56-.56,3.02-1.33,4.49-2.09.76-.39,1.59-.5,2.26.26Z"/>
      <path class="cls-2" d="m98.5,27.85c-.95-.03-.93.8-1.16,1.37-.86,2.11-2.28,3.81-3.76,5.5-.56.64-1.13.64-1.77.42-.8-.28-.83-.95-.61-1.65.65-2.08.17-4.08-.45-6.45-.62,2.59-1.15,4.85-1.69,7.1-.28,1.17-.58,2.29-2.13,2.31-.95,0-1.18,1.07-1.02,1.42,1.33,2.88-2.07,3.25-2.69,5.12-.28.86-1.06-.1-1.33-.67-.45-.96-.57-2.05-1.31-2.91-.91-1.07-2.31-1.13-2.72-.22-1.1,2.42-3.11,2.85-5.3,3.2-1.27-.6-1.02-1.56-.62-2.56.13-.1.26-.26.4-.28,3.65-.6,3.58-3.39,3.69-6.14.06-1.5.55-2.92,1.44-4.17,1.21-1.71,2.26-1.69,3.31.12.4.69.66,1.46,1.21,2.72.27-1.81.35-3.13.69-4.39.22-.81.28-1.88,1.37-2.21,1.08-.32,1.93-.06,2.56.96.3.48.88.99,1.44.77.68-.28.54-.99.54-1.69.02-1.73.32-3.45,1.56-4.82,1.16-1.28,2.81-1.13,3.65.38.68,1.21,1.21,2.42.95,3.95-.36,2.14.36,2.66,2.34,1.86,1.12-.46,1.86-.67,1.39.99Z"/>
      <path class="cls-59" d="m155.99,72.89c-2.78-.16-4.58,2.38-7.22,2.67-.36.04-.38.69-.17,1.08.32.59.9.73,1.49.62,1.05-.19,2.14-.25,3.15-.47,3.79-.84,7.47-.28,11.16.49,1.45.14,3.28.54,2.97,2.16-.29,1.51-2.14.6-3.28.49-2.13-.21-4.21-1.72-6.41-.27.02.13,0,.24.05.28.94.97,3.2,1.47,2.63,2.89-.63,1.56-2.68.61-4.03.35-2.61-.5-5.12.6-7.69.27-2.75-.51-4.3-2.5-5.73-4.64-.55-.8-1.29-1.43-1.87-2.19-.66-.86-.46-1.64.34-2.3.37-.47.75-.95,1.12-1.42,3.45-3.78,7.66-6.9,9.89-11.71.31-.67.95-1.35,1.79-.92.86.45.47,1.31.25,2.01-.39,1.25-1.31,2.33-1.24,4.03,1.63-1.19,2.83-2.58,4.13-3.85.78-.77,1.56-1.33,2.78-1.42,1.82-.14,2.81.38,2.73,2.33-1.37,3.83-3.16,7.36-6.84,9.52Z"/>
      <path class="cls-86" d="m148.39,82.85c3.91-.38,7.82-.6,11.82-.2-.69-.55-1.34-1.15-2.08-1.63-.73-.47-2.1-.52-1.9-1.6.19-.99,1.57-.68,2.4-.94,2.61-.82,4.9.94,7.4,1.16.4.04.78.27,1.31-.32-.99-.69-1.96-1.36-2.93-2.04.17-.31-.4-1.14.56-.88,2.3.63,4.66.89,7.02.98,1.36.05,2.87.54,2.79-2.04-.05-1.85,2.35-2.34,3.58-3.53,1.45,1.89.74,3.36-.92,4.63-2.44,1.86-4.98,3.56-8.15,3.77-1.4.09-2.11,1.19-2.58,2.02-.47.85.91,1.4,1.59,1.92,1.28.99,2.25,2.18,2.89,3.66.93,2.12.18,3.35-2.09,3.56-2.78.26-5.12-.7-7.31-2.6.54,2.06.3,3.82-.85,5.42-.1.07-.21.13-.31.2-1.2-.49-2.4-.91-3.69-1.18-2.2-.45-4.15-1.48-5.2-3.66.51-1.56-.3-2.65-1.17-3.83-.71-.97-2.05-1.48-2.18-2.88Z"/>
      <path class="cls-4" d="m116.5,44.31c.92,1.05,2.23,1.05,3.46,1.35,1.68.41,3.17,1.19,3.56,3.14.34.85.15,1.69-.04,2.52-.09.71,0,1.58-1.01,1.69-.76.08-1.31-.45-1.45-1.09-.25-1.14-1.17-1.49-1.98-2.01-3.78-1.05-6.93-3.7-10.95-4.21-1.74-.22-3.27-.05-4.94.89,1.41-.32,2.61-.04,3.77.3,3.06.91,3.34,1.83,1.83,4.64-.95,1.78-2.06,3.53-2.45,5.57-1.82.83-3.72-.74-5.54.19-1.37-.39-2.9-.26-3.93-1.67-.35-.47-.03.03-.05.12-.32,1.26-1.66,1.56-3.16.74-.59-.33-.94-1.18-1.69.1-.4.69-1.82.48-2.62-.38-.18-.34-.23-.69-.17-1.06.05-.24.15-.47.28-.68,2.35-2.44,4.35-5.41,8.27-5.48,1.03-.43,1.46-1.53,2.34-2.12l1.47-2.01c1.94-3.19,5.32-2.46,8.22-2.95.68-.11,1.46-.06,2.19-.1,2.01-.09,3.78.36,4.59,2.51Z"/>
      <path class="cls-14" d="m162.83,63.37c-1.02-2.48-2.65-2.78-4.73-.84-1.78,1.66-3.54,3.36-5.43,5.16-.94-2.66,1.23-4.68,1.29-7.25-3.1,4.87-6.53,9.38-11.47,12.47.95-1.78,1.18-3.58,1.02-5.66-.28-3.71.98-7.12,3.34-10.08,1.54-1.93,2.21-1.88,3.43.36.11.21.3.38.74.93.83-2.4,2.34-4.06,4.05-5.56.37-.33.68-.79,1.11-.98,1.4-.62,2.81-1.6,4.41-.68,1.53.88.76,2.43.7,3.62-.11,2.07-1.41,3.83-2.04,5.9,1.73.19,4.33-.77,3.57,2.6Z"/>
      <path class="cls-50" d="m122.49,35.91c-.98-1.22-1.96-2.43-2.94-3.65,1.41-4.81,4.25-8.75,7.52-12.43,1.71.08,3.34-.81,5.08-.46.61.12,1.32-.15,1.74.54-2.82,2.14-5.12,4.67-6.18,8.14-.41,1.35-1.06,2.61-1.73,3.89,3.66-.98,5.48-3.15,5.73-6.73.07-.94-.18-2.06,1.17-2.37,2.07,1.54,2.09,3.57,1.79,5.93-.3,2.35-1.24,3.97-3.05,5.48-2.28,1.9-4.44,3.67-7.65,3.09.2-1.2-.64-1.31-1.48-1.43Z"/>
      <path class="cls-70" d="m122.41,7.43c.42,4.26-.45,8.01-4.2,10.64-.15.1-.12.45-.18.69-.34.41-.72.44-1.14.12-5.47.19-8.31-2.25-9.75-7.64-.72-2.69-.13-5.21-.07-7.8.02-.84.26-1.93,1.04-2.09.93-.2,1.23.84,1.46,1.66.08.31.28.6.43.9.71,1.44.88,2.92.7,4.53-.14,1.22.05,2.48.27,3.69.15.84.61,1.69,1.55,1.67.92-.02,1.01-1,1.1-1.7.38-2.79.27-5.59.08-8.39-.14-2.14.42-2.54,2.21-1.71.02.14.05.27.09.41,1.6,1.72,1.71,3.83,1.64,6.02-.05,1.73-.07,3.46.02,5.41,2.25-1.58,2.73-3.87,3.22-6.17.11-.52.15-1.27.94-1.2.48.04.32.69.59.98Z"/>
      <path class="cls-85" d="m182.34,69.29c1.14-1.31,1.02-3.01,1.14-4.54.07-.91-.34-1.92-2-2.02-3.61-.23-5.98,1.99-8.68,3.65-.46.29-.71,1.12-1.39.8-.84-.4-.11-.98,0-1.48.52-2.18.22-2.39-1.99-1.93-1.07.23-1.77,1.33-2.97,1.09,1.08-2.73,3.23-4.38,5.73-5.66,1.33-.68,2.21-.41,2.34,1.26.15,1.82,1.08,1.73,2.22.82,1.28-1.02,2.67-1.84,4.16-2.54,1.97-.92,3.77-.36,5.33.72,1.38.95.82,2.7.51,3.9-.63,2.48-1.6,4.95-4.41,5.91Z"/>
      <path class="cls-96" d="m141.37,74.32c-.96,2.12,1.36,2.65,1.96,4.01-.11.66.2,1.26.3,1.89.09.54.21,1.2-.73,1.1-1.6-1.29-3.15-2.56-5.4-2.63-1.16-.04-.8-1.12-.72-1.92.18-1.76,1.02-3.35.99-5.2-.08-4.88-.46-9.62-3.43-13.76-.07-.09.05-.32.08-.48,1.62-.21,1.82,1.14,2.29,2.14.38.8.39,1.81,1.27,2.33,4.36,2.58,3.97,6.63,3.3,10.74-.1.63-.64,1.21.09,1.78Z"/>
      <path class="cls-1" d="m86.51,46.84c1.21-.72,2.97-.61,3.39-2.54.17-.78,1.14-.31,1.76-.37,1.29.95,3.01,1.34,3.81,2.92.39.59.97,1.09.87,1.91-2.7,1.55-5.02,3.53-6.83,6.09v-.02c-1.5,1.17-3.18,1.12-4.92.68.71-2.88-.25-6.12,1.92-8.68Z"/>
      <path class="cls-79" d="m127.07,19.83c-.79,2.75-3.15,4.5-4.44,6.95-.79,1.5-1.93,2.77-1.84,4.64.03.66-.55.95-1.23.84-1.17-1.61-.76-3.83-2.07-5.39-.51-1.74-.02-3.23,1.09-4.58,2.23-2.77,5.75-3.95,8.32-6.31.73,1.05-.14,2.51.18,3.86Z"/>
      <path class="cls-13" d="m118.57,22.28c-.08,1.59-.56,3.1-1.09,4.58-1.47,4.76-3.51,9.26-6.07,13.52-.27,1.09-.74,1.75-1.94.95-.6-2.31.63-4.63-.07-6.94-1.06-1.93-1.05-4.14-1.58-6.21-.21-.84.02-1.73.99-2,.91-.26,1.26.56,1.68,1.17.75,1.08.53,2.39.89,3.56v4.67c.22.04.44.08.67.12,2.74-5.26,5.05-10.66,4.84-16.85.38-.04.76-.08,1.14-.11.94,1.06.26,2.37.53,3.53Z"/>
      <path class="cls-43" d="m122.41,7.43c-.33-.02-.89-1.37-.94.03-.09,2.78-1.36,4.94-3.05,6.97-.38.45-.69,1.07-1.36.78-.64-.28-.11-.87-.12-1.32-.14-3.85.68-7.78-.94-11.51,1.22,1.28,1.79.19,2.28-.7.81-1.48,1.43-1.25,2.23.02,1.11,1.76,1.68,3.68,1.91,5.72Z"/>
      <path class="cls-63" d="m115.9,1.97c-1.55-.52-1.84.13-1.66,1.58.37,2.97.42,5.96-.04,8.92-.15,1.01-.5,2.66-1.52,2.49-1.07-.18-2.28-1.26-2.35-2.79-.12-2.76-.23-5.53-.34-8.29,1.32,1.23,1.67.05,1.73-.86.09-1.24-.1-2.71,1.36-2.99,1.24-.23,2.31.66,2.82,1.94Z"/>
      <path class="cls-39" d="m132.89,22.84c-.7.73-.66,1.59-.53,2.52.46,3.38-3.91,7.58-7.69,7.32,1.6-1.84,2.16-4.02,2.85-6.18.81-2.52,3.28-3.97,4.49-6.28.3-.57,1.23-.28,1.88-.3.56,1.28-.67,1.95-1.01,2.93Z"/>
      <path class="cls-48" d="m111.39,30.92c-.89-.79-.4-2.08-1.07-2.94-.44-.55-.62-1.69-1.49-1.39-.82.27-.54,1.25-.36,1.98.3,1.2.64,2.4.86,3.61.13.72.06,1.48.08,2.22-.3-.12-.73-.15-.89-.37-1.85-2.66-2.85-5.56-2.56-8.88.15-1.7,1-1.74,2.14-1.17,2.78,1.4,3.99,4.52,3.3,6.93Z"/>
      <path class="cls-81" d="m71.94,39.81c-.05.92.09,1.79.62,2.56.69,2.7,1.43,5.42-2.71,5.91-.97.11-.62,1.01-.87,1.56-1.66-1.03-1.42-2.5-.91-4.02,1.18.79,1.69.62,1.79-.94.1-1.69-.05-3.44.71-5.04.46.27.92.35,1.37-.02Z"/>
      <path class="cls-92" d="m109.47,41.34c.92.24,1.4-.41,1.94-.95,2.4.39,4.57,1.09,5.09,3.92-1.94-3.03-5.04-1.7-7.59-1.75-2.57-.05-5.38.13-7.42,2.28,1.26-2.88,3.56-4.12,6.52-3.56.47.09.98.04,1.46.06Z"/>
      <path class="cls-76" d="m122.49,35.91c.73-.34,1.45-.69,2.17-1.03.83,1.22-.33,1.71-.69,2.46-1.13.93-2.27,1.84-3.38,2.78-.71.6-1.4,1.14-2.5.57.95-2.1,3.14-3.02,4.39-4.78Z"/>
      <path class="cls-88" d="m132.38,54.89c-1.01.1-1.42-1.2-2.46-1.03-1.52-.12-3.06.39-4.56-.13-.21-.1-.36-.26-.47-.46,2.11-1.44,4.23-2.27,6.59-.44.74.58,1.08,1.17.9,2.06Z"/>
      <path class="cls-15" d="m96.02,48.79c-.18-.65-.37-1.29-.55-1.94,1.52,1.89,3.04-.36,4.56,0-.31,1.19-.85,2.19-2.13,2.58-.8.29-1.47.23-1.88-.64Z"/>
      <path class="cls-17" d="m27.14,85.77c-1.67.58-2.88-.35-4.05-1.28-.57-.46-.95-1.18-1.84-1.1-1.6-1.44-2.46-3.3-3.05-5.32.05-.97-.21-1.91-.15-2.88.07-1.19.63-1.77,1.85-1.59.16.06.33.13.41.26.99,1.78,1.97,3.64,4.49,3.11,2.76-.58,4.75-1.88,5.54-4.96.62-2.44-.27-4.78.21-7.13.2-.51.41-1.02.61-1.52,1.35-1.77,3.3-1.1,5.04-1.23.9-.07,1.82-.05,2.7.19,2.67,1.96,5.44,3.85,5.97,7.63.05-1.91,1.54-3.03,2.28-4.54,2.65-1.95,4.77-1.57,6.62,1.16-.05,2.51-1.44,1.18-2.51.9-.47-.12.28-.79-.3-.66-.32.07-.37.58-.09.83.5.45.39,1.45,1.71,1.2,1.3-.25,2.97-.9,4.1.75.32.46.86.4,1.11-.27.42-1.13,1.33-1.08,2.28-.89,1.64.88.37,2.16.44,3.25-.06.83-.38,1.45-1.29,1.58-1.55.05-2.62-1.21-4.05-1.5-3.45-.74-5.95,1.34-6.25,5.28-.08,1.06.06,2.13-.05,3.2-.16.72-.69.98-1.34,1.08-1.29.06-2.52-.27-3.4-1.18-2.4-2.48-5.54-3.07-8.7-3.64-2.63,1.06-3.02,2.14-1.81,4.99.24.58.86,1.17.35,1.81-.5.61-1.22.3-1.83.08-2.47-.89-3.45,1.33-5,2.38Z"/>
      <path class="cls-28" d="m13.68,51.29c.6-.71.19-1.36-.08-2.06-.47-1.24-.95-2.48-1.27-3.76-.92-3.66-.89-3.67-4.51-3.02-.32.06-.65.2-.97.17-1.17-.1-2.37-.71-2.41-1.79-.05-1.44,1.45-.86,2.32-1.05.79-.17,1.45.31,2.12.6.67.29,1.29.69,1.95,1.05,1.33-3.82,1.16-4.02-2.78-4.61-2.72-.41-5.26-1.33-7.23-3.61,2.59-.94,4.63-.36,6.71,1.14,3.15,2.28,6.39,2.11,9.42-.23-1.65-1.29-3.52-2.46-3.39-5.2,1.78,1.2,3.3,2.45,3.89,4.37.38,1.22,1.11,1.5,2.17,1.61,2.3.23,4.59.49,6.54,1.94,2.02.97,3.92,2.06,4.44,4.51.07.98.14,1.96.21,2.94.31.68.02,1.22-.42,1.72-2.3.65-3.81-.07-5.24-1.96-2.51-3.32-5.39-6.19-10.2-6.32,2,1.99,3.1,4.14,3.56,6.82.72,4.17,3.45,4.81,6.76,2.7,2.47-1.57,4.21-.31,6.24.43.2.14.32.34.37.57-.23,1-.21,2.11-1.07,2.88-2.75-2.02-4.7-.61-7.22.97-3.12,1.95-6.66.4-9.91-.81Z"/>
      <path class="cls-100" d="m18.59,78.18c.89,1.73,1.78,3.47,2.67,5.2-2.58,3.09-6.15,4.05-8.72,2.37-.55-.36-1.16-.55-.76-1.5.75-1.76-.33-2.26-1.77-2.04-2.43.37-4.16-1.21-6.18-2-.38-1.01-3-.82-1.5-2.83.22-.39.62-.47,1.18-.61-.83-1.13-2.59-1.4-2.67-3.03-.12-1.28-2.34-3.15,1.05-3.45.03-1.16-1.07-1.75-1.38-2.76-.27-.88-.8-1.86-.21-2.56.7-.83,1.66-.21,2.44.26,1.17,1.26,2.04,2.75,3.14,4.07.49.58.76,1.32.36,2.07-1.02,1.94.49,2.39,1.73,2.66,1.38.3,2.7.72,4.02,1.16.63.21,1.45.41,1.36,1.2-.21,1.85.87,1.49,2,1.41,1.08-.07,2.28-.76,3.24.36Z"/>
      <path class="cls-45" d="m40.86,49.93c-.73-.17-1.5-.26-1.84-1.09.3-.02.6-.05.9-.07.78-.27,1.57-.75,2.4-.53,1.63.42,3.18.49,4.61-.53-.07.32.04-.31.23-.04.01.02.14-.05.21-.07-.63-.39-1.57-.34-1.83-1.26.18-.2.36-.41.54-.61,1.24.02,2.48.02,3.72.05,1.68.04,1.74.07,5.13,2.17.46-1.19.12-2.34-.27-3.66,2.4.77,4.46,1.67,5.96,3.52,1.09,1.22,1.69,2.65,1.81,4.29.23,1.25.73,2.38,1.4,3.45.4.64.82,1.33.08,2.01-.66.6-1.37.44-2.07.03-2.16-1.24-4.24-2.61-6.54-3.74-.76.56.52,1.85-.71,2.24-.88.28-1.69-.07-2.38-.49-1.83-1.1-4.38-1.14-5.37-3.53.03-.07.05-.16.1-.22.16-.15.22-.25.16-.25-.33,0-.68-.07-.97.01-2.16.65-3.91.09-5.28-1.69Z"/>
      <path class="cls-58" d="m30.56,64.87c1.23,3.08.91,6.12-.18,9.17-.62,1.74-4.03,3.85-6.54,3.62-2.15-.2-3.52-1.52-3.81-3.77.05-.32.33-.34.56-.44,0-.71,0-1.43.01-2.14-.77-1.15-.3-2.1.48-3,2.13-2.03,4.61-2.91,7.52-2.23,1.11.26,1.56-.4,1.96-1.21Z"/>
      <path class="cls-22" d="m69.51,6.84c1.8.36,2.12,1.64,1.94,3.19-.06.48-.3.94-.44,1.42-.42,1.44-.95,2.95-2.16,3.78-1.64,1.13-1.95-1.71-3.55-1.43-.5.52.1,1.58-.69,2.11-1.93-1.45-3.78.29-5.69.17-.64-.04-.71.82-.72,1.4-.02,1.32.04,2.61.25,3.93.26,1.65.63,3.66-2.29,3.35-1.42-.15-.7.93-.71,1.54-.03,1.38,1.4,2.83-.2,4.13-.23.1-.45.07-.65-.09-.78-1.7-1.69-3.35-2.32-5.11-.63-1.76.07-3.34,1.26-4.7.73-.06,1.18.32,1.48.94.42.37.83.74,1.49,1.33.13-2.27-.48-4.29-.41-6.34.05-1.61.46-3.08,1.68-3.83,1.12-.69,1.78,1.08,2.95,1.45.72-2.01.28-4.59,2.79-5.64,1.3.48.86,1.82,1.36,2.72.54-.05.74-.58,1.15-.81.19-2.13,1.98-2.68,3.49-3.51Z"/>
      <path class="cls-99" d="m20.58,73.46c-.19.15-.37.29-.56.44-1.8-.25-1.44,1.08-1.43,2.05,0,.74.79,1.48,0,2.23-1.39.14-2.77.31-4.16.42-1.15.09-2.38.15-1.58-1.64.25-.55.32-1.07-.4-1.06-1.53.01-2.68-1.34-4.27-1.09-1.2.19-1.94-.78-2.78-1.36-.35-.24-.86-1.15-.32-1.5,2.02-1.33.46-2.04-.32-3.04-.86-1.1-1.69-2.26-2.02-3.67.97.19,1.93.38,2.91.58.01.74-.72.45-.78.65-.14.52.36.23.52.23.99-.03,1.73.39,2.4,1.09,3.48,3.64,7.78,5.45,12.79,5.66Z"/>
      <path class="cls-83" d="m13.68,51.29c1.79.26,3.58.48,5.36.78,2.19.37,4.09.28,5.78-1.6,2.04-2.26,2.87-2.08,5.17.27.18.18.63.09.96.12.8.78.58,1.34-.37,1.73-.76,0-1.31-.59-2.05-.68-1.57-.19-2.84-.13-2.54,2.05.08.59.37,1.61-.93,1.41l-.89-.61c-.82-.6-1.72-.33-2.62-.27-1.74.11-3.49.18-4.9-1.15-1.04-.85-2.82-.35-3.46-1.92.17-.04.33-.09.5-.13Z"/>
      <path class="cls-80" d="m47.6,48.31c-1.12-.35-1.81,1.07-2.55.92-1.71-.35-3.42-.33-5.13-.47.96-1.89,2.6-2.42,4.58-2.3.98.71,2.62.3,3.1,1.85Z"/>
      <path class="cls-27" d="m54.59,30.35c.16-.04.33-.05.5-.03,1.42,1.74.31,3.15-.58,4.59-.97-.79-.75-2.13-1.43-3.05-.4-.35-1.08-.7-.05-1.12.18,0,.36,0,.54-.01.44.13.85.19,1.02-.39Z"/>
      <path class="cls-78" d="m66.02,10.35c-.24.76-.49,1.52-.78,2.41-1.86-1.04-.63-3.16-1.73-4.33,1.64-.41,1.12,2.01,2.51,1.91Z"/>
      <path class="cls-61" d="m106.4,56.94c-.23-.71-.78-1.35,0-2.16,1-1.02.98-2.6,1.9-3.74,1.68-2.07,1.67-2.2-.81-3.29-1.81-.8-3.75-1.14-5.72-.2,1.68-2.07,3.59-3.12,6.43-2.5,2.12.47,3.96,1.05,5.84,2.32,1.48,1,3.7,1.08,5.47,1.96-.41,1.51,1.74,2.48.86,4.09-1.12.47-1.64-.52-2.34-1-2.72-1.84-5.71-1.19-7.81,1.98,1.91-.27,3.57-.13,5.06.93,1.53,1.1,1.54,1.62-.13,2.6-.58.34-1.26.42-1.85.71-1.2.6-2.22,1.46-1.52,2.92.62,1.3,1.63,2.53,3.31,2,1.32-.41,2.67-1.11,3.26-2.51.61-1.43.97-2.86,2.28-4.01,1.05-.92-.86-2.22-.35-3.48.92-.81,1.33.08,1.68.61.54.81,1.12,1.13,2.01.63,3.48.45,6.79,1.11,8.75,4.58,1.02,1.8,1.24,6.21.03,7.81-.33.44-.61,1.28-1.51.46-.43-.39-1.2-.4-1.98-.64.7-.11,1.25-.2,1.84-.3-.32-.91-1.28-.14-1.63-.77,2.11-.38,2.51-1.15,1.68-3.2-1.25-3.05-4.7-4.78-8.6-4.13,1.67,2.5,2.47,5.22,2.62,8.13.03.67.35,1,.86,1.34,3.07,2.08,4.55,4.92,4,8.68.81,1.61-.03,2.56-1.4,3.06-1.66.61-3.12,1.49-4.5,2.56-1.19.18-1.75-.78-2.4-1.45-2.2-2.25-4.86-3.58-7.94-4.08-2.92-.08-4.87-1.36-5.69-4.31-.35-1.25-1.52-2.1-2.07-3.3-.37-1.78-2.28-2.15-3.17-3.46-.09-.84.47-1.38.97-1.9,1.16-1.2,1.49-2.69,1.65-4.27.1-.97.12-1.99.94-2.72Z"/>
      <path class="cls-42" d="m106.39,68.97c1.34,1.81,2.83,3.52,3.3,5.84.14.7.63,1.1,1.43,1.03,1-.08,1.96.11,2.87.54.63,1.7-.95,1.8-1.77,2.45-.39.31-.89.59-.8,1.16.1.63.7.6,1.17.67.87.12,1.84-.02,2.68,1.24-2.3.31-4.05,1.32-5.69,2.68-.85.7-2.26.58-3.31-.1-.86-.56-.81-.64-1.46-.57-1.14.14-2.32-.18-3.37.27-.2.18-.28.37-.17.49,4.33,4.7,8.48,9.18,15.87,9.17,5.36-.01,9.15-2.66,13.29-5.09.71-1.43,2.21-1.22,3.28-1.16,1.07.06.31,1.04-.03,1.47-2.59,3.23-5.15,6.49-7.89,9.59-1.21,1.37-.13,1.3.67,1.58.93,2.7,2.14,5.34,1.39,8.35-.2.79-.08,1.66-.92,2.16-1.95.22-2.43,2.39-4.04,3.06-1.81.67-3.23-.64-4.68-1.17-2.05-.76-4.38-.23-6.27-1.32.13-.67.42-.78.77-.81.3-.03.6.08.9.03-.36,0-.63-.15-.78-.49.16-1.2,1.11-1.72,2.06-1.88,2.76-.47,5.39-1.61,8.28-1.53,2.49.07,3.11-1.02,2.06-3.29-1.34-2.92-2.99-3.71-6.23-3.02-4.46.95-8.47-.6-12.43-2.3-3.03-1.3-5.81-3.27-9.34-3.02-.61-.05-1.21-.11-1.72-.48.54-2.15-.15-4.32.37-6.57.42-1.82-1.04-3.88-1.86-5.74-.63-1.45-1.19-2.9-1.62-4.41-.99-3.49-.48-4.29,3.16-5.02.93,1.44,2.48,2.65,1.74,4.72-.05.13.2-.02.29.02,1.37.67,3.03.86,3.48,2.84.17.73,1.65.96,1.28,2.2,1.61-.78,3.72.3,5.08-1.39-1.18-.45-1.77-1.56-2.62-2.39-1.28-3.1-.59-7.47,1.54-9.78Z"/>
      <path class="cls-30" d="m130.44,88.75c-.49,1.19-1.08,2.16-2.58,2.34-.76.09-1.68.48-2.17,1.04-2.07,2.34-4.74,2.23-7.49,2.23-3.48,0-7.03.05-9.9-2.13-2.75-2.09-5.12-4.67-7.72-6.98-.45-.4-.59-.77-.46-1.27.16-.61.69-.64,1.2-.64,2.2,0,4.39,0,6.63.28-.5.12-1,.24-1.74.42,2.14.69,3.82.3,4.76-1.34.92-1.61,2.45-.34,3.49-1.14-.66-.48-1.39-.22-2.06-.23-.95-.01-1.98.01-2.15-1.15-.14-.95.89-1.4,1.5-1.8.87-.57,2.09-.65,2.25-2,4.24.33,7.05,3.11,9.94,5.76.92,1.64-.65,1.61-1.42,2.12,1.16,1.35,3.21,1.95,3.45,4.08-.55.56-1.9.76-1.18,1.92.63,1.02,1.4-.05,2.12-.16,1.28-.19,2.19-1.37,3.55-1.34Z"/>
      <path class="cls-21" d="m125.96,88.33c-1.32-1.72-3.11-2.94-4.84-4.32.98-.9,3.03.32,2.81-1.87.79-1.76,2.55-2.27,4.1-2.74,1.5-.45,1.93-1.27,1.97-2.6.94-1.85,0-4.11,1.27-5.91,2.99,3,3.12,5.49,1.85,9.43-1.25,3.9-3.46,6.52-7.16,8.02Z"/>
      <path class="cls-72" d="m141.96,86.35c.16,1.22.45,2.44.43,3.65-.04,2.21-.43,4.35-2.4,5.8-1.08.34-2.15.9-3.3.62-.85-.21-.81.51-1.2.8-1.28.97-2.12,2.37-3.87,2.94-1.24.41-2.17.4-3.27.03,4.06-1.11,6.69-3.8,8.77-7.37,1.34-2.3,2.24-5.06,4.83-6.46Z"/>
      <path class="cls-77" d="m46.99,51.89c2.04,2.3,5,2.71,7.61,4.16.07-.54.13-.69.11-.82-.14-.76-1.17-1.63-.32-2.24.78-.55,1.5.5,2.22.9,1.8.99,3.58,2,5.37,3.01.55.31,1.11.94,1.71.25.57-.65-.27-.96-.52-1.42-.64-1.19-1.6-2.31-1.07-3.84.63-.57,1.12-.16,1.62.23,1.87,3.52,5.2,4.39,8.78,4.81.85-.39,1.7-.78,2.55-1.17.3-.15.59-.31.89-.46.69,1.06.26,2.05-.34,2.9-1.22,1.73-2.15,3.62-3.2,5.45-1.65,1.84-3.61,3.12-6.16,3.13-1.86,0-3.08-.68-2.44-2.87.66-.95,2.1-.96,2.71-2.32-2.12-.06-4.14.12-6.14-.2-2.35-.41-4.68-.9-6.86-1.93-1.78-.99-3.52-2.03-5.14-3.26-1.19-.64-2.24-1.42-2.56-2.84-.25-1.09-.14-1.22,1.19-1.48Z"/>
      <path class="cls-49" d="m86.51,46.84c-.54,2.3-1.31,4.57-.97,6.99.12.81-.78.95-1.09,1.49-.65.31-1.45.29-1.93.94-.59.58-1.03,1.26-1.41,1.99-.68,1.31-1.62,1.78-2.99.97-.93-.78-1.81-1.59-1.17-2.99.19-.6-.08-1.28.55-1.81,3.19-2.68,5.35-6.1,6.96-9.91.45-1.07,1.04-2.09,1.7-3.42,1.41,2.08.13,3.97.34,5.76Z"/>
      <path class="cls-25" d="m54.5,34.91c-.34-1.6,1.34-2.94.58-4.59,1.2-1.62-.09-3.21-.49-4.53-.7-2.28,1.05-1.99,1.7-1.79,2.52.77,1.82-1.45,1.66-2.06-.21-.8-.39-1.57-.37-2.38.04-2.14-.96-4.77,3.11-4.47,1.42.1,2.86-.91,3.91.81,0,1.73-.07,3.25-1.63,4.65-1.21,1.08-1.52,3.03-1.15,4.83.41,2.01.88,4.03-2.08,4.53-.97.17-.47.83-.25,1.33.57,1.28,1.1,2.57,1.72,3.82,1.61,3.24,1,4.24-2.67,4.32-2.05-.85-3.91-1.87-4.04-4.47Z"/>
      <path class="cls-38" d="m159.49,96.21c-2.17,1.38-4.77,1.32-7.11,2.13-3.21-.62-6.23-1.71-8.96-3.54-.87-2.22.17-4.41.09-6.63-.03-.92.85-.82,1.49-.86,2.54-.17,4.86.47,6.94,1.95,1.72,2.06,3.75,3.64,6.57,3.58,1.28-.03,1.47,1.16,2.3,1.59-.37.55-1.64.25-1.34,1.43.01.12.02.23.02.35Z"/>
      <path class="cls-54" d="m95.42,72.71c-.33.35-.62.95-.99.99-2.35.29-2.14,1.81-1.59,3.34,1.1,3.09,2.31,6.15,3.48,9.21.15.38.6.8.51,1.09-.54,1.88-1.28,3.65,0,5.64.41.64-1.41.24-1.46,1.23-2.72,1.3-6.25.45-7.52-2-.49-.95-1.35-1.34-1.96-2.05-.99-1.14-3.59-1.78-1.37-4.12.4-.43-.37-1.2-.76-1.71-1.15-1.52-2.46-2.93-3.53-4.51-1.72-2.54-1.37-4.77,1.27-6.37,1.68-1.02,1.76-1.68.24-2.79-.5-.37-.66-.96-.19-1.53.41-.29.88-.36,1.37-.35,1.86.66,3.75,1.26,4.77,2.72-.74-1.19-.17-2.96-.7-4.59-.32-.98.73-.81,1.5-.83-1.39-.05-2.06-.77-1.82-1.95.43-2.11.79-4.21,1-6.36.09-.9.55-1.94,1.84-1.95.73.83,1.64.48,2.77.41-.59-.3-.96-.5-1.9-.98,1.52.25,2.59-.37,3.32.54.81,1.02,1.8.31,2.7.57.11-.92-.82-.18-.84-.71,1.05-.42,1.07-.45,2.26.46.81.62,2.02-.28,2.69.76-.13.2-.29.37-.49.51-2.38,1.36-5.01,1.02-7.35,1.2,1.48.26,3.33-.6,4.95.53-1.49,2.91-2.38,5.95-1.69,9.23.28,1.34-.88,2.5-.24,3.81,0,.23-.08.42-.26.56Z"/>
      <path class="cls-73" d="m100.1,56.89c.13.02.26.01.39-.02,1.98-.88,3.93.07,5.9.07-.11.9-.28,1.8-.32,2.7-.09,2.57-1.27,4.54-3.18,6.16-1.48,1.55-1.2,3.35-.76,5.18.26,1.07,1.13,2.12.17,3.26-.56.63-1.27.94-1.94.35-1.41-1.24-3.23-1.48-4.83-2.25-1.38-.48-.24-1.07-.19-1.71.13-1.79.02-3.62-.23-5.4-.33-2.46.83-4.24,2.33-5.93.21-1.55,1.89-1.47,2.65-2.41Z"/>
      <path class="cls-69" d="m89.5,55.82c-2.5,2.47-1.13,5.97-2.3,8.85-.47,1.16,1.27,1.12,2.27,1.3-.56.65-1.36.05-2.07.6,1.27,2.12-.23,4.76,1.35,7.04-1.1-2.68-3.67-3.16-5.7-4.36-.05-1.08,1.16-.83,1.52-1.47.84-1.76-.11-3.56.11-5.35.19-1.55-.82-3.28.88-4.57.21-.16.09-.65-.09-.92-.32-.48-.66-.11-1.04-.01-1.6.41-1.61.38-1.89-1.07.24-1.57,1.12-.91,1.91-.55,1.69-.16,3.38-.33,5.07-.49,0,.33-.01.66-.02.99Z"/>
      <path class="cls-10" d="m102.42,122.19c-3.65.67-7.07-1.94-8.3-5.81-.59-1.86-1.06-3.77-1.59-5.65-1.28-2.18-.44-4.49-.49-6.48-.29,1.05-.11,2.53-1.05,3.68-1.25,1.53-2.11,3.33-3.34,4.88-1.24,1.57-2.5,3.1-4.54,3.67-.24.02-.47-.03-.69-.13-.66-.74-.75-1.5-.09-2.29.98-1.01,1.96-2.03,2.53-3.35.2-.46.38-1-.07-1.38-.47-.4-.94-.04-1.33.25-1.26.94-2.53,1.87-3.9,2.65-1.14.43-2.2.35-3.16-.46-.35-1.37.82-1.37,1.57-1.77,1.41-.74,3.1-1.06,4.4-2.81-1.92.26-3.4.84-4.96.73-1.34-.09-2.62-.39-3.83-.94-.43-.2-1.02-.39-.96-.97.07-.6.68-.62,1.17-.71.24-.04.5-.04.74-.02,5.49.59,9.71-2.04,13.65-5.37.89-.75,1.77-1.49,2.85-1.96.65-.32,1.25-.74,1.98-.87.24,0,.46.08.64.25.39.76.09,1.65.41,2.41.29.72.12,1.7,1.12,2.04,1.14.39,1.6-.51,2.21-1.14,2.11-.26,1.2,1.73,1.89,2.54.49,1.54,1.98,2.66,1.89,4.45.42,2.01,1.16,3.8,3.24,4.66,2.88,1.99,6.29,2.47,9.57,3.29,1.06.27,2.06.63,3.04,1.07.61.27,1.33.54,1.1,1.4-.23.87-.96,1.21-1.75.92-3.28-1.23-6.97-.58-10.21-2.2,1.13,1.84,3.2,2.35,4.84,3.45.57.38,1.67.55,1.36,1.47-.26.79-1.28.6-2,.66-2.2.16-3.98-.97-5.77-2.02-.78-.46-1.47-1.08-2.35-1.52-.29,1.17,1.12,2.23.17,3.38Z"/>
      <path class="cls-19" d="m102.42,122.19c-.41-1.57-.84-3.12-2.13-4.9,4.21,1.5,6.99,5.4,11.64,4.32-1.9-1.53-4.22-2.32-6.15-3.76-.82-.61-.64-1.11-.48-1.58.31-.87.93-.29,1.38-.05,3.14,1.62,6.86.76,10.01,2.36.38.19.84-.01,1-.48.21-.58-.28-.62-.65-.8-3.33-1.66-7.12-1.75-10.55-3.13-.94-.38-1.56-1.17-2.52-1.41-.58-.95-.93-1.84.7-2.02.81-.09,1.64-.15,2.22-.84,1.08-1.18,2.53-1.28,3.98-1.41.92.06,1.73.3,2.08,1.28.47.75,1.43.2,2.15.88-.98.1-1.81.19-2.64.28,3.77.01,7.12,1.34,10.43,2.85.29,1.43,1.11,2.54,2,3.65.88,1.1,1.72,2.49,1.08,3.81-.64,1.31-2.13.9-3.47.97-1.77.08-3.12-.64-4.67-1.25-.96,1.29,1.42,2.66-.02,3.83-1.14.93-2.55.26-3.83.42-.15.23-.27.23-.36-.04-.16-1.06-1.17-1.31-1.82-1.89-.54-.48-.85-.25-1.09.31-.91,2.14-2.1,2.27-4.32,1.29-1.55-.68-2.43-2.14-3.97-2.7Z"/>
      <path class="cls-20" d="m149.9,121.26c-1.97,3.45-3.05,3.79-7.83,2.43-.83-.83-1.65-1.65-2.48-2.48-1.13-1.56-1.88-3.31-2.59-5.07-.87-3.33-1.16-6.57,1.78-9.13.83-.73,1.82-1.29,2.77-1.86.54-.33.58-.73.4-1.25.37-.71.97-1.14,1.74-1.33.68.03,1.28-.19,1.92-.42,2.45-.86,4.7-.33,6.76,1.2.16,1.09,1.29,1.19,1.93,1.74,3.26,2.75,2.49,6.59,2.9,10.09.1.89-.6,1.27-1.53,1.02-.71-.19-1.43-.33-2.15-.49-1.43-.81-1.93-2.19-2.27-3.68-.32-1.38-.85-2.69-1.47-3.96-.65-1.34-1.65-2.15-3.17-1.8-1.44.33-2.26,1.34-2.37,2.84-.14,1.85.26,3.63.71,5.41.14.55.47,1.17-.03,1.65-.59.56-1.29.22-1.84-.09-.88-.5-1.88-.64-2.78-1.06-1.58-1.59-.88-3.38-.34-5.76-1.29,3.17-1.34,5.66.36,8.02.07.09.14.54.36.17.09-.16.04-.47.18-.68,1.03-.27,1.52.5,2,1.13,1.3,1.71,2.91,2.14,4.79,1.19,1.5-.75,2.07-.19,2.17,1.28l.07.92Z"/>
      <path class="cls-75" d="m91.06,115.83c.19-.24.35-.67.56-.7.43-.05.35.4.36.69.01.47-.01.94-.02,1.42.67,2.4.59,4.86.64,7.33.05,2.46-.9,4.31-2.4,6.05-1.32.92-2.63,1.89-4.1.25-.69-1.18-.38-2.52-.65-3.89-.41,1.08-.27,2.15-.53,3.15-.82,2.22-2.05,4.14-3.98,5.57-2,.49-3.06-.48-3.61-2.28-.11-.22-.2-.45-.28-.68-.25-.68-.54-1.36-.37-2.11.1-.32.22-.66.5-.84,5.52-3.63,9.27-8.98,13.55-13.82.11-.04.22-.09.33-.13Z"/>
      <path class="cls-37" d="m86.48,130.27c1.18,2.18,2.35.28,3.52-.01.24.08.54.21.56.43.21,1.81-1.25,3.04-1.78,4.61-.31.91-1.89.57-2.95.27-.29-.09-.62-.17-.94,0-.31-.08.06.34.07,0,0-.13.07-.08.24-.06.73.09,1.22.33.45,1-.59.52-1.42.66-2.11.38-1.61-.66-.15.7-.56.79-.47,2.15-2.1,3.54-3.65,4.77-.53.42-1.72,1.24-2.68.92-1.33-.45-.34-1.69-.56-2.56-.14-.54.1-1.16-.37-1.68-1.78,1.56-3.52,3.03-6.13,3.19-2.13.13-3.09-.34-2.56-2.59-.03-1.92,1.61-2.39,2.85-2.91,2.35-.98,4.76-1.74,6.34-3.94.29-.4.81-.56,1.28-.12h0c.25.26.21.6.26.92q.53,3.19,3.3,1.6c1.14-1.68,2.58-3.15,3.42-5.04.67-.52,1.33-.46,1.99.02Z"/>
      <path class="cls-84" d="m83,137.67c-.15-.69-.89-.58-1.35-.98,1.17-1.16,2.81.51,3.98-.79-.56-.11-1.06-.21-1.57-.3,4.24.69,5.67-1.68,5.95-5.34,2.63-3.74,2.35-7.85,1.49-12.01-.12-.57-.27-.94.47-1,.5.65.68,1.48,1.4,2.02,3.04,2.24,3.77,9.17,1.9,12.37-.3.52-.3,1.41-1.24,1.33-.76-.07-.69-.78-.91-1.28-.23-.52-.41-1.24-1.06-1.26-.83-.04-.49.9-.83,1.32-.63.78-.4,1.73-.42,2.59-.06,2.82-1.45,4.93-3.37,6.79-.61.59-1.16,1.55-2.3.94-1.02-.54-1.25-1.57-1.3-2.54-.05-.79.52-1.7-.85-1.84Z"/>
      <path class="cls-6" d="m77.52,132.77c-2.35,2.39-5.12,4.03-8.33,5.02-.86.27-1.72.97-2.14,1.94-.33.04-.67.08-1,.11-.82-.84.91-.88.5-1.59-.18-.39.03-.68.27-.95,2.43-2.25,5.12-4.14,7.97-5.8.68-.39,1.31-1.07,2.24-.74.16.67.33,1.34.49,2.01Z"/>
      <path class="cls-8" d="m39.07,118.64c-5.16,1.78-8.04.55-10.08-4.31-.72-1.84.44-2.82,1.76-3.62,2-1.22,4.19-2.03,6.47-2.56,2.41-.56,4.09-1.99,5.3-4.32-1.85.1-2.72,1.43-3.89,2.27-.59.42-1.26,1.1-2,.56-.79-.56-.57-1.48-.32-2.3.42-1.43,1.91-2.34,1.97-4.11-2.97,2.99-6.58,2.86-10.24,2.51-.5-.05-1-.28-1.08-.87-.1-.75.49-.97,1.03-1.21.96-.44,1.99-.05,2.96-.24.88-.18,1.78-.37,2.53-1.24-1.11-.36-2.03.07-2.93.29-2.86.69-5.61.02-8.35-.65-1.25-.3-2.19-1.15-2.56-2.47-.43-.69-.88-1.38-1.28-2.09-.82-1.43-1.66-2.79-.64-4.57.99-1.74,2.65-1.82,4.22-1.97,1.54-.15,3.12.07,4.69.12,1.64.28,3.14.84,4.51,1.83,1.98,1.42,4.29,1.95,6.6,1.17,2.09-.71,3.52-.12,4.78,1.46.51.42,1.12.62,1.7.9,2.18,1.07,2.24,2.23.21,3.88-.15.47-1.55-.78-.98.76.53,1.43,1.1,2.73,2.8,3.07.73.15,1.39.46,1.89,1.05.13.19.21.39.25.61-.07.64-.04,1.3-.3,1.92-.96,1.51-3.42.55-4.09,2.52-.86,1.13-1.7,2.27-1.93,3.73-.11.44-.24.87-.37,1.3-.08.34-.18.68-.27,1.01-.51,1.97-.7,4.08-2.36,5.57Z"/>
      <path class="cls-16" d="m23.64,114.25c.33-2.88-.08-5.8,1.18-8.65.72-1.61-1.71-1-2.3-1.91.1-.69.64-1.81-.25-1.95-3.55-.58-2.61-3.18-2.64-5.37,2.71,3.05,6.38,2.62,9.88,2.63,1.38,0,2.76-.5,4.14-.72.44-.07,1.08-.25,1.25.41.15.56-.32,1.02-.72,1.18-1.42.58-2.71,1.74-4.42,1.24-.97-.28-1.67.1-2.53.68,4.98,1.43,9.97-.02,10.65-3.01,3.28,3.12-2.42,4.74-1.08,7.68,2.42-.84,3.77-4.17,7.12-3.47-1.84,3.03-3.78,5.53-7.6,6.07-1.9.27-3.7,1.38-5.48,2.25-1.18.58-1.73,1.71-1.87,3.03-1.8.96-3.56-.52-5.35-.09Z"/>
      <path class="cls-33" d="m42,92.85c-.81-1.69-1.97-2.14-3.8-1.45-2.18.82-4.49.66-6.45-.62-1.66-1.08-3.41-1.96-5.12-2.93.73-.33,2.01.54,2.22-.69.17-.98-.62-1.55-1.7-1.39,2.12-3.51,2.86-3.8,6.72-2.5-.43-1.53-1.89-2.51-1.56-4.18.34-1.67,1-2.9,2.82-3.18,1.29,1.16,2.58,2.37,2.88,4.17.14.83.65.71,1.15.89,1.55.56,3.05,1.26,4.63,1.74,2.55.77,3.06,2.32,1.35,4.36-.56.67-.92,1.6-1.9,1.86-1.44-1.6-3.94-.67-5.49-2.44,1.07,2.46,3.42,1.65,5.06,2.44.09,1.39.89,2.91-.8,3.93Z"/>
      <path class="cls-57" d="m59.08,72.82c1.03-.06.98-.81.98-1.53,3.26-2.6,8.15-2.2,12.51,1.03,1.09,1.36,1.16,3.07,1.58,4.66.6,2.26,1.16,4.56,3.62,5.65.66.29,1,.83.94,1.6-.18,2.12.49,4.05,1.32,5.94.03,1.11,2.3,2.08.22,3.33.12.16.28.04.41.04,1.45,0,.6,1.47,1.26,1.96-.66.45-1.38.4-2.12.28-1.46-.54-2.88.08-4.3.2-1.68.15,0,2.01-1.18,2.46-2.28.05-3.9-1.99-6.17-1.96-2.37.04-3.94-.89-4.32-3.4-.11-.72-.35-1.46-1.25-1.65-2.86-.61-.98-1.5-.13-2.32,2.28,1.09,4.74.99,7.17,1.09,1.93.08,3.59-.97,4.94-2.04,1.27-1,.09-1.95-1.07-2.18-2.28-.46-4.22-1.92-6.59-2.11-.92-.08-1.67-.68-2.14-1.55,0-2.5-1.19-4.11-3.48-5.14-1.8-.81-2.05-2.6-2.2-4.36Z"/>
      <path class="cls-23" d="m72.51,72.85c-2.86-2.48-6.29-2.67-9.83-2.52-1.01.04-1.46,1.45-2.63.96-.21-.86,1.17-1.62.16-2.53-1.77-1.25-3.38-3.15-5.88-1.37-.24.17-.55-.26-.77-.5-1.95-2.56-3.9-2.84-6.38-.92-.21-.13-.33-.31-.38-.54.68-.67-.49-1.07-.24-1.67.56-.64-.14-1.28,0-1.93,2.48-.63,4.32-2.8,7.01-2.91,2.32.66,4.64,1.32,6.96,1.97,1.24.89,3,1.17,3.46,2.96.25,2.4,1.14,2.97,3.72,2.2,1.65-.49,3.1-1.41,4.3-2.67.36.59,1.29.23,1.57.94.91,1.02.66,2.27.7,3.47-.1.55-.25,1.08-.55,1.56-.3.38-.67.7-.31,1.28.72,1.14.18,1.81-.92,2.22Z"/>
      <path class="cls-47" d="m65.16,82.26c2.49,1.69,5.53,1.87,8.25,2.95,1.33.52,2.31,1.17,2.5,2.32.21,1.33-1.24,1.37-2.16,1.89-3.1,1.73-6.28,1.51-9.57.98-.77-.12-1.11-.63-1.56-1.09-1.01-.34-1.51-1.34-2.39-1.83-.24-.5-.38-1.05-.73-1.49-.75-.52-.89-1.87-2.21-1.6-3.37.68-5.77-.92-7.84-3.32-.66-.15-.5-.88-.87-1.24-.51-3-.25-5.78,2.27-7.9,1.26-1.06,2.65-1.56,4.23-.67-1.43,1.45-2.31,3.32-3.84,4.76,3.25,1.74,5.93,3.98,8.51,6.38,1.64,1.53,3.57,1.45,5.42-.14Z"/>
      <path class="cls-68" d="m43.01,88.7c.08-.03.19-.03.23-.08q3.08-4.36-1.76-6.19c-.53-.2-1.12-.23-1.66-.42-2.86-1.03-3.14-4.05-4.69-6.1,3.46.3,6.76,1.01,9.28,3.68.84.89,1.82,1.36,3.04,1.28.69.54,1.47.89,2.27,1.21,1.39,1.39,3.04,2.68,1.76,5.01-.15.19-.35.32-.58.4-.5.05-.96-.11-1.42-.29-1.97-.77-2.45.12-2.13,1.9-.13.42-.46.72-.65,1.11-.36.7-.2,1.36.18,2,.53,1,.44,2.1.48,3.17-.22,2.03,1.21,3.49,1.83,5.23.07.84.69,2.13-1.14,1.36-.83-.54-1.69-1.03-2.57-1.48-1.53-.78-2.18-1.95-1.35-3.64,1.98-1.81,1.86-2.3-.72-3.16-.51-.17-.95-.56-1.42-.84.95-1.23.15-2.72.61-4.02.09-.16.22-.21.4-.13Z"/>
      <path class="cls-18" d="m65.16,82.26c-.74.46.4,1.98-1.17,2.01-1.99.03-3.84-.35-5.15-1.94-.65-.8-1.05-1.71-2.34-1.55-.8.1-1.06-.72-1.4-1.24-.84-1.28-1.65-2.42-3.48-2.26-.99.08-1.74-1.25-1.12-1.53,2.15-.97,1.83-4.31,4.57-4.49,1.61-.19,2.49,1.49,4,1.55.66.45,1,1.06.96,1.86-.05.94.36,1.69,1.23,1.91,3.01.76,4.2,2.69,3.89,5.68Z"/>
      <path class="cls-57" d="m53.56,66.89c1.48,0,2.67-1.91,4.45-.5.89.7,1.91,1.15,2.2,2.37-1.41-.04-2.61.11-1.7,2.41-2.54-2.56-5.57-1.69-8.35-1.87-.3-.8,1.32-.57.67-.83-1.11-.45-1.36-.77-.66-1.68.43-.56.39-.41,1.44.34.38.27,1.46,1.04,1.95-.24Z"/>
      <path class="cls-71" d="m49.56,82.27c-1.08.1-2.06.05-2.11-1.4.63-.07,1.1-.31,1.13-1.04.33.35.66.69.99,1.04.38.47.44.94,0,1.41Z"/>
      <path class="cls-28" d="m47.04,65.2c-2.49-.27-4.62-1.57-6.92-2.39-.51-.38-1.1-.7-1.53-1.16-1.9-2.1-3.85-3.59-6.98-2.31-1.42.59-2.87-.26-3.98-1.39-.85-.87-1.72-1.72-2.59-2.58.7-.33.59-.91.46-1.49-.44-1.97.26-2.93,2.22-2.64.78.11,2.17-.58,2.37,1.04.37,1.22,1.73.88,2.49,1.59,1.32,1.24,1.83-.17,2.57-.96.37-.39.69.11.91.45.36,5.11,5.27,9.98,10.5,10.4.2.47,1.14.69.48,1.44Z"/>
      <path class="cls-26" d="m72.49,56.93c-3.81.91-7.78-1.16-8.93-4.66.8-1.55,1.88-1.09,3-.44,1.29,1.31,2.61,2.58,3.84,3.93.59.65,1.24,1.05,2.09,1.16Z"/>
      <path class="cls-14" d="m66.56,51.83c-.99.2-2.12-.52-3,.44-.49-.13-.97-.26-1.46-.39-.49-1.36-.99-2.72-1.48-4.07,1.13.1,1.51,1.13,2.19,1.84.33-.65.06-2.4,1.46-.79.82.95,2.33,1.37,2.29,2.98Z"/>
      <path class="cls-11" d="m29.97,45.78c.52.71,1.05,1.42,1.57,2.13-.6.07-1.04.96-1.81-.19-.89-1.33-2.5-1.33-3.65-.12-1.64,1.72-3.67,1.43-5.56,1.14-2.4-.37-2.51-2.86-2.72-4.49-.32-2.53-1.45-4.32-3.22-5.89-.38-.33-.84-.53-.51-1.18.39-.78.8-.04,1.19-.08,4.19-.39,6.44,2.99,9.45,4.88.44.27.75.91.91,1.44.67,2.29,2.42,2.48,4.36,2.36Z"/>
      <path class="cls-11" d="m36.06,53.35c-.29-.1-.8-.34-.81.02-.14,3.46-2.19,1.56-3.19.92-.85-.54-1.74-.7-2.59-1.08-.29-.13-.71-.41-.5-.65.22-.24.74-.21,1.13-.29,1.25.11.95-.72.86-1.42-.49-1.06,0-1.85.73-2.57,2.49.25,3.55,1.46,4.38,5.07Z"/>
      <path class="cls-35" d="m53.58,58.92c-2.46.68-4,3.58-7.01,2.91-.73-.61-1.75-.93-1.97-2.03.33-3.6,1.24-4.51,3.96-3.95,1.68,1.02,3.35,2.05,5.03,3.07Z"/>
      <path class="cls-80" d="m48.55,55.85c-1.05.17-2.65-.56-2.23,1.75.16.9-1.66,1.03-1.72,2.2-1.24-1.38-2.77-2.69.18-3.98,1.17-.51-.08-1.05-.34-1.35-1.26-1.47-3.08-2.47-3.58-4.54,1.88,1.34,4.1,1.08,6.22,1.39,1.12.16.41.43-.08.57-2.13,1.39.03,2.18.54,3.11.12.23.83.34,1.02.85Z"/>
      <path class="cls-60" d="m120.44,53.33c.02.96.57,1.71,1.02,2.5.61,1.05.72,1.84-.78,2.16-1.09.23-1.15,1.12-1.34,2.08-.53,2.68-2.95,4.47-5.38,4.28-1.89-.15-2.81-1.84-3.16-2.99-.45-1.43.72-3.13,2.49-3.43,1.15-.2,1.79-.94,2.83-1.35q-3.65-1.9-6.58-1.39c.14-2.11.61-2.95,2.91-3.92,1.77-.75,3.66-.87,5.43.25.9.57,1.47,1.58,2.58,1.84,0,0-.03-.03-.03-.03Z"/>
      <path class="cls-7" d="m102,73.83c.36-1.89-.95-3.48-.95-5.3,0-1.31-.08-2.73,1.86-2.74,1.42.77,3.33,1.01,3.48,3.17-1.44,2.98-2.09,6.08-1.35,9.38.11.71-.09,1.59-.81,1.37-.84-.26-1.96-.85-2.05-1.85-.11-1.33-.65-2.67-.17-4.03Z"/>
      <path class="cls-74" d="m112.95,109.79c-.67-.32-1.34-.65-2.01-.97-1.73-.15-3.08-1.05-4.38-2.12-1.08-.89-1.87-2.25-3.83-1.46-.92.37-1.88-.97-2.4-1.88-.54-.93-.93-.61-1.46-.15-.85-.64.07-2.23-1.37-2.56-1.17-1.61-.25-3.47-.63-5.18-.15-.5.15-.84.39-1.21,3.64-.33,6.66,1.58,9.52,3.23,1.45.84,3.04,1.05,4.4,1.47,2.46.76,5.18,1.72,7.95.73,4.05-1.45,5.91,1.23,7.16,4.5.69,1.8-.27,3.11-2.29,3.01-2.85-.15-5.43,1-8.19,1.24-1.06.1-2.06.58-2.88,1.34Z"/>
      <path class="cls-91" d="m97.27,94.26c-.07.37-.13.73-.2,1.1-.11.05-.22.09-.32.14-1.77-.12-3.57-.36-4.82,1.03-.57-.07-.28.37-.34.04.58.1,1.56-.51,1.47.81-.51.3-1.01.6-1.52.9-1.72.5-3.39,1.25-5.27.91-1.2-.22-2.51-.14-2.98-1.69-.19-.62-.77-.73-1.4-.71-.57.01-1.35-.07-1.38-.76-.03-.78,1.04-.22,1.35-.76-.02-.41-.61-.53-.6-.59.08-.8-.23-1.12-1.02-1.04-.21.02-.42-.07-.63-.11,2.66-1.15-.54-2.11-.1-3.18.64-2.11-.21-4.29.42-6.46.38-1.32-1.07-2.31-2.04-2.41-2.23-.23-2.49-1.2-2.91-3.29-.47-2.33-.09-4.47-.11-6.69,2.31-3.02,4.46-3.7,6.55-2.1.03,1.51,2.56,1.22,2.18,3.05-.32,1.57-2.04,1.25-2.87,2.22-1.28,1.5-1.42,3.05.04,4.92,1.73,2.21,3.58,4.32,4.92,6.79-.48.79-1.32.04-1.88.66,3.27,3.28,5.58,8.12,11.56,7.14.63.02,1.27.03,1.9.05Z"/>
      <path class="cls-95" d="m102,73.83c1.24,1.33-.24,3.34,1.55,4.86,1.32,1.12,1.07-.02,1.48-.35,1.37.44,1.58,2.37,3.2,2.51.27.02.35.37.03.42-.95.16-.74,1.65-2,1.55-1.71-.13-3.45-.03-5.19-.03-.02-.8,1.16-.53.95-.71-1.85-1.64-2.85-4.48-5.94-4.34,2.31-2.03-1.09-3.29-.65-5.04.03-.13.07-.25.13-.37,1.65-.09,3.26-.27,4.5,1.32.29.37,1.2,1.28,1.95.18Z"/>
      <path class="cls-89" d="m140.51,114.86c1.64-.64,2.66,1.05,4.32,1.18-.79-2.25-1.21-4.45-1.21-6.69,0-2.07,1.25-3.69,3.12-3.85,1.74-.15,2.95.73,3.65,2.4.57,1.37,1.16,2.72,1.45,4.19.26,1.35.89,2.51,1.69,3.61-2.64-.85-3.96.22-3.64,2.92.07.57-.03,1.15-.05,1.72-.67-.03.23-1.66-1.3-1.07-4.02,1.52-4.34,1.33-6.81-1.93-.19-.25-.49-.42-.74-.63-.67-.49-1.13-1.03-.46-1.85Z"/>
      <path class="cls-29" d="m143.59,102.76c-.17.92-.89,1.06-1.64,1.13-1.5-1.28-2.89-2.67-4.08-4.25-.45-.6-.97-1.3-.37-1.98.72-.81,1.43.03,1.87.43,1.45,1.32,2.77,2.77,4.15,4.18.1.1.15.2.13.32-.01.12-.03.18-.06.18Z"/>
      <path class="cls-56" d="m143.59,102.76c-.02-.16-.05-.33-.07-.49,1.81-.29,3.45-1.41,5.42-1.02,1.42.29,2.9.39,3.43,2.09-2.84-1.45-5.81-1.02-8.78-.58Z"/>
      <path class="cls-12" d="m64,63.86c-.89-1.3-2.92-1.25-3.46-2.96,2.36,0,4.71,0,7.35,0-.86,1.84-2.02,2.85-3.89,2.96Z"/>
      <path class="cls-1" d="m82.53,55.86c.27,1.15,1,1.28,1.66.49.71-.86,1.28-.7,2-.18-1.26.67,1.87,2.26-.58,2.79-.23.05-.16,1.26-.31,1.92-.56,2.49,1.01,5.08-.37,7.52-1.01.03-1.84-.55-2.25-1.27-1.2-2.13-2.84-3.86-4.54-5.56-.04-.11-.07-.22-.1-.33.78-.67.63-1.53.49-2.38.95.49,1.64.49,2.02-.76.3-.99.72-2.02,1.98-2.23Z"/>
      <path class="cls-62" d="m74.01,67.79c-.49-1.11-.49-2.29-.42-3.47,1.38-1.18,2.5-2.73,4.45-3.09.06.06.12.12.18.17.69,1.24,1.89,2.51.69,3.93-1.24,1.46-2.62,2.96-4.91,2.46Z"/>
      <path class="cls-3" d="m74.01,67.79c.62-.24,1.27-.42,1.85-.72,3-1.55,3.36-2.45,2.36-5.66,3.18,1.11,3.73,4.7,6.15,6.52.19.15.37.31.56.47-.63.28-1.26.57-1.89.85-.54.05-1.08.11-1.62.16-2.87-1.08-4.66.59-6.34,2.51-2.11.05-1.25-1.61-1.51-2.63,0-.54-.18-1.15.44-1.51Z"/>
      <path class="cls-52" d="m87.48,74.59c-.45,2.29.22,4.41,1.35,6.28.64,1.05.94,2.7,1.51,3.09,1.79,1.25,2.31,4.24,5.26,3.82-1.23,2.55-1.16,1.94-3.51,1.15-3.58-1.19-2.54-5.22-5.09-6.78,1.18-2.48-1.28-5.08.48-7.57Z"/>
      <path class="cls-4" d="m100.1,56.89c-.43,1.3-2.01,1.33-2.65,2.41-2.05-1.12-4.34,0-6.46-.65.94-.93,3.01.69,3.4-1.5,0-.05.77-.05,1.12.09.46.17-.77,1.38.71,1.15.76-.12,1.06-.65,1.58-.96.65-.38,1.52-.37,2.29-.53Z"/>
      <path class="cls-5" d="m39.07,118.64c.67-1.96,1.34-3.92,2.01-5.88,1.23-.21,2.48-.23,3.68.07,1.13.28,1.41.92.36,1.74q3.04-2.28,4.64.1c1,1.21,1.24,2.75,1.51,4.18.35,1.85.93,3.62,1.51,5.13.24-.93-.03-2.26.47-3.47,1.64-1.19,2.49.06,3.41,1.1.08.19.1.38.06.58-.44.27-.27.73-.07.92.39.37.73-.29,1.16-.23.38-.06.76-.04,1.13,0,1.39.24,2.8.12,4.2.22.72.05,1.78,0,1.84.84.07.94-1.02.8-1.7.95-.24.05-.5,0-.74.05-1.27.28-2.96-.66-3.52,1.61-.22.9-1.68.97-2.66.74-.89-.21-1.61-.15-2.28.48h.02c-2.47.26-4.89-.15-7.33-.4-.66-.32-1.17-.94-1.95-1.02-2.01-.2-3.25-1.46-4.22-3.09-.63-1.51-.59-3.23-1.51-4.64Z"/>
      <path class="cls-98" d="m56.65,122.23c-.04-.16-.08-.31-.13-.47-1.17-1.92-1.62-4.09-2.07-6.52-.6,1.8.29,3.6-.84,5.03-.22,1.41.39,2.97-.75,4.32-2.43-2.88-2.05-6.62-3.28-9.82-.63-1.72-.52-3.51-.55-5.29.24-1.1.75-2.1,1.2-3.12.53-.62.74-1.43,1.16-2.11.91-.64,1.69-.39,2.27.44.64.93,1.02.34,1.45-.17.16-.18.34-.31.55-.4,1.94.87,1.97,1.3.25,3.31,1.64-.37,3.23-1.05,4.9-.05.86.52,1.62.02,2.07-.77.51-.88,1.11-1.63,2.07-2.03,1.22-.24,2.46-.15,3.03,1.07.61,1.31-1.18,1.35-1.7,2.76,3.86-.05,6.94,1.88,10.2,3.34,1-.19,2,.54,3,.04.9.96,3.14.2,3.08,2.4-.52.76-.05,1.51.02,2.26-.61,1.95-1.7,3.28-3.92,3.55-1.22.15-2.19,1.07-3.27,1.66-3.26,1.78-6.4,1.12-9.35-.91-2.04-.37-2.95-2.01-3.9-3.56-1.16-1.89-2.09-3.92-3.32-5.9-1.04.69-1.09,1.65-.88,2.49.58,2.34.05,4.82.99,7.12.3.74.35,1.64-.41,2.3-.32.01-.63.02-.95.03-.46-.2-.68-.62-.93-1.01Z"/>
      <path class="cls-24" d="m76.48,111.75c-1.56.31-3.03.63-3.83-1.42-.29-.73-1.4-.66-2.22-.74-1.22-.12-2.45-.26-3.64-.56-.56-.14-1.43-.28-1.4-1.14.03-.77.66-1.04,1.37-1.17.37-.07.7-.33,1.07-.52-.61-1.27-1.85-1.06-2.76-1.5-.13-.89.48-1.52,1.11-1.72,2.67-.87,2.38-2.89,2.11-4.95.2-.7-.4-1.56.39-2.15,1.96.42,3.68,1.4,5.41,2.35.37.36.91.15,1.35.45.49.34-.4.73.07.81.66.11.55-.39.43-.81-.07-.24-.08-.49-.18-.72-.57-1.37-.63-2.23,1.35-1.88.85.15,1.75-.31,2.5-.87.75.02,1.51.04,2.26.06-.28.26-.56.52-1,.94,1.43.18,2.55.11,3.4,1.88.55,1.14,3.44.74,5.32.43.65-.11,1.3-.15,1.95-.22-1.94,1.37-4.03,2.57-5.78,4.15-3.53,3.18-7.63,3.88-12.12,3.4-.22-.02-.46.09-.82.16,2.82,1.46,5.59,1.67,8.48.64.64-.23,1.56-.81,1.96.08.3.67-.4,1.27-1.03,1.76-1.44,1.11-2.97,2-4.74,2.38-.58.12-.87.38-1.01.9Z"/>
      <path class="cls-90" d="m98.87,103.22c.33-.58-.43-1.67.71-1.84,1.11-.17.37,1.04.9,1.41,1.01.72,1.4,3.03,3.35,1.19.28-.27.84-.15,1.1.24,1.51,2.19,3.96,3.13,6.01,4.6-1.25.73-2.84.53-4.01,1.47-1.59.95-2.78-.23-4.03-.82-.86-.41-1.56-1.15-2.33-1.74.21-1.79-1.62-2.81-1.7-4.5Z"/>
      <path class="cls-93" d="m97.07,95.36c1.23,1.68,0,3.56.44,5.3-.68.51.58,2.2-.97,1.96-.98-.15-2.64.38-2.81-1.69-.09-1.17-.76-2.3-.22-3.52.66-1.5,2.02-1.87,3.45-2.11l.11.07Z"/>
      <path class="cls-40" d="m100.57,107.71c1.82-.18,2.6,1.78,4.25,2.04.69.11,1.36.53,2.11.53,0,1.15-.92,1.17-1.57.99-1.58-.42-1.11.84-1.39,1.5-2.43-.81-2.82-3-3.41-5.06Z"/>
      <path class="cls-44" d="m140.51,114.86c.15.62.31,1.24.46,1.85.2.6.4,1.2.6,1.8-4.02-1.67-4.53-7.01-.61-10.86-.33,2.66-1.86,4.92-.45,7.21Z"/>
      <path class="cls-87" d="m49.58,109.28c0,1.83,0,3.66,0,5.49-.24-.47-2.13,1.08-1.18-1.07.35-.79-1.28-.31-1.28-.3-.42,2.05-2.16,1.06-3.24,1.63-.24-1.5,1.12-.62,1.53-1.29-1.29-1.17-3.14.26-4.33-.99.03-.32.05-.64.08-.96.88-.03.97-.4.44-1.03-.19-1.73,1.11-2.77,1.91-4.04,3.14-1.1,4.96-.34,6.08,2.54Z"/>
      <path class="cls-5" d="m49.58,109.28c-1.49-2.14-3.59-2.79-6.08-2.54.77-2.18,3.09-1.54,4.53-2.51.83-.88,1.89-1.1,3.04-1.08,1.65.09,3.49-.34,4.42,1.65q-.96,1.8-2.07.15c-.42-.63-1.08-.63-1.73-.62-.85.42-.82,1.27-.99,2.03.01,1.12-.75,1.95-1.12,2.92Z"/>
      <path class="cls-36" d="m55.49,104.81c-1.48-1.15-3.21-1.05-4.94-1.02-.61-.85-1.85-.15-2.46-1.01-.05-.12-.07-.25-.07-.38-.14-.19-.13-.37.03-.54l.86.08c-.09-.38-.17-.76-.26-1.14.41-.74-.05-2.11,1.47-2.07.6.29.09,1.6,1.74,1.23,1.18-.26,2.56,1.54,3.56,2.77.59.43,1.13.88.26,1.55-.06.17-.13.35-.19.52Z"/>
      <path class="cls-32" d="m48.06,101.86c-.01.18-.02.36-.03.54-.74-.46-1.32-1.03-2.41-.97-1.34.08-3.41-3.18-2.94-4.44.32-.86.97-.09,1.46-.13-.41,3.01,2.7,3.27,3.92,5Z"/>
      <path class="cls-87" d="m48.1,102.78c.86.23,2.15-.57,2.46,1.01-.38.39-1.63-.85-1.45.94.07.67-.77-.07-1.07-.49-.42-.51-.21-.98.06-1.46Z"/>
      <path class="cls-65" d="m43.01,88.7c-.13.04-.27.08-.4.13-2.94.87-4.83-.18-6-3.68,1.75,1.6,3.54,2.1,5.49,2.27.61.05.95.61.91,1.29Z"/>
      <path class="cls-97" d="m68.67,95.89c-.23.61.43,1.24-.05,1.84-.18.3-.1.61-.09.94.05,3.29-.09,3.39-3.68,3.26-1.31-.05-2.54-.61-3.76-.39.53.31,1.87-.53,1.89.59.02,1.18-1.21,1.15-2.13.97-1.02-.2-2.28-.12-2.66-1.42-.34-1.18-.04-2.13,1.3-2.51.17-.05.15-.14.13-.15-1.55-.1-.81-2.15-2.11-2.47-.23-.01-.42-.09-.6-.21-.22-.27-.34-.58-.43-.91-.29-1.42-1.14-2.75-.69-4.28-.94.61-1.86.51-2.74-.19-.23-.97-.8-1.84-.77-2.88.32-.93,1.01-1.26,1.94-1.18,2.08.63,4.24-.25,6.33.29.68.7,1.36,1.4,2.04,2.11-.32.46-.41,1.11-1.14,1.39,2.15-.26,2.97.79,3.12,2.73.21,2.63,2.34,2.27,4.08,2.46Z"/>
      <path class="cls-82" d="m79.61,95.22c-.1,1.93-1.75,1.01-2.66,1.35-.6.22-.72.01-.54.89.08.38.05.78.09,1.17.06.53.77,1.02.2,1.57-.66.64-.83-.59-1.44-.46-.38.08-.81-.03-1.75-.1,2.58-.46,1.08-.95.57-1.42.41-.19.37-.56.16-.79-1.35-1.45-.44-2.21.93-2.13,1.5.09,2.96-1.21,4.45-.09Z"/>
      <path class="cls-34" d="m54.57,87.51c-.88-.26-1.52.09-2.02.79-.88.25-1.23-.28-1.47-.98,1.1-2.17-.6-3.49-1.52-5.04,0-.47,0-.94,0-1.41.99.47,1.93.95,2.58,1.92.87,1.3,2.28,1.08,3.55.97,1.88-.16,3.45.2,4.34,2.05-1.78.7-3.67,1.03-5.46,1.7Z"/>
      <path class="cls-55" d="m54.57,87.51c1.63-1.17,3.26-2.35,5.46-1.7.63.29.52.87.54,1.39-1.99.35-3.97.82-6,.31Z"/>
      <path class="cls-67" d="m53.14,90.77c1.14.33,2.25.51,3.14-1.27-.3,2.37.07,4.08.79,5.73-.83,1-2.1.52-3.1.93-1.68.33-2.67,1.67-3.89,2.66-.47.66-.95,1.31-1.42,1.97-.65-1.85-2.49-3.31-1.79-5.59.98-.82,1.4-2.01,1.89-3.12,1.14-2.56,1.09-2.58,3.66-1.36.22.11.48.07.72.05Z"/>
      <path class="cls-31" d="m53.14,90.77c-.24.91-.72,1.46-1.47.48-1.37-1.79-1.62-1.08-2.2.61-.44,1.27-.53,3.2-2.6,3.35-.12-.93-.23-1.87-.35-2.8,1.31-1.02.95-1.85-.3-2.58.13-.44.52-.48.88-.55,1.5-.3,2.17-2.29,3.97-1.96,0,0,0,0,0,0,.49.33.98.66,1.47.98.43.77.92,1.52.59,2.47Z"/>
      <path class="cls-46" d="m46.23,89.82c1.23-.23,2.16.17,2.24,1.49.09,1.45-1.2.88-1.94,1.09-1.24-.73-.77-1.65-.3-2.58Z"/>
      <path class="cls-87" d="m58.52,123.21c-.39-2.9-.72-5.81-1.2-8.7-.12-.74-.37-1.44-.04-2.15.34-.74-.08-2,1.28-2.08,1.32-.08,1.13,1.18,1.55,1.88,1.8,2.98,2.92,6.44,5.92,8.6,1.45,4.44-1.51,9.48-5.57,9.57-1.63.04-2.81-.8-3.83-1.86-.78-.81-1.52-1.18-2.57-.68.49-1.21,1.56-1.01,2.54-1.03,1.19-.02,2.46.19,2.48-1.7,0-.27,1.2-.67,1.87-.74,1.13-.12,2.29-.03,3.43-.03.01-.17.02-.35.03-.52-1.12,0-2.24.04-3.36-.01-.87-.04-1.85.33-2.55-.54Z"/>
      <path class="cls-64" d="m57.48,96.36c.15-.27.24-.7.46-.78.64-.24.56.36.59.69.13,1.35.48,2.53,2.42,2.7-1.44.61-3.09,1.11-2.19,2.57.72,1.19,2.41,1.22,4.18.85-1.12-1.12-2.41-.2-3.67-1.08,2.58,0,4.81.04,7.03-.03.73-.02,1.83.46,2.09-.7.23-1.04-1.21-.65-1.53-1.59,1.25.41.78-1.26,1.76-1.28.73,1.24.3,2.58.37,3.88.03.65-.2,1.13-.97,1.14-1.4.02-2.14,1.04-2.95,1.96-.32.92-1.47,1.2-1.64,2.36-.14.96-1.45.85-2.12,1.42-1.65-2.09-3.83-.37-5.71-.78.08-1.15,2.24-2.24.08-3.43.22-.61.2-1.07-.63-1.05-.18-.72.43-1.01.79-1.41.97-1.1,1.65-2.25,1.04-3.8-.26-.67-.14-1.3.59-1.67Z"/>
      <path class="cls-87" d="m50.7,106.36c-.3-.99-1.05-2.19.99-2.03-.32.68.31,1.83-.99,2.03Z"/>
      <path class="cls-53" d="m57.48,96.36c-.09.39-.38.9-.24,1.16,1.5,2.78-.34,4.24-2.18,5.72-.99-1.06-1.98-2.13-2.98-3.2-.83.43-.23,1.76-1.18,1.65-.81-.1-.63-1.01-.7-1.63-.05-.41-.08-.82-.12-1.23.38-1.9,1.71-2.71,3.46-3.06,1.24-.19,2.49-.51,3.56.5.13,0,.26.04.39.09Z"/>
      <path class="cls-9" d="m64.82,97.94c-.16,1.13-.82,1.69-1.8,1.78-1.3.13-1.27-1.72-2.49-1.76,1.24.04,1.77-1.41,2.93-1.45.96-.03,1.04.88,1.36,1.43Z"/>
      <path class="cls-51" d="m59.72,94.01c-1.17-.18-1.75-.9-1.85-1.84-.08-.71.56-1.28,1.24-1.21.89.09,1.86.46,1.86,1.59,0,.79-.56,1.3-1.25,1.46Z"/>
      <path class="cls-64" d="m57.09,96.27c-1.19-.17-2.37-.33-3.56-.5,1.07-.91,2.34-.47,3.54-.54,0,.35.01.69.02,1.04Z"/>
    </g>
  </g>
</svg>