<?xml version="1.0" encoding="UTF-8"?>
<svg id="Layer_2" data-name="Layer 2" xmlns="http://www.w3.org/2000/svg" viewBox="0 0 78.08 67.37">
  <defs>
    <style>
      .cls-1 {
        fill: #939884;
      }

      .cls-2 {
        fill: #596431;
      }

      .cls-3 {
        fill: #795324;
      }

      .cls-4 {
        fill: #7a5d2b;
      }

      .cls-5 {
        fill: #765c3f;
      }

      .cls-6 {
        fill: #969b89;
      }

      .cls-7 {
        fill: #ae9e6b;
      }

      .cls-8 {
        fill: #8f836e;
      }

      .cls-9 {
        fill: #8a86a0;
      }

      .cls-10 {
        fill: #6d5e71;
      }

      .cls-11 {
        fill: #636a4b;
      }
    </style>
  </defs>
  <g id="Layer_1-2" data-name="Layer 1">
    <g>
      <path class="cls-10" d="m20.77,34.97c-.14-1.37-.18-2.34,1.87-2.06,1.96.27,5.02-2.41,5.42-3.96.22-.84.52-1.2-.7-1.26-2.57-.13-3.39-2.63-4.85-4.13-1.16-1.2.05-3.02,2.29-3.53.48-.11.47-.6.88-.56.18-.18.39-.21.63-.11.78.98.68,2.29,1.32,3.38.58.98.97,1.46,2.16,1.25,1.41-.24,1.98.43,1.47,1.85,1.45,3.28.46,6.23-1.24,9.08-.25.42-.48.84-.72,1.26-3.08,1.26-6,1.36-8.53-1.23Z"/>
      <path class="cls-8" d="m26.24,19.48c-.19,0-.37,0-.56,0-.21-.48-.64-.78-.51-1.5.38-2.21-.42-4.31-.91-6.42.33-.03.65-.06.98-.09,1.31.67,2.63,1.35,3.94,2.02.37,3.27-.61,5.29-2.94,6Z"/>
      <path class="cls-7" d="m26.19,10.59c.08-.69-.12-1.44.47-2,1.8-3.45,4.66-4.56,8.29-3.19.62.23,1.22.53,1.83.79.5.31.77.73.66,1.33-.41.95-1.22.91-2.05.81-.32-.08.07.51,0,.18-.03-.15.03-.17.18-.15.33.05.78.07.91.31,1.47,2.73,4.03,2.29,6.45,2.31,2.71.02,4.12,1.94,5.5,3.88.03.24.01.48-.03.72-.27.86-.56,1.7-.2,2.62,1.05,2.66.31,4.78-1.99,6.4-.6.05-.99.34-1.11.95-3.61-.02-3.7.06-4.01,3.42-.35,3.87-1.36,4.86-5.21,5.07-.78.04-1.32.29-1.92.87-1.29,1.27-2.13,1.27-3.71.41-.35-.36-.29-.79-.05-1.12,2.03-2.78,2.12-5.98,2.01-9.23.35-.26.74-.28,1.4-.19-1.18-1.34-1.86-2.66-1.5-4.39.21-1.04-.37-2.14-.92-2.97-.95-1.45-.89-2.97-.85-4.54,0-.08.09-.2.06-.23-.23-.28-.18.25-.38.14-1.5-.37-3.06-.6-3.83-2.2Z"/>
      <path class="cls-1" d="m63.62,6.04c3.47.25.38,2.24.94,3.36,1.01.58,1.12-.46,1.44-1.01,1.66-2.83,3.8-5.23,6.37-7.27,1.8-1.43,3.71-1.37,5.71-.51-1.36,1.45-.42,4.25-2.94,5.03-1.54,2.38-3.87,4.04-5.97,6.12,1.49.61,2.42-.54,3.58-.38.6.08,1.16.02,1.46.63.32.65-.38.86-.66,1.14-2.36,2.32-4.74,4.32-8.58,3.59-1.3-.24-2.91.75-4.37-.2-.49-1,.33-1.49.93-1.67,2.18-.68,3.29-2.58,4.08-3.3-1.68,1.41-4.07,3.59-7.58,3.59-.19-.29-.41-.68-.23-.93,1.94-2.73,3.73-5.56,5.82-8.18Z"/>
      <path class="cls-6" d="m54.73,18.69c.27.61.77.87,1.4.82,4.01-.28,6.71,2.28,9.55,4.46,1.72,1.32,1.68,3.26,1.32,5.29-3.08-.74-5.88-1.75-7.7-4.53-.16-.24-.63-1.26-1.32-.48-.42.48.03.87.41,1.23.88.85,1.49,2.2.44,2.86-.96.6-2.58.03-3.07-1.26-.75-2.02-3.44-2.91-3.11-5.58.05-.42-.49-1.44-1.47-1.4-.63-.19-1.52-.22-.8-1.26,1.44-.4,2.87-.98,4.34-.14Z"/>
      <path class="cls-11" d="m54.73,18.69c-1.5.43-3.04.56-4.59.48-.41.24-.78.2-1.13-.12-.3-.53-.27-1.05.06-1.56,2.91-1.16,5.88-2.1,9-2.49,3.73-.79,6.49-3.35,9.62-5.32-1.43,1.94-2.7,3.93-4.95,5.08-.74.38-1.96.56-2.13,1.77-1.96.72-3.91,1.44-5.87,2.15Z"/>
      <path class="cls-9" d="m21.73,34.1c-1.53-1.27-2.12-3.2-1.87-4.85.34-2.33-.31-4.35-.84-6.45-.34-1.35-.38-2.61.24-3.85.42-.86.36-1.73.32-2.66-.16-3.44,2.18-5.73,5.63-5.6,2.14,2.28,1.23,5.23,1.7,7.88-.22,1.4-1.95.65-2.51,1.82-.32.67-.66,1.3-.25,1.79,1.14,1.36,1.72,3.19,3.69,3.86,2.27.77,2.55,2.97.59,4.39-1.27.92-2.62,1.95-4.22,2.03-1.3.07-1.9.73-2.48,1.65Z"/>
      <path class="cls-5" d="m27.2,18.61c2.14-1.43,2.38-3.8,2.94-6,.14-.53.29-1.07.43-1.6-.05,3,.28,5.81,2.49,8.06.04.05.06.18.03.23-1.54,2.59.38,4.36,1.42,6.51-.77-.28-1.53-.55-2.3-.83-.17-2.46-1.97-.88-2.96-1.08-.84-.17-1.36.55-1.06-1.11.19-1.09-1.22-2.61-.99-4.19Z"/>
      <path class="cls-3" d="m37.1,11.87c.12,1.4-.62,2.34-1.13,3.32-.8,1.55-.22,2.28,1.3,2.64,1.64.39,3.26.33,4.88-.13.43-.12,1.09-.25,1.24.39.14.58-.43.74-.87.99-2.36,1.37-4.96.95-7.42.8-1.55-.1-1.54-2.09-2.12-3.3-.56-1.17.42-1.56,1.07-2.11.96-.83,1.93-1.65,3.05-2.6Z"/>
      <path class="cls-4" d="m39.19,24.57c.05.44-.09.82-.43,1.09-.44.34-.78.02-1.05-.26-1.02-1.05-2.05-2.09-3-3.21-.26-.31-.51-.92.31-1.1,1.16-.26,4.18,2.23,4.18,3.48Z"/>
      <path class="cls-2" d="m49.07,14.66c0-1.03.02-2.06.03-3.09,1.21-4.31,3.12-8.06,7.41-10.19,1.26-.63,1.55-.08,1.91.81.75,1.86.68,3.85-.09,5.54-1.34,2.93-3.27,5.55-6.03,7.34-1,.65-2.39,1.53-3.22-.41Z"/>
      <path class="cls-1" d="m18.81,53.3c-2.63,2.27-1.85-1.31-3.04-1.71-1.13.31-.47,1.12-.31,1.74.83,3.18,1.01,6.39.64,9.64-.26,2.28-1.66,3.59-3.67,4.4-.07-1.99-2.7-3.31-1.48-5.63-.59-2.77-.12-5.59-.11-8.55-1.48.62-1.33,2.09-2.26,2.8-.48.36-.83.81-1.47.59-.69-.24-.34-.88-.34-1.28.03-3.31.3-6.4,3.53-8.61,1.09-.75,1.53-2.59,3.23-2.95,1.06.36.81,1.29.52,1.84-1.06,2.02-.5,4.15-.55,5.22.19-2.18.34-5.42,2.82-7.89.33.07.77.19.82.49.56,3.3,1.29,6.57,1.67,9.9Z"/>
      <path class="cls-6" d="m16.15,38.07c-.62-.24-1.16-.07-1.57.41-2.64,3.03-6.36,3.13-9.91,3.61-2.15.29-3.49-1.12-4.68-2.8,2.7-1.65,5.39-2.92,8.65-2.24.28.06,1.34.44,1.27-.59-.04-.64-.63-.59-1.16-.58-1.23.02-2.61-.51-2.33-1.71.25-1.1,1.8-1.85,3.06-1.28,1.96.9,4.49-.38,6.14,1.75.26.33,1.37.67,2.03-.05.58-.31,1.22-.92,1.46.33-.73,1.3-1.33,2.72-2.97,3.17Z"/>
      <path class="cls-11" d="m16.15,38.07c.76-1.36,1.76-2.54,2.91-3.59.12-.46.41-.69.88-.71.59.17.94.55,1.06,1.15-1.23,2.88-2.67,5.64-4.61,8.12-2.08,3.2-2.22,6.95-3.04,10.57-.36-2.39-.87-4.69-.09-7.1.26-.8.99-1.78.26-2.76.88-1.89,1.75-3.78,2.63-5.67Z"/>
      <path class="cls-2" d="m23,36.91c.72.73,1.44,1.47,2.16,2.2,2.19,3.9,3.49,7.9,1.97,12.44-.45,1.33-1.04,1.16-1.92.78-1.85-.78-3.21-2.24-3.86-3.98-1.12-3.02-1.61-6.24-.92-9.45.25-1.17.61-2.77,2.57-1.99Z"/>
    </g>
  </g>
</svg>