<?xml version="1.0" encoding="UTF-8"?>
<svg id="Layer_2" data-name="Layer 2" xmlns="http://www.w3.org/2000/svg" viewBox="0 0 70.09 69.55">
  <defs>
    <style>
      .cls-1 {
        fill: #a38593;
      }

      .cls-2 {
        fill: #82374a;
      }

      .cls-3 {
        fill: #a98592;
      }

      .cls-4 {
        fill: #501d2b;
      }

      .cls-5 {
        fill: #a28394;
      }

      .cls-6 {
        fill: #a47387;
      }

      .cls-7 {
        fill: #a48593;
      }

      .cls-8 {
        fill: #a47f90;
      }

      .cls-9 {
        fill: #a98093;
      }

      .cls-10 {
        fill: #854960;
      }

      .cls-11 {
        fill: #844054;
      }

      .cls-12 {
        fill: #a48594;
      }

      .cls-13 {
        fill: #834f64;
      }

      .cls-14 {
        fill: #853b51;
      }

      .cls-15 {
        fill: #aa8392;
      }

      .cls-16 {
        fill: #a38693;
      }

      .cls-17 {
        fill: #85856b;
      }

      .cls-18 {
        fill: #591924;
      }

      .cls-19 {
        fill: #9d808d;
      }

      .cls-20 {
        fill: #5d1c2a;
      }

      .cls-21 {
        fill: #541922;
      }

      .cls-22 {
        fill: #88415b;
      }

      .cls-23 {
        fill: #863f52;
      }

      .cls-24 {
        fill: #432620;
      }

      .cls-25 {
        fill: #531d2c;
      }
    </style>
  </defs>
  <g id="Layer_1-2" data-name="Layer 1">
    <g>
      <path class="cls-11" d="m53.52,31.31c-.49.37-.98.74-1.48,1.1-2.75.58-4.98,2.3-7.51,3.38-.19.17-.41.2-.65.13-1.68-1.11-3.62-1.17-5.5-1.12-2.45.07-3.25,1.26-2.65,3.68.22.89.02,1.62-.51,2.32-1.76-.03.06,1.31-.63,1.69-.17.82-.57,1.42-1.45,1.58-1.34-.04-2.73-.14-3.75-1.05-1.52-1.36-2.88-1.02-4.48-.17-2.92,1.56-6.09,1.26-9.21.85-.89-.12-1.77-.48-2.23-1.39-.21-.8-.16-1.62-.02-2.42.1-.54.31-1.11,1.08-1.09,2.48.09,2.83-.34,2.44-3.01-.04-.25.05-.47.25-.65,2.73.06,4.45,2.09,6.56,3.36.54.42.93.93,1.06,1.61,3.49-1.72,4.33-6.6,1.86-10.86-.72-3.19-3.74-4.24-5.76-6.22,1.65-2.04,2.84-1.9,5.59.68,1.56,2.89,3.56,5.13,7.1,5.6,1.7.22,2.71-.23,3.31-1.8,1.15-2.99,1.7-6.06,1.56-9.27-.03-.69-.11-1.71.82-1.83.74-.09.91.85,1.18,1.43,1.16,2.49,1.14,5.17,1.11,7.82-.03,2.52.04,2.58,2.44,1.67,2.25-.86,3.23-2.99,4.74-4.58.57-.6.93-1.62,1.9-1.08,1.03.58.27,1.48-.03,2.18-.59,1.37-1.7,2.46-2.18,3.9-.22.67-.96,1.27-.19,2.01.61.58,1.48.69,2.11.39,2.21-1.08,4.76-1.48,6.63-3.26.67-.63,1.44-1.96,2.38-.95.76.82-.32,1.79-.97,2.52-.33.37-.78.62-1.09,1.01-1.22.7-2.38,1.54-3.81,1.81Z"/>
      <path class="cls-17" d="m43.96,35.66c.19.04.38.09.58.13.46,1.36-.07,3.52,2.54,3.12-2.22,1.09-4.78,1.66-6.11,4.12-.46.86-1.05.4-1.57-.1-1.02-.99-1.14-2.31-1.4-3.59-.16-2.96,2.37-4.52,5.96-3.68Z"/>
      <path class="cls-5" d="m57.03,29.32c.43-1.23,2.09-1.68,2.09-3.83-1.55,2.01-3.1,3.41-5.13,3.89-2.02.47-3.67,2.63-6.2,1.08-1.44-.88-.79-1.5-.31-2.35.97-1.68,1.96-3.35,2.89-5.05.16-.3.51-.69-.26-1.45-.63,1.84-2.14,2.89-3.11,4.34-1.19,1.78-3.06,2.21-4.79,2.78-1.23.4-1.63-.49-1.44-1.81.49-3.45.34-6.86-1.58-10.03.12,3.79-.15,7.48-1.82,10.96-1.06,2.22-1.64,2.39-3.92,2.08-3.82-.53-5.97-2.82-7.4-6.11-.52-1.03-1.34-1.99-.75-3.27,1.31-1,2.09.29,3.03.75,1.88.92,3.33,2.78,5.7,2.63.21-.12.85.66.66-.22-.56-2.54-1.09-5.1-2.2-7.48-1.02-1.81-3.2-3.02-2.85-5.53.37-.17.72-.1,1.05.09,1.57-.85,1.58-2.62,2.29-3.97.69-1.31,1.17-2.76,1.99-3.97.69-1.02,1.72-1.87,3.15-1.01,1.13.46,2.28.9,2.91,2.06.8,1.01.73,2.78,2.52,2.93-.11,4.44,1.36,8.75,1.16,13.22.18-.53.43-1.05,1-1.31,1.07.11.7,1.16,1.34,1.8.39-2.42.92-4.8,2.72-6.6.02-.02.49-.1.06-.16-.26-.03-.59.24-.93.23-1.11-.6-.61-1.46-.22-2.12,1.07-1.79.62-3.32-.59-4.8-.82-.99-1.3-2.11-1.28-3.43.21-.25-.06-.31-.07-.25-.2.92-.63,1.55-1.7.93.44-.88.85-1.77,1.33-2.63.44-.79.87-1.85,1.9-1.7,1.03.15,1.39,1.33,1.7,2.18,1.16,3.26,1.69,3.49,4.57,1.62.55-.36,1.02-.85,1.59-1.17,1.35-.76,3.05-.33,3.19,1.01.22,2.21,1.47,2.94,3.37,3.15.61.07.84.45.79,1.03-3.92,1.8-4.4,5.36-4.67,8.96,2.89-1.64,3.18-4.99,4.8-7.5.81-.1,1.68-.05,2.43-.32,3.1-1.12,3.07-1.15,3.78,1.98.71,3.09,0,5.98-1.49,8.61-2.43,4.29-5.47,8.03-10.31,9.83-.34.17-.68.23-.98-.09Z"/>
      <path class="cls-22" d="m45.04,4.34c.85.03,1.25-.66,1.92-1.28.4,1.97,1.48,3.47,2.57,4.97.82,1.12.7,2.23.09,3.43-.35.69-1.37,1.28-.59,2.29-.46,2.02-1.32,3.8-2.98,5.11-.57.96-1.14,1.92-2.13,3.58.69-4.32-.42-7.75-.87-11.25-.19-1.49-.01-2.95.51-4.37.5-.83.99-1.66,1.49-2.48Z"/>
      <path class="cls-10" d="m63.6,9.3c-.3,3.91-2.53,6.64-5.6,8.91.85-3.53-.03-7.65,3.79-10.16.65-.43,1.03-.73,1.67-.21.05.49.09.97.14,1.46Z"/>
      <path class="cls-5" d="m19.57,14.34c3.03,1.07,3.8.64,3.5-1.97-.63-4.35-.06-5.18,3.35-4.92,1.23.09,2.09.55,1.99,1.97-.05.16-.16.4-.25.38-3.24-.63-2.82,1.78-3.02,3.66-.03.36-.09.71-.18,1.06-.34.92-.1,1.99-.75,2.83-2.93-.07-5.65-.91-8.24-2.25.99-1.26,2.15-1.69,3.6-.76Z"/>
      <path class="cls-16" d="m28.09,9.83c.17-2.36-1.49-1.71-2.79-1.71-1.41,0-2.4.34-2.22,2.06.08.73,0,1.47,0,2.2-1-1.61-.47-3.36-.35-5.03.06-.86.54-1.95,1.48-2.1,1-.17,2.19-.03,2.9.94,1.16,1.56,2.89,2.68,3.57,4.61-.41.03-.82.07-1.23.1-.76.05-1.48.03-1.37-1.06Z"/>
      <path class="cls-16" d="m19.57,14.34c-1.19.18-2.38.36-3.57.54-.85.55-1.47.34-1.91-.55.06-.8.51-1.41,1.02-1.99.76.65,1.65,1.05,2.62.86,1.06-.21,1.44.42,1.84,1.14Z"/>
      <path class="cls-24" d="m43.96,35.66c-2.53.34-5.2.47-5.96,3.68-.75.84-.33,1.86-.43,2.79-.07.71.13,1.53-.93,1.67-1.79-.34-2.26-1.4-1.67-3.04-.09-.91.83-1.68-.33-2.84-.7-.7,0-2.8,1.85-3.31,2.65-.73,5.21-1.04,7.46,1.04Z"/>
      <path class="cls-14" d="m14.1,14.34c.58.38,1.18.7,1.91.55.66,1.27,1.82.24,2.7.57,1.76.67,3.56,1.24,5.34,1.85,1.1-.7,2.22-.86,2.86.48.6,1.26-.09,2.16-1.28,2.69.14,1.11.29,2.22.43,3.32-1.51-1-2.93-2.45-4.94-.99-2.07.51-2.72-1.98-4.54-2.13-.67.99.31,2.09-.14,3.09-.6.92-.14,1.7.28,2.52.44.86,1.15,1.81.27,2.74-.85.91-1.86.25-2.78,0-.39-.11-.75-.29-1.09-.49,3.17,1.87,6.11,4.38,10.24,3.52,1.02,0,1.74.54,1.34,1.51-.44,1.06-1.6,1.54-2.71,1.28-1.47-.34-2.96-.29-4.42-.51-1.48-.22.12.81-.44.9.34,1.01,1.35,1.65.24,3.16-1.51,2.04-1.25,2.31-3.07.85-1.08.62.47,2.01-.76,2.59-1.09.75-2.51-.5-3.54.6-1.85-1.05-3.85-.24-5.77-.45-.25-1.2,1.05-2.44-.12-3.61-.52-1.07-1.09-2.14-.83-3.4.49-1.07,1.04-2.3,2.23-2.5,2.77-.47,1.92-1.73.88-3.15-.69-1.19-1.01-2.46-.79-3.84.75-2.53,2.85-2.52,4.81-2.33,2.11.21,2.64-.5,2.59-2.54-.05-2.12-.77-4.49,1.12-6.3l-.02.02Z"/>
      <path class="cls-8" d="m10.12,42.33c.22-.52-.29-1.73,1.13-1.09.71.32,1.52.41,2.28.6,3.54,2.47,7.3,1.98,10.92.47,1.97-.82,3.59-1.81,5.3.29.86,1.06,2.43.27,3.41,1.13-.75,1.28-1.99,2.24-2.49,3.69-.71,1.37-1.02,2.91-1.9,4.21-.49.73-.99,1.28-1.9,1.35-.97-.28-1.41-.99-1.5-1.95,0-.75.64-1.35.45-2.43-4.56,2.54-9.48,1.74-14.3,1.81-1.19.02-2.59.2-3.07-1.44,1.88-2.8,5.07-2.57,7.65-3.36-1.98-.93-4.77-.64-5.98-3.29Z"/>
      <path class="cls-12" d="m16.1,23.84c-.15-.79-.37-1.58-.44-2.39-.05-.62-.31-1.46.28-1.83.63-.4,1.12.32,1.67.66,1.24.76,2.06,2.08,3.51,2.54.44,1.4,1.97.89,2.87,1.63,1.49,1.22,2.19,2.88,3.1,4.44.79,2.38.92,4.82.37,7.25-.46,2.03-1.89,2.94-3.87,2.68-2.15-1.19-4.31-2.39-6.46-3.58-.26-.86-1.42-.7-1.98-1.78,2.48.71,4.81-.19,7.02.93.45.23,1.75-.37,2.07-.93.44-.75-.47-1.02-1.15-1.14-3.07-1.6-5.11-4.2-6.84-7.09-.26-.43-.36-.91-.15-1.4Z"/>
      <path class="cls-1" d="m30.12,47.43c.39-1.74,1.44-2.95,3.05-3.69.69-.23.83-.82.98-1.42.93.85-.22,1.65-.04,2.49-.21,4.26-1.42,8.26-3.16,12.11-.25.55-.88.94-1.33,1.4-1.01.09-2.02.26-2.95-.35-.54-.83.04-1.42.44-2.04,1.73-2.57,2.88-5.36,3.02-8.5Z"/>
      <path class="cls-9" d="m22.6,38.89c2.15-.33,3.34-1.61,3.46-3.75.11-2.06.04-4.12.05-6.19,1.9,1.78,2.08,8.69.36,10.47-1.61,1.66-2.28,1.6-3.86-.54Z"/>
      <path class="cls-2" d="m27.52,56.24c-.29.52-.58,1.03-.86,1.55.43,1.8-1.04,2.64-1.91,3.79-1.04-.11-1.13.93-1.68,1.42-2.7,2.66-6.14,3.83-9.7,4.71-1.31.32-2.64.29-3.73-.73-.38-1.06.62-1.2,1.13-1.62,2.51-2.06,5.51-3.39,8.25-5.52-3.59-.23-7.04.46-10.41-.34-.95-.23-1.21.45-1.63,1.14-1.07,1.78-1.79,3.74-2.82,5.53-1.34-1.17-1.73-3.07-.36-4.95,1.41-1.94.77-2.71-.92-3.82-3.23-2.13-3.51-4.13-.95-6.87,1.06-1.13.63-1.75-.11-2.63-.88-1.05-2.18-1.92-1.74-3.61,0,0,.07.04.07.04.16-.17.36-.24.6-.22,1.3.13,2.33-.78,3.59-.89,3.15-.26,4.23.9,3.25,3.85-.41,1.24-.12,1.64,1.04,1.74.26.74.83.99,1.56.97,3.97-.09,7.98.58,11.9-.44,1.61-.42,3.13-1.18,4.84-1.85.03,1.49-.6,2.67-1.4,3.79-.28,1.06-1.35,1.31-2.02,1.98-.29.29-.97.55-.46,1.09.26.28.77-.03,1.16-.07,1.64-.26,3.26-.47,3.3,1.96Z"/>
      <path class="cls-18" d="m4.16,66.17c-.26-2.9,2.25-4.68,2.96-7.2.05-.17.94-.25,1.38-.15,3.89.9,7.8.25,12.34.17-3.66,3.28-7.62,5.26-11.23,7.74-.18.42-.38.8-.92.4-1.31-1.27-3.15-.05-4.54-.96Z"/>
      <path class="cls-19" d="m8.69,67.13c.31-.13.61-.27.92-.4,4.73,1.39,8.38-1.14,12.12-3.35.49-.29.92-.68,1.37-1.02.69.7,1.08,1.46.49,2.42-3.15,2.41-6.59,4.26-10.57,4.73-1.84.22-3.61-.26-4.33-2.37Z"/>
      <path class="cls-19" d="m24.59,61.27c.63-1.2,1.71-2.13,2.07-3.49.98.17,2.1-.41,2.95.53-.72.96-.8,2.36-2.02,2.98-.65-.06-1.06.22-1.55.69-.78.75-1.43.5-1.45-.71Z"/>
      <path class="cls-1" d="m24.59,61.27c.46.93,1.01,1.08,1.46.05.54-1.23,1.02-.47,1.54-.03-.96,1.59-2.64,2.35-4,3.48-.16-.81-.33-1.61-.49-2.42.14-.86.56-1.32,1.49-1.08Z"/>
      <path class="cls-23" d="m24.63,20.56c.48-.79,1.39-1.49.83-2.57-.54-1.02-1.6-.42-2.41-.61.3-.99-.33-2.14.52-3.03.35.19.49.61.93.88.24-.89.33-1.62-.82-1.85.03-.65.02-1.3.11-1.94.38-2.67.67-2.8,3.3-1.54.26.61.9.72,1.37,1.06,1.2,1.66,2.4,3.32,3.6,4.97-.57,2.34-.51,4.61.75,6.75.29.5.54,1.04.3,1.65-2.12.81-3.39-.96-4.96-1.71-1.22-.58-2.11-1.76-3.52-2.06Z"/>
      <path class="cls-25" d="m34.11,24.26c-1.35-1.9-2.33-3.91-2.04-6.35.1-.83.04-1.66.98-2.05,1.47,3.02,1.69,6.4,2.98,9.66-1.2.2-1.38-.81-1.93-1.25Z"/>
      <path class="cls-4" d="m46.04,18.87c.8-1.82,1.67-3.59,2.98-5.11.8-.68,1.75-.65,2.82-.6-3.92,1.71-3.47,5.73-4.75,9.01-1.05-1.09-1.13-2.17-1.05-3.3Z"/>
      <path class="cls-7" d="m6.11,25.84c-.57-2.77,1.28-4.53,4.76-4.5.98,0,2.08.61,2.21-1.24.23-3.41.12-3.94-1.8-4.3.95-.49,1.69-1.38,2.83-1.48-.69,2.42-.63,4.9-.45,7.36.12,1.7-.09,2.71-2.18,2.18-.86-.22-1.81-.06-2.72-.07-1.43-.02-2.36.61-2.66,2.06Z"/>
      <path class="cls-21" d="m8.64,48.81c-.63.16-.85,1.47-1.78.71-.7-.57-.45-1.29-.12-2.01.5-1.07,1.65-2.31.36-3.3-1.21-.93-2.79-.39-4.24-.08-.72.16-1.44,1.67-2.27.14.45-1.88,1.56-2.81,3.55-2.48,2.05-.49,4.16-1.52,5.98.53,2.41,2,5.38,2.61,8.4,3.5-3.55.35-6.87,1.21-9.89,2.98Z"/>
      <path class="cls-20" d="m16.1,23.84c1.6,3.44,4.53,5.78,6.99,8.5-.15.47-1.62,1-2.31.77-2.99-.99-5.71-2.53-8.41-4.12-.42-.25-.78-.77-.54-1.25.3-.6.81-.34,1.22,0,.19.16.35.41.56.47,1.01.25,2.15,1.35,2.98.62,1.05-.93-.29-1.95-.72-2.81-.46-.9-1.05-1.56.23-2.18Z"/>
      <path class="cls-15" d="m4.14,41.8c-1.54.32-2.65,1.25-3.55,2.48-.14.02-.28.04-.43.05.35-2.27,1.17-4.22,3.57-5,.55-.18.82-.47.87-1.01,1.12,1.33,1.3,2.53-.46,3.48Z"/>
      <path class="cls-3" d="m3.71,34.9c-.44-2.18.78-3.49,2.43-4.51.42-.26.89-.36.88-.96.86.26.66,1.22,1.15,1.77.68.77.4,1.4-.71,1.37-1.77-.04-2.8,1.07-3.75,2.33Z"/>
      <path class="cls-13" d="m26.53,56.3c-.75-1.48-2.07-1.62-3.5-1.51.31-1.75,2.09-1.2,3.04-1.94,1.76-1.36,2.34-3.4,3.06-5.36,1.04,1.86-.1,3.51-.61,5.16-.4,1.31-.92,2.65-1.99,3.65Z"/>
      <path class="cls-6" d="m27.06,52.78c-.39,1.63-2.39.72-3.04,1.94-.71.43-1.64,1.07-2.18.24-.47-.71.32-1.53,1-2.01.86-.61,1.81-1.12,2.71-1.67.5.5,1.01,1,1.51,1.5Z"/>
    </g>
  </g>
</svg>