<?xml version="1.0" encoding="UTF-8"?>
<svg id="Layer_2" data-name="Layer 2" xmlns="http://www.w3.org/2000/svg" viewBox="0 0 44.23 65.16">
  <defs>
    <style>
      .cls-1 {
        fill: #57622e;
      }

      .cls-2 {
        fill: #626940;
      }

      .cls-3 {
        fill: #2f2d19;
      }

      .cls-4 {
        fill: #302c19;
      }

      .cls-5 {
        fill: #9b9f86;
      }

      .cls-6 {
        fill: #929682;
      }

      .cls-7 {
        fill: #bab8ac;
      }

      .cls-8 {
        fill: #525b2c;
      }

      .cls-9 {
        fill: #535a2c;
      }

      .cls-10 {
        fill: #9b9f88;
      }

      .cls-11 {
        fill: #82816e;
      }

      .cls-12 {
        fill: #5d6334;
      }
    </style>
  </defs>
  <g id="Layer_1-2" data-name="Layer 1">
    <g>
      <path class="cls-8" d="m17.55,54.45c-.09.94.29,1.94-.32,2.82-.23-.23-.26-.78-.7,0-1.13,2.05-1.72,4.29-2.41,6.48-.58,1.82-1.28,1.66-2.57.66-3.41-2.63-3.54-6.49-3.96-10.23-.37-3.34.92-6.54,1.02-9.84.67-.83-.6-1.54-.14-2.36,1.39-1.84,2.01-.48,2.6.67,1.83,3.54,2.53,7.36,2.62,11.31,0,.33-.04.66.12,1.27,2.22-6.96.89-13.16-2.57-19.08.44-1.78,1.59-1.34,2.68-.79,1.52.77,2.51,2.14,3.54,3.44.4.51.56.35.77-.09.39-.55.62-1.2,1.1-1.67.5-.5,1-.54,1.45.09,1.08,1.52.33,4.85-1.3,5.82-.94.23-1.79-.01-2.94-.8,2.01,4.23,3.23,8.16,1.03,12.29Z"/>
      <path class="cls-12" d="m2.7,35.38c.75-.71.27-2.07,1.35-2.61.51.07,1.03.22,1.43-.28,2.57-.43,3.71-2.81,5.63-4.13.27-.62.82-.92,1.41-.81,2.47.44,4.93.97,7.19.03-1.03-.26-2.19.71-3.49.55-1.3-.16-1.62-.61-1.12-1.76,2.54-.74,4.31-2.61,6.23-4.27,2.96-2.56,6.25-3.55,10.03-2.04.69.28,1.86.1,1.88,1.19.02.81-.86,1.13-1.5,1.49-.28.16-.55.33-.83.49-4.85,3.33-9.19,7.79-15.84,7.17-.24-.02-.47.14-.68.28-.44.33-.89.2-1.38.12-2.45-.42-3.09.12-3.24,2.67-.71,1.26-2.11,2.17-1.81,3.93.1.59-.21,1.21-.85,1.37-.93.23-1-.65-1.29-1.19-.23-.43-.17-.99-.72-1.48-.42.82-.06,1.67-.28,2.42-.52,1.76-1.5,1.88-2.81.78.23-1.31.46-2.62.68-3.94Z"/>
      <path class="cls-9" d="m2.01,39.32c1.04.17,2.09.39,2.53-.98,1.76.45,1.11,1.92,1.1,2.96-.02,2.11-.63,4.19-.36,6.33-.13.58-.45,1.07-.89,1.44-.95.78-1.96,1.75-3.26,1.25-1.29-.5-.74-1.85-.77-2.84-.03-1.05-.2-2.13.15-3.17.06-1.8.9-3.36,1.5-5Z"/>
      <path class="cls-6" d="m.51,44.31c.02,1.33.08,2.66.04,3.98-.06,1.99.82,2.07,2.27,1.24.95-.55,1.79-1.19,2.21-2.26.4-1.61,1.51-2.89,2.04-4.45.18-.53.71-.96,1.38-.43.3.63.91,1.24.15,1.95-.85-1.37-.9-.15-.96.35-.24,1.93-.95,3.68-2.18,5.13-.96,1.13-2.18,2.11-3.86,1.57-1.77-.57-1.59-2.12-1.53-3.49.06-1.2-.41-2.48.44-3.59Z"/>
      <path class="cls-5" d="m9.62,22.46c-.63-1.49-1.33-2.97-1.14-4.67,1.32-6.16,5.14-10.14,10.83-12.54.75-.31,1.67-.15,2.26-.86,0,0,0,0,0,0,.8-.87,2-.59,2.94-1.04.83-1.16,1.95-2.02,3.06-2.88,2.83-1.09,4.12-.32,4.22,2.49.02.64-.19,1.32.25,1.92.4,3.6-1.07,6.29-3.76,8.62-2.1,1.82-3.14,4.63-5.45,6.35-1,.75-1.87,1.67-3.27,1.49.69-1.38.9-2.82,1.03-4.39.22-2.65,1.35-5.09,2.9-7.05-.85.61-1.19,1.82-1.82,2.83-1.64,2.63-4.56,3.11-7.09,4.24-.53.23-1.13.3-1.66.52-.95.4-2.39.45-2.34,1.84.05,1.35,1.4,1.74,2.46,2.16.87.35,1.8.21,2.71.05.8-.13,1.65-.42,2.33.34-1.95,1.43-4.14,1.16-6.3.78-.72-.13-1.41-.34-2.15-.21Z"/>
      <path class="cls-10" d="m14.1,30.27c.04-.61.29-.89.96-.67,3.43,1.14,6.32-.4,8.88-2.26,2.22-1.6,4.65-2.73,6.97-4.09.47.65,1.16,1.05,1.9,1.04,3.57-.03,6.28,2.13,9.26,3.59,1.03.5,2.2,1.33,2.17,2.49-.02.98-1.47,1.43-2.28,1.64-5.71,1.43-11.4,3.75-17.41,1.34-.11-.13-.16-.27-.14-.42.02-.15.05-.22.08-.23,1.52-3.12,4.87-2.88,7.04-3.79-3.41.94-7.51.79-11.32,2.08-.96.58-2.09.64-3.1,1.06-1.06-.01-1.78-.74-2.62-1.24-.14-.16-.27-.34-.38-.53Z"/>
      <path class="cls-7" d="m24.53,32.9c0,.15.02.3.02.44-1.96-.21-2.21.66-1.17,2.06,1.5,2.02,3.59,2.76,6.07,2.4-.71,2.51-1.86,2.82-4.31,1.16,2.18,2.36,2.14,5.76-.09,6.94-3.67-.76-5.8,1.09-5.15,4.81.3,1.74-1.01,2.83-2.34,3.74.91-4.64.54-9.1-2.37-13.24,1.72-.12,2.3,1.78,3.76,1.18,1.71.86,2.38-.21,2.39-1.58.01-1.75-.12-3.47-1.61-4.93-1.1-1.09-2.53-2.14-2.76-3.93.64-1.37,1.94-.88,3-1.06,1.58.52,3.34.64,4.56,2.01Z"/>
      <path class="cls-1" d="m18.07,21.88c-.73.1-1.47.18-2.19.32-1.78.34-3.42.27-4.91-1-.62-.53-1.51-.75-1.39-1.81.12-1.14.91-1.66,1.88-2.07,1.51-.65,3.11-1.15,4.65-1.6,3.44-1.01,5.41-3.35,7.06-6.24.29-.5.37-1.34,1.28-1.36.77.79.05,1.43-.32,1.93-2,2.72-3.37,5.62-2.93,9.1.17,1.34-1.1,1.47-1.66,2.19-.5.18-.99.36-1.49.54Z"/>
      <path class="cls-11" d="m15.09,26.38c.13,1.2.79,1.67,1.97,1.44,1.11-.22,2.2-.71,3.66-.23-2.89.76-5.54,1.15-8.24.42-.58-.15-.93.2-1.38.36-.17-.33-.34-.67-.51-1,1.49-.39,2.81-1.5,4.5-.98Z"/>
      <path class="cls-4" d="m8.46,42.4c-.86-.05-1.19.63-1.26,1.23-.18,1.57-1.11,2.63-2.16,3.65-1.36-1.45-.12-3.01-.14-4.51-.02-1.5.54-3-.35-4.43-.07-.48-.08-.98-.24-1.43-.32-.92-.25-1.76.82-1.92,1.19-.18.82.93,1,1.57.19.66.44,1.31.99,2.03.08-2.19.2-4.27,2.42-5.3.49-.83,1.11-.61,1.76-.22,1.73.78.09,1.85.24,2.77,4.31,6.08,4.89,12.73,3,19.75-.18.67-.67,1.03-1.27.88-.71-.18-.27-.79-.25-1.25.24-4.47-.81-8.67-2.62-12.73-.69-1.55-1.27-.64-1.94-.08Z"/>
      <path class="cls-12" d="m16.97,31.95c1.94,2.22,4.2,4.23,4.9,7.28.56,2.46-.38,3.94-2.35,3.82-.43-.03-.52-.32-.58-.66,1.07,0,1.73-.38,1.62-1.6-.11-1.2-.16-2.41-.25-3.83-1.2.54-.79,2.38-2.24,2.38-.74-.87-1.5-1.74-1.73-2.91.41-1.15-.02-2-.76-2.91-.68-.83-1.73-1.67-1.03-3.03.96.23,1.67.89,2.42,1.47Z"/>
      <path class="cls-3" d="m16.59,36.33c.44,1.03,1.73,1.63,1.49,3,.11.36.21.72.45,1.54-1.82-1.89-2.97-3.76-4.85-4.94-.8-.51-1.38-.83-2.13-.09-1.06-.67,1.16-1.98-.49-2.54-.49-1.26.39-1.45,1.1-1.04,1.74,1.03,3.79,1.83,4.44,4.08Z"/>
      <path class="cls-8" d="m16.59,36.33c-1.4-1.14-2.8-2.27-4.19-3.41-.64-.53-1.17-.74-1.34.37-.5-.31-1-.25-1.51,0-.2-.71-.91-1.77-.34-2.06,1.11-.57,2.04-2.11,3.67-1.19.36.21.69.86,1.23.23.15.07.3.14.45.21.27,1.34.99,2.49,2.01,3.28,1.26.98.88,1.72.02,2.58Z"/>
      <path class="cls-2" d="m24.53,32.9c-1.6-.48-3.42-.48-4.56-2.01-.2-.67-.12-1.16.76-1.03,2.97.44,5.67-1.8,8.77-.78.69.23,1.73-.79,2.66-1.09.55-.17,1.46-.48,1.6.45.1.67-.67.82-1.26.88-1.98.19-3.78.94-5.63,1.63-1.11.41-.68,2.41-2.34,1.94Z"/>
    </g>
  </g>
</svg>