<?xml version="1.0" encoding="UTF-8"?>
<svg id="Layer_2" data-name="Layer 2" xmlns="http://www.w3.org/2000/svg" viewBox="0 0 36.6 79.17">
  <defs>
    <style>
      .cls-1 {
        fill: #896738;
      }

      .cls-2 {
        fill: #7c6b56;
      }

      .cls-3 {
        fill: #b2a16a;
      }

      .cls-4 {
        fill: #7f746c;
      }

      .cls-5 {
        fill: #c3bba6;
      }

      .cls-6 {
        fill: #837263;
      }

      .cls-7 {
        fill: #5e4230;
      }

      .cls-8 {
        fill: #b2a36e;
      }

      .cls-9 {
        fill: #7f7266;
      }

      .cls-10 {
        fill: #b2a372;
      }

      .cls-11 {
        fill: #867968;
      }

      .cls-12 {
        fill: #82756c;
      }

      .cls-13 {
        fill: #bda281;
      }

      .cls-14 {
        fill: #b0a06d;
      }
    </style>
  </defs>
  <g id="Layer_1-2" data-name="Layer 1">
    <g>
      <path class="cls-5" d="m25.05,30.66c1.15-.02.95-1.26,1.89-2.46.59,5.45,2.43,10.02,2.15,14.95-.02.8-.04,1.59-.06,2.39-.54.37-.41.98-.51,1.5-1.19-.96-2.7-1.29-4-2.03.15-2.04,1.88-3.6,1.52-5.89-.26-1.66-.56-3.31-.91-4.95-.25-1.13-.78-2.33-.07-3.51Z"/>
      <path class="cls-2" d="m25.05,30.66c.38,2.67,1.37,5.2,1.66,7.92.28,2.56-.61,4.54-2,6.46.15.46-.09.59-.49.6-.32-.13-.24-1.37-1-.36-.06.08-.3-.02-.45-.1-.15-.2-.15-.39,0-.58,2.03-2.32,2.53-4.94,1.89-7.96-.39-1.84-.26-3.78-.86-5.61.14-.47-.17-1.07.4-1.43.28.35.56.7.84,1.05Z"/>
      <path class="cls-1" d="m22.86,45.11c.4.3,1.51-1.65,1.34.43.35,2.76.79,5.46,3.99,6.49.64.21.56.89.63,1.44.08.66-.13,1.27-.2,1.91q-.35,3.19-3.08,1.86c-.57-.28-1.24-.7-1.81-.28-.69.51-.26,1.34-.23,2.04.05.96.45,1.89,1.48,1.9,2.05.03,3.92.24,5.55,1.76,1.06.99,1.82-1.22,3.01-.61.59,1.16.4,2.33.08,3.51-.36,1.32-1.06,1.93-2.46,1.43-.99-.35-2.1-.82-2.63.6-.56,1.49-.09,3.11,1.32,3.41,2.97.63,3.49,3.28,4.96,5.15.53.67.76,1.55.08,2.19-.77.72-1.75.13-2.06-.48-2.1-4.21-6.35-5.34-10.05-7.28-.59-.31-.98-.82-1.39-1.31-2.74-.61-5.41-1.43-7.75-3.06-.64-2.28.88-1.46,1.92-1.35.8.3,1.61.61,2.41.91l.43-.37c-2.55-1.59-2.74-5.02-5.67-6.35-1.43-.65-2.04-2.14-2.99-3.29-.31-.74-.66-1.49.61-1.63.63.52,1.27,1.03,1.9,1.55.54.4,1.24.67,1.74.31.36-.27-.1-.86-.39-1.23-1.09-2.18-1.92-4.52-3.9-6.13-.11-.35-.62-.59-.43-.99.26-.55.73-.39,1.18-.19.39.18.82.53,1.15-.1-.32-.36-.58-.73-.51-1.25-1.32-1.41-.55-3.38-1.33-4.94l-1.07-1.8c-.11-.3-.29-.54-.55-.74-.54-.43-1.39-.88-1.22-1.57.26-1.03,1.38-.12,2.04-.53-.24-.83-.63-1.62-.46-2.51-.94-1.32-1.25-2.67-.47-4.21.85-1.69-.81-.02-.83-.59-.13-.17-.26-.35-.39-.52-.42-1.02-1.01-1.85.41-2.84.99-.68.25-2.24.33-3.4.08-1.11.36-1.56,1.41-.78.73,1.73,1.75,3.01,3.58,3.91,2.08,1.02,3.23,3.08,3.58,5.45.1.68.49,1.54-.3,1.95-.62.32-1.2-.23-1.66-.71-.27-.28-.5-.65-1.16-.59-.44,1.72-1.2,3.61.57,5,1.68,1.33,2.69-.52,3.9-1.26.31-.37.62-.74.93-1.1,1.32-.44,1.28.48,1.25,1.3-.06,2.06-.37,4.14,1.19,5.91.53.6.07,1.19-.54,1.57-.55.34-1.1.73-1.11,1.45-.02,1.05.08,2.32,1,2.78,1.07.53,1.29-.84,1.8-1.47.25-.31.46-.65.87-.78Z"/>
      <path class="cls-8" d="m21.38,69.28c2.33,1.09,4.57,2.42,7,3.21,2.39.78,3.02,2.91,4.4,4.49.46.52.96,1.74,1.81,1.04.75-.61.05-1.44-.63-1.97-.66-.52-1.11-1.27-1.19-2.03-.13-1.33-.89-1.66-2.03-1.89-2.3-.46-3.41-2.19-3.04-4.34.33-1.96,1.65-2.55,3.06-1.61,2.15,1.42,2.14,0,2.47-1.4.2-.89.18-1.75.09-2.63-.16-.2-.13-.38.08-.53,1.92,2.17,2.93,4.65,2.17,7.54-.52,1.97-.95,3.83.4,5.64.18.24.35.62.3.89-.22,1.02,1.12,2.4-.31,3.03-1.38.61-3.1.77-4.2-.6-1.23-1.55-2.95-1.94-4.59-2.71-2.62-1.24-5.1-2.91-5.77-6.12Z"/>
      <path class="cls-3" d="m33.38,61.62c-.03.18-.05.35-.08.53-1.37,1.49-2.68,2.36-4.28.16-.87-1.19-2.32-.92-3.58-.68-1.17.23-1.93-.21-2.23-1.26-.39-1.36-.95-2.87-.19-4.13.32-.54,1.67-.15,2.44.22.76.37,1.41.98,2.3,1.63.52-1.65.12-3.33.7-4.84.2-.52-.38-.71-.85-.93-3.31-1.61-3.99-3.01-3.41-6.78.17-.16.34-.33.51-.49,1.59.06,3.42-.36,3.81,1.99.02.15.02.29,0,.44.1,1.31.18,2.61.53,3.88-.07,1.74.44,3.25,1.61,4.59.74.84,1.15,1.89,1.29,3.03.13,1.05.49,2.01,1.43,2.64Z"/>
      <path class="cls-6" d="m8.77,21.86c-.47-.13-.94-.32-.97.5-.04,1.37,0,2.71.86,4.23-2.24-.49-2.08.8-1.88,2.12-1.95-2.17-2.45-4.92-3.09-7.62-.56-2.31-1.12-4.63-1.68-6.94,1.63,0,1.54,1.38,1.86,2.37.74,2.27,1.36,4.58,2.1,6.85.18.55.28,1.28,1.06,1.46,1.17-4.55-.33-8.82-1.32-13.11-.71-3.05-1.26-6.12-1.75-9.2-.12-.74-.32-1.57.5-2.52.37,1.1.78,2,.97,2.94.99,4.94,2.16,9.84,3.89,14.58.45,1.23-.35,2.16-.5,3.24.17.38.24.75-.05,1.1Z"/>
      <path class="cls-11" d="m8.72,33.95c-.05.85.36,1.49.83,2.16.28.4.84.94.34,1.47-.5.52-1.01.05-1.46-.27-.33-.23-.64-.46-1.07-.29-.23,1.15,2.15.87,1.3,2.36C4.03,35.97.29,31.99,0,25.78c1.25,4.33,4.1,7.49,7.28,10.39,1.08-.5.43-1.57.95-2.16.14-.18.3-.2.48-.06Z"/>
      <path class="cls-12" d="m11.56,47.37c-.23.79-.74.64-1.31.43-1.24-.46-.45.52-.59.85-2.86-1.82-4.29-4.83-6.05-7.53-.65-1-1.6-2.04-1.42-4.05,1.82,1.69,2.75,3.59,3.91,5.25,1.46,2.11,2.93,4.13,5.46,5.05Z"/>
      <path class="cls-9" d="m15.54,64.88c-.88.11-2.09-.25-1.92,1.35-2.78-2.1-5.33-4.44-7.62-7.1,3.62,1.22,6.06,4.35,9.54,5.75Z"/>
      <path class="cls-4" d="m10.32,54.16c-.66.37-.55,1.03-.61,1.63-2.4-2.37-3.73-5.32-4.66-8.52,1.63,2.42,3.83,4.37,5.27,6.89Z"/>
      <path class="cls-6" d="m8.72,33.95c-.16.02-.32.04-.48.06-1.15-.26-.75-1.22-.84-1.94-.11-.94-.15-1.89-.22-2.83.81-.36.68-1.62,1.9-1.85.2,2.26-2.16,4.36-.36,6.57Z"/>
      <path class="cls-13" d="m13.57,54.78c.26.16.61.26.77.5.32.46,1.34.69.83,1.43-.55.79-1.26.17-1.85-.17-.39-.23-.73-.55-1.09-.83.63-.04,1.32,0,1.34-.93Z"/>
      <path class="cls-12" d="m9.73,41.19c1.23,1.43.57,3.38,1.33,4.94-1.61-1.33-1.39-3.16-1.33-4.94Z"/>
      <path class="cls-5" d="m29.05,51.36c-.42-1.26-1.31-2.46-.53-3.88.83,1.21.5,2.57.53,3.88Z"/>
      <path class="cls-14" d="m8.77,21.86c.02-.37.03-.73.05-1.1,1.7,1.11,2.52,3.51,5.03,3.44.7,1.99,2.4,3.56,2.54,5.78.08,1.26.04,2.54-.05,3.81-.07.92.02,1.6,1.13,1.67-.14,2.11-2.2,2.69-3.32,2.52-.91-.14-2.89-1.3-2.19-3.52.38-1.2-.45-3.01.81-3.7,1.57-.86,1.41,1.94,2.85,1.89.33-2.41-1.45-6.09-3.82-6.82-2.17-.67-2.84-2.01-3.04-3.95Z"/>
      <path class="cls-10" d="m22.86,45.11c-.07.23-.1.49-.23.68-.65,1-.57,2.69-2.38,2.59-1.94-.11-1.19-1.97-1.71-2.95-.53-1-.24-2.42,1.4-2.73.58-.11.97-.42.45-.94-2.01-1.96-1.49-4.33-1.19-6.69.07-.54-.42-.6-.79-.72.6-.54.72-2.13,1.91-.04,1.39,2.44,1.96,4.66,1.56,7.36-.14.94-.39,2.27.91,2.93.02.17.05.33.07.5Z"/>
      <path class="cls-7" d="m20.17,53.07c-1.25-.2-2.12-.74-2.53-1.49-.52-.97-.74-1.34-1.89-.63-.79.49-1.34-.61-1.72-1.24-.53-.86-1.22-1.72-1.19-2.81.01-.31.55-.45.77-.22,1.03,1.09,2.35.73,3.59.82.49.04,1.18.16,1.07.69-.4,1.93,1.33,3.04,1.89,4.88Z"/>
    </g>
  </g>
</svg>