<?xml version="1.0" encoding="UTF-8"?>
<svg id="Layer_2" data-name="Layer 2" xmlns="http://www.w3.org/2000/svg" viewBox="0 0 62.4 110.6">
  <defs>
    <style>
      .cls-1 {
        fill: #989d85;
      }

      .cls-2 {
        fill: #676d4b;
      }

      .cls-3 {
        fill: #61594d;
      }

      .cls-4 {
        fill: #5d6734;
      }

      .cls-5 {
        fill: #b9b7b1;
      }

      .cls-6 {
        fill: #413936;
      }

      .cls-7 {
        fill: #cacbc9;
      }

      .cls-8 {
        fill: #69713e;
      }

      .cls-9 {
        fill: #6b715c;
      }

      .cls-10 {
        fill: #856035;
      }

      .cls-11 {
        fill: #b2b5b6;
      }

      .cls-12 {
        fill: #94997b;
      }

      .cls-13 {
        fill: #a4aaaa;
      }

      .cls-14 {
        fill: #999d83;
      }

      .cls-15 {
        fill: #656f36;
      }

      .cls-16 {
        fill: #b3b3b4;
      }

      .cls-17 {
        fill: #7d8791;
      }

      .cls-18 {
        fill: #85898b;
      }

      .cls-19 {
        fill: #7d7f6d;
      }

      .cls-20 {
        fill: #616b34;
      }

      .cls-21 {
        fill: #afb1b2;
      }
    </style>
  </defs>
  <g id="Layer_1-2" data-name="Layer 1">
    <g>
      <path class="cls-10" d="m46.32,9.59c3.13,2.66,3.54,6.01,1.21,9.78-.11,2.04-1.74,2.15-3.18,2.5-1.36.22-2.53-.21-3.57-1.05-.85-1.1-2.43-1.26-3.19-2.48-.05-.17-.1-.35-.15-.52-.62-.58-.79-1.37-1-2.14-.07-.32-.09-.64-.13-.96-.05-.39,0-.96-.44-1.03-.39-.06-.57.51-.86.79-.64.35-1.08.96-1.74,1.28-.25.21-.49.42-.74.63-.44-.34-.88-.39-1.36-.05-.29.21-.64.21-.89-.09-.33-.39-.19-.83.11-1.12,2.65-2.5,2.63-5.38,1.69-8.68-.64-2.25,3.49-6.84,5.69-6.44,1.58.29,2.87,1.56,4.09,2.68.87.8,1.7,1.48,3.02,1.48,1.44,0,1.8.67.74,1.84-1.33,1.47-1.43,2.75.7,3.56Z"/>
      <path class="cls-17" d="m13.33,67.43c.97.65,1.94,1.3,2.91,1.94,2.03,1.25,2.34,3.02.98,5.04-.53.79-1.87,1.29-1.1,2.64,1.17.91,2.47,1.64,3.52,2.71,1.72,1.77,3.95,2.4,6.29,2.72,1.71.23,2.25.91,1.63,2.69-.73,2.1-1.27,4.31-.88,6.6.12.34.19.68.12,1.04-.82,1.3-1.93.18-2.88.36-1.09.02-2.13-.14-3.01-.84-.77-.96.07-2.94-1.97-3.08-.66-.18-1.09-.74-2.16-1.27.27,3.75,1.63,7.37-.32,10.74-.83.48-.92.53-1.32-.18-.68-1.21-1.23-1.41-2.43-.43-1.58,1.28-3.08.52-3.56-1.57-.43-1.84.2-3.57.55-5.33.23-1.2.35-2.46,1.64-2.92-1.69.01-3.58.2-5.25-1-2.54-1.82-2.55-3.69.12-5.35.97-.6,2.05-1.03,3-1.69.85-.22.93.46,1.09.99.24.8.67,1.32,1.59,1.18.33-.05.66-.19.78-.53.32-.92-.51-1.28-.92-1.84-.5-.68-1.24-.72-1.98-.82-2.42-3.11-1.92-6.78-1.32-10.15.41-2.35,2.9-2.14,4.92-1.65Z"/>
      <path class="cls-11" d="m9.7,80.33c-.84,1.96-3.35,1.6-4.52,3.37-.72,1.09-.63,1.47.16,2.16,1.18,1.04,2.34,2.03,4.13,1.74.67-.11,1.41.22,2.24.37-.74,1.18-1.39,2.21-2.04,3.24-.23-1.17-1-1.01-1.88-.83-3.11.64-5.86.15-7.8-2.67.59-1.33.96-2.73,1.57-4.07.75-1.63,1.87-2.69,3.38-3.44,2.41-1.19,2.79-2.16,1.72-4.68-1.01-2.36.67-7.39,2.83-8.46,1.35-.67,2.67-.91,3.84.36-.08.03-.16.06-.24.07-4.83.46-4.76.71-4.23,5.62.22,2.09.25,4.11,1.15,6.04.43.54.23.9-.32,1.17Z"/>
      <path class="cls-9" d="m19.05,89.04c2.08-.18,2.26.1,1.94,3.1.78,2.14.11,4.37.44,6.56.44,2.91.9,5.82,1.36,8.73-.76,1.18-1.42.51-2.09-.1-.09.01-.17.04-.25.08-.39-2.71-.77-5.42-1.16-8.12-1.07-2.96-.95-6.04-.98-9.11,0-.51.13-1,.73-1.15Z"/>
      <path class="cls-13" d="m19.05,89.04c-.59,3.44.28,6.83.25,10.26-.72-1.36-1.95-.16-2.86-.57-.71-1.01.2-1.96.37-2.79.63-2.98-1.47-5.82-.06-9.02l2.3,2.12Z"/>
      <path class="cls-16" d="m15.54,77.53c-1.64-1.25-.14-1.98.52-2.76,1.85-2.17,1.91-2.85.18-5.39.85-.23,1.75-.36,2.54-.72,1.08-.48,2.84.66,3.21-.78.28-1.1.62-2.48.08-3.75-.06-.15.18-.43.28-.65.29-1.43.58-2.86,2.37-3.16,1.21.18,2.12,1.09,3.25,1.33-.31-.31-.7-.65-.38-1.23.39-.46.88-.47,1.4-.28,1.18.66,2.16,1.54,2.86,2.7.33.79-.21.98-.8,1.2-.85.31-1.79.34-2.91.93,1.45,1.59,2.94,3.15,2.83,5.47-.02.46.4.92.9,1.11,2.34.91,1.68,2.23.52,3.64-.15.18-.31.34-.49.49-.46.34-.91.68-1.37,1.03-.73.56-1.57.22-2.36.31-.88.1-2.03-.31-2.51.93-2.08.52-4-.1-5.8-.98-1.64-.79-3.09-1.27-4.33.56Z"/>
      <path class="cls-15" d="m22.74,55.64c-1.28-.24-2.47-.67-3.32-1.74-.73-.92-1.76-1.37-2.82-1.79-1.74-1.13-3.3-2.42-4.01-4.48-.79-4.4-.5-4.77,3.44-3.58,2.11.64,4.34,1.18,6.06,2.76.24.08.47.17.71.23,2.86.71,2.85.71,3.03-2.24.04-.71-.14-1.76.79-1.86,1.12-.12,1.51.87,1.59,1.85.1,1.24.31,2.48.34,3.73-.22,2.63-.57,5.23-1.07,7.82-.15.74-.37,1.51-1.24,1.66-.67.12-1.05-.43-1.3-.94-.45-.94-1.41-1.03-2.19-1.41Z"/>
      <path class="cls-14" d="m28.13,48.42c-.93-1.61.2-3.78-1.72-5.69.04,1.99.08,3.5.09,5,0,.86-.11,1.66-1.22.83-.99-.74-2.44-.6-3.2-1.75.69-.17,1.26-.24.72-1.28-2.25-4.35-2.29-9.05-1.82-13.77.19-1.89,1.56-2.29,3.04-.68,2.08,2.27,4.3,4.51,4.84,7.85.27,1.69.64,3.37.77,5.34.64-.53,1.05-.88,1.47-1.23.94,1.86-1.55,2.6-1.38,4.22-.35.63-.79,1.15-1.59,1.17Z"/>
      <path class="cls-19" d="m31.56,44.78c-.7.68-1.4,1.36-2.1,2.04-.66-1.79,1.78-2.23,1.65-3.78,1.35-1.29,2.04-2.94,2.75-4.64,2.69-6.43,3.64-13.16,3.73-20.05,1.36.39,2.73.75,3.53,2.08-.96.78-2.34,5.35-1.84,6.36.23.47.72.07,1.1.04,1.38.2,2.87.05,3.94,1.22-.69.62-1.57.35-2.36.5-2.78.54-4.42,2.12-4.98,4.84-.51,2.51-1.8,4.71-2.8,7.03-.4.42-.9.77-.84,1.45-.49,1.04-.49,2.38-1.8,2.91Z"/>
      <path class="cls-8" d="m44.33,28.05c-1.38-.21-2.78-.33-4.05-.99-.61-1.95,1.18-2.64,2.01-3.83.52-.75,1.36-1.18,2.02-1.79,1.14-.58,2.72-.49,3.21-2.08.23,1.66,1.53.92,2.35.93,1.2.02,1.53.47,1.14,1.51-1.19,3.18-3.02,5.7-6.69,6.24Z"/>
      <path class="cls-5" d="m35.47,89.67c-1.11.51-1.67,2.29-3.53,1.25-.47-.26.83.64.09,1.29-1.48,1.3-3.5,1.37-4.82-.14-.45-.52-.75-.49-1.18-.11-.31-2.57.13-5.09,1.11-7.39.6-1.41-.04-1.38-.88-1.47-2.47-.26-4.82-.8-6.64-2.66,1.02-1.38,2.27-.6,3.39-.27,3.81,1.11,3.87,1.09,3.88-2.82,1-.73,1.68-.04,2.39.54,1.65,2.44,3.74,4.32,6.56,5.35.62.23,1.27.72,1.86.37,2.51-1.5,2.86.31,3.3,2.05.02,1.25-1.08,1.01-1.75,1.23-1.59.52-3.02,1.18-3.78,2.79Z"/>
      <path class="cls-7" d="m26.82,77.81c1.5.75.88,1.84.36,2.8-.75,1.4-2.08,1.01-3.13.62-1.45-.55-2.82-1.27-4.43-.78-1.36-.97-2.72-1.94-4.07-2.92.66-2.86,1.32-3.11,4.43-1.22,1.83,1.11,3.8,1.02,5.76,1.22.44-.24.85-.31,1.08.27Z"/>
      <path class="cls-9" d="m22.88,106.93c1.5-2.74.82-5.92,1.7-8.8.18-.6-.55-1.48-.88-2.23-.48-1.07-.17-2.1.13-3.14.93-1.26,1.86,1.04,2.78,0,.77.42,1.49.88,1.41,1.93.36,1.1-.03,1.85-1.1,2.27-1.23.79-1.44,1.96-1.71,3.35-.67,3.46-.52,6.37,3.08,8.16.6.3,1.27.84,1.25,1.73-.18.33-.52.53-.81.34-1.91-1.26-4.28-1.79-5.85-3.6Z"/>
      <path class="cls-3" d="m9.7,80.33c.11-.39.21-.78.32-1.17.69-.77,1.28-1.03,1.85.15.5,1.04,2.55,1.32,1.45,3.14-.62,1.03-1.56.84-2.43.68-1.77-.31-.92-1.81-1.19-2.81Z"/>
      <path class="cls-21" d="m40.92,86.07c-.91-.66-1.42-1.52-1.1-2.88-1.75,1.91-3.01,1.17-4.91.35-2.67-1.15-4.41-2.9-5.95-5.13.81-1.07,1.69-.5,2.34.08,1.6,1.4,3.46,1.35,6.1,1.27-1.56-.76-2.97-.87-3.04-2.37-.06-1.32.76-2.15,1.56-2.98.92-.96,1.52-2.17,2.66-3.11-1.93.91-3.19,2.3-4.3,3.92-.69,1-1.58,1.73-2.26-.08.25-1.13,2.49-2.71-.82-3.01-1.14-.1-1.3-2.1-1.19-2.43.6-1.8-.68-2.43-1.6-3.35-.52-.52-1.31-.95-1.1-1.81.28-1.13,1.21-.39,1.84-.54.91-.22,1.74-.8,2.74-.52.61.6.67,1.39.84,2.18.34,1.63,1.28,1.97,2.84,1.17.3-1.26,1.37-1.52,2.39-1.85.81-.7,1.72-.86,2.76-.65,1.32.27,2.66.49,3.99.74,1.5.35,2.4,1.33,2.92,2.72.25,2.05-.97,3.39-2.26,4.69-.01.68.2,1.4-.29,2.01-1.5.7-1.78,3.08-4.02,2.65.97,3.14,3.82,4.96,4.5,8.02-1.97,1.94-3.1,2.16-4.62.91Z"/>
      <path class="cls-18" d="m32.01,75.13c.74.7,1.16.79,1.82-.3,1.33-2.21,3.02-4.15,6.31-4.14-1.58,1.71-3.01,3.22-4.4,4.77-1.55,1.74-1.34,2.46.85,3.15.73.23,1.65.44,1.53,1.32-.16,1.26-1.23.39-1.8.41-2.07.09-4.27.42-5.76-1.69-.36-.51-1.03-.45-1.61-.25-.65-.44-1.14-1.41-2.14-.61-.36-.09-.72-.18-1.08-.27-.97-.5-.88-.95.15-1.06,1.45-.15,2.91-.15,4.37-.21.94.49,1.73.71,1.45-.86.1-.09.2-.18.31-.27Z"/>
      <path class="cls-6" d="m31.71,75.4c.46.59,1.53,1.16.42,1.94-1.18.84-1.54-.22-1.88-1.08.35-.52.69-1.05,1.45-.86Z"/>
      <path class="cls-12" d="m39.15,40.94c1.57,0,2.77-1.01,4.09-1.61,2.08-.95,2.48-.12,2.67,1.72.1.89-.4,1.58-.37,2.4-.02.22-.04.44-.06.66-.35,1.64-2.23,1.98-2.87,3.46-.25.57-.5,1.13-.68,1.73-2.89,1.16-5.57,2.64-7.69,4.97-.54.6-1.42,1.19-.51,2.16-1.42.59-2.83,1.18-4.42,1.84.04-7.12,2.31-12.81,8.75-16.3.42-.23.72-.67,1.08-1.02Z"/>
      <path class="cls-20" d="m33.74,56.42c-.6-.33-2.08,0-.84-1.54,2.39-2.97,5.17-5.22,9.03-5.87,1.69-.97,2.8.07,3.9,1.13.59.57.57,1.17-.07,1.69-1.15.95-1.88,2.32-3.19,3.11-.21.17-.43.34-.64.52-1.49.99-3.16,1.25-4.9,1.18-.98.02-1.96.04-2.94.05-.06-.16-.18-.25-.35-.27Z"/>
      <path class="cls-1" d="m48.87,73.08c4-2.09,7.9-1.62,11.79.34,1.13.57,1.98,1.16,1.69,2.58,0,0,.01,0,.01,0-.99,1.95-2.73,2.71-4.76,2.99,0,0,.01-.01.01-.01-2.49-.22-4.97-.44-7.46-.66-3.65.84-5.6-.54-4.8-3.41.82-.68,1.85-.85,2.82-1.18.23-.22.47-.43.7-.65Z"/>
      <path class="cls-4" d="m40.92,86.07c1.86.79,3.2-.15,4.47-1.33.88-1.25,2.09-1.62,3.55-1.34.46.12.91.25,1.37.37.45.21.9.41,1.32.68,2.81,1.84,2.81,2.86-.03,4.85-.8.34-1.6.68-2.4,1.02-.48.54-1.04.75-1.74.42-3.53.35-6.73-2-10.31-1.24-.55.12-1.13.11-1.69.17-.34-.54-.46-1.07.13-1.53,1.56-1.23,3.22-2.23,5.32-2.08Z"/>
      <path class="cls-5" d="m48.94,83.39c-1.18.45-2.37.89-3.55,1.34-.53-.79-2.04-.98-1.51-2.43.02-.06-.05-.23-.05-.23-3.19.48-1.15-3.5-3.34-3.94-.41-.08-.73-.69-.45-1.24.3-.58.72-.69,1.42-.58.69.11,2.01.78,1.51-1.2-.19-.76,1.32-.68,2.09-.88.65-.13.52.48.73.77-1.12,1.78.25,2.39,1.48,2.85.89.34,1.92.32,2.88.47-1.12,1.52-1.34,3.25-1.2,5.07Z"/>
      <path class="cls-2" d="m51.61,89.3q1.92-2.26-1.3-5.53c2.86-.22,3.86,1.98,5.26,3.97-1.4.55-2.69,1.06-3.97,1.56Z"/>
    </g>
  </g>
</svg>