<?xml version="1.0" encoding="UTF-8"?>
<svg id="Layer_2" data-name="Layer 2" xmlns="http://www.w3.org/2000/svg" viewBox="0 0 44.9 42.99">
  <defs>
    <style>
      .cls-1 {
        fill: #342b1e;
      }

      .cls-2 {
        fill: #626b31;
      }

      .cls-3 {
        fill: #9a9f7c;
      }

      .cls-4 {
        fill: #9ea381;
      }

      .cls-5 {
        fill: #30281c;
      }

      .cls-6 {
        fill: #9ca180;
      }

      .cls-7 {
        fill: #616b31;
      }
    </style>
  </defs>
  <g id="Layer_1-2" data-name="Layer 1">
    <g>
      <path class="cls-6" d="m7.98,40.5c1.74-2.34-13.29-18.24,3.51-10.46,3.24,5.3,18.15-.94,9.29,6.49,3.37-.96,4.41-3.91,6.36-6.26,3.41-3.51,1.37,4.1.67,5.68-2.96,7.74-13.68,8.84-19.83,4.56Z"/>
      <path class="cls-7" d="m2.9,8.08C1.87,6.26-.11,4.95,0,2.49.05,1.6.02.86,1,.53,3-.4,5.03.11,7.06.41c5.1,3.24,10.56,4.36,16.59,3.29,6.27-1.11,11.8.58,16.22,5.36,1.5.53,2.28,1.61,2.49,3.16.03,1.56-.1,3.16,1.36,4.3.37.29.6.9.53,1.36-.58,3.71-.51,7.71-4.18,10.13-1.38.91-2.94.87-4.28.18-1.88-.97-3.47-.78-5.04.48-.21.13-.45.22-.69.27-1.28-.01-2.4.15-3.11,1.5-.96,1.82-2.18,3.29-4.38,1.34-.16-.14-.46.04-.63.25h.02c-1.69-.32-1.99-1.22-.78-2.74.77-.96,1.76-1.75,1.48-3.17,0-.25.07-.48.19-.7,1.69-1.04,3.06.81,4.66.53,1.28.16,2.26-.54,3.28-1.15,1.45-.23,1.84-1.32,1.94-2.53.12-1.41.1-2.82-.11-4.23-.72-4.84.66-6.35,5.39-5.9-1.14-4.47-7.9-6.17-11.33-3.34-.87,1.51-.56,3.44-1.76,4.83-1.61-.68-1.67-2.54-2.76-3.64-1.13-1.15-1.99-2.97-3.8-.68-.76.96-1.66.26-2.36-.38-1.17-1.08-1.86-.97-1.98.75-.04.65,0,1.58-.69,1.74-.91.21-1.22-.8-1.43-1.43-.99-3.04-2.95-5.2-6.18-7.11,1.09,2.28,2,4,2.71,5.81.32.8,1.07,1.56.39,2.53-2.73.38-4.75-.56-5.93-3.12Z"/>
      <path class="cls-2" d="m41.9,11.98c.29.23.58.45.86.68,1.58,2.88,2.35,5.93,2.08,9.23-.7,3.15-1.68,6.12-4.94,7.61h0c-.85,1.42-2,1.87-3.52,1.06l-.23-.08h-.25c-1.95-.36-3.57-1.59-5.5-2.02,1.65-2.13,3.38-2.07,5.69-.77,2.49,1.4,6.63-1.77,6.78-4.95.05-1.15-.06-2.31.56-3.38.83-1.42.5-2.62-1.01-3.25-.91-.38-1.06-.78-.8-1.68.23-.77.19-1.63.27-2.45Z"/>
      <path class="cls-3" d="m2.9,8.08c1.6,1.79,3.63,2.69,5.99,2.9,1.79.51,2.56,2.07,3.35,3.49,1.27,2.27,2.65,4.39,4.72,6.03.75.6,1.57,1.33,1.1,2.53-.71.62-1.51.77-2.39.45-1.17-.51-2.45-.63-3.68-.93-.81-.22-1.41-.55-.91-1.55.41-.81.37-1.58-.37-2.42-.67.95-.61,2.57-2.22,2.57-2.68-.47-2.97,1.53-3.43,3.34-.13.79-.25,1.59-1.23,1.81-1.67-.14-1.49-1.46-1.62-2.57-.33-2.47-.7-4.95.76-7.23h0c.23-2.52.46-5.05.02-7.58l-.1-.84Z"/>
      <path class="cls-2" d="m3.07,28.35c-.43-1.09.18-1.76.98-2.33.69-.55.25-1.36.48-2.02.81-.97.99-2.87,3.02-2.09.41.46.46,1.05.55,1.62.49,2.81,1.87,4.74,4.92,5.03,1.68.4,3.36.37,5.05.08,1.88-.16,3.47-.86,4.56-2.48.1-.06.19-.12.29-.18,1.04,1.49.14,2.36-.94,3.29-.94.82-2.07,1.81-.04,2.75-2.59,2.44-4.26,2.72-7.93.32-3.4-2.22-6.82-3.98-10.96-3.98Z"/>
      <path class="cls-5" d="m17.93,22.91c-.06-.24-.03-.59-.18-.7-4.05-2.88-5.59-7.73-8.85-11.23-1.4-2.25-1.82-5-3.64-7.03-.4-.44-.55-1.15-.02-1.58.62-.5,1.5-.02,1.8.33,1.64,1.89,4.31,2.88,4.87,5.73.18.92.8,1.74,1.28,2.73.13-.32.21-.44.23-.58.18-1.11-.55-2.6.62-3.24,1.33-.73,1.95.85,2.75,1.55.96.85,1.36.19,1.67-.5.86-1.96,1.76-1.41,2.93-.26,1.57,1.54,2.47,3.48,3.54,5.33.94.93,1.06,2.22,1.46,3.39.15.73.14,1.49.22,2.23.1.89.45,2.08-.73,2.33-1.35.29-1.54-1.06-1.71-1.98-.43-2.25-1.63-3.97-3.37-5.36-.19-.16-.4-.3-.67-.29-1.22,2.89,1.79,8.07,6.33,10.84.54.5,1.25.91.9,1.84-1.64.4-2.85-1.15-4.44-.97-1.92-.36-3.7-1-4.99-2.58Z"/>
      <path class="cls-1" d="m25.93,8.48c.31-.61.73-1.11,1.39-1.36,3.87-1.47,9.16.34,11.24,3.85.2.35.3.76.4,1.16.28,1.08-.04,1.37-1.15,1-3.75-1.26-5.35.33-4.73,4.29.41,2.63,1.16,5.4-.99,7.79-.66.74-.98.88-1.24-.19-.59-.66-.36-1.41-.2-2.13.94-4.14.34-7.88-2.77-11.01-.94-.95-1.62-2.08-1.97-3.39Z"/>
      <path class="cls-2" d="m25.93,8.48c1.44,1.69,3.01,3.3,4.29,5.1,1.66,2.33,1.5,5.13,1.42,7.82-.03,1.21-.5,2.4-.78,3.61-.6,1.85-2.13,1.47-3.51,1.46-.31-.49-.63-.99-.94-1.48-.18-.83.56-.9,1.01-1.16.6-.35,1.25-.78,1.2-1.47-.22-2.62.4-5.27-.35-7.86-.15-.52-.23-1.33-1.02-1.08-.69.22-.4.96-.36,1.52.06.83,1.14,2.17-.93,2.05-.58-1.11-1.06-2.24-1.03-3.52-.15-1.76.82-3.3,1-4.99Z"/>
      <path class="cls-2" d="m17.93,22.91c1.73.74,3.47,1.45,4.99,2.58,0,.16,0,.32.02.48,0,0-.09.09-.09.09-1.06,1.26-2.2.56-3.34.15-1-.36-2.05-.52-3.06-.85-.74-.33-1.46-.69-1.76-1.52,0-.89.33-1.3,1.24-.85.67-.02,1.33-.05,2-.07Z"/>
      <path class="cls-4" d="m12.92,29.05c-3.79-.32-5.45-2.46-5.48-7.06.06-.57.19-1.06.92-1.03.93-.45,1.78-.9,1.26-2.23-.2-.51.12-.99.76-.96.44.02.99-.15,1.12.62.17,1.07,1.53,2.13-.15,3.17-.25.15.32.38.61.44.31.34.66.65.77,1.13.17.93.18,1.82,1.06,2.6,1.7,1.49,1.08,2.65-.87,3.32Z"/>
      <path class="cls-4" d="m16.49,24.95c2.22-.17,4.07,1.71,6.36,1.12-.53,2.32-2.09,3.12-4.32,2.97-1.38.28-2.86.67-3.47-1.14-.45-1.34-.33-2.58,1.43-2.94Z"/>
      <path class="cls-3" d="m16.49,24.95c-1.87,2.96-1.39,3.92,2.04,4.08-1.87.81-3.74.69-5.62.02.93-1.2,2.89-2.39-.4-3.26-.8-.21-.3-1.82-.07-2.79,1.04-.2,1.49,1.09,2.5.98.52.32,1.03.65,1.55.97Z"/>
      <path class="cls-7" d="m25.97,16.99c1.12-.15.82-.79.48-1.42-.73-1.35-.88-2.88.77-3.27,1.47-.35,1.42,1.28,1.78,2.39.81,2.52-.11,5.05.35,7.57.38,2.05-1.81,1.95-2.93,2.72-3.76-1.29-7.69-6.98-7.47-10.82.03-.55-.18-1.25.56-1.49.66-.22,1.08.31,1.5.7,1.72,1.58,3.37,3.17,3.74,5.69.11.71-.09,2.15.93,2,1.26-.18.17-1.35.25-2.07.08-.66.03-1.33.04-1.99Z"/>
    </g>
  </g>
</svg>