<?xml version="1.0" encoding="UTF-8"?>
<svg id="Layer_2" data-name="Layer 2" xmlns="http://www.w3.org/2000/svg" viewBox="0 0 123.5 151.62">
  <defs>
    <style>
      .cls-1 {
        fill: #86766e;
      }

      .cls-2 {
        fill: #825b2a;
      }

      .cls-3 {
        fill: #636d34;
      }

      .cls-4 {
        fill: #b5909c;
      }

      .cls-5 {
        fill: #686f4c;
      }

      .cls-6 {
        fill: #afa16c;
      }

      .cls-7 {
        fill: #5e652f;
      }

      .cls-8 {
        fill: #636536;
      }

      .cls-9 {
        fill: #38311b;
      }

      .cls-10 {
        fill: #ada065;
      }

      .cls-11 {
        fill: #6f1526;
      }

      .cls-12 {
        fill: #939884;
      }

      .cls-13 {
        fill: #372b1e;
      }

      .cls-14 {
        fill: #59476a;
      }

      .cls-15 {
        fill: #bea3a8;
      }

      .cls-16 {
        fill: #b68494;
      }

      .cls-17 {
        fill: #5b642d;
      }

      .cls-18 {
        fill: #691c23;
      }

      .cls-19 {
        fill: #606734;
      }

      .cls-20 {
        fill: #969a7d;
      }

      .cls-21 {
        fill: #62683a;
      }

      .cls-22 {
        fill: #606932;
      }

      .cls-23 {
        fill: #b0a58a;
      }

      .cls-24 {
        fill: #30271a;
      }

      .cls-25 {
        fill: #914253;
      }

      .cls-26 {
        fill: #625274;
      }

      .cls-27 {
        fill: #beb1a0;
      }

      .cls-28 {
        fill: #60642c;
      }

      .cls-29 {
        fill: #596431;
      }

      .cls-30 {
        fill: #312418;
      }

      .cls-31 {
        fill: #795324;
      }

      .cls-32 {
        fill: #7a5d2b;
      }

      .cls-33 {
        fill: #92425a;
      }

      .cls-34 {
        fill: #b48a8f;
      }

      .cls-35 {
        fill: #943e51;
      }

      .cls-36 {
        fill: #979c85;
      }

      .cls-37 {
        fill: #c2b8af;
      }

      .cls-38 {
        fill: #b58c98;
      }

      .cls-39 {
        fill: #b0a166;
      }

      .cls-40 {
        fill: #969b82;
      }

      .cls-41 {
        fill: #765c3f;
      }

      .cls-42 {
        fill: #ba929f;
      }

      .cls-43 {
        fill: #c4baa8;
      }

      .cls-44 {
        fill: #8e3f58;
      }

      .cls-45 {
        fill: #969b89;
      }

      .cls-46 {
        fill: #944456;
      }

      .cls-47 {
        fill: #ad9363;
      }

      .cls-48 {
        fill: #6e1626;
      }

      .cls-49 {
        fill: #3c2425;
      }

      .cls-50 {
        fill: #ae9e6b;
      }

      .cls-51 {
        fill: #691625;
      }

      .cls-52 {
        fill: #5b632d;
      }

      .cls-53 {
        fill: #903e57;
      }

      .cls-54 {
        fill: #999f89;
      }

      .cls-55 {
        fill: #845a2c;
      }

      .cls-56 {
        fill: #b78e9e;
      }

      .cls-57 {
        fill: #5e6630;
      }

      .cls-58 {
        fill: #392c20;
      }

      .cls-59 {
        fill: #c6bbb3;
      }

      .cls-60 {
        fill: #8a86a0;
      }

      .cls-61 {
        fill: #7b5726;
      }

      .cls-62 {
        fill: #b8a687;
      }

      .cls-63 {
        fill: #5f673c;
      }

      .cls-64 {
        fill: #636a4b;
      }

      .cls-65 {
        fill: #5c6538;
      }

      .cls-66 {
        fill: #6d1626;
      }

      .cls-67 {
        fill: #6e4b34;
      }

      .cls-68 {
        fill: #90405a;
      }

      .cls-69 {
        fill: #9da18c;
      }

      .cls-70 {
        fill: #484425;
      }

      .cls-71 {
        fill: #817a97;
      }

      .cls-72 {
        fill: #913b51;
      }

      .cls-73 {
        fill: #5a622c;
      }

      .cls-74 {
        fill: #8f364e;
      }

      .cls-75 {
        fill: #6b7345;
      }
    </style>
  </defs>
  <g id="Layer_1-2" data-name="Layer 1">
    <g>
      <path class="cls-10" d="m63.04,121.64c-.25,3.2-2.58,5.52-6.48,6.39-.63.14-1.44,0-1.63.82-.28,1.2.92.54,1.31.94.91.93,1.85,1.83,2.77,2.75,1.65,1.58,1.78,2.92.48,5.02-.15.63-.4,1.25-.44,1.88-.24,3.54-2.6,5.07-6.01,3.86-.83-.3-1.56-.94-2.54-.65-.5,0-1,.01-1.49.02-1.22-.15-1.25-1.3-1.74-2.07-.17-.64-.27-1.29-.51-1.91-.72-1.88-.76-3.68.63-5.31,1.24-2.71,1.77-2.84,5.04-1.19-.63-1.53-2.92-2.47-2.13-4.23.91-2.04,2.96-3.26,5.02-4.11,1.41-.58,2.57-1.47,3.73-2.37.86-.67,1.43-1.61,1.22-2.82-.5-2.39.29-3.23,2.96-3.16,1.15,1.17,1.51,2.49.48,3.89-.52.71-.35,1.55-.66,2.28Z"/>
      <path class="cls-61" d="m47.96,133.43c-2.56,1.32-1.67-.99-2.06-1.96.18-.27.52-.77.51-.78-3.06-2.26-1.94-6.73-4.95-9.06,1.73.29,3.16.85,3.87,2.49.25.57.6,1,1.32.87.81-.14.35-.77.47-1.18.56-1.83,1.52-3.47,2.61-5.02.16-.23.53-.41.81-.42.43,0,.45.44.44.76-.04,1.87-.93,4.13,2.3,4.33,2.05.13,5.35-2.09,6.3-4.45.25-.78.46-1.68,1.37-.45-.1,2.5-2.41,5.13-5.1,5.75-2.07.48-3.37,2.12-4.96,3.3-.75.56-.25,1.32.3,1.91.66.72,1.31,1.45,1.87,2.24.33.46.65,1.12.09,1.57-.65.51-.92-.22-1.33-.59-2.06-1.85-2.87-1.69-3.87.69Z"/>
      <path class="cls-46" d="m66.67,26.51c.5.19.99.37,1.49.56,1.54.52,2.55.01,3.01-1.55l.03-.02c1-1.31,2.37-1.64,3.94-1.62,2.19.03,4.22.77,6.23,1.44,2.19.73,2.15,2.97,2.05,4.62-.19,3.42,1.31,6.65.84,10.06-.15,1.11.56.94,1.24.83.77.36,1.05,1.1.34,1.5-1.49.84-2.23,2.67-4.07,2.97-1.36.64-1.28-.89-1.96-1.3-1.36-1.77-3.13-3.11-4.83-4.52-1.65-1.37-3.56-1.99-5.72-1.57-1.14-1.51-2.5-.21-3.76-.28-1.05-.06-2.14.14-3.14-.37-.04-.65-.95-1.18-.28-1.94-.06-.02.22-.01-.02-.11-2.33-1-1.12-2.35-.15-3.38,1.12-1.19,2.65-1.62,4.32-1.47.74.06,1.3-.25,1.42-.83-4.25-1.54-7.85,1.34-11.86,1.89-1.31.18-2.1,1.24-2.84,2.27-.62.86-1.15,1.92-2.53,1.6-.23-.1-.42-.27-.55-.48-.36-.84-.34-1.72-.26-2.6.08-.47,0-.95.1-1.42.5-1.03-1-2.07.02-3.09.96.44,1.95.37,2.95.19.95-.15,1.5-1.01,2.35-1.32,1.89-.45,3.89.05,5.74-.73,1.24.49,1.94-.74,2.97-.92.66,1.08,2.02.9,2.89,1.6Z"/>
      <g>
        <path class="cls-52" d="m38.64,11.2c-3.4-1.99-5.69-4.69-5.9-8.83-.08-1.49.27-2.22,1.97-2.34,3.81-.26,6.44,1.68,8.83,4.25.58.63.91,1.88,1.98,1.6,1.02-.27.54-1.43.65-2.19.3-2.07,1.33-1.12,2.22-.55,3.68,2.36,5.04,6.18,6.24,10.09.32,1.03.63,2.06.94,3.09,1.19,2.22,1.1,4.68,1.34,7.08-1.35,1.25-2.04-.21-2.97-.72-2.15-5.14-6.93-7.53-11.05-10.63-1.37-1.03-2.92-.21-4.26-.83Z"/>
        <path class="cls-19" d="m74.24,13.64c-.64,2.88-1.76,5.33-5.09,5.87-.74-2.33,1.66-3.17,2.37-5.05-1.93-.42-3.18.98-4.67,1.59-.65.27-1.27,1.16-1.99.59-.8-.64-.21-1.55.07-2.28.66-1.71.81-3.51,1.23-5.81-3.29,2.8-3.77,6.16-3.91,9.62-.05,1.2.52,2.49-.67,3.46-.48-2.17-2.13-3.68-3.1-5.57-1.06-2.07-2.06-4.17-2.08-6.55,0-.85-.07-1.93.98-2.31.99-.36,1.86.28,2.43.92.79.87,1.31,2,1.98,3.08.58-.8.51-1.56.42-2.39-.33-3.03.83-5.5,3.04-7.51,1.98-1.79,3.11-1.59,3.92.99.73,2.34,1.22,4.8.69,7.3-.3,1.4-.44,2.52,1.71,1.83,1.8-.58,2.14,1.02,2.66,2.22Z"/>
        <path class="cls-58" d="m38.64,11.2c2.16-1.01,3.87-.44,5.6,1.16,1.36,1.26,3.08,2.16,4.69,3.13,2.57,1.55,3.93,3.98,5.04,6.62.76,1.23,2.09,2.22,1.73,3.94-.6.49-.54,2.39-2.04.95-1.64-2.67-3.63-4.78-6.91-5.5-1.66-.36-3.18-1.36-4.55-2.45-1.79-2.09-1.82-2.66-.25-3.71-1.75-.66-3.09-1.68-3.21-3.76-.15-.1-.18-.23-.09-.39Z"/>
        <path class="cls-7" d="m22.76,38.58c.39-1.18-2.05-2.32-.04-3.52,1.33-.3,2.65-.6,3.98-.91,1.12-.44,2.25-.48,3.37.02,3.4,1.01,6.47,2.47,8.09,5.92,1.46,2.35,1.14,2.95-2,3.72-2.35-1.15-4.5-2.8-7.41-2.76-.62.56.45,1.33-.05,1.96-.73.19-1.38-.04-2-.37-1.72-.96-3.15-2.19-3.92-4.07Z"/>
        <path class="cls-24" d="m61.58,21.62c.22-.97.19-1.94.09-2.94-.37-3.85.73-7.24,3.36-10.11.38-.42.74-1.03,1.42-.7.88.42.35,1.07.22,1.71-.45,2.25-.88,4.49-1.92,6.92,2.24-1.16,3.98-2.46,6.13-2.95.61-.14,1.09-.43,1.49.21.36.59.1,1.02-.37,1.51-1.19,1.24-2.55,2.39-2.87,4.23-1.19,1.51-2.38,3.01-3.57,4.52-.21.4-.53.4-.89.23-.77.49-.95,2.75-2.53.85-.39-.29-.49-.73-.59-1.17-.09-.44-.2-.88.02-1.31,0-.33,0-.67,0-1Z"/>
        <path class="cls-25" d="m38.1,46.96c0-.58.01-1.17.02-1.75.05-.5-.26-1-.01-1.5,1.94-2.37,2.98-5.46,5.68-7.23.57-.68.85-1.68,1.94-1.79.88-.59,1.89-.58,2.89-.61.81-.55,1.64-.24,2.46-.04.06.06.13.11.2.17,1.82-.02,1.78,1.41,1.92,2.59.18,1.55-1.46,1.91-2.15,1.89-1.92-.05-2.42,1.24-3.11,2.47-.33.59-.65,1.28-1.37,1.35-3.06.29-3.5,2.31-3.29,4.81.03.41,0,.83-.06,1.24-.2.59-.38,1.54-1.21.91-1.1-.84-2.67-.76-3.55-1.94-.18-.14-.3-.33-.36-.55Z"/>
        <path class="cls-8" d="m38.74,11.59c.7,2.09,3.21,2.61,4.13,4.54-.65.5-.86-.61-1.36-.21-.5.41-.2.86,0,1.32.26.6.47,1.21.7,1.82-1.64-.06-3.02-.87-4.43-1.58-.25-.03-.42-.15-.52-.38-.65-1.32-2.31-2.14-1.99-3.95.32-.6.82-.91,1.5-.9.65-.25,1.53.18,1.98-.67Z"/>
        <path class="cls-38" d="m44.2,36.59c-.26,1.16-1.32,1.64-2.1,2.28-.88.72-1.6,1.3-1.66,2.59-.07,1.35-1.81,1.58-2.25,2.77-.86.42-1.46.04-1.94-.65,1.34-.77,3.14-1.28,1.92-3.47,1.53-1.15,3.05-2.3,4.58-3.45.47-.46.96-.46,1.46-.06Z"/>
        <path class="cls-34" d="m47.22,33.16c1.71.09,3.34,0,3.93-2.05-.02.97-.04,1.95-.07,2.92-.81.82-1.64.26-2.46.04-.47-.3-.94-.61-1.41-.91Z"/>
        <path class="cls-20" d="m43.68,110.56c.65-3.91-1.83-6.52-4.02-9.11-1.02-1.21-1.71-2.81-3.27-3.63-.25-.13-.76-1.57.64-1.75.69-.09,1.74.33,1.95-.58.24-1.03-.86-1.39-1.55-1.94-2.33-1.84-5.28-3.12-5.86-6.59-.24-1.42-.69-2.6,1.62-1.99,2.02.53,1.9-.78,1.5-2.14-.9-3.06-2.13-6.11-.58-9.33.99.27,1.07,1.17,1.35,1.93,1.52,4.14,3.14,8.18,6.28,11.5,2.21,2.35,2.88,5.54,3.32,7.68-1.4-4.11.89-9.39-.62-14.47.1-.22.23-.43.35-.64,1.9-3.37,1.92-3.37,4.64-.46.29.59.32,1.2.18,1.83-.27,1.17-1.25,2.14-.82,3.54.36,1.18.7,2.4.58,3.9.82-1.15,1.81-1.58,2.98-1.06,1.06.47,1.19,1.5,1.27,2.52.1,1.35-.22,2.64-.53,3.93-.16.66-.44,1.28.24,1.81.71,2.44-1.07,3.96-2.34,5.42-2.17,2.5-3.63,5.23-4.31,8.44-.47,1.49-.65,3.07-1.29,4.5-.44.99-.72,2.28-2.25,2.2-.47-.62-.19-1.3-.19-1.96.13-1.21-.16-2.51.74-3.56Z"/>
        <path class="cls-2" d="m43.68,110.56c-.01,1.31-.02,2.62-.04,3.93-.71.75-1.56.88-2.5.56-1.91-.66-3.02.34-3.79,1.88-.64,1.28-1.4,2.44-2.56,3.31-3.04,1.51-5.26-.6-7.7-1.74-.35-.05-.68-.15-.96-.38-.13-.2-.21-.42-.25-.65-.85-3.48-2.18-4.05-5.22-2.23-.78.47-1.4,1.17-2.2,1.62-.51.29-1.06.62-1.62.21-.66-.48-.51-1.17-.3-1.81.46-1.42,1.43-2.4,2.74-3.07,1.54-.78,2.45-1.64,1.08-3.45-.78-1.04-.96-2.61.29-3.35,2.71-1.61,3.04-4.12,3.15-6.83-.06-.34-.11-.67-.17-1.01.41-1.27,1.05-.37,1.39-.05,1.21,1.16,2.06,2.56,2.28,4.28.08.62-.1,1.5.73,1.65.72.13,1.1-.61,1.53-1.1,1.17-1.35,1.8-2.93,1.97-4.71.09-.87-.1-1.85.73-2.52,1.73.7,1.26,2.23,1.17,3.48-.17,2.4-.87,4.71-1.77,6.95-.4.9-.59,2.15.61,2.13,3.11-.05,5.61,1.79,8.51,2.32.8.15,1.61.27,2.39.49.17.03.33.07.5.1Z"/>
        <path class="cls-71" d="m50.17,142.1c1.58,1.87,2.73,3.86,1.61,6.41.06,1.14-.65,1.66-1.61,1.96-3.02,1.63-6.27,1.08-9.47.98-1.03-.39-1.92-.99-2.76-1.69-.28-1.04.42-2.1-.02-3.17-.66.27-.63,1.17-1.3,1.39-3.57-.38-5.37-2.54-6.96-5.68-1.86-3.67-4.37-7.15-8.82-8.34-.73-.2-1.31-.7-1.54-1.48,1.49-.96,3.03-.66,4.49-.02,3.51,1.53,3.49,1.56,6.5-1.23,1.38-1.32,3.17-2.27,3.83-4.24,2.15,1.39,3.43,3.63,5.22,5.37-.06.39-.29.65-.63.82-.24.06-.49.09-.74.06-2.91-.34-3.61.02-4.14,2.1-.49,1.92.78,4.24,2.74,5.02,1.96.78,3.89.6,5.82-.15.73-.28,1.57-.9,2.3-.12.61.65.05,1.41-.12,2.11-.35,1.45-.96,2.81-1.72,4.37,2.38.09,3.73-1.05,4.77-2.73.43-.69.44-1.63,1.23-2.11.52-.15.99-.14,1.33.36Z"/>
        <path class="cls-39" d="m23.8,98.55c.84,3.49.3,5.27-2.49,6.85-1.88,1.06-.83,2.26-.25,3.18,1.21,1.91,1.12,2.79-1.05,3.89-1.84.93-3.36,1.99-3.14,4.55,2.19-.69,3.27-2.84,5.55-3.21,3.12-.51,3.99.17,3.8,3.71-2.96,1.44-5.25,3.57-6.85,6.49-1.33,2.43-3.12,3.31-4.96,2.66-1.92-.67-3.75-3.42-3.37-5.47.3-1.66.28-3.23,0-4.88-.19-1.1-.28-2.34.69-3.27,1.07-1.1,2.57-1.43,3.91-1.89,3.81-1.31,4.08-1.93,1.59-5.15-1.07-.7-2.37-1.25-1.98-2.94,1.91-.93.29-2.34.48-3.51,1.15-.86,1.17-2.41,2.06-3.43,2.09.59,3.75,2.26,6.01,2.43Z"/>
        <path class="cls-17" d="m44.75,80.02c2.06,3.51.26,7.25.64,10.86.22,2.12.28,4.26.43,6.78-1.5-1.73-1.54-3.68-2.07-5.37-.7-2.27-1.8-4.17-3.4-5.94-2.89-3.2-4.4-7.17-5.67-11.23-.17-.54-.39-1.07-.59-1.61.15-.72.41-1.44.42-2.17.02-2.49,1.29-2.83,3.29-2.05,2.26.82,3.34,3.08,5.27,4.3.99,2.03,2.23,3.99,1.67,6.41Z"/>
        <path class="cls-48" d="m38.8,47.16c.99,1.19,2.79.77,3.8,1.93.03-.16.06-.32.09-.49.87-.35,1.01.49,1.43.92-.41-2.12.97-4.07,2.9-4.14.43.95.3,1.96.34,2.96-.13,1.12.32,2.15.52,3.22-.38.97-1,1.8-2.11,1.72-1.45-.11-1.17,1.06-.78,1.35,1.4,1.05,1.09,2.65,1.46,3.97,1.14,4,4,6.53,7.07,8.95.56.44,1.48.74,1.29,1.64-.22,1.07-1.24.9-2.03.97-1.57.14-3.13.16-4.64-.42-2.16-.14-4.3-.14-6.37.7-.58.23-1.31.58-1.79-.17-.4-.62-.22-1.28.17-1.87.64-.99.06-3.12,3.07-2.13-4.6-3.66-4.2-7.94-3.5-12.26.15-.89.53-1.74.35-2.68-.17-.39.02-.92-.45-1.2-.32-.35-.65-.71-.97-1.06-.38-.67-.57-1.33.14-1.91Z"/>
        <path class="cls-72" d="m40.19,51.09c.79.6.81,1.29.44,2.17-1.28,2.99-.83,6.04-.15,9.07.29,1.29,1.46,1.92,2.38,2.73.39.35,1.31.48,1.03,1.17-.27.67-1.02.65-1.73.45-.46-.13-.98-.02-1.33-.02,1.9,1.42-1.75,2.09-.18,3.54,2.21-1.12,4.84-1.33,7.53-1.07.43.74.12,2.05,1.6,2,.36-.01.87.19.84.7-.03.61-.62.63-1.07.79-.9.32-2.34-.5-2.6,1.21-1.49.61-2.94.77-4.31-.28-2.14-.81-3.35-2.67-4.83-4.24,1.59-1.59.36-3-.52-4.16-2.16-2.87-1.75-5.94-1.13-9.09,1.18-1.79,3.04-3.02,4.02-4.97Z"/>
        <path class="cls-3" d="m15.25,103.06c.22,1.28,1.5,1.84,1.98,2.94-4.11.48-8.08.3-11.53-2.39-2.36-.04-3.39-1.83-4.55-3.46-.87-.41-1.96-.72-.26-1.62,4.96-2.64,10.71-.85,14.36,4.53Z"/>
        <path class="cls-14" d="m30.67,131.5c-.63,1.26-1.97,1.7-2.97,2.54-.77.65-1.5.83-2.36.07-1.73-1.53-3.83-1.84-6.04-1.64-2.27-1.3-1.3-3.56-1.6-5.44-.22-.8.45-.93.9-1.24.97-.21,1.78-.75,2.62-1.26.66-.4,1.31-1.06,2.2-.43.19,1.73.74,3.36,1.48,5.02.01-1.18.2-2.38,1.44-2.63,1.08-.22,1.54.88,1.85,1.69.52,1.37,2.09,1.89,2.5,3.31Z"/>
        <path class="cls-6" d="m32.27,95.09c.14,3.04-.42,5.86-2.6,8.17-.62.65-1.21,1.52-2.25,1.18-1.08-.35-.61-1.39-.68-2.14-.19-2.28-1.44-4.26-3.11-4.75.32-2.29,1.32-4.19,3.63-4.85,2.21-.63,3.78.65,5,2.4Z"/>
        <path class="cls-43" d="m18.79,126.1c-.36.31-.73.63-1.09.94-1.69-.07-3.44.36-4.93-.97-1.01-.9-1.97-1.85-2.01-3.23-.09-2.88-.02-5.76,0-8.64,0-.66.27-1.1.99-1.16-.45,1.62-.81,3.24.13,4.81.51.85.09,1.57-.2,2.35-.87,2.31.63,5.45,2.99,6.18,1.86.57,3.08-.49,3.83-1.98,1.24-2.46,2.85-4.46,5.17-6.06.91-.63,1.65-.77,2.58-.83.02.18.03.35.05.53.36,1.67-.67,2.73-1.65,3.82-1.88,1.51-3.84,2.89-5.84,4.23Z"/>
        <path class="cls-21" d="m26.77,53.13c-.45-1.19.68-1.44,1.25-1.92,1.12-.94,2.2-1.88,2.74-3.56-1.37-.18-2.93.25-4.03-.93,3.81-1.3,7.59-.79,11.36.23.23.07.47.13.7.2-.05.64-.09,1.28-.14,1.92-4.14-.67-7.39,1.34-10.55,3.55-.43.3-.8.55-1.33.51Z"/>
        <path class="cls-75" d="m17.8,96.12c-.22,1.42.5,3.42-2.06,3.43-3.61-2.23-4.73-4.1-4.25-9.09,1.05,1.4,2.35,2.05,3.79,2.55,1.4.48,2.32,1.55,2.52,3.11Z"/>
        <path class="cls-62" d="m43.18,110.45c-2.67.65-4.98-.52-7.28-1.56-.99-.45-1.92-.84-3.04-.8-2.39.08-2.51-.21-1.19-2.58.07,1.33.56,2.15,2.1,2.08,3.46-.15,6.53,1.05,9.41,2.86Z"/>
        <path class="cls-16" d="m40.19,51.09c-.41,2.41-1.98,3.88-4.02,4.97.15-1.71.78-3.12,2.42-3.89.87-.41,1.05-1.16,1.04-2.02.55.1.44.59.56.95Z"/>
        <path class="cls-50" d="m71.61,80.04c.08-.69-.12-1.44.47-2,1.8-3.45,4.66-4.56,8.29-3.19.62.23,1.22.53,1.83.79.5.31.77.73.66,1.33-.41.95-1.22.91-2.05.81-.32-.08.07.51,0,.18-.03-.15.03-.17.18-.15.33.05.78.07.91.31,1.47,2.73,4.03,2.29,6.45,2.31,2.71.02,4.12,1.94,5.5,3.88.03.24.01.48-.03.72-.27.86-.56,1.7-.2,2.62,1.05,2.66.31,4.78-1.99,6.4-.6.05-.99.34-1.11.95-3.61-.02-3.7.06-4.01,3.42-.35,3.87-1.36,4.86-5.21,5.07-.78.04-1.32.29-1.92.87-1.29,1.27-2.13,1.27-3.71.41-.35-.36-.29-.79-.05-1.12,2.03-2.78,2.12-5.98,2.01-9.23.35-.26.74-.28,1.4-.19-1.18-1.34-1.86-2.66-1.5-4.39.21-1.04-.37-2.14-.92-2.97-.95-1.45-.89-2.97-.85-4.54,0-.08.09-.2.06-.23-.23-.28-.18.25-.38.14-1.5-.37-3.06-.6-3.83-2.2Z"/>
        <path class="cls-12" d="m109.04,75.49c3.47.25.38,2.24.94,3.36,1.01.58,1.12-.46,1.44-1.01,1.66-2.83,3.8-5.23,6.37-7.27,1.8-1.43,3.71-1.37,5.71-.51-1.36,1.45-.42,4.25-2.94,5.03-1.54,2.38-3.87,4.04-5.97,6.12,1.49.61,2.42-.54,3.58-.38.6.08,1.16.02,1.46.63.32.65-.38.86-.66,1.14-2.36,2.32-4.74,4.32-8.58,3.59-1.3-.24-2.91.75-4.37-.2-.49-1,.33-1.49.93-1.67,2.18-.68,3.29-2.58,4.08-3.3-1.68,1.41-4.07,3.59-7.58,3.59-.19-.29-.41-.68-.23-.93,1.94-2.73,3.73-5.56,5.82-8.18Z"/>
        <path class="cls-45" d="m100.15,88.14c.27.61.77.87,1.4.82,4.01-.28,6.71,2.28,9.55,4.46,1.72,1.32,1.68,3.26,1.32,5.29-3.08-.74-5.88-1.75-7.7-4.53-.16-.24-.63-1.26-1.32-.48-.42.48.03.87.41,1.23.88.85,1.49,2.2.44,2.86-.96.6-2.58.03-3.07-1.26-.75-2.02-3.44-2.91-3.11-5.58.05-.42-.49-1.44-1.47-1.4-.63-.19-1.52-.22-.8-1.26,1.44-.4,2.87-.98,4.34-.14Z"/>
        <path class="cls-54" d="m59.17,137.01c.63-1.75.68-3.44-.48-5.02,1.84,1.52,3.37,1.01,4.9-.6.66-.69,1.63-1.16,2.53-1.55,1.88-.79,2.5-.31,2.16,1.75-.17,1.04.14,1.39,1.09,1.42.58.02,1.2-.07,1.73.11,1.42.49,3.31,1.16,3.16,2.7-.13,1.32-2.06,1.18-3.37,1.19-1.52.01-3.18-.47-3.35,2.11-.09,1.33-1.56,1-2.38.45-1.23-.82-2.55-1.69-3.42-2.84-1.12-1.47-1.51-.69-2.07.3-.16-.02-.33-.03-.5-.03Z"/>
        <path class="cls-64" d="m100.15,88.14c-1.5.43-3.04.56-4.59.48-.41.24-.78.2-1.13-.12-.3-.53-.27-1.05.06-1.56,2.91-1.16,5.88-2.1,9-2.49,3.73-.79,6.49-3.35,9.62-5.32-1.43,1.94-2.7,3.93-4.95,5.08-.74.38-1.96.56-2.13,1.77-1.96.72-3.91,1.44-5.87,2.15Z"/>
        <path class="cls-57" d="m107.6,31.59c-1.41,2.63-3.62,4.6-5.63,6.72-1.29,1.35-2.73,1.71-4.34.55-1.07-.09-1.44-1.24-2.36-1.55-1.49-.75-2.99-1.06-4.52-.1-.22.09-.44.1-.67.06-.86-.68-2.38-.11-2.88-1.5-.17-.86-.3-1.71.64-2.26,3.93,3.1,12.34-1.35,12.14-6.06-.07-1.56-.38-2.29-2.03-1.38-.88.49-1.72,1.93-2.77.99-1.2-1.07.47-2.02.69-3.08.05-.24.19-.46.1-.73-.55.29-.68.91-1.06,1.34-.6.66-1.28,1.18-2.16.64-.76-.46-.77-1.32-.47-2.02,1.12-2.6.79-5.39,1.1-8.12-1.06,2.55-3.51,4.44-2.64,7.92.47,1.88-1.5,3.54-3.09,4.81-3.16,0-3.8-2.54-4.77-4.75-1.53-2.46-.15-4.75.44-7.51.28.47.37.7.53.88.36.42.65,1.11,1.36.79.53-.24.38-.88.33-1.34-.27-2.42.8-4.32,2.21-6.06,1.46.44,2.27,1.54,3.08,3.13.79-2.27.97-4.39,3.06-5.63,2.44-1.45,2.76-1.53,4.15.9.24.43.39.91.59,1.37.75,2.47.16,4.82-.48,7.06.3-.15.66-.85,1.37-.4,1.87.27,2.32.96,1.78,2.66-.33,1.05-.96,1.91-1.65,2.74-.31.37-.7.79-.38,1.32.44.72,1.03.28,1.52.07.52-.22,1.15-.44,1.45-.86,1.13-1.59,2.54-1.88,4.26-1.2,2.62.09,3.43.82,2.58,2.99-.97,2.48.09,5.27-1.46,7.58Z"/>
        <path class="cls-15" d="m88.05,33.65c-.54.76-.33,1.62-.34,2.45-.13.65.13.93.78.81.56-.1,1.13-.28,1.66.1.12,0,.25,0,.37-.03,1.71-.72,3.4-.42,5.1.05,1.03.2,1.46,1.07,2,1.81-.02.59-.04,1.18-.06,1.78-1.07.29-1.65-.85-2.61-.89-2.82-.9-5.57-.39-8.31.38-1.06-.11-.99,1.61-2.33,1.29.83-3.14.12-6.23-.47-9.33-.34-1.82.44-3.66-.22-5.52-.25-.7-.44-1.24-1.08-1.45-2.59-.84-5.16-1.73-7.97-1.55-.98.06-1.37,1.28-2.42,1.06.28-1.84,1.72-2.61,3.18-2.42,2.51.33,5.1.09,7.55.89.6.02.96.44,1.06.91.44,2.02,1.89,2.98,3.64,3.66.4,1.98,1.28,3.92.46,5.99Z"/>
        <path class="cls-13" d="m36.24,43.57c.65.22,1.29.44,1.94.65.21.34.41.68-.06.98-1.48-.11-2.83-.53-4.49-.12-1.67.42-3.57-.66-4.94-2.06-.25-.93-1.62-1.77-1.12-2.52.72-1.07,1.93.1,2.94.18,2.27.17,4.07,1.43,5.73,2.89Z"/>
        <path class="cls-55" d="m46.69,48.63c0-1.17-.01-2.35-.02-3.52.26-.28.6-.35.96-.33,1.01.24,1.9-.28,2.89-.45.02-1.29-.81-2.13-1.58-3-.04-.45.13-.81.48-1.07,2.09-1.58,4.72-2.21,5.89-5.3.79-2.07,6.2-1.07,7.74,1.1,1.99-.13,4.02.63,5.97-.67.95-.63.29.25.3.58.02.72.64.58,1.11.59.86.12,1.34.59,1.36,1.48-.4.77-.94.63-1.65.39-3.42-1.19-5.02-.33-6.16,2.99-.52,1.51-1.74,2.32-3.41,2.3-3.58.1-4.45,1.07-4.06,4.56.1.86-.05,1.62-.63,2.29-3.9,1.75-6.52,1.2-9.21-1.94Z"/>
        <path class="cls-18" d="m47.63,45.09c-.32,0-.64,0-.97.01-.9.59-.33,2.32-2.06,2.41-.84.04-.21.92,0,1.37.38.84.55,1.85-.45,2.04-1.53.29-.32-1.01-.63-1.48-.22-.32-.55-.57-.84-.84,0-1.24-.02-2.48,0-3.72.02-1.45.93-2.27,2.16-2.68,2.05-.68,1.97-.66,2.75-2.99.29-.87,1.39-1.29,2.31-.94,1.31.49,1.69-1.52,2.94-.92-.8-.91.21-2.71-1.55-3.15,1.28.15,1.71-.87,2.16-1.7,1.05-1.95,2.69-2.98,4.84-2.89,1.65.07,2.6-1.3,4.13-1.52,2.16-.31,4.26-.79,6.39.06.21.09.49,0,.74.02,0,0,0,.32,0,.32-1.27.06.8,1.71-.78,1.63-.91-.04-1.83-.04-2.74-.02-1.5.03-2.44.95-3.37,2.01-.43.49-.23.87-.23,1.34,0,1.26,1.33.29,1.62,1.01.11.28-2.45-.09-.2.83.32.13-.81.22-.81.78-1.72-1.9-4.03-1.53-6.16-1.4-1.68.11-2.7,1.41-2.31,3.08.3,1.3.16,1.77-1.15,1.47-2.19-.5-3.16,1.03-4.23,2.43.64,1.67-.46,2.56-1.56,3.45Z"/>
        <path class="cls-37" d="m81.2,43.09c.75-.06.31,1.55,1.41,1.02.09.09.19.19.29.28.55,1.27.47,2.56.12,3.86-1.48.77-1.83,2.17-2.06,3.65-.26.9.6,2.49-1.42,2.3-1.35-1.59-.84-4.04-2.48-5.52.05,1.31,1.77,2.41.6,3.71-1.13,1.25-2.66,1.97-4.45,1.16-.83-.38-1.64-1.1-.9-1.87,1.67-1.76.37-2.83-.61-4.07.44-2.87-.24-5.72-.09-8.59.22-.52.34-1,1.19-.88.79.11.12,2.22,1.92,1.14.53-.32,2.29,1.28,3.69,1.53,1.38.24,1.67,1.76,2.81,2.27Z"/>
        <path class="cls-11" d="m86.65,40.12c1.95-1.96,4.41-1.54,6.79-1.42.71.03,1.41.3,2.11.46.63.73,1.03,1.47.02,2.21-.68.36-1.45.3-2.18.48-.41.1-1.11.32-1.06.51.58,2.05-.63,2.38-2.21,2.49-.23.01-.25.38-.21.63.1.57.48.85,1.02.94.89.15,1.85-.05,2.65.53.14.2.18.41.13.65-1.49,1.3-3.89-.22-5.18,1.69-.85.35-1.28.88-.73,1.8-.24,1.62-.65,3.17-1.78,4.43-.16.18-.34.34-.54.47-2.1.5-2.56.12-2.2-1.82.1-.55.36-1.07.41-1.63-.06-2.11-.31-4.23-.18-6.34.05-.93-.14-1.59-.91-2.08,0,0,0,0,0,0,1.49-1.18,3.41-1.93,4.04-3.99Z"/>
        <path class="cls-66" d="m81.32,41.48c-1.17-1.53-2.52-2.53-3.08-4.46-.99-3.43-4.7-5.97-8.09-6.05,2.47-3.64,7.77-3.09,9.93,1.07,1.65,3.17,1.88,5.31,1.23,9.44Z"/>
        <path class="cls-42" d="m81.2,43.09c-1.83-1.23-4.13-1.62-5.85-2.82-1.3-.9-1.47-.45-1.98.99-.23-1.47.02-2.57-1.24-2.85-.1.15-.22.27-.31.24-.26-.1-.26-.34-.26-.57-.38-.51-.76-1.01-1.13-1.52,1.77-1.02,3.44-.02,4.7.79,2.33,1.5,4.73,3.11,6.07,5.74Z"/>
        <path class="cls-10" d="m46.64,116.96c1.12.65,1.53-.29,2.14-.89,1.07-1.05,1.76-2.53,3.32-3.06,1.75-.69,3.51-1.33,5.37-.35.12,2.2,1.56,3.91,2.24,5.9-.85,2.57-3.95,4.88-6.52,4.88-2.42,0-3.17-.96-3.28-4.54-1.25,1.58-1.98,3.03-2.47,4.66-.48,1.6-1.52,1.86-2.68.65-.72-.75-1.19-1.76-2.66-2.32,2.62,2.32,2.17,5.77,4.21,8.03.38.42-.17,1.07-.7,1.42-.47.23-.97.3-1.48.32-2.91.17-5.7.27-7.62-2.71-.95-1.47-1.54-2.86-1.45-4.57.06-1.23.19-2.47-.35-3.64-.1-.24-.16-.49-.18-.75.89-1.15,1.76-2.28,2.41-3.64.81-1.69,2.15-2.95,4.35-1.87.75.37,1.57.36,2.36.02-.12.54-.24,1.08-.36,1.62.84,1.39,1.97,1.64,3.36.85Z"/>
        <path class="cls-73" d="m60.63,81.47c-1.47,5.23-4.03,9.89-7.48,14.07-1.29.1-1.34.08-1.06-.66.57-1.55,1-3.12.93-4.79-.04-.96.26-2.09-1.04-2.44-1.31-.35-1.95.5-2.42,1.57-.09.21-.31.36-.87,1.01.76-3.4-1.8-6.32.4-9.23,3.51-1.19,7.08-1.9,10.81-1.43.91.38,1.45.9.74,1.91Z"/>
        <path class="cls-5" d="m46.64,116.96c-.67.5-.77,1.86-1.97,1.52-1.11-.31-1.25-1.39-1.39-2.37,2.09-1.94,1.87-4.82,2.95-7.17.86-.4,1.5-1.08,1.91-1.89,2.41-4.78,6.69-7.91,10.24-11.68.46-.49,1.46-1.36,2.15-.57.7.81-.28,1.51-.88,2-5.13,4.15-8.36,9.75-11.81,15.2-1.02,1.61-.1,3.5-1.19,4.98Z"/>
        <path class="cls-67" d="m49.15,79.1c0-.33,0-.66.01-.99.62-.82,1.51-.84,2.42-.83.23,0,.45.04.68.08,1.93.47,3.9-.48,5.83.14.59.34,1.44.07,1.88.79.26.64.18,1.22-.28,1.74-3.59-.32-7.02,1.08-10.6.97.02-.63.05-1.26.07-1.89Z"/>
        <path class="cls-49" d="m24.33,121.6c.93-1.03,1.42-2.3,1.95-3.55.3,0,.6,0,.89,0,1.37,1.72,2.66,3.55,5.02,4.02.65.08,1.3-.03,1.95,0,.96.06,1.36.59,1.01,1.46-.44,1.13-.32,2.41-.99,3.46.14,2.51-1.91,3.33-3.49,4.51-1.41-.76-2.5-1.8-3.19-3.3-.24-.51-.34-1.58-1.19-1.27-.79.29-1.1,1.17-.81,2.08.17.53.39,1.04.65,1.69-2.02-.94-3.12-3.52-2.97-6.61-.28-1.15.67-1.71,1.17-2.49Z"/>
        <path class="cls-26" d="m47.2,139.97c1.03.35.82,1.54,1.48,2.14.04,3.08-2.88,4.73-5.05,5.31-.55.15-1.24.28-1.64-.21-.39-.48.17-.89.44-1.28,1.14-1.67,1.32-3.68,2.33-5.9-1.5.52-2.61.92-3.72,1.28-2.33.76-6.1-.53-7.22-2.61-1.24-2.32-.82-4.21.55-5.86,1.18-1.43,2.85-.21,4.29.13,5.15-.36,6.56.65,7.89,5.7.13.5.31.94.65,1.31Z"/>
        <path class="cls-27" d="m32.19,122.46c-.05-.66-1.1-1.7.72-1.63.58.02,1.18-.43,1.78-.67,1.27.51,1.37,1.59,1.11,2.66-.79,3.24.71,5.66,2.94,7.6,1.53,1.34,3.65.34,5.48.61.74.85.92,1.79-.45,1.9-1.47.12-3.09.73-4.44-.49-2.37-1.2-3.89-3.2-5.15-5.45-.63-1.55-.02-2.88.82-4.05-.83-1.32-2.04.85-2.79-.48Z"/>
        <path class="cls-1" d="m39.31,132.45c1.37.44,2.74-.01,4.11.06,1.41.08.72-.88.78-1.47.46-.03.92-.07,1.38-.1.77.56.91,1.79,2.06,1.96-1.29,2.04-1.5,4.09-.11,6.19.1.16-.21.59-.33.89-.95.06-1.42-.08-1.37-1.34.12-2.8-1.69-4.57-4.42-4.89-.93-.11-1.83-.51-2.75-.78.22-.17.44-.34.66-.52Z"/>
        <path class="cls-4" d="m84.04,52.66c.43.41-.03.75-.15,1.05-.29.71-.51,1.5-.13,2.09.58.88,1.16-.64,1.85-.19.71-.61,1.57-.78,2.47-.8,4.19,1.66,6.35,5.41,5.21,9.08-.1.32-.11.76-.35.91-2.48,1.6-3.43,4.15-4.57,6.69-.66,1.46-2.55,1.73-4.11,1.93-1.16.15-2.26.45-3.33.89-2.05-.23-4.14.31-6.18-.23.21-1.31-.86-1.71-1.67-1.82-1.13-.16-1.4,1.07-1.93,1.82-.22.15-.43.15-.64-.03.15-1.92-.79-2.68-2.66-2.74-1.38-.04-2.77-.07-4.16-.09-2.53.23-3.62-1.93-5.27-3.16-2.36-1.03-3.41-2.96-3.08-5.39.12-.89-.03-2.37.95-2.83-.68.08-1.83.34-2.91-.49-1.07-.82-1.41-1.8-1.22-3.04.14-.94-.66-.75-1.11-.99-1.55-.85-2.96-1.83-3.43-3.68-.63-.91-1.08-1.87-.94-3.02,1.39.16,2.07,1.54,3.23,1.96,1.92.69,3.87.17,5.77-.34.75-.58.87.3,1.27.54.36.41.73.83,1.11,1.22,1.1,1.56,3.35,1.72,4.29,3.49-.16,1.29-.32,2.59-1,3.74-.07.11-.28-.05-.36.11,2.19.27,2.22,2.62,3.56,3.74,1.09.92,2.21.41,3.22.23,1.21-.22,1.78-1.38,2.1-2.55.13-.49.03-.99.01-1.49-.02-.5-.05-1.04.52-1.27.66-.26,1.47-.27,1.84.29.4.61,1.01.9,1.42,1.41,1.7,2.05,1.66,2.06,2.94-.33.6-1.11.84-2.45,2.31-3.02.85-.33.22-1.57.71-2.26,1.09-.55.55-1.72.97-2.52.79-.91,1.8.69,2.6-.23.79.11.66.81.83,1.31Z"/>
        <path class="cls-74" d="m47.62,51.65c1.41,1.3,2.39,3.16,4.56,3.45.45.06.6.2.64.76.24,3.38.56,3.64,4.04,3.74.25,0,.49.03.94.06-1.64.71-2.02,2.17-1.99,3.46.05,1.88.63,3.73,2.85,4.35-1.55,1.37-2.5,3.26-4.65,4.2-.75.33-1.5,2.68-1.89,4.25-.14.55-.1,1.15-.44,1.65-.84.18-1.68.36-2.53.54-.12-.73-.53-1.56-.31-2.16.62-1.68-.45-2.21-1.57-2.81-.78-.2-1.18-.62-.15-.92.92-.27,1.94-.16,2.92-.22.14-.41-.15-.39-.34-.4q-2.47-.17-1.53-2.48c2.05.6,4.11.62,6.6.2-3.07-2.49-6.4-4.39-7.79-7.84-1.19-2.95-2.9-5.81-2.96-9.43,1.39.78,2.62.85,3.6-.41Z"/>
        <path class="cls-60" d="m67.15,103.55c-1.53-1.27-2.12-3.2-1.87-4.85.34-2.33-.31-4.35-.84-6.45-.34-1.35-.38-2.61.24-3.85.42-.86.36-1.73.32-2.66-.16-3.44,2.18-5.73,5.63-5.6,2.14,2.28,1.23,5.23,1.7,7.88-.22,1.4-1.95.65-2.51,1.82-.32.67-.66,1.3-.25,1.79,1.14,1.36,1.72,3.19,3.69,3.86,2.27.77,2.55,2.97.59,4.39-1.27.92-2.62,1.95-4.22,2.03-1.3.07-1.9.73-2.48,1.65Z"/>
        <path class="cls-40" d="m57.69,113.05c-1.86-.7-3.73.33-5.59-.04,2.4-3.41,5.74-4.74,9.81-4.46.62.04,1.7-.18,1.58.7-.41,3.08,1.31,1.19,2.23,1.02,2.51-.45,4.96-1.44,7.49.16,1.14.73.83,1.16.35,2.08-.9,1.69-3.34,2.17-3.68,3.89-.6,2.95-2.97,3.24-4.83,3.24-1.5,0-1.74.7-2.34,1.46-.63-2.05,1.61-4.14-.11-6.17-.21-1.36-.97-1.89-2.35-1.77-.84.08-1.74.55-2.56-.11Z"/>
        <path class="cls-33" d="m63.6,70.6c2.57-.18,5.1.1,7.72.64-.22.95-.43,1.89-.65,2.83-.24,3.07-2.84,3.69-4.97,4.79-.64.33-1.51.03-2.04.71-1.15.89.78,1.43.23,2.32-1.07-.14-2.17-.28-3.26-.42-.03-.67.04-1.41-.95-1.44-.03-.65-.06-1.3-.09-1.95-1.21-2.66,1.14-3.56,2.47-4.94.72-.74,2.38-.87,1.55-2.54Z"/>
        <path class="cls-23" d="m74.76,74.08c2.1-.6,4.2-.93,6.3,0,.98.3,1.59.81,1.13,1.94-1.29.39-2.08-.83-3.25-.98-2.93-.35-5.14.7-6.86,3,.11-1.85.96-3.2,2.68-3.95Z"/>
        <path class="cls-69" d="m115.48,56.03c-.99-1.27-2.51-.47-3.71-.7-1.67-.33-3.31-.28-4.52-2.07-.47,1.79.43,2.53,1.12,3.42.66.86,1.14,1.91.33,2.96-.82,1.08-1.9,1.05-3.13.68-2.83-.86-4.97-2.7-7.01-4.72-.83-2.07-.07-4.01.5-5.96,1.3-1.12,2.82-.68,4.29-.61,1.51.29,3.08-.13,4.59.36.83.27,1.38-.25,1.91-.77.11-.03.22-.06.33-.09,2.41-.34,4.48.57,6.5,1.7.4.23.9.28,1.36.41.64.34,1.13.83,1.43,1.5-.15,1.47-1.19,2.13-2.38,2.68-.62.29-1.53.21-1.61,1.21Z"/>
        <path class="cls-36" d="m99.58,46.08c-.58-.88-.33-1.65.51-2.09,3.43-1.81,6.97-3.18,10.97-2.37.31.06.68.14.9.34.85.8,2.65,1,2.44,2.43-.19,1.33-1.59,2.13-2.89,2.31-1.31.17-1.42.82-1.31,1.82-.09.07-.19.13-.28.2-1.01.6-1.98.42-2.94-.13-2.23-1.51-5-1.43-7.38-2.51Z"/>
        <path class="cls-44" d="m92.58,52.57c-1.69.51-2.83,1.93-4.4,2.63-.82.33-1.66.6-2.56.41.03-.17.07-.35.1-.52,1.02-.8,2.59-1.17,2.23-3.01-.07-.36.22-.6.53-.75,1.89-.89,3.88-1.6,5.24-3.34.12-.15.41-.05.6-.15-.32,0-.66.04-.85-.32.05-.12.07-.24.05-.37,2.37-.64,3.05-2.1,2.19-4.38-.19-.5-.44-1.09-.1-1.67.6-.66-.02-1.29-.04-1.93.95.12,1.27,1.09,2.02,1.47,1.58,3,1.23,5.68-1.35,7.97-1.53,1.03-2.49,2.58-3.63,3.96Z"/>
        <path class="cls-65" d="m99.58,46.08c2.74-.13,5.29.51,7.64,1.95-.28,2.04-2.18.91-3.15,1.6-1.67,0-3.34,0-5.01,0-.4-1.27-1.37-2.62.52-3.56Z"/>
        <path class="cls-56" d="m92.58,52.57c.58-1.9,1.21-3.75,3.63-3.96.51.4.31.95.31,1.46-1.57.43-1.79,2.98-3.94,2.5Z"/>
        <path class="cls-41" d="m72.62,88.06c2.14-1.43,2.38-3.8,2.94-6,.14-.53.29-1.07.43-1.6-.05,3,.28,5.81,2.49,8.06.04.05.06.18.03.23-1.54,2.59.38,4.36,1.42,6.51-.77-.28-1.53-.55-2.3-.83-.17-2.46-1.97-.88-2.96-1.08-.84-.17-1.36.55-1.06-1.11.19-1.09-1.22-2.61-.99-4.19Z"/>
        <path class="cls-31" d="m82.52,81.32c.12,1.4-.62,2.34-1.13,3.32-.8,1.55-.22,2.28,1.3,2.64,1.64.39,3.26.33,4.88-.13.43-.12,1.09-.25,1.24.39.14.58-.43.74-.87.99-2.36,1.37-4.96.95-7.42.8-1.55-.1-1.54-2.09-2.12-3.3-.56-1.17.42-1.56,1.07-2.11.96-.83,1.93-1.65,3.05-2.6Z"/>
        <path class="cls-23" d="m82.61,77.07c.46.22.96.54.89,1.06-.3,2.14.85,2.13,2.49,2.01,2.46-.17,5.08-.85,7.09,1.51.76.9.96-.39,1.44-.63.92,1.04.94,2.07-.03,3.08-.25.15-.51.31-.76.46-1.98-1.86-3.72-4.04-6.99-3.58-1.91.27-4.04.45-4.79-2.19-.24-.85-1.27-.59-1.89-.98.87-.26,1.71-.51,2.55-.76Z"/>
        <path class="cls-32" d="m84.61,94.03c.05.44-.09.82-.43,1.09-.44.34-.78.02-1.05-.26-1.02-1.05-2.05-2.09-3-3.21-.26-.31-.51-.92.31-1.1,1.16-.26,4.18,2.23,4.18,3.48Z"/>
        <path class="cls-22" d="m60.64,118.02c-.68-.52-.98.1-1.37.45-.26-.53.17-1.14-.95-1.6-1.1-.46-1.76-2.3-.63-3.82,1.16-.32,2.3-.68,3.54-.6,2.17.14,2.27.26,1.37,2.48-.42.22-.83.5-1.27.66-1.38.5-1.31,1.38-.7,2.43Z"/>
        <path class="cls-30" d="m88.05,33.65c-.03-2.01-1.3-3.92-.46-5.99.57-.81,1.05-1.7,1.73-2.41,1.26-1.32,1.11-2.95.87-4.43-.28-1.76-.22-2.31,1.38-3.39.85-.58.55-1.62.79-2.45.15-.54.2-1.27,1.01-1.14.81.13.92.66.77,1.46-.5,2.7.04,5.56-1.35,8.13-.26.47-.38,1.2.31,1.52.66.31,1.08-.17,1.42-.68.05-.07.06-.16.11-.22.69-.76.82-2.75,2.16-1.94.71.42-.34,2.21-.84,3.28-.21.45-1.18.77-.59,1.33.71.69,1.1-.33,1.54-.69.98-.82,2.15-1.77,3.29-1.14.97.53.39,1.99.4,3.04.03,3.63-5.16,7.35-9.3,7.16-1.17-.05-3.04,1-3.22-1.45Z"/>
        <path class="cls-28" d="m57.57,52.14c-.49-.16-.78-.51-.93-.99-.42-1.47-.09-2.99-.62-4.54-.33-.99,1.01-2.5,2.51-2.91.7-.19,1.49-.07,2.12-.56,1.82-.07,3.08-.55,2.7-2.84-.16-1,.55-1.71,1.57-2.25,2.28-1.2,4.43-.76,6.64.03.19.11.38.22.57.33-.11,3.2,1.25,6.42-.19,9.6.24,1.08.05,1.88-1.27,1.91-.42-.09-.78-.32-.96-.7-.8-1.63-2.07-2.27-3.84-1.88-1.72.37-2.66,1.51-3.08,3.16-.14.56-.27,1.12-.71,1.55-1.49,1.05-3,.8-4.52.09Z"/>
        <path class="cls-47" d="m47.63,45.09c.52-1.15,1.04-2.3,1.56-3.45.75-.47,1.25-.27,1.43.59.18.87.41,1.71,1.46,3-1.89-1.08-2.95,1.36-4.45-.13Z"/>
        <path class="cls-59" d="m70.72,49.59c1.29.16.53-1.28,1.24-1.58.38.17.74.44,1.13.48,1.49.13,1.48.57.82,1.85-.39.75-2.56,1.37-.84,2.63,1.66,1.22,3.03-.26,4.45-.93-.91-.76-.05-2.39-1.34-2.9-.63-.24-.83-.42-.48-1.01.29-.48.62-.33,1.04-.16,1.12.45,1.8,1.21,2.04,2.41.25,1.25.57,2.48.86,3.71.69,1.54.83,2.89-1.32,3.21-.64.1-.4.45-.52.79-.41,1.09-.95,2.14-1.5,3.16-.42.78-1.03,1.32-2.02.87l-2.06-3.17c-.08-.68-.62-.63-1.06-.61-.42.02-1.1-.13-.76.75.14.38.23.8.23,1.2-.03,2.84-4.07,5.35-6.24,3.64-.79-.63-1.94-1.74-2.17-2.94-.32-1.62-1.42-1.46-2.66-1.61,2.83-.09,1.28-2.89,2.62-3.86.9-.9,2.18-.96,3.25-1.46.98-.26,1.51-.91,1.76-1.88.27-1.06,1.09-1.61,2.04-1.99.48-.24,1.06-.24,1.49-.62Z"/>
        <path class="cls-59" d="m82.59,48.59c.64.93.43,1.99.46,3.02-.83,1.06-1.62-.43-2.44-.03.61-.94.13-1.84-.27-2.87.87-.04,1.56-.08,2.25-.12Z"/>
        <path class="cls-53" d="m95.59,41.09c.58,1.23,1.07,2.33.94,3.88-.19,2.31-1.45,2.24-3.02,2.17-.75,0-1.5.05-2.24,0-.89-.07-2.18.42-2.12-1.26.05-1.38.64-2.15,2.15-1.85.23.05.49-.02,1.34-.07-1.48-.37-2.57-.65-1.26-1.84,1.23-1.11,2.7-1.11,4.21-1.02Z"/>
        <path class="cls-51" d="m63.6,70.6c.49.96,1.73,1.63-.49,2.57-1.71.72-3.75,2.28-3.53,4.91-.48-.15-.96.6-1.44,0-.27-.41-.42-.88-.61-1.32-.33-.76.39-2.05-.83-2.3-1.22-.25-2.07.71-2.9,1.5-.65.62-.82,1.88-2.14,1.61,0,0,.03.01.03.01-.15-.46-.59-.88-.29-1.4,1.21-2.08,1.03-5.12,4.15-5.89.54-.13,1.03-.71,1.04-1.31.03-1.5,1.12-1.38,2.08-1.5.65.02.91.41,1.23.95.8,1.38,1.93,2.37,3.7,2.18Z"/>
        <path class="cls-35" d="m51.66,77.56c1.3-1.06,1.89-2.79,3.58-3.53,2.09-.91,2.71-.6,2.74,1.61,0,.81.11,1.62.17,2.43-1.33-.73-2.66.28-4.01,0-.83-.17-1.79.34-2.48-.51Z"/>
        <path class="cls-68" d="m88.61,63.83c-1.3.39-1.72-.83-2.64-.58-.65.18-1.36.32-1.65.95-.31.67.31,1.04.78,1.36,1.46,1.01,1.6,2.66,2.08,4.37-2.91-.07-5.37,1.68-8.22,1.89-1.48.11-3.08.43-3.95-1.19-.95-1.76.2-3.17,1.36-4.11,2.55-2.07,5.37-3.8,7.04-6.79.26-.47.65-.41,1.23-.14,1.89.87,3.16,2.18,3.97,4.23Z"/>
        <path class="cls-29" d="m94.49,84.12c0-1.03.02-2.06.03-3.09,1.21-4.31,3.12-8.06,7.41-10.19,1.26-.63,1.55-.08,1.91.81.75,1.86.68,3.85-.09,5.54-1.34,2.93-3.27,5.55-6.03,7.34-1,.65-2.39,1.53-3.22-.41Z"/>
        <path class="cls-63" d="m104.07,49.63c.87-.88,2.46-.35,3.15-1.6.81.57,1.75.6,2.68.69-.1.91-.19,1.78-1.53,1.35-1.39-.45-2.85-.48-4.3-.44Z"/>
        <path class="cls-9" d="m65.11,54.03c-2.09.54-2.25-1.33-3.03-2.43.17-2.66,1.4-4.52,3.26-4.97,2.5-.6,3.52-.04,5.38,2.96.05.77-.2,1.18-1.05.9-1.84-.79-3.53-1.26-4.7,1.12-.46.95,1.13,1.57.14,2.42Z"/>
        <path class="cls-70" d="m65.11,54.03c-.08-.31-.07-.83-.24-.91-2.94-1.25.07-2.53.34-3.23.51-1.33,3.29-.81,4.46.6-1.06.6-2.07,1.17-2.04,2.68.03,1.36-.98,1.4-1.99,1.29-.18-.14-.35-.29-.53-.43Z"/>
      </g>
    </g>
  </g>
</svg>