<?xml version="1.0" encoding="UTF-8"?>
<svg id="Layer_2" data-name="Layer 2" xmlns="http://www.w3.org/2000/svg" viewBox="0 0 113.44 110.42">
  <defs>
    <style>
      .cls-1 {
        fill: #7f7a8a;
      }

      .cls-2 {
        fill: #3f4023;
      }

      .cls-3 {
        fill: #787291;
      }

      .cls-4 {
        fill: #8f9277;
      }

      .cls-5 {
        fill: #888a69;
      }

      .cls-6 {
        fill: #4a3b55;
      }

      .cls-7 {
        fill: #2d1f27;
      }

      .cls-8 {
        fill: #5b5e36;
      }

      .cls-9 {
        fill: #5a536c;
      }

      .cls-10 {
        fill: #545b28;
      }

      .cls-11 {
        fill: #7b7e5d;
      }

      .cls-12 {
        fill: #736f85;
      }

      .cls-13 {
        fill: #6d6a86;
      }

      .cls-14 {
        fill: #67637b;
      }

      .cls-15 {
        fill: #4b5225;
      }

      .cls-16 {
        fill: #8e9175;
      }

      .cls-17 {
        fill: #291f2c;
      }

      .cls-18 {
        fill: #493c60;
      }

      .cls-19 {
        fill: #322429;
      }

      .cls-20 {
        fill: #52552f;
      }

      .cls-21 {
        fill: #818363;
      }

      .cls-22 {
        fill: #342e1c;
      }

      .cls-23 {
        fill: #564e61;
      }

      .cls-24 {
        fill: #484253;
      }

      .cls-25 {
        fill: #5e5a55;
      }

      .cls-26 {
        fill: #2c1e21;
      }

      .cls-27 {
        fill: #7e826b;
      }

      .cls-28 {
        fill: #454a27;
      }

      .cls-29 {
        fill: #3e3451;
      }
    </style>
  </defs>
  <g id="Layer_1-2" data-name="Layer 1">
    <g>
      <path class="cls-5" d="m83.82,102.42c-1.04,2.67-.19,5.33,0,8h-4.99c-1.86-2.35-.8-4.85-.3-7.32-.83,1.57-.72,3.24-.68,4.9.02.61.12,1.24-.83,1.06-.86-2.27-1.55-4.31-4.61-4.95-1.96-.41-2.23-3.85-1.12-6.63.92.55.87.52,1.42-.5,2.11-3.92,4.84-7.34,8.41-10.02,1.2-.9,2.23-1.98,3.37-2.93,1.21-1.01.89-1.78-.23-2.42.2,2.04-1.1,2.77-2.85,3.1-1.32-.32-2.44.36-3.58.79-1.75.66-3.27.13-4.76-.69-1.08-.6-1.48-1.53-.95-2.73.16-.18.36-.28.6-.29.6.17,1.08.07,1.53-.45,2.75-3.19,5.73-6.08,10.05-7.12-1.84-.2-3.78-.05-4.43-2.34-.13-2.1,1.07-3.5,2.68-4.46,1.99-1.19,4.06-2.31,6.42-2.65,4.01-.58,7.72-1.96,10.73-3.99-1.32.67-4.91,1.82-6.23,1.6-1.51-.25-3.69.39-4.11-1.89-.38-2.1.33-4.02,2.4-5.03,2.48-1.21,4.78-2.66,6.78-4.52-2.28-.23-2.48-1.52-1.69-3.33.52-1.2,1.56-1.92,2.45-2.78,1.44-1.45,2.7-3.09,4.34-4.35.68-.52.99-1.29,1.18-2.11.25-1.05.67-2.28-.48-2.9-1.1-.6-1.41.77-2.02,1.32-.42.38-.71.92-1.4.87-.83-.32-1.08-.97-1.01-1.79.15-1.76,3.35-5.6,4.91-5.88,2.61-.48,5.24.87,6.62,3.38.32.59.52,1.22.55,1.89.1-.43-.14-.93.26-1.3,1.51.37,1.13,1.65,1.15,2.62.1,3.88-1.05,7.56-2.15,11.19-2.01,6.58-4.6,12.96-7.83,19.05-.76,1.42-1.42,3.04-3.13,3.71-3.15,3.98-5.98,8.2-9.02,12.27-3.5,4.7-4.94,10.22-6.85,15.56-.47,1.3.2,2.82-.61,4.1Z"/>
      <path class="cls-29" d="m0,38.49c1-2.98,2-5.97,2.99-8.95,3.11-8.17,6.29-16.31,13.42-22.03h0c1.59-.78,2.62-2.29,4.14-3.15,1.94-.4,4.03-2.24,5.64.59.1.37.09.74-.03,1.1-1.7,3.12-5.22,3.22-7.9,4.72-.28.16-.61.25-.88.45,1.24-.47,2.41-1.16,3.68-1.53,1.05-.31,2.27-.45,2.68.96.37,1.28-.58,1.7-1.61,2.05-1.95.66-3.3,1.97-4.01,3.93-.09,1.64-1.22,2.43-2.51,3.09-3.51-.48-5.4,1.67-4.83,5.48-2.55,5.79-2.62,12.02-3.2,18.15-.1,1.07,0,2.15.21,3.21.58,5.77-1.09,11.83,2.19,17.22-1.73-5.49-1.5-10.97-.19-16.6.73-3.13.51-6.5.46-9.78.68-2.44,2.24-4.57,3.82-6.22,2.34-2.45,4.58-5.21,7.73-6.82.29-.15.56-.36.86-.49.87-.38,1.92-.73,2.55.06.81,1.03-.46,1.52-.99,2.17-.21.25-.5.43-.78.61-.93.51-2.09.71-2.61,1.82-.11.2-.24.38-.37.56-1.69.92-2.25,2.79-3.48,4.11-.57.61-.63,1.49-.03,2.05,2.46,2.28,1.11,4.95.35,7.16-.63,1.82-1.95,3.15.43,4.53.31.18.41.71.51,1.12.07.36.04.72-.07,1.07-1.27,2.02-1.17,4.37-1.16,6.54.03,5.98.28,12.14,3.42,17.34,2.34,3.87,6.17,6.65,10.38,8.64.83.39,2.03.43,2.06,1.78-.15,1.09-.81,1.49-1.88,1.56-1.15.07-2.32-.24-3.02-.91-2.55-2.41-6.39-2.62-8.77-5.39-.48-.56-.69-1.71-1.75-1.81-2.06-2.48-4.64-4.44-6.75-6.89-4.5-5.21-6.78-11.27-7.28-17.99-.19-2.55-.92-4.93-1.81-7.17-.83-2.1-1.45-4.13-1.64-6.34Z"/>
      <path class="cls-14" d="m32.9,83.43c-4.27-1.84-7.89-4.59-11.19-7.85-1.05-1.04-1.9-2.11-2.48-3.49-2.83-6.78-3.1-13.86-2.53-21.04.06-.79.31-1.66,1.15-2.11,1.23,3.06,1.41,6.37,2.16,9.55,1.3,5.51,3.45,10.51,7.06,14.86,1.65,1.98,3.47,3.75,6.09,4.5,1.35.38,2.56,1.16,3.39,2.38.36.83-.07,1.42-.59,1.98-.49.48-.92,1.04-1.58,1.33-.49-.03-.99-.06-1.48-.1Z"/>
      <path class="cls-11" d="m34.38,83.53c-.03-.83.76-1.1,1.12-1.65.98.15.78.91.75,1.53-.04.92-.05,1.82.77,2.72,1.74-1.55,1.58-4.67,4.46-5.22-.87-.78-2.18-.66-2.32-1.94,2.44-2.41,6.83-1.3,8.16,2.08.33.83.42,1.76.99,2.5.16.29.34.71.02.88-1.49.81-.73,1.48.07,2.17-1.26.42-2.37,1.05-3.06,2.25-4.58,2.41-7.06,2.12-9.36-1.02-.95-1.3-.57-3.06-1.61-4.31Z"/>
      <path class="cls-10" d="m111.65,31.05c.22.99.44,1.97.65,2.96-.07.82-.13,1.64-.2,2.47-.88-2.44-1.56-4.96-4.59-5.67-1.23-.28-2.71-.79-3.54.08-1.44,1.51-3.08,3.02-3.55,5.22-.13.61.16,1.13.83,1.32-1.1,2.41-.77,5.08-1.42,7.57-.39.77-1.18,1.15-1.72,1.75-.71.78-1.5,1.74-1.08,2.87.44,1.2,1.63.79,3.15.54-2.52,2.73-5.02,4.48-7.88,5.72-.8.34-1.54.64-1.85,1.49-.42,1.17-1.2,2.65-.36,3.54.97,1.04,2.75,1.13,4.15.78,2.44-.61,5.13-.57,7.26-2.4-.62,1.73-2.28,2.28-3.57,3.18-2.79,1.93-6.12,2.28-9.32,3.05-2.7.65-5.36,1.57-7.29,3.74-.66.74-1.07,1.68-1.05,2.73-.42.76-.92,1.4-1.92,1.25-3.66-1.32-6.88-.2-9.97,1.75-.86.54-1.66,1.83-2.84.44-.08-.35-.06-.7.07-1.04.3-.77,1.17-1.17,1.43-2.56-2.85,1.47-5.28-.1-7.85-.49-1.47-.22-2.82-.87-1.92-2.86,2.66-1.4,5.64-.4,8.41-1.14,1.1-.29,2.25-.32,3.19-1.07,4.21-2.33,8.43-4.6,12.36-7.42,4.3-3.09,7.6-6.8,9.35-11.87,1.27-3.69,3.24-7.09,4.52-10.79,1.18-3.39,3.57-5.98,6.24-8.26,3.43-2.94,8.37-1.4,10.33,3.11Z"/>
      <path class="cls-22" d="m78.35,72.96c.64-.32,1.28-.65,1.92-.97,1.33,2.47,3.82,1.18,5.71,1.66.2.74-.32.78-.66.87-4.54,1.19-8.05,3.83-10.79,7.59-.57.78-1.22.9-1.66-.19-1.62-1.76.15-3.46.08-5.2,1.56-1.6,3.1-3.22,5.4-3.75Z"/>
      <path class="cls-8" d="m71.79,97.4c1.48-5.55,5.58-9.19,9.47-12.98.81.09,1.02-.77,1.61-1.03,1.65-.72,1.28-1.55-.09-2.52,1.61.21,2.72.88,4.01,1.83-5.42,5.13-11.77,9.22-14.83,16.34-.06-.54-.11-1.09-.17-1.63Z"/>
      <path class="cls-2" d="m99.83,45.01c-.51-2.71-.47-5.32,1.42-7.57.45-.67.84-1.41,1.38-2,.45-.5.78-1.51,1.69-1.1.84.38,1.42,1.18,1.36,2.17-.1,1.81-.22,3.69-2.01,4.77-1.58.95-2.35,2.71-3.84,3.73Z"/>
      <path class="cls-23" d="m73.28,76.91c.53,1.73-.99,3.28-.41,5.01-.17,0-.35.01-.52.02-3.55-.6-6.37,1.55-9.51,2.5-1.08.18-1.75-.14-1.67-1.37,2.6-2.14,6.15-2.61,8.68-4.89,1.18-.34,1.92-1.84,3.43-1.27Z"/>
      <path class="cls-16" d="m61.46,82.91c-.19,1.09.74,1.18,1.37,1.53-.52,1.1-.23,2.39-.99,3.48-2.09,2.97-5.46,2.27-7.64-.33-.64-.76-.97-1.74-2.18-1.7-.81-.5-.29-1.05-.05-1.59.5-.62,1.05-.49,1.61-.1,1.25,1.52,2.06,1.46,2.75-.55.41-1.19.36-2.6,1.39-3.56,1.57-.45,2.92-.2,3.88,1.25.22.55.24,1.08-.14,1.57Z"/>
      <path class="cls-24" d="m52.39,84.47c-.12.47-.24.94-.37,1.4-1.09.83-2.41.5-3.62.73-.32-.04-.64-.08-.95-.13-.6-.09-1.42.11-1.45-.84-.03-.77.49-1.11,1.23-1.21.38-.05.75-.22,1.12-.34,1.52-1.68,2.88-1.69,4.05.39Z"/>
      <path class="cls-12" d="m16.42,7.51c.63,1.47-.92,1.55-1.49,2.12-1.46,1.43-2.86,2.77-4,4.58-2.88,4.57-4.71,9.62-7.22,14.35-.19.35-.47.66-.71.98.6-5.24,2.52-9.91,5.81-14.05,1.22-1.53,2.21-3.25,3.39-4.81,1.09-1.44,2.36-2.71,4.22-3.17Z"/>
      <path class="cls-13" d="m41.57,22.43c-.27-1.03-.62-1.98-1.99-1.39-1.59.69-4.19.67-3.9,3.04.3,2.43,0,4.32-2.01,5.6-2.33,1.47-4.85,2.5-7.71,1.4-.15-.06-.33-.02-.49-.02-2.06-.13-3.74-1-5.07-2.57h.01c.6-.97,1.74-1.24,2.53-1.97.53-.92,1.82-1.15,2.33-2.97-7.18,2.83-11.09,8.27-14.75,13.98-.78,3.08-1.29,6.25-3.05,9-1.21-2.99-.2-5.98.06-8.95.38-4.3.6-8.67,2.93-12.53,2.97-.66,3.44-3.58,4.98-5.53.87-.97,2-1.71,2.57-2.95,3.16-2.67,4.98-2.87,8.78-.88.73.38,1.25.16,1.81-.22.88-.6,1.73-1.25,2.38-2.11.65-.81.9-1.93,1.86-2.51,3.58-.97,4.72,2.65,7.15,3.86,2.26,1.13,2.99,3.35,2.8,5.84-.09.83-.06,1.73-1.21,1.88Z"/>
      <path class="cls-14" d="m20.39,28.49c1.69.86,3.38,1.72,5.07,2.57-.77,1.01-.69,2.21-.52,3.32.46,3.04-.71,5.29-2.86,7.36-1.81,1.74-3.04,3.97-4.13,6.24-.83-.18-.44-1.78-2.02-1.46-.75.15-1.22-1.24-.43-2.36.89-1.27,1.64-2.63,1.83-4.27.19-1.64,1.08-3.23-1.15-4.33-.62-.3-.58-2.17-.03-2.5,1.78-1.05,1.74-3.64,3.87-4.26.14-.04.25-.21.38-.31Z"/>
      <path class="cls-26" d="m31.47,13.59c-.71,1.64-2.46,2.09-3.67,3.16-.38.34-.88.37-1.33-.05-2.57-2.35-3.8-2.48-6.84-.6-.53.33-1.05.43-1.62.48-.23-.13-.86-.09-.56-.48,1.31-1.75,2.36-3.87,4.93-4.1.72-.06,1.06-.45.99-1.14-.08-.79-.73-.9-1.3-.79-1.52.3-3.13.44-4.26,1.69-.63.71-1.27.93-2.47.29,3.43-2.54,7.66-3.17,10.57-6.03.97-.42,1.9-.1,2.84.17.88.6,1.65,1.33,2.49,1.98.26.27.43.6.51.97.42,1.51.21,2.99-.27,4.45Z"/>
      <path class="cls-6" d="m31.47,9.06c-.19-.19-.38-.39-.57-.58-.32-1-1.15-1.46-1.98-1.93-1.04,0-2.09.12-3.02-.53,0-.31,0-.63,0-.94.34-.01.67-.03,1.01-.04,1.22-.56,2.4-1.25,3.82-1.13.34-.03.68-.06,1.01-.12,2.18-.43,3.1.19,3.65,2.45-.54.69-2.11.65-1.53,2.13.47,1.18,1.5,1.55,2.62,1.48,3.32-.2,5.94.96,7.93,3.67,1.92,2.61,1.9,3.58-.38,5.93-.4.41-.65.97-1.18,1.25-.27.09-.48.02-.66-.2.26-3.25-1.59-5.12-4.2-6.52-.43-.23-1-.44-1.18-.82-.81-1.71-2.32-2.02-3.94-2.17-1.05-.22-1.16-1.14-1.42-1.94Z"/>
      <path class="cls-17" d="m7.47,46.52c.92-3.03,1.2-6.28,3.05-9,1.56.99.37,2.35.29,3.43-.1,1.39-.06,2.63.15,4.04.27,1.83-.3,3.99-1.12,5.72-.82,1.73-.23,3.29-.4,4.9-.34,3.22.97,6.21,1.04,9.45-2.99-3.19-3.33-6.91-3.12-10.88.1-1.9.32-3.9-.6-5.72-.47-.94.87-1.15.7-1.95Z"/>
      <path class="cls-7" d="m15.44,19.52c-.3,1.19-.62,2.34-1.21,3.46-.84,1.6-1.97,2.36-3.77,2.07-1.02-2.68.67-5.7,3.42-6.29.85-.19,1.23.12,1.56.77Z"/>
      <path class="cls-28" d="m36.38,80.58c1.02-.29,1.71-1.38,2.91-1.25,1.03.4,2.26.42,3.17,1.57-2.29.75-3.31,2.42-4.05,4.4-.25.68-.34,1.92-1.37,1.77-.99-.14-1.02-1.35-1.44-2.14-.55-1.05.86-2.08-.1-3.06.23-.47,1.07-.53.88-1.29Z"/>
      <path class="cls-21" d="m67.37,77.02c-.22-.81-2.27.17-1.54-1.58.64.53,1.2.03,1.5-.33,1.9-2.39,4.77-2.35,7.35-2.99,1.28-.32,2.65-.3,3.68.84-1.69,1.31-3.38,2.63-5.07,3.94-1.33.15-1.97,1.92-3.55,1.49-1.23.3-1.3-1.4-2.37-1.38Z"/>
      <path class="cls-4" d="m65.93,74.52c-.69-.92-1.66-.6-2.5-.46-3.78.62-4.34.36-6.48-3.09-.17-.28-.7-.45-1.06-.46-1.82-.06-1.71-1.3-1.83-3.35,1.02,1.76,2.2,1.59,3.26,1.78.04.66-.01,1.52.84,1.56,2.51.12,4.73,2.03,7.45,1.1.66-.23,1.7-1.03,2.25-.14.56.91-.44,1.59-1.03,2.23-.28.3-.59.56-.89.83Z"/>
      <path class="cls-1" d="m67.37,77.02c1.66-1.03,1.36,1.3,2.37,1.38-2.02,2.86-5.33,3.35-8.28,4.51-.02-.48-.04-.96-.06-1.44,1.79-.99,3.56-2.01,5.37-2.96.67-.36,1.13-.69.59-1.48Z"/>
      <path class="cls-20" d="m53.27,84.41c.3-3,1.08-3.74,4.06-3.88.69,2.1-.32,4.09-1.44,5.39-1.16,1.34-1.82-.78-2.62-1.51Z"/>
      <path class="cls-18" d="m46.91,1.16c1.81.45,3.24,2.42,5.43,1.39.82.66.91,1.94,2.01,2.36,1.94,1.44,3.63,3.14,5.03,5.11.4,1.14-.21,1.88-.96,2.61-.66.64-.8,1.26.27,1.65,1.95,1.73,1.54,4.21,1.99,6.4.11.52-.35,1.2-.96,1.3-.57.1-.76-.53-.95-.98-.25-.61-.56-1.21-.74-1.83-1.37-4.67-5.63-6.08-9.13-8.54-.93,1.46,1.27,3.17-.78,4.12-1.64-.17-2.04-1.79-2.49-2.78-1.55-3.39-4.76-3.73-7.63-4.74-.91-.32-1.99-.21-2.61-1.17-1.02-.92-1.65-2.75-3.58-1.55-1.17-2.34-.24-4.15,2.5-4.38,3.35-.28,6.7,0,10.04.43.75.61,1.7.42,2.55.61Z"/>
      <path class="cls-3" d="m48.4,14.4c.65-1.52-1.08-2.72-.6-4.22,4.55.81,10.47,4.82,11.97,11.43.35-2.51.03-4.91-1.39-7.12-.64-.52-1.1-1.24-.5-1.91.64-.71,1.4-.13,1.97.34,1.73,1.41,2.75,3.34,3.54,5.34,1.45,3.66,2.37,7.57,1.95,11.45-.6,5.52-3.6,12.37-9.47,14.71-.97.95-2.22,1.02-3.47,1.11-.67.11-1.35.22-2.02.33-.59-1.03.36-1.45.82-2.04,1.5-1.94,2.77-4.01,3.78-6.25.65-1.53,1.67-2.81,2.67-4.11.88-1.14,1.28-2.45,1.52-3.84.06-.33,0-.57-.06-.24,0,.03-.13.03-.2.07-1.66,2.38-4.06,2.73-6.69,2.51-.85-.25-1.73-.45-2.2-1.32-.69-3.6-.07-7.29-.74-10.89-.29-1.55-.57-3.1-.78-4.66-.06-.23-.09-.46-.11-.7Z"/>
      <path class="cls-9" d="m55.87,44.43c1.44-1.9,3.64-2.92,5.08-4.94,4.31-6.06,4.69-12.46,2.39-19.23-1.66-4.88-2.49-5.99-5.07-7.58-.67.64.27,1.2.1,1.81-.43.15-.96.55-1.24-.11-.34-.83.05-1.88.63-2.12,1.14-.46,1.09-1.5,1.6-2.26,5.09,4.05,6.79,9.58,7.29,15.82.43,5.38-2.02,9.73-4.38,14.13-.82,1.54-2.31,2.72-3.33,4.22-.79,1.17-2,.86-3.08.24Z"/>
      <path class="cls-18" d="m26.35,3.53c.37-.33.73-.65,1.1-.98,1.39.27,3.71-1.14,3.56,1.95-1.48-.7-2.59,1.42-4.09.54-.1-.54.07-1.18-.57-1.51Z"/>
      <path class="cls-15" d="m50.34,30.53c.43.77,1.45.41,1.95,1.04-.28-.19.43.35.12.22,0,0-.06.13-.1.2,3.32.78,5.84-.56,6.5-3.47.51-.72.99-1.2,1.03.21.07,2.16-.74,4.03-2.04,5.71-.81,1.04-1.64,2.08-2.46,3.12-1.48,1.97-2.15,4.49-4.24,6.06-2.79,2.1-7.29,1.93-9.28-.46-1.89-2.27-1.1-6.19,1.74-8.61.25-.21.55-.37.79-.6.32-.57.65-1.14.96-1.72,1.08-2.06,1.21-3.52-1.59-4.48-2.31-.8-2.18-3.23-2.16-5.32.36-.6.85-1.14.65-1.93.22-.02.44-.03.67-.05,1.96-.77,3.55-2.17,5.42-3.09,1.75,1.29,1.21,3.22,1.41,4.95.32,2.73-.32,5.54.62,8.22Z"/>
      <path class="cls-27" d="m44.35,33.96c-.17,1.42-1.58,2.01-2.14,3.23-1.21,2.66-1.15,4.73.46,6.14,1.63,1.42,5.42,1.59,7.22.4,1.7-1.11,3.12-2.4,3.81-4.39.27-.79.83-1.42,1.63-1.77-.32,2.6-2.22,4.35-3.47,6.44-.41.68-1.3.99-1.49,1.86-2.06.11-3.9,1.23-6.04,1.11-2.77-.15-4.99-1.66-5.78-4.3-1.22-4.08,1.51-8.2,5.79-8.73Z"/>
      <path class="cls-19" d="m47.88,17.49c-.29.28-.63.53-.84.86-.61.97-.26,3.41-2.63,1.58-.21-.17-.88.68-1.53.53.17-.46.21-1.07.53-1.35.98-.85,2.43-1.56,1.82-3.08-.73-1.81-1.99-3.37-3.68-4.48-1.34-.88-2.81-1.17-4.42-1.05-.81.06-1.72.09-2.43-.23-1.29-.57-1.97-1.64-1.81-3.18.21-1.96,1.83-.33,2.5-1.05,2.73.17,5.2,1.31,7.74,2.18,2.5.86,2.81,3.6,4.24,5.39.32.4.42.85,1.03.78,0,0,.05.06.05.06.4,1.12.61,2.2-.56,3.02Z"/>
      <path class="cls-25" d="m47.88,17.49c.19-1.01.37-2.01.56-3.02,1.74,2.22,1.47,4.99,1.79,7.52.36,2.81.09,5.69.1,8.55-1.32-.29-.94-1.38-.98-2.21-.1-2.46-.32-4.93-.13-7.37.12-1.52-.43-2.49-1.34-3.47Z"/>
    </g>
  </g>
</svg>